<?xml version="1.0" encoding="UTF-8" standalone="no"?><!DOCTYPE svg PUBLIC "-//W3C//DTD SVG 1.1//EN" "http://www.w3.org/Graphics/SVG/1.1/DTD/svg11.dtd"><svg width="100%" height="100%" viewBox="0 0 20834 11730" version="1.1" xmlns="http://www.w3.org/2000/svg" xmlns:xlink="http://www.w3.org/1999/xlink" xml:space="preserve" xmlns:serif="http://www.serif.com/" style="fill-rule:evenodd;clip-rule:evenodd;stroke-linejoin:round;stroke-miterlimit:2;"><g><path d="M0,10506.5c631.508,51.875 1268.98,80.958 1911.59,96.208c-303.913,-16.833 -608.092,-38.542 -912.109,-65.833c-333.537,-29.917 -666.879,-66.542 -999.479,-110.459l0,-6.25c332.946,44 666.633,80.667 1000.51,110.625c371.346,33.292 742.929,58.375 1113.94,76.292c93.425,1.792 186.938,3.417 280.571,4.708c-498.317,-37.083 -1001.23,-90.791 -1505.5,-162.25c-296.275,-41.958 -593.004,-90.083 -889.521,-144.416l0,-6.334c297.075,54.459 594.346,102.667 891.162,144.75c538.459,76.25 1075.38,132.375 1606.73,169.5c106.004,1.292 212.15,2.25 318.404,3c-307.767,-29.5 -618.65,-66.541 -931.596,-111.166c-622.979,-88.875 -1254.08,-207.542 -1884.7,-354.625l0,-6.459c631.171,147.292 1262.84,266.084 1886.38,355.042c335.967,47.917 669.575,87.167 999.488,117.625c113.595,0.667 227.333,1.042 341.216,1.167c-149.72,-17.667 -300.466,-37.375 -452.104,-59.125c-904.779,-130 -1840.99,-332.334 -2774.98,-594.709l0,-6.583c934.542,262.667 1871.34,465.208 2776.65,595.25c169.321,24.333 337.517,46.042 504.413,65.208c118.587,0.084 237.316,-0.083 356.183,-0.458c-1162.45,-163.25 -2404.3,-467.458 -3637.25,-868.708l0,-6.75c1248.44,406.5 2506.05,713.541 3681.05,875.333c122.717,-0.458 245.638,-1.083 368.675,-1.792c-254.508,-41.458 -513.554,-90.291 -776.071,-145.916c-1057.83,-224.167 -2172.21,-558.75 -3273.65,-962.459l-0,-6.875c1102.23,404.167 2217.5,739.125 3276.07,963.459c274.7,58.208 545.537,108.916 811.371,151.541c126.308,-0.791 252.725,-1.75 379.35,-2.708c-597.78,-110.458 -1224.35,-265.125 -1864.42,-454c-855.567,-252.5 -1735.25,-566.042 -2602.37,-916.417l0,-7.083c868.175,351 1749,665 2605.62,917.833c650.733,192 1287.5,348.667 1894.08,459.375c114.583,-0.916 229.291,-1.875 344.124,-2.833l44.792,-0.375c-394.625,-81.375 -803.304,-183.375 -1221.31,-302.625c-1184.6,-337.958 -2443.74,-814.167 -3667.31,-1350.42l0,-7.166c1224.57,536.875 2484.9,1013.67 3670.47,1351.88c427.491,121.958 845.2,225.875 1248.03,308.083c132.458,-1.125 265.042,-2.208 397.792,-3.208c-289.542,-65.75 -587.458,-143.292 -891.709,-231.084c-1407.58,-406.125 -2950.47,-1031.67 -4424.58,-1723.25l0,-7.333c1475.08,692.25 3019.27,1318.5 4427.79,1724.92c312.833,90.25 618.958,169.666 916.125,236.541l34.999,-0.25c107.667,-4.583 215.125,-9.5 322.251,-14.75c-217.001,-54.5 -439,-115.833 -665.125,-183.375c-1582.18,-472.458 -3365.52,-1246.75 -5036.04,-2077l0,-7.458c1671.48,830.917 3456.19,1606.04 5039.33,2078.79c232.542,69.458 460.709,132.333 683.542,187.958c119.167,-5.917 237.958,-12.208 356.417,-18.917c-166.375,-45.791 -335.792,-95.75 -507.917,-149.5c-1732.75,-541.375 -3736.3,-1468.83 -5571.38,-2426.71l-0,-7.625c1836.02,958.667 3841.07,1887 5574.79,2428.67c177.792,55.541 352.709,107 524.292,154.041c43.042,-2.416 85.959,-4.916 128.875,-7.458c68.542,-7 136.75,-14.375 204.667,-22.042c-180.125,-54.25 -364,-113.416 -551.084,-177.125c-1831.24,-623.5 -3967.27,-1675.25 -5881.54,-2717.33l-0,-7.75c1915.22,1042.79 4052.92,2095.67 5885.25,2719.54c191.375,65.166 379.417,125.625 563.458,180.875c107.167,-12.209 213.459,-25.209 318.917,-39.042c-145.041,-47.542 -292.542,-98.417 -442.208,-152.167c-1960.96,-704.291 -4292.15,-1914.38 -6325.42,-3061.75l-0,-7.833c2034.17,1148.08 4367.25,2359.42 6329.25,3064.08c153.5,55.167 304.667,107.125 453.292,155.75c99.541,-13.166 198.417,-26.958 296.416,-41.541c6.75,-1.375 13.459,-2.792 20.167,-4.209c-2150.5,-762.666 -4841.2,-2222.71 -7099.12,-3536.62l-0,-7.917c2261.73,1316.33 4958.58,2780.08 7110.58,3542.13c95.75,-20.084 190.208,-41.417 283.292,-64.042c-2252.88,-862.542 -5087.26,-2471.46 -7393.88,-3849.42l-0,-7.958c2309.84,1380 5150.04,2992.62 7404.25,3854.79c94.167,-23 186.958,-47.25 278.292,-72.917c-2358.62,-967.875 -5337.86,-2728.67 -7682.54,-4160.79l-0,-8.083c2347.37,1433.88 5332.25,3198.46 7692.04,4166.21c64.708,-18.25 128.708,-37.208 191.958,-56.791c24.375,-9.667 48.583,-19.5 72.625,-29.5c-2466.88,-1079.25 -5587.88,-2991.75 -7956.62,-4465.46l-0,-8.166c2370.6,1474.92 5496.67,3390.92 7964.46,4470.29c80.667,-33.75 159.334,-69.333 236.042,-106.708c-2542.96,-1182.42 -5745,-3204.21 -8110.02,-4697.62l-90.479,-57.125l-0,-8.167l96.154,60.709c2365.85,1493.92 5569.64,3516.83 8111.51,4698.71c77.625,-38.042 153.166,-77.958 226.583,-119.75c-2444.38,-1201.08 -5461.9,-3133 -7766.69,-4608.58c-230.054,-147.292 -452.991,-290.001 -667.558,-427l-0,-8.251c216.325,138.126 441.162,282.084 673.275,430.667c2305.4,1476 5324.27,3408.71 7767.56,4609.42c49.958,-28.583 98.916,-58.042 146.791,-88.375c20.458,-16.292 40.709,-32.792 60.584,-49.583l0.208,-0.167c-2350.67,-1215.38 -5194.76,-3061.67 -7430.32,-4513.04c-431.333,-280.042 -840.017,-545.334 -1218.1,-788.584l-0,-8.25c379.717,244.25 790.354,510.833 1223.9,792.291c2235.68,1451.46 5080.23,3298.04 7429.73,4513.13c61.334,-52.125 120,-106.75 175.834,-163.875c-2255.67,-1223.42 -4927.35,-2982.04 -7081.44,-4400.04c-635.805,-418.542 -1226.48,-807.375 -1748.02,-1143.97l-0,-8.279c522.954,337.458 1115.67,727.625 1753.83,1147.71c2153.99,1417.92 4825.76,3176.62 7080.3,4399.83c82.166,-84.459 158.291,-174.375 228,-269.875l0.75,-1l1.458,-0.417l13.875,-4.083c42.542,-76.5 81.209,-156.542 115.876,-240.25l0.499,-1.209l1.501,-0.583c26.916,-11.208 53.749,-22.208 80.582,-33.25c19.042,-67.958 35.584,-138.208 49.584,-210.833l0.209,-1.209l1.332,-0.791c40.334,-23.209 80.667,-46.167 121.042,-68.834c4.667,-56.958 7.917,-115.329 9.625,-175.125l0.042,-1.125l1.042,-0.875c47.167,-37.583 94.583,-74.25 142.124,-110.5c-2.916,-43.791 -6.541,-88.291 -10.958,-133.541l-0.083,-1l0.791,-0.834c48.584,-54.5 97.875,-107.5 147.667,-159.416c-5.083,-28.042 -10.417,-56.334 -16.041,-84.834l-0.167,-0.875l0.459,-0.791c45.207,-74.292 92.082,-145.75 139.916,-215.834c-2.625,-9.541 -5.25,-19.041 -7.917,-28.625l-0.208,-0.75l0.292,-0.666c47.791,-126 99.875,-246.167 155.833,-361c36.5,-167.042 80.792,-324.584 132.583,-472.792c18.375,-172.75 45.667,-335.417 81.875,-487.958c2.334,-178.417 15.126,-345.792 37.959,-502.459c-11.792,-182.5 -11.917,-353.208 -0.75,-512.583c-24.209,-185.584 -35.667,-358.833 -34.709,-519.959c-35.208,-188.374 -56.458,-363.708 -64.166,-526.291c-44.667,-189.667 -74.208,-365.583 -89.376,-528.442c-53.416,-192.045 -90.5,-369.616 -111.999,-533.295c-60.459,-192.084 -103.667,-369.179 -130.417,-531.947c-390.166,-1121.55 -157.125,-1712.41 494.541,-1932.44c1724.75,-582.387 6381.54,1436.7 10159.5,3074.75c116.541,50.545 232.249,100.716 346.999,150.425l0,7.166c-116.209,-50.333 -233.374,-101.15 -351.416,-152.325c-3776.21,-1637.3 -8430.88,-3655.45 -10151.5,-3074.46c-639.667,215.991 -873.543,792.009 -505.501,1881.59c-119.791,-808.671 176.042,-1254.66 763.25,-1436.35c1808.79,-559.671 6383.58,1393.39 10085,2973.63l160.083,68.333l0,7.167l-164.459,-70.209c-3699.83,-1579.53 -8272.5,-3531.7 -10077.3,-2973.28c-594.625,183.979 -888.375,641.291 -751.25,1474.95c29.792,85.663 63.292,174.425 100.501,266.379c-20.209,-728.329 322.083,-1132.56 919.708,-1298.77c1894.75,-526.867 6357.83,1343.77 9972.79,2862.14l0,7.083c-3614.08,-1518 -8078,-3389.52 -9969.71,-2863.49c-600.542,167.003 -941.5,576.333 -913.542,1315.97c37.917,92.75 79.542,188.617 125.084,287.863c74,-652.837 462.916,-1015.9 1074.67,-1164.59c1956.42,-475.566 6192.17,1245.37 9683.5,2686.3l0,7.083c-3490.59,-1440.66 -7727.12,-3162.45 -9680.75,-2687.57c-612.917,148.966 -1000.88,514.703 -1070.46,1173.71c45.334,98.304 94.583,199.892 147.583,304.675c161.917,-588.692 601.001,-913.763 1235.96,-1043.14c2017.83,-411.142 6013.58,1157.25 9367.67,2515.32l0,7.042c-3353.5,-1357.88 -7349.92,-2927.09 -9365.29,-2516.45c-635.292,129.437 -1073.5,456.092 -1232.54,1048.53c52.334,103.242 108.5,209.663 168.375,319.292c247.875,-538.629 746.125,-829.55 1419.83,-936.829c2074.71,-330.425 5812.08,1081.62 9009.62,2349.41l0,7.042c-3197.17,-1267.75 -6935.21,-2680.54 -9007.79,-2350.47c-673.458,107.242 -1170.83,399.025 -1416.67,939.925c58.875,107.542 121.5,218.292 187.791,332.084c339.626,-504.763 915.667,-764.413 1653.67,-844.475c2118.37,-229.809 5570,1020.64 8583,2188.02l0,6.958c-3012.79,-1167.33 -6465,-2418.53 -8581.75,-2188.89c-737.25,79.988 -1312.33,340.1 -1650.33,846.263c65,111.458 133.666,226.041 205.917,343.625c450.583,-490.709 1139.62,-719.417 1984.5,-761.684c2131.92,-106.641 5255.92,975.017 8041.67,2027.02l0,6.917c-2785.75,-1052.08 -5910.33,-2134.38 -8041.08,-2027.8c-843.792,42.2 -1531.58,271.171 -1980.75,762.587c70.833,115.209 145.333,233.459 223.25,354.625c604.333,-502.333 1471.96,-693.624 2497.21,-675.125c2081.21,37.542 4810.96,939.417 7301.38,1853.38l0,6.916c-2490.62,-914.166 -5221.08,-1816.62 -7301.58,-1854.17c-1023.75,-18.458 -1889.96,172.875 -2492.83,675.5c47.75,74.209 96.708,149.417 147.208,225.959c30.834,46.75 61.084,92.875 91.25,138.916c846.042,-551.416 2020.08,-677.291 3357.17,-545.916c1896.04,186.333 4119.5,889.833 6198.79,1628.88l0,6.874c-2079.79,-739.333 -4304,-1443.33 -6199.92,-1629.62c-1335.29,-131.209 -2507.58,-5.334 -3352,546c84.25,128.666 166.083,254.875 245.166,378.333c1274.17,-666.708 3025.21,-631.791 4922.29,-263.333c1426.08,277.041 2934.54,742.416 4384.46,1239.46l0,6.792c-1450.67,-497.334 -2960,-963.167 -4386.71,-1240.29c-1894.92,-368.042 -3643.96,-402.875 -4916.21,263.458c85.333,133.209 167.375,263.167 246.791,390.459c2200.54,-940.751 5287.42,-320.625 8269.63,607.124c263.208,81.876 525.625,166.167 786.499,251.959l0,6.75c-262.042,-86.167 -525.584,-170.833 -789.957,-253.083c-2979.96,-927.084 -6064.42,-1546.79 -8262.46,-606.792c85.209,136.667 167.251,270.208 245.792,400.084c2538.67,-896.917 5747.54,-224.292 8806.62,734.874l0,6.709c-3058.12,-959.042 -6266.08,-1632 -8803.08,-735.667c84.292,139.542 164.875,275.334 241.542,407.25c1383.04,-406.792 2852.21,-460.833 4351.46,-298.292c1392.5,150.959 2810.88,488.751 4210.08,903.834l0,6.666c-1399.71,-415.375 -2818.54,-753.417 -4211.38,-904.416c-1497.62,-162.375 -2965.25,-108.417 -4346.79,297.916c82.791,142.5 161.25,280.542 235.375,414.292c1451.75,-356.667 2902.33,-421.25 4348.75,-292.959c1329.04,117.876 2654.5,398.584 3974.04,765.167l0,6.584c-1319.96,-366.834 -2645.79,-647.75 -3975.08,-765.667c-1445,-128.167 -2894.17,-63.625 -4344.54,292.625c80.376,145.083 155.459,284.833 225.834,419.792c1521.08,-311.834 2957.12,-388.084 4355.79,-293.167c1264.88,85.833 2499.08,311.708 3738,629.667l0,6.541c-1239.29,-318.208 -2473.75,-544.25 -3738.79,-630.083c-1397.42,-94.875 -2832.21,-18.667 -4352,292.833c76.667,147.167 147.624,288.584 212.666,424c1593.83,-271.041 3020.13,-359.833 4376.16,-297.625c1199.8,55.042 2344.59,228.292 3501.96,497.834l0,6.458c-1157.62,-269.75 -2302.58,-443.083 -3502.5,-498.125c-1354.96,-62.208 -2780.17,26.5 -4372.79,297.292c71.75,149.5 136.417,291.833 194.376,427.333c1673.75,-233 3096.08,-335.25 4415,-305.413c1133.71,25.58 2191,148.788 3265.92,370.121l0,6.417c-1075.12,-221.542 -2132.41,-344.792 -3266.21,-370.412c-1317.96,-29.796 -2739.42,72.37 -4412.17,305.204c64.875,151.958 121,295 169.084,429.833c3228.21,-359.083 5320.08,-451.708 7509.29,-68.292l0,6.375c-2188.62,-383.541 -4279.79,-291.041 -7507.17,67.917c55,154.708 99.125,298.333 132.833,431.292c215.541,-18.292 425.375,-36.25 629.75,-53.75c2981.24,-255.125 4818.92,-412.292 6744.58,-143.167l0,6.333c-1925.33,-269.291 -3762.5,-112.208 -6743.58,142.917c-204.208,17.5 -413.833,35.458 -629.208,53.708c39.999,158.875 65.124,302.417 76.083,431.459c1097.58,-64.875 2032.04,-138.834 2856.83,-204.084c1821.83,-144.166 3109.29,-246.041 4439.88,-114.541l0,6.25c-1330.29,-131.584 -2617.37,-29.75 -4438.92,114.375c-824.916,65.291 -1759.46,139.25 -2857.21,204.125c13.667,167 3.5,309.416 -28.583,429.041c1805.33,-57.75 3147.79,-180.916 4257.67,-282.75c1196.33,-109.75 2122.62,-194.666 3067.04,-146.333l0,6.208c-944.083,-48.375 -1870,36.5 -3065.96,146.209c-1110.46,101.916 -2453.71,225.125 -4260.33,282.875c-63.124,228.333 -207.166,372.666 -419.833,444.458c-191.625,64.708 -439.375,70 -733.041,25.542c-139.292,8.5 -294.75,-0.334 -464.709,-24.959c-140.583,7.292 -296.125,-1.541 -464.999,-24.916c-141.834,6.125 -297.542,-2.709 -465.459,-24.917c-143.333,5 -299.375,-3.792 -466.709,-25c-144.999,3.958 -301.708,-4.833 -468.833,-25.167c-147.041,3.042 -304.917,-5.75 -472.375,-25.333c-146.541,1.917 -302.291,-6.292 -466.875,-24.5c-151.458,1.208 -311.75,-7.375 -480.337,-25.458c-152.538,0.125 -312.955,-8.584 -480.829,-25.875c-152.667,-0.709 -312.417,-9.459 -478.501,-25.667c-156.041,-1.417 -318.541,-10.208 -486.833,-25.917c-158.458,-2.125 -322.583,-10.958 -491.916,-26.041c-161.542,-2.834 -328.125,-11.709 -499.209,-26.25c-165.5,-3.5 -335.375,-12.417 -509.166,-26.459c-170.626,-4.166 -345,-13.208 -522.751,-26.833c-177.208,-4.75 -357.624,-13.875 -540.874,-27.208c-184.375,-5.292 -371.334,-14.417 -560.542,-27.292c-196.133,-5.75 -394.317,-14.917 -594.112,-27.458c-210.076,-6 -421.43,-14.959 -633.792,-26.917c-230.221,-5.833 -460.842,-14.208 -691.684,-25.375c-711.066,-13.75 -1416,-43.208 -2113.66,-100.5l-0,-6.208Zm4843.92,108.875c-104.001,0.875 -207.875,1.708 -311.709,2.541c24.667,4.459 49.333,8.834 73.917,13.167c114.542,-2.875 228.792,-6.208 342.792,-9.958c-10.5,-2.084 -21.042,-4.25 -31.542,-6.375l-73.458,0.625Zm-345.209,2.833c-124.916,0.958 -249.625,1.917 -374.237,2.708c38.183,6.042 76.279,11.917 114.237,17.584c112.163,-1.75 224.125,-4 335.875,-6.709c-25.25,-4.458 -50.541,-8.958 -75.875,-13.583Zm-412.241,3c-120.559,0.75 -240.959,1.375 -361.259,1.833c49.871,6.75 99.559,13.167 149.105,19.375c108.954,-0.625 217.766,-1.791 326.395,-3.375c-37.966,-5.75 -76.05,-11.75 -114.241,-17.833Zm-406.304,2c-114.971,0.375 -229.83,0.625 -344.517,0.667c59.404,6.625 118.666,12.916 177.721,18.916c104.666,0.375 209.212,0.375 313.604,-0.125c-48.788,-6.25 -97.713,-12.708 -146.808,-19.458Zm-399.759,0.625c-107.125,-0.083 -214.112,-0.292 -320.971,-0.792c65.809,5.792 131.454,11.292 196.921,16.417c98.071,1.417 196.038,2.417 293.892,3c-56.45,-5.917 -113.075,-12.125 -169.842,-18.625Zm-395.258,-1.25c-93.121,-0.5 -186.15,-1.208 -279.067,-2.167c66.604,4.334 133.063,8.292 199.471,12.042c85.35,2.167 170.658,4 255.875,5.5c-58.642,-4.875 -117.388,-9.958 -176.279,-15.375Zm-387.859,-3.417c-52.799,-0.625 -105.57,-1.291 -158.312,-2.083c90.517,3.667 180.954,6.917 271.375,9.75c-37.65,-2.417 -75.342,-5 -113.063,-7.667Zm3047.84,-15.416c68.5,-0.459 137,-0.875 205.542,-1.25c-9.625,-2.375 -19.292,-4.792 -28.917,-7.209c-58.792,2.917 -117.667,5.75 -176.625,8.459Zm231.375,-1.417l2,0c99.042,-7.875 197.458,-16.458 295.333,-25.667c-109.791,6.167 -219.917,12.042 -330.333,17.542c11,2.75 22,5.458 33,8.125Zm82.666,-0.417c104.876,-0.5 209.834,-0.875 314.876,-1.083c4.208,-0.542 8.416,-1.042 12.625,-1.542c-24.709,-6.583 -49.5,-13.291 -74.334,-20.041c-83.958,8.083 -168.333,15.583 -253.167,22.666Zm366.792,-1.208c113.542,-0.167 227.25,-0.167 341,0.042c15.875,-2.542 31.792,-5.084 47.625,-7.709c-35.041,-10.041 -70.25,-20.375 -105.541,-30.791c-93.417,13.875 -187.75,26.708 -283.084,38.458Zm379.209,0.167l37.416,0.083l-14.041,-3.958c-7.75,1.333 -15.625,2.583 -23.375,3.875Zm61.291,0.166c97.417,0.334 194.917,0.834 292.459,1.542c27.166,-5.625 54.083,-11.458 80.917,-17.458c-43.584,-13.334 -87.334,-26.959 -131.376,-40.917c-87.083,18.167 -175.583,34.875 -265.333,50.208l23.333,6.625Zm321.584,1.75c37.875,0.292 75.75,0.625 113.625,1c-16.583,-5 -33.084,-9.875 -49.75,-14.916c-21.167,4.75 -42.5,9.375 -63.875,13.916Zm136.749,1.209c74.5,0.708 149.001,1.583 223.584,2.583c38.875,-9.875 77.334,-20.208 115.292,-31.083c-50.75,-16.542 -102.167,-33.917 -153.625,-51.375c-80.167,22.375 -161.959,42.958 -245.334,61.833c20.084,6.083 40.084,12.042 60.083,18.042Zm247.667,2.958c66.667,0.917 133.375,1.958 200.126,3.125c-32.626,-10.292 -65.126,-20.5 -97.959,-31.083c-33.709,9.666 -67.75,19 -102.167,27.958Zm221.167,3.5c47.625,0.875 95.25,1.792 142.917,2.75c50.458,-15.333 99.958,-31.708 148.458,-49.125c-57.458,-19.875 -115.541,-40.458 -173.917,-61.458c-73.416,26.458 -148.833,50.875 -226.041,73.333c36.416,11.75 72.5,23.125 108.583,34.5Zm163.5,3.208c98.667,2.084 197.375,4.459 296.125,7.167c-52.375,-17.333 -105.167,-35.083 -158.375,-53.417c-45.084,16.292 -90.959,31.75 -137.75,46.25Zm316.5,7.75l50.292,1.417c62.083,-22.083 122.333,-46.083 180.666,-72.083c-63.625,-23.209 -127.875,-47.125 -192.666,-71.75c-67.084,30.708 -136.459,59.041 -208.001,85.125c57.001,19.625 113.667,38.833 169.709,57.291Zm68.292,1.959c87.583,2.583 175.25,5.416 262.875,8.541c35.708,1.25 71.041,2.459 106.375,3.667c5.083,-2.083 10.166,-4.125 15.208,-6.25c-70.208,-24.208 -141.042,-49.25 -212.75,-75.333c-55.542,24.916 -112.792,48 -171.708,69.375Zm262.5,14.666c-92.875,-3.291 -185.709,-6.291 -278.5,-9c-4.5,1.625 -9,3.25 -13.542,4.792c72.583,23.625 144.292,46.208 215.125,67.708c58.292,-18.291 114.958,-38.333 169.792,-60.291c-30.958,-1.084 -61.709,-2.084 -92.875,-3.209Zm-296.542,-9.5l-13.292,-0.375c2.542,0.834 5,1.584 7.542,2.417l5.75,-2.042Zm-34.792,-1c-111.666,-3.125 -223.25,-5.791 -334.792,-8.125c-19.832,6 -39.749,11.959 -59.875,17.667c68.209,20.958 135.626,40.958 202.334,60.125c72.708,-18.875 143.333,-40 211.833,-63.417c-6.541,-2.125 -12.916,-4.083 -19.5,-6.25Zm-355.458,-8.541c-34.542,-0.709 -69.042,-1.375 -103.542,-2.042c17.584,5.542 35.375,11.292 52.875,16.667c16.959,-4.75 33.875,-9.625 50.667,-14.625Zm-124.542,-2.417c-81.125,-1.458 -162.208,-2.708 -243.292,-3.833c-35.416,9 -71.166,17.625 -107.291,25.875c63.541,18.333 126.541,36.041 188.833,52.875c76.792,-16.292 151.75,-34.542 224.792,-54.875c-20.833,-6.459 -42.083,-13.417 -63.042,-20.042Zm-267.833,-4.167c-59.75,-0.75 -119.542,-1.458 -179.292,-2.083c28.125,8.375 56.125,16.583 84,24.667c32.042,-7.209 63.834,-14.709 95.292,-22.584Zm-202.458,-2.333c-54.209,-0.5 -108.459,-0.958 -162.626,-1.333c-51.749,10.666 -104.083,20.666 -156.916,30.125c58.708,15.875 117.042,31.25 174.75,45.875c81.208,-13.834 160.833,-29.417 238.875,-46.792c-31.208,-9.083 -62.625,-18.417 -94.083,-27.875Zm-193.375,-1.583c-80.375,-0.542 -160.667,-0.959 -240.959,-1.25c33.708,9.458 67.209,18.666 100.625,27.75c47.25,-8.292 94,-17.167 140.334,-26.5Zm-264.875,-1.334c-32.209,-0.125 -64.417,-0.208 -96.625,-0.25c-68.584,11.084 -137.834,21.375 -207.792,30.834c53.417,13.5 106.458,26.5 159.167,39c86.291,-11.542 171.333,-24.542 254.917,-39.084c-36.376,-9.958 -72.917,-20.125 -109.667,-30.5Zm-135,-0.333c-96.625,-0.125 -193.125,-0.125 -289.584,-0c34.833,9.167 69.542,18.125 104.083,26.875c62.376,-8.333 124.209,-17.25 185.501,-26.875Zm-314.25,0.042l-40.542,0.083c-86.292,10.25 -173.292,19.708 -261.083,28.25c47.541,11.125 94.833,21.875 141.833,32.292c91.75,-9.292 182.458,-19.709 272,-31.5c-37.25,-9.5 -74.625,-19.167 -112.208,-29.125Zm-95.084,0.208c-106.416,0.292 -212.833,0.75 -319.125,1.25c31.375,7.667 62.625,15.125 93.792,22.458c75.667,-7.25 150.792,-15.166 225.333,-23.708Zm-428.041,1.875c-104.167,0.625 -208.292,1.292 -312.292,2.083l-8.25,0.334c22.75,5.083 45.458,10.083 68.125,15c84.541,-5.334 168.667,-11.125 252.417,-17.417Zm-500.334,3.5c-81.5,0.667 -162.958,1.333 -244.333,2.042c9.625,1.916 19.208,3.833 28.792,5.75c71.958,-2.417 143.791,-5 215.541,-7.792Zm3335.46,23.667l20.917,0.708l-12.375,-4.25c-2.834,1.208 -5.709,2.375 -8.542,3.542Zm41.375,1.416c113.5,3.834 225.749,7.459 336.958,10.834c17.375,-8.125 34.541,-16.417 51.5,-25c-74.667,-27.125 -150.375,-55.459 -226.875,-84.792c-59.458,32.917 -121.583,63.042 -186.25,90.5c8.25,2.833 16.5,5.667 24.667,8.458Zm352.041,11.292c39.001,1.167 78.084,2.375 116.75,3.458c-23.75,-8.458 -47.624,-17 -71.583,-25.666c-14.875,7.541 -29.958,14.958 -45.167,22.208Zm136.459,4.042c84.5,2.416 168.208,4.666 251.333,6.833c26.334,-14 52.042,-28.667 77.125,-44c-79.25,-30.208 -159.583,-61.667 -240.958,-94.375c-54.292,36.875 -111.5,70.708 -171.5,101.583c28.167,10.209 56.083,20.084 84,29.959Zm265.249,7.166c64.917,1.667 129.584,3.292 193.709,4.75c-40.375,-14.875 -81.209,-30.333 -122.208,-45.958c-23.292,14.292 -47.125,28.042 -71.501,41.208Zm212.001,5.167c60.541,1.417 120.833,2.792 180.625,4.042c32.916,-19.959 64.417,-41.334 94.874,-63.834c-83.125,-33.208 -167.333,-67.666 -252.833,-103.625c-49.042,41.042 -101.333,78.709 -156.708,113.125c44.958,17.084 89.791,34.042 134.042,50.292Zm197.875,4.417c85.583,1.791 170.374,3.416 254.5,4.958c-54.876,-21 -110.25,-42.583 -166.209,-64.875c-28.416,21.042 -57.791,41.042 -88.291,59.917Zm271.666,5.25c41.959,0.75 83.792,1.458 125.417,2.125c36.709,-25.625 71.5,-53.292 104.417,-82.917c-87.167,-36.333 -175.834,-74.375 -265.708,-113.792c-43.75,45.459 -91.084,87.167 -141.834,125.292c59.875,23.833 119.166,46.958 177.708,69.292Zm142.126,2.375c102.083,1.666 203.208,3.125 303.083,4.375c-67.376,-26.709 -135.5,-54.375 -204.626,-83.084c-31.124,28.042 -64.041,54.167 -98.457,78.709Zm319.624,4.583c28.209,0.333 56.042,0.625 84.083,0.917c38.292,-31.084 74.126,-64.792 107.292,-101.292c-92.333,-40.042 -186.125,-81.792 -281.458,-125.375c-38.292,49.875 -80.125,96.125 -126,138.125c73.041,30.333 145.042,59.542 216.083,87.625Zm95.375,1.042c115.625,1.25 230.001,2.25 342.875,3c-78.666,-32.334 -158.458,-66.042 -239.583,-101.209c-32.042,35.292 -66.542,67.917 -103.292,98.209Zm358.709,3.083l50.417,0.333c99.041,-94.083 176.708,-210.583 230.666,-351.541c-123.792,4.25 -249.292,8.333 -376.541,12.25c-42.584,87.291 -94.626,164.916 -155.709,233.083c85.125,36.875 168.75,72.083 251.167,105.875Zm60.999,0.375c139.334,0.792 276.542,1.167 411.542,1.167c87.875,-98.667 153.792,-220.292 195.584,-366.875c-124.334,4.791 -250.542,9.375 -378.459,13.791c-53.542,140.834 -130.458,257.5 -228.667,351.917Zm421.626,1.167c139.874,-0.042 277.25,-0.542 412.667,-1.334c76.666,-103.125 130.916,-229.583 160.833,-381.25c-124.667,5.292 -251.292,10.459 -379.708,15.417c-41.459,146.375 -106.709,268.167 -193.792,367.167Zm421.958,-1.375c140.125,-0.875 277.959,-2.125 413.417,-3.75c65.458,-107.459 108.333,-238.459 126.708,-394.792c-124.917,5.833 -251.75,11.5 -380.542,17c-29.708,151.5 -83.541,278.083 -159.583,381.542Zm422.333,-3.875c140.333,-1.709 278.042,-3.875 413.5,-6.375c54.209,-111.625 85.876,-246.834 93.042,-407.25c-125,6.333 -251.916,12.541 -380.958,18.583c-18.167,156.167 -60.709,287.292 -125.584,395.042Zm421.833,-6.5c140.043,-2.625 277.709,-5.584 412.709,-9c43.25,-115.709 64.166,-254.584 60.667,-418.709c-124.958,6.875 -251.917,13.625 -381,20.167c-7.126,160.333 -38.542,295.542 -92.376,407.542Zm420.834,-9.209c139.833,-3.541 276.958,-7.458 411.542,-11.75c32.416,-119.375 42.708,-261.75 28.999,-428.875c-124.708,7.375 -251.499,14.625 -380.499,21.709c3.625,164.041 -17.209,302.958 -60.042,418.916Zm409.959,-5.541c-134.834,4.291 -272.251,8.208 -412.375,11.75c-77.834,205.208 -226.042,337.208 -434.584,405.416c-81.041,26.5 -171.208,43.334 -269.833,51.167c279.958,39.708 516.583,32.583 701,-29.667c210.166,-70.958 352.833,-213.375 415.792,-438.666Zm-420.501,11.958c-135.125,3.375 -272.917,6.375 -413.125,8.958c-90.666,184.417 -242.75,304.917 -447.458,369.5c-34.708,10.917 -71.375,19.709 -109.042,27.5c84.5,18.75 165.792,34.084 243.917,45.917c108.625,-6.708 207.792,-23.5 295.708,-52.25c205.875,-67.333 352.501,-197.5 430,-399.625Zm-421.541,9.125c-135.751,2.5 -273.75,4.667 -414.417,6.375c-93.458,151.917 -231.834,257 -409.5,320.333c89.708,25.417 176.583,47.709 260.417,66.625c41.917,-8.166 82.708,-17.541 120.958,-29.625c202.042,-63.708 352.417,-182.291 442.542,-363.708Zm-423.334,6.458c-135.624,1.667 -273.708,2.875 -414.041,3.75c-71.875,95.834 -163.084,171.417 -271.834,228.5c94.208,31.292 185.792,59.709 274.625,85c178.375,-62.125 317.334,-166.208 411.25,-317.25Zm-423.291,3.792c-135.834,0.792 -273.626,1.292 -413.959,1.292c-41.75,46.541 -88.5,87.875 -139.875,124.375c96.501,35.916 190.667,69.25 282.333,99.833c108.459,-56.208 199.626,-130.75 271.501,-225.5Zm-424,1.292c-135.25,-0 -272.792,-0.417 -412.333,-1.209c-3.918,3.667 -7.751,7.417 -11.709,11c97.541,39.584 193,76.792 286.333,111.667c50.459,-35.708 96.458,-76.083 137.709,-121.458Zm-422.917,-1.25l-28.667,-0.167l20.125,8.208c2.917,-2.625 5.667,-5.375 8.542,-8.041Zm-44.5,-0.292c-120.25,-0.75 -242.167,-1.792 -365.625,-3.167c-7.75,6.292 -15.584,12.459 -23.5,18.459c94.125,36.583 186.083,70.708 276.375,103c51.833,-31.167 99.875,-66.25 143.875,-105.584c-10.375,-4.25 -20.708,-8.416 -31.125,-12.708Zm-376.875,-3.25c-20.25,-0.25 -40.375,-0.417 -60.75,-0.708c13.542,5.333 27.25,10.958 40.709,16.166c6.749,-5.083 13.458,-10.208 20.041,-15.458Zm-77.167,-0.875c-107.75,-1.292 -216.916,-2.875 -327.249,-4.667c-13.168,9.25 -26.918,17.875 -40.543,26.625c89.75,33.375 178.167,65.25 264.501,94.709c55.167,-28.334 106.875,-60.334 154.916,-96.209c-17.042,-6.625 -34.458,-13.666 -51.625,-20.458Zm-344.416,-4.917c-33.292,-0.541 -66.667,-1.125 -100.167,-1.708c21.917,8.292 43.375,16.167 65.084,24.25c11.749,-7.458 23.666,-14.75 35.083,-22.542Zm-117.292,-2.041c-92.666,-1.625 -186.125,-3.459 -280.542,-5.417c-20.167,12.25 -40.875,23.917 -61.917,35.25c85.834,30.375 170.209,59 253.125,86c58.417,-25.542 113.418,-54.792 165.334,-87.25c-25.25,-9.458 -50.542,-18.833 -76,-28.583Zm-297.791,-5.792c-50.709,-1.083 -101.834,-2.25 -153.043,-3.417c32.459,11.875 64.667,23.417 96.709,34.792c19.041,-10.125 38,-20.417 56.334,-31.375Zm-171.751,-3.833c-73.625,-1.709 -147.792,-3.542 -222.458,-5.459c-29.125,15.417 -59.083,30.084 -89.75,43.917c82.667,27.917 163.959,54.25 243.917,79.042c61.875,-23.084 120.958,-49.084 176.875,-78.5c-36,-12.75 -72.042,-25.584 -108.584,-39Zm-236.583,-5.792c-73.208,-1.917 -146.958,-3.958 -221.208,-6.042c45.708,16.125 91.208,31.917 136.166,47.167c29,-13 57.375,-26.75 85.042,-41.125Zm-240.75,-6.583c-49.125,-1.375 -98.75,-2.875 -148.375,-4.417c-41.166,19.083 -83.5,36.958 -127.083,53.5c79.999,25.625 158.75,49.833 236.291,72.625c64.959,-20.625 127.334,-44.042 186.875,-70.417c-48.749,-16.5 -98.083,-33.708 -147.708,-51.291Zm-163.458,-4.875c-100.667,-3.042 -202.083,-6.292 -304.584,-9.75c61.5,20.916 122.371,41.041 182.584,60.416c41.75,-15.708 82.458,-32.583 122,-50.666Zm-325.042,-10.459c-18.167,-0.583 -36.417,-1.25 -54.667,-1.875c-56.499,23 -114.833,44 -174.958,63.084c76.458,23.125 151.958,45.25 226.334,65.916c68.203,-18.291 133.999,-39.166 197.374,-62.666c-63.999,-20.667 -128.666,-42.125 -194.083,-64.459Zm272.834,-968.083c10.874,5.917 21.75,11.875 32.582,17.75c6.25,-4.917 12.334,-9.958 18.543,-14.875c66.583,-85.708 127.291,-177 181.708,-274.042l-4.75,1.417c-69.792,95.458 -145.959,185.333 -228.083,269.75Zm44.291,24.083c33.959,18.334 67.583,36.292 101.417,54.417c28.167,-41.25 54.958,-83.833 80.292,-127.792c-43.542,8.667 -87.084,17.375 -130.918,26.167c-12.166,10 -24.583,19.792 -36.958,29.625c-4.583,5.875 -9.166,11.75 -13.833,17.583Zm108.417,58.167c50.5,27.083 100.833,53.875 150.916,80.417c48.958,-79.084 92.542,-163.5 130.584,-253.292c-65.5,12.917 -131.5,26.042 -197.708,39.25c-26.417,46 -54.376,90.583 -83.792,133.625Zm157.958,84.125l11.375,6l244.709,-30.458c41.708,-86.959 77.291,-180.042 106.416,-279.5c-75.959,14.875 -152.291,29.833 -229.209,45c-38.666,91.958 -83.166,178.208 -133.291,258.958Zm20.916,11.042c56.667,29.916 113.042,59.458 169.084,88.583c22.25,-37.833 43.209,-76.958 62.834,-117.458l-231.918,28.875Zm176.209,92.291c74.083,38.5 147.584,76.292 220.5,113.375c10.958,-18.625 21.542,-37.583 31.792,-56.958c35.458,-66.917 66.708,-138.125 93.541,-213.708l-148.374,18.5l-132.043,16.416c-20.374,42.25 -42.208,83.042 -65.416,122.375Zm227.625,117.042c10.833,5.5 21.708,11.083 32.5,16.542c94,-6.292 187.167,-12.625 279.458,-18.959c3.792,-7.833 7.5,-15.75 11.126,-23.75c40.041,-87.791 72.791,-182.958 97.916,-285.833l-293.5,36.542c-27.167,76.791 -58.791,149.083 -94.792,217c-10.5,19.875 -21.416,39.291 -32.708,58.458Zm43.25,22c67.5,34.167 134.458,67.708 200.875,100.542c23.208,-37.834 44.791,-77.375 64.75,-118.584c-87.792,6.042 -176.334,12.042 -265.625,18.042Zm208.083,104.125c87.959,43.458 174.667,85.375 260.667,126.458c54.709,-81.583 100.5,-172.333 137.291,-272.291c-109.124,7.708 -219.416,15.375 -330.958,23.041c-20.583,42.709 -42.958,83.667 -67,122.792Zm270,130.917c27.334,13.041 54.876,26.333 82,39.125c85.667,-2.042 170.709,-4.209 254.876,-6.459c59.375,-97.958 105.624,-209.458 138.874,-334.333c-111.041,8.042 -223.208,16.083 -336.749,24.125c-37.043,102.042 -83.417,194.5 -139.001,277.542Zm94.417,44.958c59.708,28.167 118.75,55.542 177.333,82.375c21.501,-28.292 42,-57.583 61.042,-88.417c-78.75,2.084 -158.291,4.125 -238.375,6.042Zm187.25,86.833c95.542,43.667 189.5,85.542 282,125.709c60.333,-67.167 111.792,-143.625 154,-229.625c-122.375,3.75 -246.25,7.333 -371.917,10.708c-19.875,32.625 -41.458,63.458 -64.083,93.208Zm1945.17,675.084c-73.708,-11.875 -150.291,-26.875 -229.499,-44.75c-55.667,10.833 -114.251,18.583 -176.042,22.833c146.792,19.833 282.25,27.333 405.541,21.917Zm-244.957,-48.209c-82.292,-18.875 -167.584,-40.916 -255.501,-65.958c-13,4.542 -26.208,8.875 -39.666,12.958c-43.084,13 -89.001,23.042 -136.208,31.625c82.958,17.542 163.041,32 240.124,43.209c67.251,-3.542 131.042,-10.75 191.251,-21.834Zm-266.584,-69.083c-88.042,-25.208 -178.792,-53.458 -272.083,-84.5c-50.833,26.167 -105.584,48.25 -163.875,66.542c87.708,23.666 172.875,44.458 255.208,62.208c51.833,-8.917 101.916,-19.667 148.791,-33.833c10.834,-3.292 21.376,-6.834 31.959,-10.417Zm-281,-87.458c-91.208,-30.459 -184.916,-63.667 -280.792,-99.417c-47.166,33 -98.292,61.833 -153.041,86.792c91.583,29.041 180.708,55.375 267.333,78.958c59.291,-18.125 114.833,-40.125 166.5,-66.333Zm-288.709,-102.334c-93.041,-34.791 -188.166,-71.916 -285.375,-111.333c-43.75,39.292 -91.541,74.375 -142.999,105.583c93.541,33.292 184.833,64.084 274,92.5c55.292,-24.833 106.833,-53.708 154.374,-86.75Zm-877.583,-367.541c-61.792,-28.292 -124.125,-57.167 -187.166,-86.917c-38.042,0.875 -76.25,1.833 -114.625,2.667c-28.417,38.25 -59.042,74.208 -91.501,108.25c90.126,39.541 179.043,77.666 266.459,114.125c46.125,-42.042 88.333,-88.167 126.833,-138.125Zm-199.417,-92.792c-23.916,-11.292 -48.082,-22.917 -72.124,-34.375c-8.417,12.417 -17.042,24.667 -25.834,36.667c32.75,-0.75 65.417,-1.5 97.958,-2.292Zm-81.457,-38.833c-85.917,-41.042 -172.543,-82.875 -260.417,-126.292c-35.959,57.875 -75.667,111.875 -119.042,162.125c9.25,4.25 18.375,8.333 27.583,12.542c108.709,-2.167 216.251,-4.5 322.667,-6.917c10.042,-13.542 19.667,-27.417 29.209,-41.458Zm-267.626,-129.875c-69.25,-34.209 -139.208,-69.292 -209.708,-104.959l-46.75,3.125c-32.667,52.959 -68.25,103 -106.583,150.209c82.166,39 163.541,77.125 243.916,114c43.417,-50.292 83.167,-104.375 119.125,-162.375Zm-220.458,-110.459c-7.833,-3.958 -15.709,-8 -23.541,-11.958c-2.834,4.708 -5.584,9.417 -8.459,14.125l32,-2.167Zm-30.75,-15.625c-72.875,-37.041 -146.417,-74.833 -220.459,-113.333c-2.999,5.042 -6.041,10.083 -9.083,15.083c-29.208,47.875 -60.583,93.584 -94,137.25c105.167,-6.833 209.375,-13.666 312.5,-20.541c3.751,-6.125 7.417,-12.292 11.042,-18.459Zm-227.583,-117c-58.584,-30.458 -117.542,-61.375 -176.834,-92.666l-19.208,2.375c-14.167,22.375 -28.792,44.333 -43.792,65.833c-25.083,35.875 -51.374,70.542 -78.791,104.083c54.333,27.167 108.375,53.959 162.041,80.292l50.292,-3.25c34.375,-44.583 66.541,-91.333 96.459,-140.333c3.291,-5.417 6.582,-10.875 9.833,-16.334Zm-186.417,-97.708l-3.708,-1.958l-1.626,2.625l5.334,-0.667Zm-10.75,-5.708c-50.166,-26.542 -100.583,-53.375 -151.25,-80.5c-25.834,37.458 -52.792,73.791 -80.917,109.041c-2.167,2.75 -4.416,5.459 -6.666,8.209l234.041,-29.125c1.583,-2.542 3.209,-5.042 4.792,-7.625Zm-158.209,-84.25c-33.958,-18.209 -67.75,-36.209 -101.833,-54.625c-48.499,60.708 -100,118.541 -154.421,173.583c16.713,8.583 33.421,17.167 50.088,25.667c7.333,-3.542 14.792,-6.959 22.125,-10.5l0.75,-0.375l0.916,-0.125l90.709,-11.25c3.417,-4.209 6.875,-8.375 10.25,-12.584c28.291,-35.5 55.416,-72.083 81.416,-109.791Zm-114.957,-61.75c-10.542,-5.709 -21.167,-11.5 -31.792,-17.292c-55.833,57.083 -114.417,111.667 -175.667,163.792l2.666,1.375c70.621,-47.25 139.001,-96.459 204.793,-147.875Zm4661.29,522.166c-11,-128.875 -36.166,-272.375 -76.25,-431.208c-117.25,9.958 -236.208,20 -356.916,30.167c32.333,155.958 49.833,296.708 53,422.75c128.874,-7.125 255.541,-14.375 380.166,-21.709Zm-77.792,-437.291c-33.791,-132.834 -77.958,-276.375 -133.042,-431.084c-110.874,12.375 -223.457,25.084 -337.124,38.042c48.625,152.083 86.25,292.917 113.5,423.208c120.625,-10.166 239.5,-20.208 356.666,-30.166Zm-135.167,-437.042c-48.125,-134.792 -104.25,-277.708 -169.207,-429.625c-105.626,14.708 -212.168,29.917 -319.792,45.667c59.125,149.208 109.749,289.791 152.125,421.958c113.542,-12.958 226.083,-25.708 336.874,-38Zm-171.791,-435.542c-57.958,-135.416 -122.667,-277.666 -194.458,-427.125c-100.626,17.167 -201.833,34.959 -303.792,53.542c66.417,146.75 125.917,286.417 178.667,419.208c107.583,-15.75 214.041,-30.916 319.583,-45.625Zm-197.291,-432.958c-65.042,-135.292 -136.042,-276.583 -212.709,-423.708c-95.833,19.708 -191.958,40.291 -288.458,61.875c71.708,144.416 137.333,282.666 197.541,415.333c101.917,-18.583 203.042,-36.333 303.626,-53.5Zm-215.709,-429.458c-70.375,-134.875 -145.417,-274.459 -225.792,-419.5c-91.291,22.5 -182.583,46.291 -273.875,71.125c75.292,141.666 145.833,278.5 211.292,410.208c96.458,-21.583 192.584,-42.167 288.375,-61.833Zm-228.959,-425.25c-74.082,-133.584 -152.499,-271.501 -235.291,-413.917c-86.791,25.625 -173.25,52.625 -259.375,81.042c77.875,138.958 151.5,273.583 220.833,403.958c91.292,-24.833 182.584,-48.583 273.833,-71.083Zm-238.666,-419.625c-76.625,-131.75 -157.125,-267.417 -241.375,-406.834c-82.209,29.125 -163.75,59.75 -244.542,92.25c79.292,135.584 154.833,267.417 226.667,395.583c86.125,-28.416 172.542,-55.416 259.25,-80.999Zm-244.916,-412.751c-78.459,-129.791 -160.417,-263.124 -245.584,-399.666c-77.333,33.208 -153.708,68.25 -228.833,105.417c79.999,132.208 156.458,260.833 229.958,386.5c80.75,-32.458 162.292,-63.084 244.459,-92.251Zm-249.292,-405.624c-79.292,-127.042 -161.25,-256.834 -246.417,-389.917c-72.292,38.083 -143.167,78.25 -212.334,120.917c79.375,127.5 156.167,252.458 229.959,374.333c75.125,-37.125 151.458,-72.083 228.792,-105.333Zm-250.292,-395.959c-78.958,-123.291 -160.584,-249.208 -244.667,-377.666c-66.708,43.791 -131.375,90.25 -193.875,139.5c77.834,122.083 153.208,241.666 226.25,358.958c69.167,-42.625 140.001,-82.75 212.292,-120.792Zm-248.75,-383.875c-30.542,-46.625 -61.166,-93.333 -92.416,-140.666c-49.959,-75.709 -98.334,-150.084 -145.584,-223.5c-57.375,48.166 -112.417,99 -164.875,152.958c59.333,102.458 121.167,207.083 186,314.25c7.792,12.208 15.25,24.083 23,36.208c62.5,-49.125 127.167,-95.5 193.875,-139.25Zm-242.166,-370.625c-77.667,-120.791 -151.959,-238.666 -222.584,-353.541c-47.375,52.25 -91.958,107.458 -133.875,165.708c60.459,110.417 124.416,223.875 191.709,340.208c52.416,-53.708 107.458,-104.416 164.75,-152.375Zm-226.959,-360.625c-71.958,-117.125 -140.5,-231.333 -205.291,-342.416c-37.209,56.333 -71.543,115.708 -102.834,178.208c54.583,106.667 112.75,216.417 174.333,329.083c41.876,-57.916 86.459,-112.874 133.792,-164.875Zm-209.917,-350.291c-65.958,-113.209 -128.333,-223.375 -187,-330.459c-27.042,60.5 -50.875,124.125 -71.541,190.917c48.292,102.333 100.166,207.833 155.541,316.334c31.376,-62.042 65.834,-120.834 103,-176.792Zm-192,-339.542c-59.417,-108.654 -115.208,-214.217 -167.25,-316.621c-16.833,64.421 -30.5,131.825 -40.666,202.554c41.708,97.767 87.083,198.692 135.958,302.65c20.833,-65.958 44.875,-128.75 71.958,-188.583Zm-173.042,-327.971c-52.374,-103.342 -101.041,-203.545 -146.041,-300.637c-6.625,68.083 -9.958,139.192 -9.792,213.521c34.626,92.349 72.834,187.791 114.625,286.371c10.5,-69.48 24.251,-135.884 41.208,-199.255Zm-153.041,-315.646c-44.417,-96.354 -85.25,-189.658 -122.542,-279.937c3.376,70.254 9.875,143.329 19.875,219.533c27.084,85.784 57.584,174.567 91.584,266.417c0.499,-71.583 4.166,-140.3 11.083,-206.013Zm-131.792,-302.496c-34.124,-83.449 -65.25,-164.371 -93.333,-242.707c24.834,137.166 60.833,284.095 108.875,441.483c-7.916,-68.717 -13.125,-134.992 -15.542,-198.776Zm-1271.42,6611.99c16.505,8.542 33.047,17.083 49.421,25.5c53.75,-54.375 104.667,-111.5 152.667,-171.417c-64.958,50.667 -132.416,99.25 -202.088,145.917Zm113.963,58.625c19.833,10.083 39.667,20.125 59.5,30.208c14.208,-16.208 28.167,-32.666 41.875,-49.333l-82.708,10.25c-6.167,3 -12.459,5.875 -18.667,8.875Zm66.5,33.792c54.25,27.541 108.208,54.708 161.834,81.541c27.208,-33.333 53.291,-67.708 78.208,-103.333c14.125,-20.208 27.875,-40.833 41.25,-61.792l-235.375,29.292c-15.001,18.375 -30.292,36.5 -45.917,54.292Zm342.125,170.791l23.375,11.417c3.583,-4.542 7.166,-9.042 10.75,-13.625l-34.125,2.208Zm30.5,14.875c75.125,36.75 149.667,72.709 223.5,107.792c37.333,-46 72,-94.708 103.917,-146.167c-103.417,6.917 -207.958,13.792 -313.459,20.625c-4.625,5.959 -9.25,11.875 -13.958,17.75Zm522.417,246.959c73,33.25 145.291,65.666 216.75,97.041c31.292,-32.708 60.999,-67.041 88.583,-103.625c-100.75,2.334 -202.542,4.542 -305.333,6.584Zm2112.71,727.083c-72.459,-11.208 -147.667,-25.333 -225.208,-42.042c-56.542,9.667 -115.917,16.375 -178.084,20.084c145.001,18.708 279.75,26.375 403.292,21.958Zm-241.209,-45.458c-80.916,-17.709 -164.5,-38.375 -250.541,-61.75c-5.417,1.708 -10.834,3.458 -16.375,5.041c-51.625,14.875 -106.583,26.084 -163.541,35.25c81.499,16.417 160.375,29.917 236.499,40.5c67.833,-2.916 132.625,-9.166 193.958,-19.041Zm-262.083,-64.875c-85.833,-23.5 -174.166,-49.709 -264.791,-78.542c-53.417,23.833 -110.417,43.875 -170.709,60.417c85.958,22.083 169.5,41.458 250.5,58.083c61.917,-9.375 121.292,-21.458 176.959,-37.5c2.75,-0.75 5.374,-1.625 8.041,-2.458Zm-274.417,-81.625c-88.708,-28.334 -179.541,-59.042 -272.499,-92.167c-50.542,30.083 -104.626,56.333 -162.042,79.042c89.25,27 176.166,51.375 260.917,73.333c1.749,-0.458 3.625,-0.75 5.375,-1.25c59.375,-16.083 115.458,-35.75 168.249,-58.958Zm-280.916,-95.209c-90,-32.166 -181.625,-66.166 -275.417,-102.666c-47.708,35.75 -99.042,67.708 -153.75,96.083c90.459,30.75 179,59.292 265.5,85.542c58.042,-22.584 112.709,-48.792 163.667,-78.959Zm-841.667,-338.166c-74.666,-32.834 -150.166,-66.667 -226.5,-101.5l-43.708,0.916c-39.167,43.542 -81.125,84.209 -125.834,122.042c85.667,36 170.042,70.625 253.292,103.833c51.042,-38.166 98.792,-79.791 142.75,-125.291Zm-239.458,-107.334c-5.916,-2.708 -11.75,-5.291 -17.667,-8.041c-2.458,2.875 -4.958,5.708 -7.458,8.541l25.125,-0.5Zm-24.958,-11.333c-80.292,-36.875 -161.667,-74.958 -243.708,-113.917c-38.459,46.917 -79.668,90.959 -123.543,132.292c120.251,-1.958 239.126,-4.042 356.584,-6.333c3.584,-4 7.166,-8 10.667,-12.042Zm-250.917,-117.333c-73.791,-35.084 -148.333,-71.042 -223.5,-107.75c-43.667,54.333 -90.667,105.333 -140.875,153.041c68.333,31.084 136.042,61.459 203.125,91.125l33.792,-0.541c45.375,-42.334 87.875,-87.625 127.458,-135.875Zm-230.625,-111.209l-31.875,-15.583c-83.166,5.375 -167.042,10.708 -251.542,16.042c-19.416,20.25 -39.375,40.041 -59.791,59.333c67.958,31.792 135.333,62.917 202.167,93.375c50.249,-47.75 97.333,-98.75 141.041,-153.167Zm-43.042,-21.041c-50.875,-24.959 -102.125,-50.417 -153.583,-76.084c-25.833,31.375 -52.709,61.709 -80.584,91.042c78.584,-4.958 156.667,-9.958 234.167,-14.958Zm-160.624,-79.584c-53.751,-26.875 -107.792,-54.083 -162.126,-81.666c-48.958,55.458 -101,107.958 -155.916,157.583c20.916,10 41.875,20.083 62.708,29.958c57.208,-3.541 114.125,-7.083 170.75,-10.666c29.292,-30.625 57.5,-62.375 84.584,-95.209Zm-169.126,-85.25c-20.833,-10.541 -41.583,-21.083 -62.416,-31.708c-54.375,25.958 -109.625,51.25 -165.667,75.875c-11.166,9.833 -22.458,19.583 -33.838,29.208c-8.412,7.125 -16.87,14.167 -25.37,21.167c43.958,21.333 87.667,42.375 131.208,63.208c55,-49.625 107.042,-102.208 156.083,-157.75Zm-69.916,-35.5c-15.792,-8.041 -31.708,-16.25 -47.542,-24.375c-30.625,30.792 -62.171,60.75 -94.583,89.834c47.995,-21.292 95.333,-43.167 142.125,-65.459Zm-54.505,-27.958c-16.87,-8.708 -33.829,-17.5 -50.787,-26.292c-23.333,15.542 -46.917,30.834 -70.708,45.959c-41.5,33.083 -84.083,65.166 -127.792,96.125c17.208,8.416 34.334,16.791 51.458,25.125c29.709,-12.5 59.167,-25.125 88.412,-38c37.667,-33.167 74.167,-67.459 109.417,-102.917Zm-57.954,-29.958l-1.833,-0.959l-0.588,0.542c-3.996,3.375 -8.079,6.667 -12.079,10c4.871,-3.208 9.709,-6.375 14.5,-9.583Zm4484.62,392.375c-3.125,-125.834 -20.708,-266.542 -53.125,-422.5c-117,9.833 -235.708,19.75 -356.083,29.75c24.208,152.708 33.541,290.166 28.583,412.916c129,-6.583 255.792,-13.333 380.625,-20.166Zm-54.416,-428.584c-27.292,-130.125 -64.959,-270.958 -113.625,-422.958c-110.334,12.583 -222.126,25.5 -335.084,38.667c41.709,148.958 72.458,286.75 92.917,414c120.292,-9.959 238.875,-19.875 355.792,-29.709Zm-115.542,-428.958c-42.416,-132.083 -93.042,-272.542 -152.208,-421.667c-104.542,15.292 -210.125,31.125 -316.584,47.417c52.917,146.083 97.583,283.708 133.958,412.833c112.917,-13.125 224.626,-26.041 334.834,-38.583Zm-154.584,-427.625c-52.791,-132.708 -112.333,-272.292 -178.791,-418.913c-99.083,18.08 -198.917,36.955 -299.334,56.455c60.751,143.545 114.542,280.083 161.751,409.916c106.416,-16.333 211.917,-32.166 316.374,-47.458Zm-181.416,-424.792c-60.209,-132.583 -125.834,-270.708 -197.542,-415c-94.083,21.084 -188.542,43.084 -283.291,66c66.208,140.875 126.749,276.042 181.625,405.417c100.374,-19.454 200.167,-38.292 299.208,-56.417Zm-200.458,-420.791c-65.459,-131.625 -136,-268.334 -211.292,-409.875c-89.084,24.291 -178.167,49.666 -267.25,76.25c70.083,138.166 135.042,271.166 195.459,399.583c94.708,-22.875 189.082,-44.917 283.083,-65.958Zm-214.333,-415.667c-69.376,-130.208 -142.917,-264.75 -220.792,-403.583c-84.126,27.916 -168,57.125 -251.5,87.75c72.542,134.833 140.916,265.583 205.166,392.041c89.042,-26.541 178.083,-51.916 267.126,-76.208Zm-224,-409.333c-71.792,-128 -147.293,-259.709 -226.459,-395.167c-79.209,32 -157.875,65.125 -235.625,100.375c73.875,131.125 143.958,258.542 210.667,382.5c83.458,-30.625 167.292,-59.833 251.417,-87.708Zm-229.917,-401.042c-73.417,-125.5 -149.751,-253.875 -229.584,-385.834c-74,36.751 -146.916,75.292 -218.666,115.917c73.916,126.417 144.958,249.959 212.75,370.209c77.708,-35.208 156.333,-68.334 235.5,-100.292Zm-233.251,-391.875c-73.708,-121.75 -150.416,-246.5 -229.708,-373.875c-68.25,42.375 -134.792,87.25 -199.875,134.292c73.042,121.166 143.25,239.5 211.042,355.458c71.708,-40.666 144.583,-79.167 218.541,-115.875Zm-233.541,-380.041c-72.875,-116.959 -148.041,-236.292 -225.667,-358.084c-61.208,48.5 -120.375,99.625 -177.374,153.541c8.041,15.042 16.041,30.001 24.291,45.209c61.333,99.5 120.833,197.208 178.834,293.375c65.083,-46.959 131.666,-91.75 199.916,-134.041Zm-229.75,-364.542c-8.25,-12.917 -16.25,-25.584 -24.541,-38.583l-0.042,-0.084c-64.084,-105.958 -125.209,-209.417 -183.917,-310.75c-50.708,52.458 -98.959,107.791 -144.834,165.833c55.417,109.292 114.251,221.5 176.167,336.459c56.959,-53.625 116.084,-104.542 177.167,-152.875Zm-212.667,-356.542c-66.999,-115.875 -130.791,-228.916 -191.041,-338.917c-40.334,56.625 -78.125,116.042 -113.126,178.459c49.834,105.542 103.042,214.125 159.459,325.458c45.875,-57.792 94.083,-112.792 144.708,-165Zm-195.375,-346.833c-61.249,-112 -119.167,-221.125 -173.5,-327.209c-29.958,60.751 -57.083,124.417 -81.291,191.042c43.833,101.458 91.041,205.833 141.583,313.208c35.083,-61.958 72.917,-120.833 113.208,-177.041Zm-178.25,-336.542c-55.041,-107.625 -106.625,-212.292 -154.666,-313.917c-19.584,64.667 -36.292,132.167 -49.792,202.833c37.583,97.042 78.625,197.126 123,300.167c24.333,-65.916 51.458,-128.958 81.458,-189.083Zm-160.083,-325.292c-48.333,-102.541 -93.209,-202.083 -134.542,-298.583c-9.291,68.337 -15.333,139.75 -18.333,214.083c30.875,91.667 65.167,186.334 102.75,283.959c13.75,-69.417 30.5,-135.875 50.125,-199.459Zm-141.125,-313.87c-40.75,-95.613 -78.125,-188.3 -112.125,-278.08c0.875,70.8 4.958,144.563 12.041,221.104c23.668,85.046 50.543,172.93 80.751,263.721c3.458,-71.708 9.874,-140.675 19.333,-206.745Zm-120.708,-300.717c-31.084,-82.921 -59.209,-163.284 -84.584,-241.28c20.209,136.905 50.958,283.284 92.834,439.471c-5.334,-68.437 -8.084,-134.487 -8.25,-198.191Zm-1614.12,6217.88l10.333,5.042c26,-18.417 51.625,-37.209 76.833,-56.417c-28.708,17.458 -57.791,34.542 -87.166,51.375Zm76.875,37.5c6.666,3.25 13.333,6.5 19.958,9.75c8.704,-7.167 17.375,-14.375 26,-21.625c6.042,-5.125 12.042,-10.333 18.037,-15.5c-21.203,9.208 -42.537,18.333 -63.995,27.375Zm239.667,115.292c32.541,15.458 64.833,30.583 97.125,45.708c19.041,-18 37.666,-36.417 55.874,-55.25c-50.791,3.208 -101.749,6.375 -152.999,9.542Zm530.25,242.833l9.166,4.042c1.5,-1.417 3.042,-2.875 4.542,-4.25l-13.708,0.208Zm16.541,7.333c82,36 163,70.875 243.042,104.584c43.625,-36.792 84.624,-76.334 122.958,-118.625c-117.791,2.291 -237.083,4.375 -357.667,6.291c-2.791,2.584 -5.541,5.209 -8.333,7.75Zm2080.79,686.75c-71.291,-10.5 -145.082,-23.791 -220.916,-39.375c-57.458,8.625 -117.667,14.25 -180.167,17.375c143.251,17.75 277.334,25.417 401.083,22Zm-237.583,-42.791c-79.791,-16.667 -162,-35.959 -246.458,-57.834c-58.041,15.417 -119.375,27.292 -183.333,36.292c80.041,15.333 157.625,27.875 232.874,37.875c68.459,-2.375 134.375,-7.542 196.917,-16.333Zm-259.5,-61.292c-83.75,-21.833 -169.583,-46.042 -257.624,-72.75c-50.459,19.542 -103.417,36.375 -159.001,50.417c-6.125,1.541 -12.749,2.625 -18.958,4.083c84.958,20.792 167.458,38.792 247.875,54.5c65.709,-8.667 128.167,-20.875 187.708,-36.25Zm-267.667,-75.833c-86.124,-26.25 -174.041,-54.5 -264.083,-85.167c-53.5,27.292 -110.375,51 -170.292,71.5c86.251,24.875 170.584,47.458 252.834,67.792c9.791,-2.292 20.083,-4 29.708,-6.417c53,-13.375 103.584,-29.333 151.833,-47.708Zm-272.916,-88.167c-86.042,-29.375 -174.083,-61.125 -263.542,-94.417c-51.374,32.375 -105.625,61.709 -163.375,87.334c86.5,28.083 171.626,54.541 254.584,78.541c60.667,-20.375 118.166,-44.125 172.333,-71.458Zm-805.333,-309.75c-79.876,-33.625 -160.834,-68.5 -242.667,-104.458c-48.917,44.291 -101,85.333 -156.084,123.166c81.542,32.792 161.959,64.209 241.376,94.459c55.624,-34.375 108.125,-72.042 157.375,-113.167Zm-250.083,-107.75c-6.209,-2.75 -12.459,-5.542 -18.709,-8.292c-105.625,1.667 -212.416,3.209 -320.208,4.584c-14.625,11.375 -29.459,22.583 -44.458,33.541c76.374,32.084 152.083,63.334 226.791,93.417c55.333,-37.833 107.542,-78.917 156.584,-123.25Zm-32.084,-14.208c-63.916,-28.292 -128.416,-57.209 -193.417,-86.792c-33.749,31.792 -68.875,62.125 -105.417,91.042c100.584,-1.334 200.167,-2.709 298.834,-4.25Zm-200.75,-90.125c-66.834,-30.459 -134.208,-61.542 -202.167,-93.334c-51.333,48.25 -105.583,93.5 -162.754,135.834c41.421,18.041 82.921,36.125 123.921,53.625c43.833,-0.5 87.459,-1.042 130.959,-1.625c38.208,-29.917 74.916,-61.417 110.041,-94.5Zm-209.375,-96.75c-34.916,-16.334 -69.834,-32.75 -105.042,-49.459c-27.292,1.709 -54.629,3.417 -82.041,5.084c-12.542,3.208 -25.125,6.333 -37.75,9.458c-38.042,31.833 -77.334,62.375 -117.875,91.625c60.333,26.958 120.208,53.417 179.625,79.292c57.292,-42.334 111.667,-87.709 163.083,-136Zm-116.5,-54.917c-18.25,-8.667 -36.625,-17.458 -54.958,-26.25c-13.917,12.458 -27.958,24.833 -42.213,36.958c8.088,-2.041 16.213,-4.041 24.254,-6.083l0.537,-0.125l0.547,-0.042l71.833,-4.458Zm-62.125,-29.667c-43.666,-20.875 -87.5,-42 -131.542,-63.375c-58.708,47.959 -120.041,93.375 -183.875,136.292c17,7.792 34.167,15.667 51.125,23.375c71.667,-16.875 142.663,-34.167 213.042,-51.833c17.375,-14.584 34.417,-29.375 51.25,-44.459Zm-138.708,-66.875c-7.417,-3.583 -14.834,-7.208 -22.292,-10.833c-84.125,35.292 -170.042,69.125 -257.708,101.583l-1.75,1.042c32.708,15.125 65.041,29.75 97.541,44.583c64,-42.916 125.417,-88.375 184.209,-136.375Zm-30.126,-14.708c-16.541,-8.042 -33.041,-16.083 -49.624,-24.208c-54.917,38.75 -111.5,75.958 -169.792,111.458c74.458,-28 147.541,-57.125 219.416,-87.25Zm-56.916,-27.75l-11.042,-5.375c-73.333,41.833 -148.749,81.708 -226.292,119.75c11.292,5.292 22.626,10.625 33.834,15.792l5.75,-2.084c68.167,-40.541 134.125,-83.208 197.75,-128.083Zm4300.79,266.625c5,-122.667 -4.208,-259.958 -28.5,-412.75c-116.709,9.708 -235.042,19.417 -355.084,29.208c15.667,149.084 16.417,282.875 3.084,402.084c128.875,-6 255.666,-12.25 380.5,-18.542Zm-29.5,-418.833c-20.542,-127.125 -51.292,-264.834 -93.084,-413.75c-109.666,12.791 -220.666,25.833 -332.916,39.125c34.458,145.541 57.916,279.833 71.249,403.791c119.917,-9.791 238.126,-19.5 354.751,-29.166Zm-94.75,-419.792c-36.375,-129.042 -81.042,-266.542 -134.042,-412.542c-103.458,15.834 -207.875,32.167 -313.25,48.917c46.417,142.583 84.625,276.833 114.625,402.708c112.167,-13.25 223.083,-26.291 332.667,-39.083Zm-136.208,-418.5c-47.209,-129.667 -101.042,-266.083 -161.792,-409.542c-97.708,18.963 -196.042,38.625 -295.042,58.959c54.667,139.958 102.542,273.041 143.833,399.5c105.292,-16.792 209.625,-33.084 313.001,-48.917Zm-164.293,-415.412c-54.833,-129.296 -115.374,-264.338 -181.541,-405.13c-92.25,22.334 -184.833,45.542 -277.709,69.625c60.417,137.167 115.084,268.5 164.375,394.417c98.959,-20.292 197.209,-39.958 294.875,-58.912Zm-184.291,-410.963c-60.417,-128.25 -125.333,-261.125 -195.375,-399.167c-87,26 -174,53 -261.042,81.209c64.251,133.833 124.042,263.166 178.917,387.541c92.834,-24.041 185.292,-47.25 277.5,-69.583Zm-198.333,-404.958c-64.167,-126.334 -132.459,-256.875 -204.876,-391.542c-81.707,30.083 -163.041,61.583 -244.041,94.375c66.709,130.125 129.292,256.208 188,378.333c87,-28.208 173.958,-55.208 260.917,-81.166Zm-208.042,-397.375c-66.625,-123.751 -136.666,-250.958 -210.417,-381.875c-76.249,34.708 -151.625,71.583 -226.416,109.625c67.708,125.583 132.041,247.791 192.958,366.541c80.959,-32.749 162.209,-64.208 243.875,-94.291Zm-213.791,-387.917c-67.667,-120.042 -138.667,-243.458 -212.417,-369.667c-70.542,40.209 -139.708,82.75 -207.917,126.875c67.583,120.376 132.166,237.75 194,352.334c74.792,-38 150.125,-74.792 226.334,-109.542Zm-216.001,-375.792c-67.625,-115.625 -137.625,-233.666 -210.5,-354.541c-64.333,46.75 -127.125,95.875 -188.249,147.291c65.999,113.709 129.666,225.084 190.833,333.959c68.25,-44.042 137.417,-86.584 207.916,-126.709Zm-214.374,-360.958c-58.417,-96.875 -118.376,-195.375 -180.209,-295.667l-0.042,-0.125c-7.625,-14.041 -15,-27.833 -22.5,-41.708c-54.875,52.25 -107.916,106.875 -158.75,164.292c18.584,40.125 37.584,80.666 57,121.583c39.667,67.167 78.25,133.167 116.292,198.708c61.125,-51.375 123.875,-100.416 188.209,-147.083Zm-206.542,-344.625c-61.709,-114.5 -120.375,-226.292 -175.667,-335.167c-44.292,56.542 -86.291,115.75 -125.916,177.667c44.541,104.167 92.249,211.208 142.999,320.958c50.792,-57.125 103.751,-111.458 158.584,-163.458Zm-179.667,-343.125c-56.167,-110.708 -109.167,-218.708 -158.792,-323.667c-33.667,60.667 -64.75,124.209 -93.291,190.458c38.958,100.334 81.083,203.543 126.249,309.584c39.625,-61.5 81.584,-120.25 125.834,-176.375Zm-163.209,-333.042c-50.25,-106.541 -97.249,-210.25 -140.916,-310.958c-23.041,64.708 -43.292,132.25 -60.792,202.625c32.958,96.042 69.167,195 108.501,296.833c28.541,-65.583 59.583,-128.416 93.207,-188.5Zm-145.791,-322.291c-43.834,-101.5 -84.417,-200.125 -121.708,-295.834c-12.5,68.25 -22.084,139.417 -28.792,213.334c26.625,90.916 56.458,184.666 89.375,281.25c17.667,-69.042 38.125,-135.209 61.125,-198.75Zm-127.666,-311.167c-36.709,-94.834 -70.251,-186.833 -100.626,-276.084c-2.167,70.542 -1.583,143.668 2.042,219.668c20,84.749 43.042,172.291 69.125,262.582c7.083,-71.416 16.917,-140.124 29.459,-206.166Zm-108.25,-298.459c-27.834,-82.791 -52.918,-163.154 -75.376,-241.212c14.792,137.171 39.75,283.588 74.959,439.338c-2.209,-68.25 -2.125,-134.334 0.417,-198.126Zm-1739.25,5906.46c27.875,12.625 55.584,25 83.376,37.417c37.412,-27 73.786,-55.042 109.083,-84.209c-63.667,15.917 -127.792,31.542 -192.459,46.792Zm416.125,182.875c22.875,9.708 45.667,19.208 68.542,28.833c13.583,-9.875 26.958,-19.958 40.208,-30.166c-36.167,0.458 -72.375,0.916 -108.75,1.333Zm2085.71,662.917c-70.084,-9.959 -142.417,-22.334 -216.667,-36.834c-58.25,7.667 -119.417,12.167 -182.291,14.834c141.625,16.75 275,24.458 398.958,22Zm-236.126,-40.709c-78.582,-15.625 -159.291,-33.583 -242.166,-54c-59.25,13.709 -120.875,24.875 -185.416,32.792c78.791,14.333 155.124,25.875 229.582,35.375c68.584,-1.917 134.792,-6.417 198,-14.167Zm-255.791,-57.458c-81.375,-20.25 -164.583,-42.542 -249.833,-67.125c-46.875,15.708 -95.667,29.375 -146.25,41.042c-12.542,2.916 -25.875,4.958 -38.625,7.583c83.249,19.333 164.333,36.25 243.458,51c66.708,-7.625 130.125,-18.833 191.25,-32.5Zm-260.834,-70.25c-82.458,-23.958 -167.124,-50.417 -253.125,-78.375c-56.624,24.708 -116.458,45.917 -178.916,64.375c82.625,22.708 163.875,43.792 242.959,62.375c16.999,-3.417 34.583,-6.167 51.166,-10.042c47.625,-11 93.625,-23.791 137.916,-38.333Zm-266.916,-82.792c-82.416,-26.916 -166.292,-55.5 -251.5,-85.666c-55.333,29.333 -113.625,55.458 -174.791,78.583c83.166,25.625 164.625,49.292 244.75,71.417c63.416,-18.334 124.083,-39.625 181.541,-64.334Zm-769,-282.166c-74.667,-30.084 -150.25,-61.25 -226.584,-93.334c-54.874,39.584 -112.541,76.25 -172.962,110.042c76.63,29.333 152.463,57.75 227.213,84.875c60.333,-30.833 117.791,-64.667 172.333,-101.583Zm-234.291,-96.584c-26.042,-10.916 -51.918,-21.708 -78.084,-32.791c-70.042,0.833 -140.666,1.541 -211.666,2.25c-30.668,20.125 -62.13,39.541 -94.292,58.208c70.829,28.333 140.958,55.75 210.37,82.375c60.713,-33.75 118.629,-70.417 173.672,-110.042Zm-92.084,-38.75c-37.875,-16.166 -76.25,-32.958 -114.5,-49.583c-24.083,17.708 -48.666,34.875 -73.75,51.583c63.041,-0.625 125.875,-1.291 188.25,-2Zm-122.084,-52.875c-59.42,-25.875 -119.374,-52.333 -179.666,-79.291c-59.083,42.333 -120.75,82.125 -184.958,119.25c23.166,9.583 46.208,19.041 69.25,28.458c47.875,-4.208 95.75,-8.458 143.458,-12.708l0.083,-0.042l0.376,-0c24.287,-0.208 48.287,-0.458 72.416,-0.708c26.958,-17.709 53.25,-36.042 79.041,-54.959Zm-187.166,-82.625c-29.041,-13.041 -58.125,-26 -87.333,-39.25c-50.625,11.875 -101.459,23.625 -152.667,35.125c-32.958,19.959 -66.5,39.375 -100.667,58.167c52,22.125 103.792,43.958 155.125,65.208c64.417,-37.125 126.292,-76.875 185.542,-119.25Zm-96.708,-43.541c-15.75,-7.125 -31.625,-14.417 -47.417,-21.625c-25.917,17.291 -52.25,34.25 -79.042,50.75c42.375,-9.584 84.5,-19.292 126.459,-29.125Zm-54.917,-25.042c-32.625,-14.917 -65.083,-29.625 -97.917,-44.75c-68.75,40.542 -139.666,78.958 -212.791,115.208c18.333,7.959 36.875,16.125 55.083,23.959c54.625,-11.625 109.041,-23.375 162.958,-35.459c31.458,-19.083 62.334,-38.75 92.667,-58.958Zm-108.417,-49.667c-10.875,-5.041 -21.833,-10.208 -32.791,-15.333c-76.542,37.375 -155.042,72.958 -235.5,106.708l1.499,0.667c90.584,-29.25 179.543,-59.958 266.792,-92.042Zm4124.12,152.334c13.458,-119.084 12.792,-252.75 -2.917,-401.834c-116.333,9.5 -234.249,19.042 -353.791,28.584c6.75,144.958 -1.375,274.791 -23.375,390.25c128.625,-5.5 255.333,-11.167 380.083,-17Zm-3.625,-407.959c-13.333,-123.791 -36.833,-258.041 -71.333,-403.5c-108.958,12.917 -219.208,26.042 -330.666,39.417c26.749,141.625 42.708,272.292 48.624,392.625c119.376,-9.542 237.167,-19.083 353.375,-28.542Zm-72.708,-409.583c-30.041,-125.708 -68.292,-259.917 -114.75,-402.375c-102.333,16.292 -205.584,33.042 -309.834,50.208c39.584,138.834 70.792,269.209 94.084,391.584c111.417,-13.375 221.583,-26.5 330.5,-39.417Zm-116.666,-408.375c-41.334,-126.292 -89.126,-259.208 -143.792,-399.079c-96.334,19.792 -193.251,40.204 -290.792,61.287c48.209,135.959 89.834,265.25 124.917,387.959c104.166,-17.167 207.375,-33.834 309.667,-50.167Zm-146.167,-405c-49.251,-125.75 -103.917,-257 -164.292,-394c-90.541,23.5 -181.333,47.792 -272.5,73c54.208,132.917 102.917,260.296 146.25,382.254c97.5,-21.046 194.333,-41.462 290.542,-61.254Zm-166.876,-399.917c-54.833,-124.166 -114.541,-253.333 -178.749,-387c-84.75,27.542 -169.5,56.25 -254.25,85.917c58.208,129.375 111.583,253.875 160.667,374.083c91.124,-25.166 181.874,-49.458 272.332,-73Zm-181.582,-392.875c-58.625,-121.916 -121.209,-247.833 -187.792,-377.791c-79.167,32.125 -157.959,65.541 -236.417,100.333c60.5,124.875 117.25,246.083 170.083,363.333c84.709,-29.666 169.417,-58.333 254.126,-85.875Zm-190.834,-383.666c-60.792,-118.583 -125,-240.542 -192.583,-365.917c-73.375,37.375 -145.875,76.583 -217.75,117.166c61.25,119.584 119.166,235.792 174.042,348.959c78.416,-34.75 157.208,-68.125 236.291,-100.208Zm-195.875,-372.042c-61.75,-114.375 -126.208,-231.5 -193.666,-351.667c-67.209,43.584 -133.459,88.917 -198.376,136.376c60.792,113.458 118.959,224.249 174.376,332.374c71.875,-40.583 144.333,-79.708 217.666,-117.083Zm-197.208,-357.959c-61.042,-108.624 -124.542,-219.708 -190.333,-333.083c-60.459,51.125 -119.376,104.458 -176.543,160.334c58.375,105.166 114.459,208.041 168.542,308.875c64.917,-47.417 131.126,-92.584 198.334,-136.126Zm-194.167,-339.749c-38.625,-66.501 -77.75,-133.542 -118.041,-201.709l-0.084,-0.167c-18.666,-39.291 -36.959,-78.207 -54.792,-116.791c-49.124,55.833 -96.25,114.208 -141.375,175c23.042,61.167 46.959,123.083 72.042,186.125c22.25,39.583 44.042,78.667 65.667,117.625c57.166,-55.75 116.125,-109.042 176.583,-160.083Zm-176.583,-326.584c-50.501,-109.208 -98.042,-215.666 -142.458,-319.375c-38.126,60.126 -74.042,122.834 -107.709,188.209c33.458,99 69.833,200.791 109.083,305.25c45.084,-60.5 92.084,-118.584 141.084,-174.084Zm-146.375,-328.583c-44.917,-105.166 -86.792,-207.542 -125.584,-307.125c-27.208,64.25 -52,131.125 -74.333,200.708c27.875,94.875 58.667,192.458 92.375,292.792c33.625,-64.708 69.5,-126.792 107.542,-186.375Zm-129.917,-318.5c-38.875,-100.292 -74.708,-197.833 -107.459,-292.583c-16.416,67.999 -30.25,138.708 -41.416,212.083c21.917,89.958 46.791,182.708 74.584,278.167c22.374,-68.459 47.124,-134.375 74.291,-197.667Zm-112.625,-307.792c-32.209,-93.917 -61.5,-185.124 -87.791,-273.624c-5.793,70.291 -8.959,143.124 -9.417,218.666c15.708,83.958 34.292,170.583 55.666,259.875c11.333,-70.833 25.209,-139.167 41.542,-204.917Zm-94.417,-296.208c-23.875,-81.542 -45.374,-160.917 -64.291,-238c8.5,136.417 26.208,281.542 53.541,435.625c1.417,-68 5.001,-133.875 10.75,-197.625Zm-2256.42,5398.38c15.875,6.917 31.791,13.875 47.583,20.708c65.916,-32.625 130.125,-66.958 192.458,-103.083c-78.667,28.625 -158.75,56 -240.041,82.375Zm120.791,52.417c16.167,6.875 32.292,13.666 48.5,20.541c29.625,-16.25 58.834,-32.958 87.542,-50.083c-45.083,10 -90.458,19.833 -136.042,29.542Zm301.375,126.083c35.125,14.375 70.125,28.5 104.959,42.5c30.416,-17.625 60.204,-35.917 89.329,-54.833c-20.792,0.208 -41.413,0.416 -62.33,0.583c-43.874,3.958 -87.874,7.875 -131.958,11.75Zm2048.13,622.5c-68.376,-9.375 -138.5,-20.708 -210.459,-34.083c-58.834,6.666 -120.334,10.458 -183.291,12.625c138.999,15.708 270.416,22.958 393.75,21.458Zm-232.167,-38.292c-77.125,-14.666 -155.834,-31.041 -236.834,-50c-60.291,12.042 -122.417,22.167 -187.458,29.084c77.167,13.291 152.25,24.083 225.541,33.041c68.667,-1.416 134.917,-5.458 198.751,-12.125Zm-251.208,-53.541c-78.251,-18.584 -158.542,-39.417 -240.251,-61.917c-60.292,17.375 -123.042,32.083 -188.417,43.917c79.167,17.416 156.959,33.25 232.542,46.625c68.042,-6.584 133.167,-16.459 196.126,-28.625Zm-256.709,-66.375c-79.5,-22.042 -160.5,-45.75 -243,-71.25c-59.625,22.166 -122,41.375 -186.917,57.875c80.625,20.875 159.584,39.916 237.042,57.208c67,-11.708 131.208,-26.417 192.875,-43.833Zm-256.833,-75.584c-79.625,-24.75 -160.542,-50.958 -242.75,-78.708c-59.042,26.333 -120.792,49.75 -185.126,70.458c80.834,23.625 160.251,45.625 238.293,66.042c65.916,-16.375 129.083,-35.667 189.583,-57.792Zm-734.709,-256.791c-69.333,-26.584 -139.333,-54 -210.083,-82.334c-60.917,35.084 -124.375,67.5 -190.292,97.375c71.875,26.125 142.875,51.209 213.167,75.459c64.996,-27.417 127.412,-57.584 187.208,-90.5Zm-218.25,-85.542c-36.958,-14.833 -74.125,-29.958 -111.458,-45.25c-52.042,4.625 -104.292,9.208 -156.583,13.75c-37.876,19.833 -76.5,38.875 -115.917,57.083c64.833,24.625 129.125,48.542 192.833,71.75c66.209,-29.833 129.917,-62.25 191.125,-97.333Zm-123.875,-50.333c-20.916,-8.542 -41.791,-17.084 -62.791,-25.792c-22.125,12.708 -44.542,25.083 -67.25,37.167c43.416,-3.75 86.75,-7.542 130.041,-11.375Zm-70.875,-29.084c-51.416,-21.333 -103.208,-43.208 -155.291,-65.333c-67.042,36.625 -136.334,70.958 -207.875,103.083c20.375,7.959 40.5,15.709 60.75,23.625c75.5,-6.416 150.75,-12.875 225.791,-19.375c25.917,-13.625 51.458,-27.583 76.625,-42Zm-163.291,-68.75c-17.417,-7.375 -34.667,-14.625 -52.083,-22.041c-70.834,15 -142.167,29.625 -214.126,43.833c-23.333,10.25 -46.875,20.292 -70.625,30.125c42.917,17.292 85.792,34.458 128.292,51.167c71.75,-32.084 141.292,-66.417 208.542,-103.084Zm-62.125,-26.333c-17.167,-7.375 -34.584,-15.083 -51.792,-22.542c-41.375,20.417 -83.542,40.084 -126.25,59.167c59.708,-11.917 119.083,-24.125 178.042,-36.625Zm-59.875,-26.083c-16.375,-7.084 -32.792,-14.25 -49.209,-21.417c-28.625,9.25 -57.416,18.333 -86.375,27.292c-54.875,21.791 -110.583,42.833 -167.125,63.083c16.625,6.75 33.167,13.375 49.75,20.042c35.209,-6.75 70.251,-13.542 105.208,-20.459c50.167,-21.916 99.418,-44.75 147.751,-68.541Zm-58.084,-25.25l-0.5,-0.25l-3.833,1.625l4.333,-1.375Zm4011.62,74.708c22.126,-115.292 30.334,-245 23.583,-389.958c-115.832,9.25 -233.124,18.541 -352.041,27.833c-2.583,140.542 -19.834,266.042 -50.75,377.5c128.292,-4.958 254.709,-10.083 379.208,-15.375Zm23.292,-396.125c-5.917,-120.208 -21.875,-250.75 -48.625,-392.292c-108.167,13 -217.5,26.167 -328.084,39.584c18.709,137.375 26.875,264.041 25.084,380.5c118.75,-9.292 235.917,-18.542 351.625,-27.792Zm-49.834,-398.375c-23.374,-122.25 -54.583,-252.5 -94.124,-391.25c-101.167,16.667 -203.292,33.75 -306.292,51.25c32.208,134.625 56.334,261 72.708,379.542c110.459,-13.375 219.709,-26.584 327.708,-39.542Zm-95.874,-397.292c-35.126,-122.541 -76.751,-251.75 -124.959,-387.583c-94.667,20.504 -189.958,41.542 -285.833,63.25c41.458,131.75 76.167,256.75 104.75,375.583c102.958,-17.5 204.959,-34.583 306.042,-51.25Zm-127.042,-393.5c-43.333,-121.833 -92,-249.041 -146.166,-381.791c-88.542,24.5 -177.417,49.875 -266.584,76.041c47.667,128.25 90,251.209 127.125,368.875c95.834,-21.666 191.041,-42.708 285.625,-63.125Zm-148.583,-387.708c-49.084,-120.042 -102.417,-244.375 -160.542,-373.542c-82.666,29.042 -165.292,59.125 -247.959,90.167c51.709,124.083 99.167,244 142.126,359.292c89.083,-26.125 177.875,-51.417 266.375,-75.917Zm-163.208,-379.458c-52.793,-117.084 -109.459,-238.084 -169.876,-362.792c-76.625,34.042 -152.958,69.333 -228.958,105.917c54.042,119.375 104.292,234.916 151.042,346.958c82.624,-31.042 165.208,-61.083 247.792,-90.083Zm-172.792,-368.792c-54.751,-112.875 -112.542,-228.875 -173.667,-348.208c-70.5,39.916 -140.292,81.5 -209.375,124.624c54.375,112.751 105.834,222.584 154.25,329.417c75.958,-36.583 152.208,-71.791 228.792,-105.833Zm-176.876,-354.417c-55.291,-107.791 -113.291,-218.333 -173.875,-331.416c-63.916,46.958 -126.666,96 -188.291,146.875c53.375,105.375 104.375,208.375 152.916,308.958c69.084,-43 138.792,-84.542 209.25,-124.417Zm-177.374,-337.958c-53.917,-100.625 -109.834,-203.208 -168.042,-308.042c-56.708,55.75 -111.584,114.167 -164.875,174.75c50.083,95.167 98.333,188.459 144.708,279.959c61.583,-50.792 124.292,-99.792 188.209,-146.667Zm-171.917,-315c-22.292,-40.125 -44.791,-80.458 -67.708,-121.25l-0.084,-0.208l-0.041,-0.125c-24.292,-60.959 -47.417,-120.875 -69.75,-180.083c-43.667,59.249 -85.25,121.041 -125,185.166c21.833,78.167 45.333,157.958 70.708,239.5c9.125,17.25 17.959,34.125 26.958,51.25c53.292,-60.458 108.208,-118.625 164.917,-174.25Zm-141,-310.541c-38.958,-103.501 -75.167,-204.459 -108.417,-302.667c-32.333,63.458 -62.5,129.416 -90.458,197.875c22,93.375 46.875,189.5 74.292,288.125c39.667,-63.459 81.166,-124.625 124.583,-183.333Zm-112.167,-313.667c-33.416,-99.042 -63.958,-195.459 -91.624,-289.167c-21.126,67.208 -39.876,137.042 -56.25,209.333c16.541,88.875 35.874,180.375 57.832,274.459c27.876,-67.334 57.918,-132.167 90.042,-194.625Zm-95.916,-303.584c-27.25,-92.833 -51.667,-183.083 -73.376,-270.791c-10.041,69.792 -17.708,142.041 -22.875,216.791c10.834,83.042 24.334,168.667 40.376,256.834c16.417,-70 35,-137.625 55.875,-202.834Zm-78.792,-292.333c-19.709,-81.041 -36.958,-159.792 -52.041,-236.5c1.082,135.917 10.624,280.083 29.166,433c5.625,-67.542 13.25,-133.042 22.875,-196.5Zm-2587.54,4960.38l10.375,4.208c31.334,-11.166 62.458,-22.625 93.292,-34.291c-34.333,10.208 -68.875,20.25 -103.667,30.083Zm79.834,32.208l18.625,7.5c16.333,-6.708 32.5,-13.583 48.666,-20.458c-22.375,4.375 -44.833,8.667 -67.291,12.958Zm238.208,94.334c30.542,11.875 61.083,23.708 91.333,35.25c36.417,-16.75 72.167,-34.125 107.208,-52.292c-65.958,5.708 -132.166,11.417 -198.541,17.042Zm1961.62,563.583c-67.333,-8.875 -135.958,-19.167 -206.5,-31.625c-58.791,5.667 -119.875,8.875 -182.292,10.583c136.458,14.625 266.209,21.709 388.792,21.042Zm-229.5,-36c-73.291,-13.292 -148.333,-28.542 -224.875,-45.542c-61.625,10.75 -125.291,19.167 -191.167,25.25c73.126,11.834 144.792,22.084 214.626,30.25c69.332,-0.916 136.458,-4.25 201.416,-9.958Zm-246.375,-50.208c-76.25,-17.167 -154.083,-36.209 -233.333,-56.875c-62.459,15.458 -127.084,28.583 -194.126,39.041c76.376,15.875 151.376,30.167 224.626,42.5c69.917,-5.708 137.667,-13.75 202.833,-24.666Zm-249.875,-61.292c-77.667,-20.417 -156.5,-42.25 -236.834,-65.792c-62.583,19.75 -127.624,36.917 -194.958,51.542c78.876,19.333 156.333,36.958 232.417,53.042c68.875,-10.292 135.291,-23.292 199.375,-38.792Zm-248.125,-69.042c-77.042,-22.708 -155.459,-46.958 -235,-72.541c-62.75,23.541 -127.963,44.416 -195.504,62.791c78.754,21.792 156.421,42.334 232.587,61.167c68.375,-14.542 134.417,-31.625 197.917,-51.417Zm-904.208,-308.208c-32.209,-12.292 -64.751,-25 -97.292,-37.667c-53.75,4.542 -107.583,9.042 -161.542,13.542c-40.708,16.583 -82.125,32.542 -124.166,47.833c58.416,20.959 116.5,41.542 173.999,61.375c71.875,-26.041 141.584,-54.375 209.001,-85.083Zm-110.375,-42.75c-18.292,-7.167 -36.459,-14.125 -54.834,-21.333c-24.708,11 -49.666,21.708 -74.875,32.208c43.334,-3.625 86.542,-7.25 129.709,-10.875Zm-63.542,-24.75c-42.583,-16.75 -85.542,-34 -128.583,-51.333c-75.333,31 -152.625,60 -231.75,87.125c17.666,6.583 35.25,13 52.916,19.5c73.459,-5.875 146.751,-11.875 219.792,-17.917c29.542,-12.083 58.75,-24.542 87.625,-37.375Zm-137.333,-54.833l-21.625,-8.709c-94.167,17.959 -189.208,35.209 -285.125,51.792c-7.959,2.417 -15.875,4.958 -23.834,7.333c32.792,12.459 65.417,24.584 97.958,36.667c79.417,-27.125 157.001,-56.125 232.626,-87.083Zm-32.334,-13c-15.75,-6.334 -31.416,-12.584 -47.291,-19.042c-59.167,21.042 -119.208,41.25 -180.167,60.583c76.375,-13.416 152.166,-27.25 227.458,-41.541Zm-56.208,-22.709c-3.75,-1.5 -7.5,-3.083 -11.25,-4.666c-91.042,25.625 -183.583,49.916 -277.458,72.958c9.749,3.75 19.542,7.458 29.25,11.208c12.833,-2.208 25.708,-4.375 38.5,-6.541c74.916,-23.084 148.667,-47.334 220.958,-72.959Zm3886.33,-3.25c31.084,-111.25 48.417,-236.708 51.042,-377.208c-115.125,9 -231.75,18.042 -349.875,27.083c-12.291,135.667 -38.959,256.709 -79,363.917c127.75,-4.417 253.708,-9.042 377.833,-13.792Zm51.125,-383.416c1.834,-116.334 -6.291,-242.875 -25,-380.167c-107.083,13 -215.374,26.208 -324.749,39.625c10.208,132.792 10.208,255.208 0.374,367.583c117.959,-9.041 234.417,-18.041 349.375,-27.041Zm-25.874,-386.292c-16.334,-118.375 -40.459,-244.625 -72.709,-379.167c-99.75,16.959 -200.417,34.292 -301.917,52.042c24.584,130.167 41.209,252.25 50.292,366.667c109.25,-13.375 217.416,-26.542 324.334,-39.542Zm-74.167,-385.208c-28.584,-118.667 -63.333,-243.5 -104.75,-375.167c-93.084,21.083 -186.75,42.75 -281.001,64.917c34.25,126.958 62.334,247.75 84.167,362.208c101.417,-17.708 201.959,-35.042 301.584,-51.958Zm-106.626,-381.167c-37.083,-117.5 -79.374,-240.292 -127,-368.375c-86.625,25.458 -173.583,51.708 -260.874,78.708c40.833,123.292 76.458,241.417 107.125,354.542c94.166,-22.208 187.792,-43.833 280.749,-64.875Zm-129.208,-374.375c-42.874,-115.125 -90.333,-234.833 -141.916,-358.708c-80.333,30.25 -160.667,61.541 -241,93.833c44.958,118.708 85.667,233.125 122.25,343.5c87.208,-27 174.083,-53.208 260.666,-78.625Zm-144.416,-364.75c-46.667,-111.833 -96.834,-227.167 -150.75,-346.292c-74.125,35.834 -147.875,72.917 -221.292,111.209c47.125,113.041 90.875,222.625 131.208,328.833c80.25,-32.25 160.542,-63.5 240.834,-93.75Zm-153.542,-352.417c-48.291,-106.541 -99.625,-216.125 -153.833,-328.625c-67.667,42.334 -134.584,86.209 -200.834,131.584c47.251,105.458 91.709,208.125 133.501,308.083c73.374,-38.25 147.124,-75.25 221.166,-111.042Zm-156.917,-335c-48.416,-100.291 -99.208,-202.958 -152.417,-308.083c-60.749,50.333 -120.166,102.75 -178.582,156.959c45.583,96.291 88.957,190.416 130.291,282.541c66.208,-45.333 133.083,-89.167 200.708,-131.417Zm-155.874,-314.791c-46.126,-91.042 -94.126,-183.917 -143.917,-278.625c-52.958,60.5 -104.125,123.542 -153.584,188.916c41.209,83.584 80.834,165.625 119.042,246.208c58.333,-54.041 117.792,-106.332 178.459,-156.499Zm-147.834,-286.084c-9.833,-18.625 -19.417,-37.041 -29.375,-55.833l-0.083,-0.167l-0.084,-0.25c-24.5,-78.708 -47.25,-155.75 -68.458,-231.375c-38.292,62.167 -74.833,126.501 -109.416,193.292c15.499,91.75 33.416,185.917 53.916,282.667c49.458,-65.167 100.583,-128 153.5,-188.334Zm-101,-298.291c-27.166,-97.25 -51.834,-192.042 -73.75,-284.208c-26.625,66.166 -51.25,134.666 -73.75,205.624c10.5,87.25 23.375,176.875 38.708,269.042c34.417,-65.791 70.792,-129.167 108.792,-190.458Zm-77.083,-298.5c-21.542,-91.376 -40.625,-180.417 -57.042,-266.876c-15.125,68.959 -28.125,140.125 -38.833,213.751c5.292,81.791 12.916,165.916 22.958,252.541c22.292,-68.791 46.709,-135.124 72.917,-199.416Zm-61.084,-288.542c-14.833,-79.542 -27.666,-157.25 -38.25,-232.667c-7.541,134.5 -7.25,276.959 1.084,427.584c10.625,-66.917 22.916,-131.959 37.166,-194.917Zm-2671.58,4603c25.083,9.25 50.125,18.458 74.958,27.417c37.792,-13.667 75,-27.875 111.75,-42.625c-62.083,5.125 -124.333,10.208 -186.708,15.208Zm1873,506.5c-64.667,-8.167 -130.667,-17.833 -197.917,-28.917c-55.583,4.584 -112.458,7.75 -170.875,9.209c128.334,12.541 251.75,19.708 368.792,19.708Zm-231.709,-34.333c-70.166,-12.125 -142.249,-26.417 -215.291,-41.834c-63.166,9.417 -128.333,16.667 -195.334,21.875c69.126,10.75 137.168,20.25 203.501,27.792c71.041,-0.375 140.125,-2.958 207.124,-7.833Zm-238.041,-46.709c-74.916,-16 -151,-33.375 -228.584,-52.458c-64.666,13.667 -131.504,25.083 -200.332,34.25c75.708,14.792 149.958,27.917 222.916,39.583c70.709,-4.833 139.459,-11.916 206,-21.375Zm-242.917,-55.916c-75.337,-18.667 -152.292,-39.292 -230.166,-60.959c-65.584,17.542 -133.417,32.667 -203.334,45.584c77.167,17.875 153.167,34.5 227.709,49.333c70.75,-8.958 139.375,-20.208 205.791,-33.958Zm-242.291,-64.375c-73.959,-20.667 -149.125,-42.667 -225.126,-65.709c-66.458,20.75 -135.083,39.209 -205.791,55.375c75.917,19.834 150.833,38.459 224.583,55.709c70.959,-12.75 139.75,-27.834 206.334,-45.375Zm-236.125,-69.042c-70.625,-21.458 -142.126,-44.042 -214.459,-67.583c-67.916,23.416 -137.916,44.583 -209.999,63.5c73.041,20.875 145.208,40.666 216.416,59.333c71.542,-16.042 140.875,-34.458 208.042,-55.25Zm-616,-205.5c-26.584,-9.542 -53.459,-19.5 -80.333,-29.458c-57.501,4.625 -115.167,9.166 -172.917,13.666c-42.084,13.125 -84.667,25.709 -127.75,37.834c51.541,17.416 102.916,34.708 153.708,51.208c77.708,-22.375 153.458,-46.792 227.292,-73.25Zm-94.125,-34.542c-15.917,-5.916 -31.709,-11.625 -47.667,-17.583c-28.166,9.625 -56.542,19 -85.167,28.125c44.375,-3.5 88.625,-7 132.834,-10.542Zm-57.292,-21.083c-32.583,-12.167 -65.334,-24.417 -98.208,-36.875c-84.167,25.375 -169.959,49.083 -257.292,71.292c14.542,5.083 29.25,10.333 43.75,15.333c69.417,-5.208 138.625,-10.542 207.667,-15.917c35.042,-10.916 69.708,-22.208 104.083,-33.833Zm-117.959,-44.417c-9.291,-3.541 -18.583,-7.083 -27.833,-10.666c-72.416,17.708 -145.583,34.666 -219.624,50.791c83.083,-12.875 165.583,-26.25 247.457,-40.125Zm3771.13,-70.666c40.249,-107 67,-227.959 79.375,-363.625c-114.251,8.75 -229.876,17.458 -346.959,26.208c-22.375,130.583 -58.833,246.833 -108.249,349.667c126.999,-3.875 252.25,-7.959 375.833,-12.25Zm79.958,-369.834c9.875,-112.25 9.917,-234.5 -0.292,-367.25c-105.791,12.959 -212.833,26.084 -320.874,39.417c1.458,128 -7.084,245.833 -25.209,354c116.916,-8.75 232.334,-17.458 346.375,-26.167Zm-0.792,-373.416c-9.041,-114.292 -25.624,-236.25 -50.25,-366.25c-98.249,17.166 -197.416,34.666 -297.374,52.583c16.583,125.292 25.583,242.917 27.083,353c107.958,-13.25 214.874,-26.417 320.541,-39.333Zm-51.375,-372.375c-21.792,-114.292 -49.833,-234.917 -84.041,-361.75c-91.126,21.5 -182.875,43.583 -275.167,66.166c26.875,122.209 47.334,238.042 62.125,348.084c99.875,-17.834 198.917,-35.375 297.083,-52.5Zm-85.666,-367.792c-30.625,-112.917 -66.209,-230.875 -106.959,-354c-84.458,26.208 -169.208,53.125 -254.25,80.75c33.625,118.004 62.375,231.083 86.292,339.292c92.208,-22.542 183.833,-44.584 274.917,-66.042Zm-108.959,-360.042c-36.583,-110.208 -77.125,-224.375 -122.042,-342.916c-77.958,31.375 -155.916,63.75 -233.916,97.041c37.958,112.792 71.875,221.584 101.917,326.5c84.958,-27.625 169.625,-54.5 254.041,-80.625Zm-124.374,-349.041c-40.209,-105.917 -83.876,-215.25 -130.918,-328c-71.416,37.375 -142.541,76 -213.333,115.791c40.042,106.209 76.875,209.209 110.584,309.084c77.875,-33.209 155.791,-65.542 233.667,-96.875Zm-133.542,-334.25c-41.667,-99.792 -86.001,-202.167 -133.084,-307.334c-64.791,44.542 -128.875,90.584 -192.25,138.167c39.876,97.333 77.209,192.208 112.167,284.708c70.708,-39.708 141.791,-78.25 213.167,-115.541Zm-136.084,-313.917c-41.125,-91.667 -84.292,-185.375 -129.624,-281.25c-57.584,53.625 -114.126,108.917 -169.376,166.375c37.376,85.958 73.167,170.333 107.001,252.75c63.291,-47.458 127.291,-93.417 191.999,-137.875Zm-133,-288.417c-37.958,-80.125 -77.333,-161.708 -118.249,-244.791c-46.292,61.5 -90.959,125.25 -134.084,191.166c1.167,13.375 2.292,26.709 3.625,40.25c27.416,60.75 53.75,120.417 79.459,179.459c55.249,-57.334 111.707,-112.584 169.249,-166.084Zm-122.167,-252.792l-2.582,-5.291l-0.167,-0.292l-0.042,-0.291c-19.708,-92.792 -36.917,-183.167 -52,-271.375c-33.083,64.708 -64.375,131.708 -93.917,200.791c3.542,85.209 9.417,172.917 17.375,262.792c42.292,-64.167 86.042,-126.333 131.333,-186.334Zm-57.124,-290.916c-15.125,-89.583 -27.917,-176.875 -38.417,-261.833c-21,67.792 -40.166,137.583 -57.292,209.708c-1.083,80.083 0.167,162.625 3.417,247.25c29.083,-67.083 59.791,-132.25 92.292,-195.125Zm-40.959,-282.25c-9.458,-78.833 -16.916,-155.708 -22.416,-230.625c-17.667,133.042 -28.25,273.667 -31.501,422c16.334,-65.584 34.292,-129.417 53.917,-191.375Zm-3162.17,4080.88c18.958,6.667 37.958,13.333 56.875,19.917c85.416,-21.584 169.375,-44.75 251.791,-69.375c-101.917,17.25 -204.833,33.75 -308.666,49.458Zm125.875,44.083c19.083,6.542 37.875,12.792 56.874,19.209c36.792,-10.292 73.209,-20.875 109.293,-31.917c-55.251,4.333 -110.667,8.542 -166.167,12.708Zm1773.46,450.459c-61.042,-7.459 -123.292,-16.334 -186.583,-26.375c-55.083,3.791 -111.208,6.5 -168.75,7.583c123.083,11.458 241.75,18 355.333,18.792Zm-220.042,-31.709c-70.625,-11.625 -142.291,-24.416 -215.458,-38.916c-63.917,8.083 -129.542,14.25 -196.791,18.583c70.458,10.25 139.708,19.167 207.583,26.417c69.954,-0.125 138.208,-2.125 204.666,-6.084Zm-235.124,-42.708c-73.042,-14.792 -147.667,-31.375 -223.167,-49.083c-66.834,11.958 -135.584,21.875 -206.084,29.791c75.167,13.875 149.125,26.417 221.709,37.375c71,-4 140.25,-10 207.542,-18.083Zm-238.501,-52.708c-73.125,-17.25 -147.291,-35.709 -222.499,-55.459c-68.501,15.375 -138.959,28.625 -211.251,39.834c74.917,16.333 148.833,31.5 221.542,45.166c72.625,-7.75 143.417,-17.541 212.208,-29.541Zm-235.999,-58.959c-70.875,-18.708 -142.542,-38.333 -215.167,-59.166c-70.167,18.125 -142.209,34.208 -216.083,48.25c73.041,18 145.166,34.875 216.291,50.541c73.583,-11.083 145.25,-24.25 214.959,-39.625Zm-227.417,-62.625c-66.542,-19.166 -133.625,-39.083 -201.625,-60.083c-72.5,20.333 -146.875,38.667 -223.042,55.042c69.5,18.708 138.125,36.291 206.083,53.125c74.75,-13.959 147.667,-29.959 218.584,-48.084Zm-569.917,-179.625c-20.5,-6.958 -40.917,-13.875 -61.5,-21c-63.5,4.792 -127.125,9.5 -190.917,14.125c-41.583,9.584 -83.375,18.875 -125.625,27.792c43.959,13.875 87.75,27.542 131.208,40.833c83.876,-18.875 166.209,-39.416 246.834,-61.75Zm-76.083,-26.083c-13.001,-4.5 -26.125,-9.167 -39.209,-13.708c-32.375,8.208 -65.041,16.125 -97.875,23.875c45.792,-3.334 91.459,-6.75 137.084,-10.167Zm-50.084,-17.5c-19.708,-6.875 -39.333,-13.75 -59.083,-20.667c-11.042,1.625 -22.042,3.292 -33.125,4.959c-84.291,17.416 -169.667,33.75 -255.917,49.25c10.875,3.5 21.626,6.958 32.5,10.458c62.709,-4.375 125.292,-8.833 187.75,-13.375c42.917,-9.875 85.625,-20.042 127.875,-30.625Zm3645.29,-135.958c49.625,-102.625 86.25,-218.75 108.708,-349.292c-112.917,8.417 -227.208,16.833 -342.875,25.25c-32.708,124.875 -78.375,236.542 -137.041,334.75c125.416,-3.375 249.042,-6.958 371.208,-10.708Zm109.875,-355.584c18.166,-107.958 26.917,-225.625 25.458,-353.583c-104.125,12.833 -209.583,25.833 -315.916,39c-7.625,123.083 -25.292,236.042 -52,339.792c115.542,-8.375 229.666,-16.75 342.458,-25.209Zm25.334,-359.791c-1.501,-109.917 -10.459,-227.417 -27.042,-352.625c-96.334,17.291 -193.584,34.875 -291.542,52.791c8.333,120.25 9.333,233.209 3.083,338.792c106.167,-13.167 211.458,-26.167 315.501,-38.958Zm-27.876,-358.792c-14.75,-109.875 -35.166,-225.542 -62,-347.583c-88.958,21.791 -178.5,44.125 -268.541,66.958c19.124,117.125 31.875,227.875 39.333,333.333c97.875,-17.916 194.959,-35.458 291.208,-52.708Zm-63.375,-353.708c-23.875,-108.042 -52.583,-220.917 -86.125,-338.709c-82.208,26.796 -164.666,54.167 -247.417,82.334c26.209,112.208 48.292,220.208 65.251,323.208c89.916,-22.75 179.416,-45.083 268.291,-66.833Zm-87.958,-344.875c-29.959,-104.667 -63.792,-213.25 -101.667,-325.792c-75.499,32.25 -150.958,65.458 -226.416,99.583c30.708,106.5 57.708,209.296 81,308.417c82.666,-28.125 164.999,-55.496 247.083,-82.208Zm-103.75,-332.125c-33.584,-99.584 -70.25,-202.292 -110.167,-308.167c-68.833,38.75 -137.333,78.667 -205.542,119.792c32.751,98.833 62.584,194.75 89.542,287.875c75.375,-34.042 150.792,-67.209 226.167,-99.5Zm-112.667,-314.667c-34.833,-92.208 -72.041,-186.792 -111.791,-283.875c-61.834,46.583 -123.042,94.625 -183.542,144.208c32.417,88.75 62,174.75 90.041,259.209c68.126,-41 136.542,-80.834 205.292,-119.542Zm-114.542,-290.708c-33.624,-82.042 -69.124,-165.959 -106.291,-251.5c-54.583,57.041 -107.625,116.541 -159.833,177.458c28.833,73.917 56.666,146.833 82.666,217.958c60.5,-49.458 121.626,-97.416 183.458,-143.916Zm-109.582,-258.959c-26.376,-60.583 -53.417,-121.875 -81.584,-184.25l-0.125,-0.333l-0.083,-0.375c-0.959,-9.958 -1.75,-19.75 -2.625,-29.583c-40.583,62.625 -79.667,127.333 -117.376,194c-1.374,26.916 -2.666,53.916 -3.624,81.333c15.792,39.25 30.624,77.5 45.666,116c52.167,-60.75 105.25,-119.958 159.751,-176.792Zm-85.584,-227.333c-7.917,-87.459 -14,-172.958 -17.75,-255.917c-27.667,65.792 -53.75,133.583 -78.166,203.459c-8.334,78.458 -14.917,158.916 -19.501,241.583c37.125,-64.958 75.542,-128.084 115.417,-189.125Zm-18.459,-275.292c-3.166,-77.375 -4.624,-152.916 -4.291,-226.625c-29.5,130.792 -52.708,268.75 -69.375,414.042c23.167,-64.167 47.708,-126.667 73.666,-187.417Zm-3433.5,3632.04l16.125,5.208c50.833,-9.041 101.333,-18.458 151.5,-28.166c-55.625,7.875 -111.501,15.541 -167.625,22.958Zm76.875,24.833c11.999,3.875 23.999,7.834 35.917,11.584c32.499,-6.75 64.833,-13.792 96.916,-21c-44.25,3.166 -88.5,6.333 -132.833,9.416Zm3701.88,-514.625c27.083,-103.583 45.125,-216.375 53.083,-339.375c-102.167,12.625 -205.625,25.459 -309.792,38.417c-17.208,117.667 -43.792,225.875 -79.25,325.042c113.292,-8 225.25,-16.042 335.959,-24.084Zm53.333,-345.666c6.5,-105.375 5.625,-218.167 -2.5,-338.292c-93.959,17.167 -188.75,34.708 -284.25,52.5c-0.334,115.208 -8,223.083 -22.416,324.125c103.958,-12.917 207.25,-25.708 309.166,-38.333Zm-2.958,-344.542c-7.333,-105.25 -20.042,-215.875 -39.042,-332.792c-86.5,21.917 -173.583,44.375 -261.125,67.25c11.042,111.542 16.5,217.5 16.458,317.959c95.292,-17.792 189.917,-35.292 283.709,-52.417Zm-40,-339.083c-16.834,-102.709 -38.751,-210.584 -64.876,-322.538c-79.208,27 -158.624,54.579 -238.374,82.829c18.75,106.834 32.583,208.834 42.458,306.875c87.458,-22.833 174.417,-45.25 260.792,-67.166Zm-66.333,-328.829c-23.209,-98.917 -50.042,-201.463 -80.626,-307.713c-72.333,32.75 -144.666,66.375 -217,100.833c23.375,99.917 43.209,196.421 59.667,289.542c79.584,-28.208 158.875,-55.75 237.959,-82.662Zm-82.459,-314.171c-26.833,-92.75 -56.458,-188.417 -89.042,-286.917c-65.667,39.667 -131,80.417 -196.041,122.25c25.375,91.042 48.124,179.458 68.291,265.333c72.251,-34.375 144.5,-67.958 216.792,-100.666Zm-91.292,-293.625c-27.917,-84.167 -57.333,-169.875 -89.583,-258.25c-58.958,48.458 -117.25,98.375 -174.834,149.791c24.543,78.375 47.75,155.459 68.709,230.334c64.917,-41.709 130.166,-82.334 195.708,-121.875Zm-92.208,-265.417c-25.75,-70.542 -53.375,-142.917 -81.916,-216.208c-51.459,60.291 -102,122.083 -151.167,186.166c20.5,60.75 39.999,120.542 58.458,179.334c57.541,-51.209 115.75,-100.959 174.625,-149.292Zm-85.125,-224.333c-15.792,-40.459 -31.375,-80.709 -48.042,-122l-0.166,-0.417l-0,-0.5c0.791,-22.042 1.874,-43.708 2.958,-65.458c-35.833,64.083 -70.125,130.208 -103.167,198.083c-8.25,37.333 -15.999,75.25 -23.416,113.625c7.292,21.042 13.874,41.375 20.917,62.167c49.082,-63.792 99.499,-125.459 150.916,-185.5Zm-1630.08,3367.08c-58.5,-7 -117.75,-14.875 -178.042,-23.958c-7.667,0.458 -15.292,0.875 -23,1.25c-46.708,2.25 -94.208,3.666 -142.416,4.25c118.291,10.5 232.957,16.833 343.458,18.458Zm-207.376,-28.583c-69.583,-10.875 -140.291,-23 -212.166,-36.542c-64.708,6.792 -130.875,11.958 -198.5,15.5c71.167,9.792 141.333,18.333 210.083,25.292c68.292,0.208 135.209,-1.209 200.583,-4.25Zm-233.208,-40.584c-71.208,-13.625 -143.541,-28.625 -216.916,-44.791c-68.584,10.25 -138.792,18.75 -210.584,25.416c73.167,12.709 145.375,24.292 216.375,34.375c8.667,-0.375 17.375,-0.75 26.042,-1.166c62.959,-3.209 124.667,-7.792 185.083,-13.834Zm-234.208,-48.5c-70.125,-15.625 -141.333,-32.541 -213.292,-50.375c-71.291,13.209 -144.292,24.584 -218.833,34.167c72.5,14.875 144.25,28.75 214.833,41.25c74.084,-6.458 146.584,-14.792 217.292,-25.042Zm-228.125,-54.041c-67.333,-16.792 -135.375,-34.459 -204.167,-53.084c-73.958,15.625 -149.5,29.417 -226.666,41.459c70.042,16.166 139.374,31.458 207.791,45.625c76.042,-9.459 150.417,-20.75 223.042,-34Zm-217.375,-56.667c-62.125,-16.917 -124.875,-34.542 -188.167,-52.917c-77.375,17.417 -156.333,33.042 -236.833,46.959c65.792,16.583 130.75,32.25 195.25,47.25c78.25,-11.959 154.833,-25.667 229.75,-41.292Zm-521.333,-154.167c-13.375,-4.25 -26.833,-8.666 -40.292,-13.041c-71.75,5 -143.625,9.875 -215.666,14.666c-38.584,6.209 -77.334,12.209 -116.251,18.084c35.209,10.333 70.334,20.583 105.209,30.541c90.333,-15.333 179.333,-32.083 267,-50.25Zm-56.084,-18.125c-9.541,-3.083 -19.083,-6.125 -28.666,-9.25c-35.625,6.334 -71.375,12.542 -107.334,18.542c45.417,-3.042 90.75,-6.167 136,-9.292Zm-41.208,-13.333c-5.875,-1.917 -11.75,-3.792 -17.625,-5.667c-105,13.834 -210.833,26.875 -317.542,39.084c4.542,1.375 9.084,2.708 13.667,4.041c54,-3.416 107.917,-6.916 161.708,-10.5c53.625,-8.625 106.876,-17.583 159.792,-26.958Zm3324.54,-3159.08c3.876,-75.166 9.168,-148.749 16.167,-220.374c-42.958,127.291 -80.416,261.333 -112.374,402.125c30.958,-62.125 62.916,-122.876 96.207,-181.751Zm-3628.75,3201.63l15.166,4.458c21.25,-3.167 42.542,-6.292 63.709,-9.583c-26.292,1.708 -52.583,3.416 -78.875,5.125Zm3733.25,-515.125c35.875,-98.959 62.875,-206.959 80.375,-324.584c-99.583,12.375 -200.542,24.917 -302,37.542c-25.292,104.042 -58.334,200.208 -98.75,288.875c-3.292,7.125 -6.625,14.167 -9.959,21.208c111.333,-7.666 221.459,-15.333 330.334,-23.041Zm81.291,-330.917c14.625,-100.875 22.458,-208.583 23,-323.625c-91.125,17 -182.999,34.25 -275.5,51.833c-9.458,109.917 -25.875,212.875 -48.917,309.25c101.25,-12.625 202,-25.125 301.417,-37.458Zm23.042,-330c0.25,-100.292 -4.958,-206 -15.875,-317.375c-83.167,21.75 -166.917,43.958 -251.042,66.583c2.667,106.167 -0.125,206.959 -8.083,302.5c92.375,-17.5 184.083,-34.75 275,-51.708Zm-16.5,-323.75c-9.75,-97.792 -23.5,-199.625 -42.083,-306.208c-75.917,27 -152.126,54.666 -228.542,82.791c10.875,100.75 17.459,197.375 20,289.875c84,-22.541 167.583,-44.75 250.625,-66.458Zm-43.125,-312.667c-16.333,-92.912 -35.916,-189.041 -59.167,-288.75c-69.042,32.917 -138.083,66.625 -207.124,101.129c15.916,93.246 28.541,183.251 38.082,270.246c76.292,-28.083 152.376,-55.708 228.209,-82.625Zm-60.791,-295.375c-20,-85.5 -42.709,-173.625 -67.917,-264.208c-62.292,40.167 -124.292,81.292 -186.001,123.5c18.042,82.792 33.792,163.292 47.251,241.542c68.875,-34.375 137.792,-68 206.667,-100.834Zm-69.834,-271.291c-20.791,-74.459 -43.708,-151 -68.042,-228.917c-55.542,49.667 -110.416,100.75 -164.666,153.208c17.083,67.667 32.75,133.959 46.958,198.875c61.667,-42.083 123.583,-83.083 185.75,-123.166Zm-70.5,-236.709c-18.25,-58.208 -37.5,-117.375 -57.75,-177.541c-48.584,63.625 -95.542,129.958 -141.666,197.625c12.291,44.75 23.958,88.916 35.041,132.458c54.167,-52.208 108.916,-103.042 164.375,-152.542Zm-60.75,-186.458c-7.792,-23.083 -15.125,-45.75 -23.25,-69.125l-0.167,-0.542l0.125,-0.583c5.292,-27.583 10.917,-54.708 16.667,-81.75c-50.083,105 -96.917,214.417 -140.291,328.583c1.875,6.709 3.666,13.292 5.541,19.959c46,-67.292 92.875,-133.209 141.375,-196.542Zm-1949.21,3148.67c-58.709,-6.667 -118.084,-14.125 -178.459,-22.792c-55.792,2.458 -112.541,3.792 -170.166,4.083c119.75,10.334 236.041,16.625 348.625,18.709Zm-210.834,-27.667c-68,-10.042 -136.833,-21.083 -206.833,-33.5c-56.209,4.875 -113.292,8.667 -171.334,11.458c-10.833,0.5 -21.666,0.959 -32.541,1.417c69.333,8.958 137.625,16.792 204.917,23.333c69.916,0.625 138.5,-0.291 205.791,-2.708Zm-229.749,-37.792c-69.251,-12.5 -139.417,-26.083 -210.501,-40.791c-71.25,8.833 -144.041,15.958 -218.166,21.541c71.375,11.667 141.791,22.25 211.208,31.584c22.958,-0.75 45.792,-1.667 68.5,-2.709c50.333,-2.416 100,-5.625 148.959,-9.625Zm-229.584,-44.708c-67.333,-14.083 -135.625,-29.375 -204.583,-45.417c-74.792,11.334 -151.084,21.042 -228.75,29.167c70.333,13.5 139.875,26 208.541,37.458c76.417,-5.375 151.333,-12.416 224.792,-21.208Zm-221.167,-49.25c-63.75,-14.958 -128.125,-30.625 -193.125,-47.167c-78.333,13.334 -158.167,25.042 -239.333,35.167c67,14.5 133.375,28.125 199,40.875c79.292,-7.917 157.166,-17.542 233.458,-28.875Zm-208,-50.958c-57.5,-14.709 -115.5,-30 -173.958,-45.875c-82.708,14.583 -166.833,27.666 -252.208,39.25c61.625,14.541 122.708,28.416 183.292,41.625c82.374,-10.084 163.374,-21.709 242.874,-35Zm-467.416,-129.292c-6.334,-1.833 -12.584,-3.708 -18.875,-5.542c-82.292,5.209 -164.792,10.292 -247.459,15.167c-32.708,3.375 -65.5,6.625 -98.375,9.833c24.5,6.667 48.959,13.25 73.292,19.709c98.125,-11.959 195.333,-24.959 291.417,-39.167Zm-36.167,-10.625c-3.708,-1.083 -7.5,-2.25 -11.208,-3.375c-27.334,3.083 -54.667,6.208 -82.084,9.208c31.126,-1.916 62.209,-3.875 93.292,-5.833Zm1114.92,324.208c-56.125,-6.166 -113,-13.083 -170.584,-20.875c-55.417,1.834 -111.625,2.75 -168.666,2.792c116.041,9.458 229.166,15.542 339.25,18.083Zm-207.625,-25.958c-65.751,-9.208 -132.417,-19.458 -199.875,-30.708c-57.167,4 -115.209,7.041 -173.959,9.208c-11.291,0.417 -22.583,0.75 -33.916,1.083c67.541,8.25 134.208,15.459 200,21.584c70.416,0.958 139.708,0.583 207.75,-1.167Zm-226.25,-35.125c-67.042,-11.417 -134.834,-23.75 -203.417,-37.083c-73.666,7.333 -148.584,13.291 -224.708,17.833c69.5,10.625 138.166,20.292 206.041,28.917c24.792,-0.584 49.5,-1.292 74.042,-2.167c49.958,-1.833 99.292,-4.375 148.042,-7.5Zm-224.376,-41.208c-64.833,-12.75 -130.332,-26.334 -196.499,-40.709c-78.167,9.5 -157.625,17.542 -238.292,24.209c67.958,12.166 135.25,23.5 201.792,33.916c78.916,-4.333 156.666,-10.083 232.999,-17.416Zm-214.791,-44.709c-60.083,-13.208 -120.75,-27.083 -181.875,-41.583c-82.875,11.042 -166.958,20.708 -252.167,29.042c64.042,12.875 127.5,25.041 190.376,36.5c82.499,-6.5 163.749,-14.5 243.666,-23.959Zm-198.708,-45.583c-52.459,-12.542 -105.292,-25.542 -158.5,-39.042c-88.5,11.834 -178.167,22.334 -268.834,31.667c57.5,12.625 114.5,24.667 171.125,36.167c86.625,-8.209 172.042,-17.792 256.209,-28.792Zm3497.04,-935.167c23.084,-96.166 39.584,-199 49.125,-308.75c-87.833,16.667 -176.166,33.542 -265.291,50.709c-19,104.708 -44.626,202.75 -76.667,294.458l292.833,-36.417Zm49.667,-315.208c8.042,-95.375 10.917,-195.917 8.291,-301.875c-79.457,21.375 -159.291,43.125 -239.625,65.25c-5.999,100.792 -17.166,196.458 -33.333,287.208c88.917,-17.125 177.042,-33.958 264.667,-50.583Zm8.125,-308.375c-2.458,-92.292 -9.042,-188.625 -19.791,-289.083c-71.834,26.5 -143.875,53.541 -216.126,81.083c2.875,94.917 1.792,185.875 -3.166,273.042c80.125,-22.084 159.792,-43.709 239.083,-65.042Zm-20.5,-295.75c-9.459,-86.667 -21.959,-176.371 -37.75,-269.246c-64.833,32.417 -129.667,65.454 -194.5,99.288c8.5,86.458 14,170.083 16.625,250.833c72.083,-27.458 143.958,-54.458 215.625,-80.875Zm-38.916,-276.208c-13.376,-77.875 -28.959,-157.959 -46.875,-240.292c-58.251,39.958 -116.293,80.833 -174.042,122.625c10.958,74.167 19.875,146.375 26.917,216.708c64.625,-33.704 129.291,-66.666 194,-99.041Zm-48.501,-247.709c-14.083,-64.375 -29.5,-130.083 -46.416,-197.166c-52.042,50.416 -103.542,102.125 -154.375,155.083c10.125,55.75 19.166,110.542 27.208,164.292c57.625,-41.667 115.458,-82.417 173.583,-122.209Zm-48.541,-205.583c-10.875,-42.875 -22.292,-86.292 -34.333,-130.292c-45.792,67.459 -90.876,136.167 -134.25,207.5c5.125,25.875 9.958,51.542 14.625,77c50.708,-52.708 102.083,-104.041 153.958,-154.208Zm-2820.46,2750.21c-53.666,-5.583 -107.958,-11.916 -162.75,-18.875c-54.708,1.25 -110,1.792 -165.958,1.542c111.958,8.667 221.583,14.458 328.708,17.333Zm-203.875,-24.25c-64.041,-8.458 -128.75,-17.791 -194.166,-28.041c-69.375,3.791 -139.709,6.416 -211.042,7.916c65.959,7.584 131.208,14.209 195.708,19.959c70.833,1.25 140.667,1.333 209.5,0.166Zm-223.291,-32.666c-64.792,-10.334 -130.209,-21.542 -196.292,-33.542c-30.792,2.458 -61.75,4.667 -92.917,6.667c-46.041,3 -92.458,5.541 -139.208,7.625c67.625,9.708 134.625,18.5 200.917,26.458c76.916,-1.083 152.791,-3.5 227.5,-7.208Zm-220.042,-37.875c-61.958,-11.417 -124.458,-23.542 -187.5,-36.375c-81.958,7.791 -164.958,14.333 -248.959,19.625c65.709,11 130.834,21.208 195.334,30.666c57.625,-2.333 114.708,-5.333 171.209,-9c23.416,-1.541 46.666,-3.166 69.916,-4.916Zm-208.334,-40.584c-56.083,-11.541 -112.582,-23.583 -169.499,-36.166c-88,8.875 -176.958,16.541 -266.875,23.125c60.875,11.375 121.291,22.166 181.208,32.333c86.125,-5.167 171.209,-11.583 255.166,-19.292Zm-188.583,-40.375c-46.958,-10.5 -94.208,-21.291 -141.667,-32.5c-94.958,9.125 -190.666,17.334 -287.249,24.5c52.75,10.709 105.208,21 157.291,30.875c91.5,-6.5 182.083,-14.041 271.625,-22.875Zm-160.417,-36.875c-32.958,-7.833 -66.083,-15.791 -99.291,-23.958c-104.125,8.25 -208.917,15.708 -314.291,22.417c41.083,8.875 81.916,17.458 122.624,25.791c97.834,-7.041 194.792,-15.166 290.958,-24.25Zm3821.58,-851.166c32.125,-91.5 57.875,-189.375 76.917,-293.875c-82.833,15.958 -166.375,32.166 -250.334,48.583c-29.042,99.583 -64.5,192.917 -106.125,280.083l127.417,-15.833l152.125,-18.958Zm78.125,-300.459c16.25,-90.541 27.5,-186 33.542,-286.541c-74,20.416 -148.501,41.25 -223.292,62.333c-15.041,95.667 -35.041,186.5 -59.833,272.625c83.708,-16.333 167.041,-32.542 249.583,-48.417Zm33.916,-293.208c5.043,-86.958 6.25,-177.625 3.417,-272.25c-66.166,25.292 -132.458,50.917 -199,77.042c-5.292,89.375 -14.291,175.125 -27,257.291c74.542,-21 148.792,-41.75 222.583,-62.083Zm3.209,-279.125c-2.541,-80.417 -7.958,-163.667 -16.292,-249.75c-59.124,30.921 -118.249,62.625 -177.417,94.75c1.125,79.833 -0.457,157.083 -4.708,231.75c66.334,-26.042 132.459,-51.583 198.417,-76.75Zm-17,-257c-6.917,-69.917 -15.708,-141.708 -26.5,-215.375c-53,38.417 -105.708,77.875 -158.208,117.917c4.291,65.5 6.958,129.458 7.916,191.833c58.959,-32.042 117.875,-63.579 176.792,-94.375Zm-27.667,-223.292c-7.874,-53 -16.75,-107.041 -26.666,-162.041c-47.667,49.791 -94.875,100.5 -141.375,152.625c4.167,42.875 7.624,85.083 10.458,126.666c52.333,-39.791 104.792,-79 157.583,-117.25Zm-3188.17,2390.38c-51.125,-5.125 -102.75,-10.833 -154.792,-17.041c-4.917,0.041 -9.875,0.166 -14.834,0.208c-48.499,0.625 -97.457,0.667 -146.833,0.25c107.417,7.833 212.958,13.417 316.459,16.583Zm-200.792,-22.708c-61.958,-7.708 -124.5,-16.25 -187.625,-25.5c-70.792,2.875 -142.417,4.75 -214.833,5.667c64.292,6.875 128,13 191.125,18.375c71.291,1.5 141.708,2 211.333,1.458Zm-220.708,-30.375c-62.542,-9.417 -125.667,-19.5 -189.292,-30.292c-79.292,4.75 -159.5,8.375 -240.5,11c66.125,8.792 131.75,16.875 196.75,24.209c78.625,-0.5 156.291,-2.167 233.042,-4.917Zm-216.209,-34.917c-58.958,-10.125 -118.375,-20.875 -178.25,-32.166c-86.166,6.083 -173.166,11.25 -260.999,15.25c63.416,9.833 126.333,19.041 188.791,27.583c84.417,-2.375 167.875,-5.958 250.458,-10.667Zm-201.749,-36.666c-51.792,-9.917 -103.876,-20.25 -156.334,-31c-93.833,6.791 -188.458,12.583 -283.75,17.5c57.542,9.958 114.75,19.416 171.583,28.416c90.376,-3.916 179.917,-8.875 268.501,-14.916Zm-178.751,-35.584c-40.583,-8.416 -81.291,-17.041 -122.208,-25.958c-102.875,6.458 -206.25,12.208 -310.167,17.208c48.209,9.042 96.167,17.709 143.876,26.125c96.957,-4.833 193.083,-10.666 288.499,-17.375Zm-144.166,-30.708c-23.084,-5.083 -46.209,-10.208 -69.375,-15.417c-114.667,4.792 -229.625,9.167 -344.875,13.084c33.416,6.625 66.708,13.041 99.875,19.333c105.333,-4.917 210.167,-10.583 314.375,-17Zm4099.21,-1096.58c24.875,-85.875 44.958,-176.459 60.083,-271.875c-66.374,18.75 -132.999,37.666 -199.958,56.916c-24.708,91.167 -54.25,177.75 -88.375,259.75c76.583,-15.083 152.583,-30 228.25,-44.791Zm61.209,-278.792c12.708,-81.875 21.833,-167.292 27.166,-256.375c-57.959,22.792 -116.167,46.125 -174.458,69.625c-13.751,84.542 -31.042,165.667 -51.834,243.417c66.667,-19.167 133,-38 199.126,-56.667Zm27.582,-263.583c4.292,-74.292 6.001,-151.125 5,-230.542c-50.916,27.75 -101.875,55.792 -152.749,84.375c-6.167,74.125 -14.834,145.958 -25.917,215.458c58.041,-23.416 115.959,-46.583 173.666,-69.291Zm4.918,-238.167c-0.918,-61.829 -3.459,-125.25 -7.626,-190.25c-45.208,34.587 -90.333,69.5 -135.208,105.25c-1.709,57.583 -4.75,113.833 -9.167,168.833c50.667,-28.375 101.333,-56.291 152.001,-83.833Zm-3540.46,2041.21c-48.083,-4.583 -96.458,-9.666 -145.25,-15.166c-52.375,0.333 -105.166,0.166 -158.333,-0.5c102.667,7.083 203.875,12.333 303.583,15.666Zm-197.042,-21.125c-60.166,-7.083 -120.75,-14.833 -181.833,-23.208c-72.417,2.083 -145.542,3.25 -219.292,3.625c62.75,6.292 125,11.958 186.75,16.958c72.167,1.75 143.625,2.625 214.375,2.625Zm-219.499,-28.416c-60.292,-8.459 -121.042,-17.542 -182.209,-27.167c-82.708,3.542 -166.167,6.167 -250.25,7.917c64.458,8 128.458,15.333 192,22.041c80.917,0.042 161.083,-0.875 240.459,-2.791Zm-212.918,-32.042c-55.666,-8.958 -111.666,-18.333 -167.999,-28.25c-91.5,4.542 -183.75,8.125 -276.5,10.958c61.458,8.834 122.5,17.084 183.166,24.834c87.875,-1.542 174.959,-4.084 261.333,-7.542Zm-195.499,-33.083c-47.333,-8.459 -94.875,-17.167 -142.667,-26.209c-100.833,4.709 -202.083,8.75 -303.875,12.084c54.375,8.666 108.417,16.958 162.209,24.833c95.457,-2.708 190.249,-6.25 284.333,-10.708Zm-168.667,-31.167c-33.333,-6.375 -66.792,-12.958 -100.333,-19.625c-112.459,3.75 -225.167,7.083 -338.126,10c43.084,7.375 86.042,14.583 128.792,21.542c103.75,-3.25 206.917,-7.25 309.667,-11.917Zm4202.33,-1068.12c34.25,-81.75 63.876,-168.042 88.667,-258.958c-54.667,15.75 -109.583,31.708 -164.667,47.791c-35.458,87.875 -75.708,171.209 -120.541,250.209c65.874,-13.167 131.417,-26.167 196.541,-39.042Zm90.625,-266.125c20.875,-77.417 38.25,-158.167 52.084,-242.375c-45.417,18.375 -90.917,36.958 -136.459,55.708c-22.916,81.334 -49.333,159.334 -79.208,234.084c54.75,-15.959 109.292,-31.792 163.583,-47.417Zm53.292,-249.917c11.167,-69.083 19.875,-140.458 26.125,-214.166c-37.875,21.25 -75.75,42.875 -113.625,64.708c-13.625,70.417 -29.625,138.625 -47.958,204.667c45.249,-18.584 90.416,-37 135.458,-55.209Zm-3873.96,1702.92c-45.126,-4.167 -90.542,-8.667 -136.167,-13.5c-50.792,-0.042 -101.875,-0.458 -153.25,-1.25c97.542,6.375 194.083,11.292 289.417,14.75Zm-194.792,-19.875c-58.083,-6.458 -116.541,-13.458 -175.375,-20.958c-74.667,1.291 -149.833,1.875 -225.459,1.75c61.251,5.708 122.167,10.916 182.668,15.541c73.291,2 145.999,3.209 218.166,3.667Zm-218.458,-26.5c-58.084,-7.625 -116.584,-15.75 -175.334,-24.333c-86.708,2.416 -173.875,4.208 -261.583,5.166c62.958,7.209 125.5,13.875 187.708,20.042c83.709,0.542 166.751,0.25 249.209,-0.875Zm-209.917,-29.5c-52.917,-7.875 -106.083,-16.167 -159.5,-24.792c-97.708,3 -195.875,5.375 -294.375,7.084c59.459,7.875 118.708,15.333 177.542,22.291c92.666,-0.708 184.833,-2.208 276.333,-4.583Zm-191.625,-30.042c-42.458,-7 -85.083,-14.208 -127.875,-21.666c-109.5,2.708 -219.167,5 -329.083,6.833c51.579,7.542 102.958,14.792 154.125,21.75c101.375,-1.625 202.333,-3.917 302.833,-6.917Zm4337.83,-1039.83c44.916,-78.667 85.249,-161.75 120.875,-249.333c-35.626,10.416 -71.334,20.875 -107.084,31.416c-50.5,90.584 -106.333,176.167 -167.375,256.875c4.292,-3.416 8.667,-6.833 12.959,-10.333l0.791,-0.708l1.292,-0.209c46.374,-9.333 92.5,-18.541 138.542,-27.708Zm123.916,-256.875c29.917,-74.375 56.417,-152.042 79.375,-233c-24.125,9.958 -48.292,19.875 -72.542,29.958c-33.791,81.459 -71.333,159.417 -112.542,234.084c35.292,-10.417 70.584,-20.75 105.709,-31.042Zm-4183.17,1375.12c-42.125,-3.708 -84.417,-7.667 -126.916,-11.875c-48.709,-0.292 -97.542,-0.833 -146.626,-1.75c91.959,5.625 183.167,10.208 273.542,13.625Zm-193.333,-18.625c-56.583,-5.917 -113.458,-12.25 -170.583,-19c-77.084,0.583 -154.458,0.667 -232.25,0.167c33.624,2.916 67.25,5.708 100.708,8.333c26.167,2.083 52.292,4.042 78.333,5.958c75.042,2.125 149.625,3.667 223.792,4.542Zm-218.833,-24.833c-56.375,-6.875 -113.042,-14.209 -169.917,-21.917c-91.708,1.458 -183.75,2.375 -276.117,2.667c62.492,6.625 124.742,12.833 186.659,18.5c86.916,1 173.333,1.166 259.375,0.75Zm-210.375,-27.417c-50.209,-6.958 -100.667,-14.25 -151.292,-21.792c-105.263,1.625 -210.663,2.875 -316.267,3.625c58.479,7.125 116.713,13.875 174.713,20.25c97.971,-0.083 195.637,-0.75 292.846,-2.083Zm66.416,43c-38.541,-3.208 -77.25,-6.625 -116.041,-10.167c-48.125,-0.541 -96.417,-1.375 -144.792,-2.291c87.5,4.958 174.417,9.083 260.833,12.458Zm-192.833,-17.458c-55.458,-5.417 -111.171,-11.167 -167.083,-17.334c-80.725,0.042 -161.679,-0.333 -242.859,-1.125c60.45,4.792 120.646,9.209 180.646,13.292c76.746,2.25 153.213,3.958 229.296,5.167Zm-221.746,-23.459c-55.616,-6.291 -111.417,-12.958 -167.433,-19.958c-98.567,0.583 -197.254,0.792 -296.038,0.542c63.505,6.166 126.771,11.916 189.846,17.291c91.496,1.292 182.688,1.959 273.625,2.125Zm-163.254,13.084c-36.858,-2.875 -73.817,-5.917 -110.825,-9.084c-47.942,-0.666 -95.979,-1.541 -144.088,-2.5c85.321,4.5 170.3,8.334 254.913,11.584Zm-197.225,-16.667c-55.729,-5.042 -111.608,-10.375 -167.679,-16.042c-86.267,-0.333 -172.604,-1.041 -259.038,-2.041c62.104,4.5 124.021,8.625 185.809,12.5c80.491,2.291 160.808,4.166 240.908,5.583Zm-416.683,-11.208c-35.95,-2.584 -71.996,-5.334 -108.079,-8.167c-48.546,-0.708 -97.084,-1.542 -145.663,-2.458c84.762,4.041 169.371,7.583 253.742,10.625Z" style="fill:#cbd5e1;fill-rule:nonzero;"/></g></svg>