<?xml version="1.0" encoding="UTF-8" standalone="no"?><!DOCTYPE svg PUBLIC "-//W3C//DTD SVG 1.1//EN" "http://www.w3.org/Graphics/SVG/1.1/DTD/svg11.dtd"><svg width="100%" height="100%" viewBox="0 0 11250 6334" version="1.1" xmlns="http://www.w3.org/2000/svg" xmlns:xlink="http://www.w3.org/1999/xlink" xml:space="preserve" xmlns:serif="http://www.serif.com/" style="fill-rule:evenodd;clip-rule:evenodd;stroke-linejoin:round;stroke-miterlimit:2;"><g><rect x="0" y="0" width="11250" height="6333.33" style="fill:#fff;fill-rule:nonzero;"/><path d="M3569.85,5198.92c782.362,-158.959 1660.11,36 2341.61,-379.75c571.042,-348.375 887.25,-1069.29 1522.42,-1279.02c346.417,-114.375 722.792,-51.229 1087.33,-64.687c920.876,-33.988 1742.54,-553.021 2529.79,-1031.97c65.792,-40.017 132.125,-79.963 199,-119.546l0,-2323.94l-3959.38,-0c-61.167,36.308 -121.917,72.909 -182.125,109.558c-787.25,478.955 -1608.96,997.984 -2529.79,1031.97c-364.541,13.455 -740.937,-49.687 -1087.34,64.688c-635.188,209.729 -951.371,930.646 -1522.41,1279.01c-575.008,350.792 -1289.72,266.817 -1968.95,327.471l-0,3520.63l1916.23,0c374.238,-574.208 980.663,-997.708 1653.62,-1134.42Z" style="fill:url(#_Linear1);"/><path d="M3491.37,1206.22c346.404,-114.375 722.8,-51.233 1087.34,-64.688c920.834,-33.991 1742.54,-553.02 2529.79,-1031.97c60.208,-36.649 120.958,-73.25 182.125,-109.558l-1889.62,0c-436.166,207.646 -890.167,357.821 -1371.24,375.579c-364.555,13.455 -740.926,-49.691 -1087.33,64.683c-635.187,209.73 -951.366,930.646 -1522.41,1279.02c-421.313,257.021 -917.621,280.642 -1420.02,298.762l0,794.663c679.233,-60.654 1393.95,23.321 1968.95,-327.471c571.042,-348.366 887.225,-1069.28 1522.41,-1279.01Z" style="fill:url(#_Linear2);"/><path d="M2942.43,440.262c346.408,-114.374 722.779,-51.228 1087.33,-64.683c481.07,-17.758 935.071,-167.933 1371.24,-375.579l-5401,0l0,2018.04c502.4,-18.12 998.708,-41.741 1420.02,-298.762c571.042,-348.371 887.221,-1069.29 1522.41,-1279.02Z" style="fill:url(#_Linear3);"/><path d="M9183.33,4479c-364.541,13.458 -740.916,-49.708 -1087.33,64.667c-635.208,209.75 -951.375,930.666 -1522.42,1279.04c-681.5,415.75 -1559.29,220.792 -2341.62,379.709c-148.408,30.166 -293.554,74.333 -433.716,130.916l4344.18,0c272.999,-300.583 538,-606.416 915.958,-731.208c346.416,-114.375 722.792,-51.208 1087.33,-64.667c383.751,-14.166 750.292,-112.625 1104.29,-257.25l0,-1553.42c-647.084,382.504 -1324.67,724.837 -2066.67,752.212Z" style="fill:url(#_Linear4);"/><path d="M6573.58,5822.71c571.042,-348.375 887.209,-1069.29 1522.42,-1279.04c346.417,-114.375 722.792,-51.209 1087.33,-64.667c742.001,-27.375 1419.58,-369.708 2066.67,-752.212l0,-1402.85c-66.875,39.583 -133.208,79.529 -199,119.546c-787.25,478.954 -1608.92,997.987 -2529.79,1031.97c-364.541,13.458 -740.916,-49.688 -1087.33,64.687c-635.167,209.729 -951.375,930.642 -1522.42,1279.02c-681.5,415.75 -1559.25,220.791 -2341.61,379.75c-672.954,136.708 -1279.38,560.208 -1653.62,1134.42l1882.01,0c140.162,-56.583 285.308,-100.75 433.716,-130.916c782.334,-158.917 1660.12,36.041 2341.62,-379.709Z" style="fill:url(#_Linear5);"/><path d="M9058.38,5602.12c-377.958,124.792 -642.959,430.625 -915.958,731.208l3107.58,0l0,-1053.12c-354,144.625 -720.541,243.084 -1104.29,257.25c-364.541,13.459 -740.917,-49.708 -1087.33,64.667Z" style="fill:url(#_Linear6);"/></g><defs><linearGradient id="_Linear1" x1="0" y1="0" x2="1" y2="0" gradientUnits="userSpaceOnUse" gradientTransform="matrix(765.958,3765.96,-3765.96,765.958,5171.33,936.171)"><stop offset="0" style="stop-color:#fff;stop-opacity:1"/><stop offset="1" style="stop-color:#f1f5f9;stop-opacity:1"/></linearGradient><linearGradient id="_Linear2" x1="0" y1="0" x2="1" y2="0" gradientUnits="userSpaceOnUse" gradientTransform="matrix(714.892,1378.73,-1378.73,714.892,3343.63,824.537)"><stop offset="0" style="stop-color:#f1f5f9;stop-opacity:1"/><stop offset="1" style="stop-color:#f1f5f9;stop-opacity:1"/></linearGradient><linearGradient id="_Linear3" x1="0" y1="0" x2="1" y2="0" gradientUnits="userSpaceOnUse" gradientTransform="matrix(2642.55,3574.47,-3574.47,2642.55,1268.88,-927.483)"><stop offset="0" style="stop-color:#fff;stop-opacity:1"/><stop offset="1" style="stop-color:#f1f5f9;stop-opacity:1"/></linearGradient><linearGradient id="_Linear4" x1="0" y1="0" x2="1" y2="0" gradientUnits="userSpaceOnUse" gradientTransform="matrix(523.404,1697.87,-1697.87,523.404,7397.29,4618.58)"><stop offset="0" style="stop-color:#fff;stop-opacity:1"/><stop offset="1" style="stop-color:#f1f5f9;stop-opacity:1"/></linearGradient><linearGradient id="_Linear5" x1="0" y1="0" x2="1" y2="0" gradientUnits="userSpaceOnUse" gradientTransform="matrix(855.321,2029.79,-2029.79,855.321,6348.54,3772)"><stop offset="0" style="stop-color:#fff;stop-opacity:1"/><stop offset="1" style="stop-color:#f1f5f9;stop-opacity:1"/></linearGradient><linearGradient id="_Linear6" x1="0" y1="0" x2="1" y2="0" gradientUnits="userSpaceOnUse" gradientTransform="matrix(191.49,1327.66,-1327.66,191.49,9634.38,5377.92)"><stop offset="0" style="stop-color:#fff;stop-opacity:1"/><stop offset="1" style="stop-color:#f1f5f9;stop-opacity:1"/></linearGradient></defs></svg>