<?xml version="1.0" encoding="UTF-8" standalone="no"?><!DOCTYPE svg PUBLIC "-//W3C//DTD SVG 1.1//EN" "http://www.w3.org/Graphics/SVG/1.1/DTD/svg11.dtd"><svg width="100%" height="100%" viewBox="0 0 3608 2846" version="1.1" xmlns="http://www.w3.org/2000/svg" xmlns:xlink="http://www.w3.org/1999/xlink" xml:space="preserve" xmlns:serif="http://www.serif.com/" style="fill-rule:evenodd;clip-rule:evenodd;stroke-miterlimit:10;"><path d="M1625,533.333c0,0 -190.667,190.667 -526.083,275.417c-0,0 -596.75,160.958 -681.5,447.042c-0,-0 -229.5,453.208 148.291,905.25c0,-0 530.709,537.125 1573.29,450c11.472,-0.973 22.958,-1.528 34.458,-1.667c90.125,-0.958 569.709,-23.5 955.042,-381.042c184.875,-171.541 292.292,-411.083 301.208,-663.166c12.792,-363.042 -44.625,-943.667 -491.166,-1229.75c0.125,0.291 -656.625,-490.5 -1313.54,197.916Z" style="fill:#0071f2;fill-rule:nonzero;"/><path d="M1625,533.333c0,0 -190.667,190.667 -526.083,275.417c-0,0 -596.75,160.958 -681.5,447.042c-0,-0 -229.5,453.208 148.291,905.25c0,-0 530.709,537.125 1573.29,450c11.472,-0.973 22.958,-1.528 34.458,-1.667c90.125,-0.958 569.709,-23.5 955.042,-381.042c184.875,-171.541 292.292,-411.083 301.208,-663.166c12.792,-363.042 -44.625,-943.667 -491.166,-1229.75c0.125,0.291 -656.625,-490.5 -1313.54,197.916Z" style="fill:#fff;fill-opacity:0.7;fill-rule:nonzero;"/><path d="M252,1383.33c-15.237,7.62 -21.516,26.42 -13.917,41.667l264.584,530.583c9.631,18.912 33.048,26.636 52.041,17.167l365.792,-182.708c13.242,-6.553 21.656,-20.105 21.656,-34.88c-0,-6.139 -1.453,-12.192 -4.239,-17.662l-262.917,-525.5c-8.858,-17.655 -30.636,-24.939 -48.333,-16.167l-374.667,187.5Z" style="fill:#b3b3b3;fill-rule:nonzero;"/><path d="M269.625,1428.88l249.125,505.375c5.209,10.611 16.045,17.362 27.865,17.362c4.788,0 9.513,-1.108 13.802,-3.237l335.833,-166.25c15.146,-7.478 21.551,-26.017 14.25,-41.25l-245.5,-512.292c-5.236,-10.897 -16.303,-17.857 -28.393,-17.857c-4.976,-0 -9.882,1.179 -14.315,3.441l-338.75,172.75c-15.241,7.77 -21.493,26.62 -13.917,41.958Z" style="fill:#e6e6e6;fill-rule:nonzero;"/><path d="M397.148,1381.41c-2.376,-5.032 -8.391,-7.189 -13.423,-4.814l-85.005,40.127c-5.033,2.376 -7.19,8.391 -4.814,13.423l44.147,93.521c2.376,5.032 8.39,7.189 13.423,4.814l85.005,-40.127c5.032,-2.376 7.189,-8.391 4.814,-13.423l-44.147,-93.521Z" style="fill:#d3d3d3;"/><path d="M645.817,1256.16l-229.197,118.551l2.661,5.144l229.197,-118.551l-2.661,-5.144Z" style="fill:#d3d3d3;"/><path d="M661.648,1279.82l-229.197,118.551l2.661,5.144l229.197,-118.551l-2.661,-5.144Z" style="fill:#d3d3d3;"/><path d="M673.494,1307.5l-229.197,118.551l2.661,5.144l229.197,-118.551l-2.661,-5.144Z" style="fill:#d3d3d3;"/><path d="M689.337,1339.11l-229.197,118.551l2.661,5.144l229.197,-118.55l-2.661,-5.145Z" style="fill:#d3d3d3;"/><path d="M602.384,1477.43l-229.197,118.551l2.661,5.144l229.197,-118.551l-2.661,-5.144Z" style="fill:#d3d3d3;"/><path d="M618.214,1501.13l-229.197,118.551l2.661,5.144l229.197,-118.55l-2.661,-5.145Z" style="fill:#d3d3d3;"/><path d="M630.061,1528.81l-229.197,118.55l2.661,5.145l229.196,-118.551l-2.66,-5.144Z" style="fill:#d3d3d3;"/><path d="M645.866,1560.44l-229.197,118.551l2.661,5.144l229.197,-118.551l-2.661,-5.144Z" style="fill:#d3d3d3;"/><path d="M669.572,1599.92l-229.197,118.551l2.661,5.144l229.197,-118.551l-2.661,-5.144Z" style="fill:#d3d3d3;"/><path d="M685.402,1623.62l-229.196,118.55l2.66,5.145l229.197,-118.551l-2.661,-5.144Z" style="fill:#d3d3d3;"/><path d="M697.207,1651.3l-229.197,118.55l2.661,5.145l229.197,-118.551l-2.661,-5.144Z" style="fill:#d3d3d3;"/><path d="M713.05,1682.91l-229.197,118.551l2.661,5.144l229.197,-118.551l-2.661,-5.144Z" style="fill:#d3d3d3;"/><path d="M735.833,1516.88l6.167,6.292l9.917,-9.792l-6.084,-6.417c2.844,-4.425 4.64,-9.442 5.25,-14.666l9.417,-0l-0.5,-14.292l-10.042,0c-1.155,-4.055 -2.986,-7.887 -5.416,-11.333l7.458,-7.375l-10.333,-10.334l-7.75,7.625c-3.808,-2.514 -8.045,-4.308 -12.5,-5.291l-0,-9.25l-14.209,-0.5l0,9.625c-4.122,0.805 -8.062,2.359 -11.625,4.583l-6.291,-6.417l-10.125,9.792l6.166,6.25c-2.573,3.766 -4.345,8.021 -5.208,12.5l-11.042,-0l0.542,14.25l10.417,0c0.88,4.44 2.575,8.678 5,12.5l-6.792,6.708l10.167,10.417l6.541,-6.458c3.756,2.752 7.997,4.773 12.5,5.958l0,8.667l14.209,0.541l-0,-8.333c5.057,-0.658 9.901,-2.453 14.166,-5.25Zm-37.833,-13.333c-3.985,-4.556 -6.184,-10.408 -6.184,-16.461c0,-13.714 11.286,-25 25,-25c13.715,0 25,11.286 25,25c0,7.064 -2.993,13.807 -8.233,18.544c-10.341,9.164 -26.382,8.225 -35.583,-2.083Z" style="fill:#d3d3d3;fill-rule:nonzero;"/><path d="M663.875,1469.79l4.5,3.791l6,-7.125l-4.583,-3.875c1.614,-3.136 2.497,-6.598 2.583,-10.125l6.292,-0.541l-1.25,-9.5l-6.709,0.625c-0.976,-2.632 -2.384,-5.082 -4.166,-7.25l4.291,-5.375l-7.416,-6.292l-4.709,5.583c-2.72,-1.444 -5.689,-2.362 -8.75,-2.708l-0.583,-6.167l-9.542,0.542l0.667,6.417c-2.71,0.796 -5.252,2.081 -7.5,3.791l-4.583,-3.916l-6,7.166l4.5,3.792c-1.447,2.645 -2.367,5.546 -2.709,8.542l-7.333,0.666l1.25,9.459l6.917,-0.625c0.861,3.011 2.273,5.837 4.166,8.333l-4.166,4.917l7.416,6.291l4.167,-4.708c2.664,1.599 5.604,2.687 8.667,3.208l0.541,5.75l9.542,-0.5l-0.542,-5.541c3.324,-0.842 6.414,-2.423 9.042,-4.625Zm-26.042,-6.5c-3.292,-3.144 -5.157,-7.503 -5.157,-12.055c0,-9.143 7.524,-16.666 16.667,-16.666c9.143,-0 16.667,7.523 16.667,16.666c-0,4.15 -1.55,8.153 -4.343,11.221c-3.157,3.467 -7.635,5.446 -12.324,5.446c-4.285,0 -8.41,-1.653 -11.51,-4.612Z" style="fill:#d3d3d3;fill-rule:nonzero;"/><path d="M532.875,1394.96c0,0 11.875,-4.166 19.792,19.75l-11.75,5.875l-8.042,-25.625Z" style="fill:#2f2e41;fill-rule:nonzero;"/><path d="M532.875,1394.96c0,0 11.875,-4.166 19.792,19.75l-11.75,5.875l-8.042,-25.625Z" style="fill-opacity:0.2;fill-rule:nonzero;"/><path d="M193.125,1594.46c-15.237,7.62 -21.516,26.42 -13.917,41.667l264.584,530.542c9.648,18.917 33.077,26.639 52.083,17.166l365.75,-182.708c13.223,-6.56 21.621,-20.101 21.621,-34.862c0,-6.02 -1.396,-11.958 -4.079,-17.346l-262.959,-525.667c-8.873,-17.686 -30.711,-24.959 -48.416,-16.125l-374.667,187.333Z" style="fill:#0071f2;fill-rule:nonzero;"/><path d="M210.75,1640.12l249.125,505.375c5.224,10.604 16.063,17.348 27.884,17.348c4.781,-0 9.498,-1.103 13.783,-3.223l335.833,-166.25c15.146,-7.478 21.551,-26.017 14.25,-41.25l-245.5,-512.292c-5.236,-10.897 -16.303,-17.857 -28.393,-17.857c-4.976,-0 -9.882,1.179 -14.315,3.441l-338.75,172.75c-15.241,7.77 -21.493,26.62 -13.917,41.958Z" style="fill:#e6e6e6;fill-rule:nonzero;"/><path d="M338.253,1592.67c-2.376,-5.032 -8.391,-7.19 -13.423,-4.814l-85.005,40.127c-5.033,2.376 -7.19,8.391 -4.814,13.423l44.147,93.52c2.376,5.033 8.39,7.19 13.423,4.814l85.005,-40.127c5.032,-2.375 7.189,-8.39 4.814,-13.422l-44.147,-93.521Z" style="fill:#d3d3d3;"/><path d="M586.952,1467.39l-229.197,118.551l2.661,5.144l229.197,-118.551l-2.661,-5.144Z" style="fill:#d3d3d3;"/><path d="M602.783,1491.09l-229.197,118.55l2.661,5.145l229.196,-118.551l-2.66,-5.144Z" style="fill:#d3d3d3;"/><path d="M614.629,1518.77l-229.197,118.551l2.661,5.144l229.197,-118.551l-2.661,-5.144Z" style="fill:#d3d3d3;"/><path d="M630.472,1550.37l-229.197,118.551l2.661,5.144l229.196,-118.551l-2.66,-5.144Z" style="fill:#d3d3d3;"/><path d="M543.518,1688.66l-229.196,118.551l2.66,5.144l229.197,-118.551l-2.661,-5.144Z" style="fill:#d3d3d3;"/><path d="M559.349,1712.36l-229.197,118.551l2.661,5.144l229.197,-118.55l-2.661,-5.145Z" style="fill:#d3d3d3;"/><path d="M571.195,1740.04l-229.197,118.55l2.661,5.145l229.197,-118.551l-2.661,-5.144Z" style="fill:#d3d3d3;"/><path d="M586.982,1771.63l-229.197,118.551l2.661,5.144l229.197,-118.551l-2.661,-5.144Z" style="fill:#d3d3d3;"/><path d="M610.707,1811.15l-229.197,118.551l2.66,5.144l229.197,-118.551l-2.66,-5.144Z" style="fill:#d3d3d3;"/><path d="M626.537,1834.85l-229.197,118.55l2.661,5.145l229.197,-118.551l-2.661,-5.144Z" style="fill:#d3d3d3;"/><path d="M638.383,1862.53l-229.196,118.551l2.66,5.144l229.197,-118.551l-2.661,-5.144Z" style="fill:#d3d3d3;"/><path d="M654.185,1894.13l-229.197,118.551l2.66,5.144l229.197,-118.551l-2.66,-5.144Z" style="fill:#d3d3d3;"/><path d="M676.958,1728.12l6.167,6.292l9.917,-9.792l-6.292,-6.417c2.844,-4.425 4.64,-9.442 5.25,-14.666l9.417,-0l-0.5,-14.25l-10.042,-0c-1.155,-4.056 -2.987,-7.887 -5.417,-11.334l7.459,-7.375l-10.167,-10.375l-7.75,7.625c-3.807,-2.514 -8.044,-4.308 -12.5,-5.291l0,-9.25l-14.208,-0.5l-0,9.708c-4.122,0.806 -8.063,2.359 -11.625,4.583l-6.292,-6.416l-9.917,9.791l6.167,6.25c-2.573,3.767 -4.346,8.021 -5.208,12.5l-11.042,0l0.542,14.25l10.416,0c0.88,4.44 2.576,8.678 5,12.5l-6.791,6.709l10.166,10.416l6.542,-6.458c3.756,2.752 7.997,4.774 12.5,5.958l0,8.667l14.208,0.542l0,-8.334c5.007,-0.708 9.792,-2.53 14,-5.333Zm-37.833,-13.333c-3.985,-4.556 -6.184,-10.408 -6.184,-16.461c0,-13.714 11.286,-25 25,-25c13.715,0 25,11.286 25,25c0,7.064 -2.993,13.807 -8.233,18.544c-10.341,9.164 -26.382,8.225 -35.583,-2.083Z" style="fill:#d3d3d3;fill-rule:nonzero;"/><path d="M605,1681.04l4.5,3.791l6,-7.125l-4.583,-3.875c1.614,-3.136 2.497,-6.598 2.583,-10.125l6.292,-0.541l-1.25,-9.5l-6.709,0.625c-0.976,-2.632 -2.384,-5.082 -4.166,-7.25l4.5,-5.375l-7.417,-6.292l-4.75,5.583c-2.721,-1.444 -5.689,-2.362 -8.75,-2.708l-0.583,-6.167l-9.542,0.542l0.667,6.417c-2.711,0.796 -5.252,2.081 -7.5,3.791l-4.584,-3.916l-6,7.166l4.5,3.792c-1.421,2.581 -2.341,5.409 -2.708,8.333l-7.333,0.667l1.25,9.458l6.916,-0.625c0.861,3.012 2.274,5.838 4.167,8.334l-4.167,4.916l7.417,6.292l3.958,-4.708c2.665,1.598 5.604,2.686 8.667,3.208l0.542,5.75l9.541,-0.542l-0.541,-5.5c3.32,-0.774 6.424,-2.283 9.083,-4.416Zm-25.833,-6.5c-3.292,-3.144 -5.157,-7.503 -5.157,-12.055c-0,-9.143 7.523,-16.666 16.666,-16.666c9.143,-0 16.667,7.523 16.667,16.666c0,4.15 -1.549,8.153 -4.343,11.221c-3.157,3.467 -7.635,5.446 -12.324,5.446c-4.285,0 -8.41,-1.653 -11.509,-4.612Z" style="fill:#d3d3d3;fill-rule:nonzero;"/><path d="M531.042,1464l21.625,-5.833l-19.792,-63.209l-20.917,8.334l19.084,60.708Z" style="fill:#2f2e41;fill-rule:nonzero;"/><path d="M1735.58,1707.12l170.167,0l0,723.125l-170.167,0c-7.268,0 -13.25,-5.981 -13.25,-13.25l0,-696.625c0,-7.269 5.982,-13.25 13.25,-13.25Z" style="fill:#aaa;fill-rule:nonzero;"/><path d="M2761.62,1712.5c-0.551,-0.001 -1.099,-0.086 -1.625,-0.25c-2.688,-0.906 -4.18,-3.835 -3.333,-6.542l84.416,-260.833c34.27,-105.838 45.953,-217.698 34.292,-328.333c-8.958,-82.125 -28.25,-133.084 -28.458,-133.584c-0.232,-0.596 -0.351,-1.231 -0.351,-1.871c-0,-2.148 1.34,-4.082 3.351,-4.837c2.663,-0.986 5.668,0.358 6.708,3c0.792,2.125 20,52.708 29.167,136.167c5.336,49.41 6.006,99.214 2,148.75c-5.098,62.52 -17.43,124.238 -36.75,183.916l-84.375,260.625c-0.635,2.247 -2.707,3.805 -5.042,3.792Z" style="fill:#2f2e41;fill-rule:nonzero;"/><path d="M1198.33,1667.71l-48.5,383.209l122,405.375l222.959,-26.042l19.625,-189.667l9.333,-291.291l-28.958,-217.25l-147.875,-123.709l-125.875,-19.75l-22.709,79.125Z" style="fill:#0071f2;fill-rule:nonzero;"/><path d="M1751.33,1486.92l-36.791,17.25c-2.452,1.159 -4.692,2.723 -6.625,4.625c-3.867,3.76 -6.338,8.73 -7,14.083l-1.75,13.958c-1.04,8.312 -6.38,15.49 -14.042,18.875c-23.083,10.25 -72.375,36.834 -93.208,84.459l-59.25,90.666c-6.097,11.903 -5.925,26.082 0.458,37.834c13.106,23.704 24.321,48.406 33.542,73.875l5.416,14.708c-1.916,-1.333 -63.875,-45.208 -114.5,-61.958c0,-0 -83.041,-20.834 -114.666,-123.75l-65.5,-171.875l4.166,-12.75c45.481,-22.045 92.442,-40.897 140.542,-56.417l71.125,-23.708c0,-0 125.542,-50.209 144.25,-92.542c1.019,-2.392 3.38,-3.953 5.98,-3.953c0.958,-0 1.904,0.212 2.77,0.62c23.208,11.166 99.583,56.583 105.083,176Z" style="fill:#2f2e41;fill-rule:nonzero;"/><path d="M1042.75,1542.58l-59.417,-48.833c16.466,-21.986 41.758,-35.699 69.167,-37.5c27.409,-1.801 -5.792,54.708 -9.75,86.333Z" style="fill:#2f2e41;fill-rule:nonzero;"/><path d="M1042.75,1542.58l-59.417,-48.833c16.466,-21.986 41.758,-35.699 69.167,-37.5c27.409,-1.801 -5.792,54.708 -9.75,86.333Z" style="fill-opacity:0.3;fill-rule:nonzero;"/><path d="M1121.67,1435.54c43.5,12.916 54.458,-16.167 54.458,-16.167c58.333,60.542 105.333,67.542 105.333,67.542c-25.916,72.25 10.209,125.583 10.209,125.583c3.916,39.5 -15.667,55.333 -15.667,55.333c-39.375,31.584 -79.167,0 -79.167,0c-37.5,-25.708 -154.166,-125 -154.166,-125c4.166,-23.708 5.833,-86.375 5.833,-86.375c-0,0 21.125,10.334 47.125,-5.708l26.042,-15.208Z" style="fill:#f9b499;fill-rule:nonzero;"/><path d="M1291.67,1612.5l51.333,59.25l3.958,-63.208l35.584,79.166l-23.709,-126.458l-81.333,-61.25c-10.882,37.841 -5.757,78.538 14.167,112.5Z" style="fill:#2f2e41;fill-rule:nonzero;"/><path d="M1291.67,1612.5l51.333,59.25l3.958,-63.208l35.584,79.166l-23.709,-126.458l-81.333,-61.25c-10.882,37.841 -5.757,78.538 14.167,112.5Z" style="fill-opacity:0.2;fill-rule:nonzero;"/><path d="M1196.75,1667.62c0,0 90.75,284.5 94.917,569l-0,178.208l-47.459,0c0,0 -114.625,47.042 -150,185.375l-343.791,-3.958c-0,0 -47.417,-23.708 -47.417,-173.875c0.721,-27.814 3.353,-55.546 7.875,-83c-0.147,-35.324 -2.234,-70.613 -6.25,-105.708c-0.998,-7.373 0.545,-14.871 4.375,-21.25l25.583,-42.959c0,0 -70.833,-278.125 27.75,-374.166l213.375,-214.667l221.042,87Z" style="fill:#2f2e41;fill-rule:nonzero;"/><path d="M801.625,1865.17c0,-0 154.167,106.708 209.417,296.375c20.096,73.294 28.104,149.378 23.708,225.25c-4.396,75.872 -138.292,67.166 -193.625,150c0,-0 169.917,-110.625 221.292,-118.542l170.833,1.833l-139,-9.75c-0,0 7.667,-398.916 -292.625,-545.166Z" style="fill-opacity:0.2;fill-rule:nonzero;"/><path d="M1707.92,1508.58c-3.867,3.761 -6.338,8.731 -7,14.084l-1.75,13.958c-1.04,8.311 -6.38,15.49 -14.042,18.875c-7.662,3.385 13.5,-73.625 -41.667,-144.75c-0.166,-0 42.167,29.75 64.459,97.833Z" style="fill-opacity:0.2;fill-rule:nonzero;"/><path d="M1529.79,1738.17l-84.084,-106.125l98.125,81.666l-14.041,24.459Z" style="fill-opacity:0.2;fill-rule:nonzero;"/><path d="M1479.79,1803.92c-0,-0 29.166,108.708 21.25,333.916l-9.959,257.625l23.334,0c-0,0 -5.459,-99.541 26.125,-158.833c-0,0 130.333,-229.167 31.583,-379.167c0,-0.208 -50.375,-35.75 -92.333,-53.541Z" style="fill:#2f2e41;fill-rule:nonzero;"/><path d="M1479.79,1803.92c-0,-0 29.166,108.708 21.25,333.916l-9.959,257.625l23.334,0c-0,0 -5.459,-99.541 26.125,-158.833c-0,0 130.333,-229.167 31.583,-379.167c0,-0.208 -50.375,-35.75 -92.333,-53.541Z" style="fill-opacity:0.2;fill-rule:nonzero;"/><rect x="2781.38" y="1130.17" width="233.125" height="98.792" style="fill:#a8a8a8;"/><path d="M2807.21,1179.58l39.584,0" style="fill:none;fill-rule:nonzero;stroke:#c1c1c1;stroke-width:16.67px;"/><path d="M2958.96,1179.58l39.584,0" style="fill:none;fill-rule:nonzero;stroke:#c1c1c1;stroke-width:16.67px;"/><path d="M2781.38,1308l61.792,0l171.333,-79.042l-233.125,0l0,79.042Z" style="fill:#c1c1c1;fill-rule:nonzero;"/><rect x="2781.38" y="1446.33" width="339.833" height="98.792" style="fill:#a8a8a8;"/><path d="M2807.21,1495.71l39.584,0" style="fill:none;fill-rule:nonzero;stroke:#c1c1c1;stroke-width:16.67px;"/><path d="M2913.88,1495.71l100.625,0" style="fill:none;fill-rule:nonzero;stroke:#c1c1c1;stroke-width:16.67px;stroke-dasharray:67.08,67.08;"/><path d="M3048.04,1495.71l39.583,0" style="fill:none;fill-rule:nonzero;stroke:#c1c1c1;stroke-width:16.67px;"/><path d="M2781.38,1624.12l168.542,0l169.333,-79.042l-337.875,0l0,79.042Z" style="fill:#c1c1c1;fill-rule:nonzero;"/><path d="M2453.38,944.458l-185.708,118.542l-241.042,-15.792l426.75,-296.375l0,193.625Z" style="fill:#8d8d8d;fill-rule:nonzero;"/><path d="M2453.38,2552.25l-439.083,-135.333l439.083,-0l0,135.333Z" style="fill:#8a8a8a;fill-rule:nonzero;"/><path d="M2014.29,2416.92l-0,86.208l439.083,176.083l0,-126.958l-439.083,-135.333Z" style="fill:#aaa;fill-rule:nonzero;"/><path d="M2026.62,1047.21l3.708,1369.71l423.042,-0l0,-216.75l-320.625,-28.209l-3.417,-722.041l20.667,-155.75l-0.875,-156.084l118.542,-75.083l-241.042,-15.792Z" style="fill:#c1c1c1;fill-rule:nonzero;"/><path d="M2149.33,1177.42l304.042,-177.625l0,31.583l-304.042,177.75l0,-31.708Z" style="fill:#cbcbcb;fill-rule:nonzero;"/><path d="M2129.67,1517.46l-0.334,-67.541l324.042,-153.75l0,794.25l-321.083,-19.334l-2.625,-553.625Z" style="fill:#e6e6e6;fill-rule:nonzero;"/><path d="M2356.62,1584.62l0,-160.042l-226.958,92.875l0.625,134.917l226.333,-67.75Z" style="fill:#fff;fill-rule:nonzero;"/><path d="M2129.33,1683.42l324.042,-91.375" style="fill:none;fill-rule:nonzero;stroke:#c1c1c1;stroke-width:16.67px;stroke-dasharray:79.17,79.17;"/><path d="M2208.38,1715.04l-1.958,272.208l246.958,-7.458l0.708,-328.75l-245.708,64Z" style="fill:#c1c1c1;fill-rule:nonzero;"/><path d="M2761.75,2436.04c-1.755,0.003 -3.4,-0.874 -4.375,-2.334c-1.565,-2.389 -0.888,-5.642 1.5,-7.208c69.625,-46.083 121.792,-152.167 155.083,-315.333c26.792,-131.292 41.375,-299.375 43.292,-499.625c3.292,-341.167 -31.792,-661.459 -32.167,-664.667c-0.289,-2.832 1.794,-5.404 4.625,-5.708c0.202,-0.024 0.405,-0.037 0.609,-0.037c2.621,0 4.841,2.011 5.1,4.62c0.375,3.208 35.5,324 32.208,665.833c-1.917,200.875 -16.667,369.667 -43.458,501.625c-33.875,166 -87.5,274.292 -159.584,321.959c-0.837,0.564 -1.823,0.869 -2.833,0.875Z" style="fill:#2f2e41;fill-rule:nonzero;"/><path d="M1901.54,1483.12l105.958,-58.542l0,33.584l20.25,-0l2.583,958.75l-16.041,-0l-0,57.041l-112.75,-44.291l-0,-946.542Z" style="fill:#999;fill-rule:nonzero;"/><path d="M1729.54,1790.12l170.458,0l0,31.625l-170.458,0c-8.298,0 -15.125,-6.828 -15.125,-15.125l-0,-1.375c-0,-8.297 6.827,-15.125 15.125,-15.125Z" style="fill:#cdcdcd;fill-rule:nonzero;"/><path d="M1729.54,1912.5l170.458,0l0,31.625l-170.458,0c-8.298,0 -15.125,-6.828 -15.125,-15.125l-0,-1.375c-0,-8.297 6.827,-15.125 15.125,-15.125Z" style="fill:#cdcdcd;fill-rule:nonzero;"/><path d="M1729.54,2027.21l170.458,0l0,31.625l-170.458,0c-8.298,0 -15.125,-6.827 -15.125,-15.125l-0,-1.375c-0,-8.297 6.827,-15.125 15.125,-15.125Z" style="fill:#cdcdcd;fill-rule:nonzero;"/><path d="M1729.54,2149.71l170.458,0l0,31.625l-170.458,0c-8.298,0 -15.125,-6.827 -15.125,-15.125l-0,-1.375c-0,-8.297 6.827,-15.125 15.125,-15.125Z" style="fill:#cdcdcd;fill-rule:nonzero;"/><path d="M1729.54,2300l170.458,0l0,31.625l-170.458,0c-8.298,0 -15.125,-6.828 -15.125,-15.125l-0,-1.375c-0,-8.297 6.827,-15.125 15.125,-15.125Z" style="fill:#cdcdcd;fill-rule:nonzero;"/><circle cx="1586" cy="1132.17" r="100.75" style="fill:#0071f2;"/><path d="M1586,1147.62l-35.542,-41.458c-5.445,-6.373 -15.141,-7.196 -21.583,-1.834c-3.5,2.936 -5.524,7.276 -5.524,11.844c-0,3.695 1.325,7.27 3.732,10.073l50.584,58.542c2.753,3.211 6.778,5.061 11.007,5.061c5.503,0 10.55,-3.131 12.993,-8.061l93.916,-188.5c1.048,-1.989 1.596,-4.203 1.596,-6.451c0,-5.524 -3.309,-10.541 -8.387,-12.716c-6.656,-2.856 -14.486,-0.007 -17.75,6.458l-85.042,167.042Z" style="fill:#fff;fill-rule:nonzero;"/><path d="M1281.46,1486.92c-8.806,25.613 -11.181,53.003 -6.916,79.75c4.265,26.747 -96.292,-80.875 -84.084,-133.334l63.042,6.167l27.958,47.417Z" style="fill:#f7a48b;fill-rule:nonzero;"/><path d="M1176.37,1068.87c75.082,-29.819 172.803,38.545 218.086,152.569c45.284,114.023 21.091,230.804 -53.992,260.622c-75.082,29.818 -172.803,-38.546 -218.087,-152.569c-45.283,-114.023 -21.09,-230.804 53.993,-260.622Z" style="fill:#f9b499;"/><path d="M1164.12,1433.33c-11.708,8 -27.083,8.334 -42.458,2.375c-17.356,-7.342 -32.149,-19.67 -42.5,-35.416c-23.5,-34.25 -23.5,-75 -0,-91c17.708,-12.125 43.791,-6.625 65.541,11.583c7.328,6.192 13.776,13.356 19.167,21.292c23.625,34.25 23.625,74.958 0.25,91.166Z" style="fill:#f9b499;fill-rule:nonzero;"/><path d="M1362.25,1079.17c-55.375,41.666 -147.125,30.875 -178.375,25.5c-7.613,-1.257 -15.37,1.391 -20.625,7.041c-7.6,8.03 -13.835,17.249 -18.458,27.292c-24.292,68.042 48.041,105.042 48.041,105.042l0,99.625c-19.125,-15.334 -46.291,-22.25 -47.958,-22.667c-21.75,-18.208 -47.833,-23.708 -65.542,-11.583c-23.416,16.083 -23.416,56.75 0,91c10.332,15.659 25.062,27.925 42.334,35.25l-18.334,10.791c-54.75,33.584 -64.625,0 -64.625,0c-7.916,-15.833 -35.583,-39.541 -35.583,-39.541c-86.917,-51.5 -118.542,-102.75 -118.542,-102.75c-15.893,-4.118 -29.503,-14.412 -37.791,-28.584c-18.084,-72.083 41.666,-101.791 41.666,-101.791c27.667,-19.792 39.5,-94.834 39.5,-94.834c19.792,-71.166 55.334,-23.75 55.334,-23.75c75,-102.708 134.375,-67.166 134.375,-67.166c24.293,16.279 56.618,14.663 79.166,-3.959c55.334,-55.291 130.417,-39.5 130.417,-39.5c35.292,5.042 52.667,22.917 61.042,41.667c14.5,32.917 2.666,71.125 -26.042,92.917Z" style="fill:#2f2e41;fill-rule:nonzero;"/><path d="M983.333,1493.75l0,0.25c0,0 -9.916,15.292 -12,44.083c-1.82,29.948 8.817,59.356 29.375,81.209l163.917,177.625l33.667,-129.167l-214.959,-174Z" style="fill:#2f2e41;fill-rule:nonzero;"/><path d="M983.333,1493.75l0,0.25c0,0 -9.916,15.292 -12,44.083c-1.82,29.948 8.817,59.356 29.375,81.209l163.917,177.625l33.667,-129.167l-214.959,-174Z" style="fill-opacity:0.2;fill-rule:nonzero;"/><path d="M2007.5,1371.25l445.875,-241.083l0,98.791l-445.875,229.209l0,-86.917Z" style="fill:#aaa;fill-rule:nonzero;"/><path d="M2007.5,1458.17l121.833,-8.25l324.042,-156.042l0,-64.917l-445.875,229.209Z" style="fill:#8d8d8d;fill-rule:nonzero;"/><path d="M2014.29,2070.67l-0,90.875l439.083,38.625l0,-100.459l-439.083,-29.041Z" style="fill:#aaa;fill-rule:nonzero;"/><path d="M2014.29,2070.67l111.125,-0l327.958,19.75l-0,9.291l-439.083,-29.041Z" style="fill:#8d8d8d;fill-rule:nonzero;"/><path d="M2102.83,2109.92c-0.825,-0.015 -1.636,-0.215 -2.375,-0.584c-1.718,-0.884 -2.802,-2.661 -2.802,-4.594c-0,-0.838 0.204,-1.664 0.594,-2.406l39.792,-77.333c24.755,-47.877 37.619,-101.019 37.5,-154.917c-0.584,-91.666 -31.5,-186.083 -57.375,-249.25c-16.249,-40.124 -35.195,-79.102 -56.709,-116.666c-21.513,-37.565 -0.208,-0.334 -0.291,-0.542c-31.667,-70.625 -54.167,-135.458 -67.292,-192.75c-10.458,-46.042 -14.708,-87.5 -12.5,-122.833c3.542,-61.459 24.708,-84.334 25.625,-85.292c0.968,-0.922 2.255,-1.437 3.592,-1.437c2.857,0 5.208,2.351 5.208,5.208c0,1.246 -0.446,2.451 -1.258,3.396c-0.417,0.458 -19.917,22.333 -22.875,80.416c-2.792,54.167 8.666,151.875 79.166,308.792c21.646,37.854 40.717,77.124 57.084,117.542c26.25,64.083 57.625,160 58.333,253.291c0.072,55.598 -13.265,110.402 -38.875,159.75l-39.792,77.25c-0.864,1.829 -2.727,2.99 -4.75,2.959Z" style="fill:#2f2e41;fill-rule:nonzero;"/><rect x="2781.38" y="814.042" width="233.125" height="98.792" style="fill:#a8a8a8;"/><path d="M2807.21,863.458l39.584,0" style="fill:none;fill-rule:nonzero;stroke:#c1c1c1;stroke-width:16.67px;"/><path d="M2958.96,863.458l39.584,0" style="fill:none;fill-rule:nonzero;stroke:#c1c1c1;stroke-width:16.67px;"/><path d="M2781.38,999.792l61.792,-0l171.333,-86.959l-233.125,0l0,86.959Z" style="fill:#c1c1c1;fill-rule:nonzero;"/><path d="M2341.38,1246.29c-0.524,-0.002 -1.044,-0.086 -1.542,-0.25c-28.258,-8.197 -54.27,-22.75 -76.041,-42.542c-28.051,-26.48 -40.393,-65.732 -32.542,-103.5c6.035,-28.926 24.274,-53.882 50,-68.417c11.942,-7.095 25.003,-12.111 38.625,-14.833c0.405,-0.099 0.82,-0.149 1.236,-0.149c2.857,0 5.209,2.351 5.209,5.208c-0,2.696 -2.092,4.968 -4.778,5.191c-12.458,2.573 -24.4,7.206 -35.334,13.708c-23.182,12.975 -39.594,35.431 -44.916,61.459c-7.077,34.195 4.126,69.718 29.541,93.666c20.609,18.732 45.242,32.489 72,40.209c2.167,0.662 3.658,2.675 3.658,4.941c-0,0.529 -0.081,1.054 -0.241,1.559c-0.644,2.165 -2.617,3.682 -4.875,3.75Z" style="fill:#2f2e41;fill-rule:nonzero;"/><path d="M2218.71,1293.46c-0.656,-0.003 -1.307,-0.13 -1.916,-0.375c-28.63,-11.015 -51.105,-33.946 -61.542,-62.791c-4.894,-13.057 -7.393,-26.89 -7.375,-40.834c-1.625,-42.083 16.042,-78.333 51.125,-104.875c16.212,-12.212 34.429,-21.504 53.833,-27.458c0.442,-0.12 0.897,-0.18 1.355,-0.18c2.841,-0 5.18,2.338 5.18,5.18c-0,2.332 -1.575,4.39 -3.826,5c-18.201,5.715 -35.294,14.494 -50.542,25.958c-32.583,24.75 -48.292,57.125 -46.75,96.167l-0,0.417c0.046,12.809 2.374,25.507 6.875,37.5c9.443,25.962 29.824,46.511 55.708,56.166c1.97,0.791 3.268,2.711 3.268,4.834c0,2.857 -2.351,5.208 -5.208,5.208c-0.006,0 -0.012,0 -0.018,0l-0.167,0.083Z" style="fill:#2f2e41;fill-rule:nonzero;"/><path d="M2451.5,1788.04c-0.641,0.011 -1.277,-0.102 -1.875,-0.334c-29.648,-11.985 -55.187,-32.326 -73.5,-58.541c-17.484,-24.729 -30.982,-52.047 -40,-80.959c-10.871,-33.301 -17.725,-67.781 -20.417,-102.708c-4.75,-197.708 36.5,-414.417 54.459,-498.458c7.835,-35.988 11.788,-72.712 11.791,-109.542c-0.25,-67.833 -14.5,-100.792 -26.416,-116.667c-12.5,-16.375 -24.5,-17.5 -25,-17.541c-0.47,0.001 -0.936,-0.083 -1.375,-0.25c-16.977,-6.237 -35.811,-5.103 -51.917,3.125c-52.583,26.125 -81.875,114.75 -82.167,115.666c-0.906,2.688 -3.834,4.18 -6.541,3.334c-2.136,-0.683 -3.594,-2.68 -3.594,-4.922c-0,-0.55 0.088,-1.097 0.26,-1.62c1.209,-3.833 30.917,-93.667 87.5,-121.75c18.414,-9.431 39.934,-10.834 59.417,-3.875c7.625,0.917 59.875,12.083 60.333,144.292c-0.004,37.516 -4.027,74.924 -12,111.583c-17.875,83.625 -58.958,299.333 -54.166,495.833c2.743,34 9.455,67.561 20,100c15.708,47.75 47.083,109.584 107.291,133c2.659,1.023 4.01,4.046 3,6.709c-0.711,2.188 -2.783,3.665 -5.083,3.625Z" style="fill:#2f2e41;fill-rule:nonzero;"/><path d="M2453.38,2489.79l-0.333,-0c-55.25,-3.5 -97.417,-25 -125.334,-64.417c-31.875,-44.75 -45.125,-111.792 -39.375,-199.208c4.442,-57.546 14.476,-114.524 29.959,-170.125c3.375,-12.209 7.5,-24.584 12.5,-37.834c45.349,-119.977 83.541,-242.54 114.375,-367.041c0.435,-2.482 2.611,-4.309 5.13,-4.309c2.857,-0 5.208,2.351 5.208,5.208c0,0.5 -0.072,0.997 -0.213,1.476c-30.954,124.937 -69.285,247.931 -114.792,368.333c-4.917,12.958 -8.917,25 -12.208,36.958c-15.308,54.905 -25.23,111.171 -29.625,168c-5.584,85 7,149.75 37.5,192.542c26,36.542 65.541,56.75 117.541,60.042c2.614,0.303 4.608,2.542 4.608,5.173c-0,2.757 -2.188,5.06 -4.941,5.202Z" style="fill:#2f2e41;fill-rule:nonzero;"/><path d="M2450,2372.92c-13.984,-0.168 -27.926,-1.562 -41.667,-4.167c-118.083,-21.542 -199.375,-132.917 -185.125,-253.583c8.334,-70.834 35.167,-146.417 79.625,-225c3.75,-7.709 137.792,-284.292 145.459,-402.125c0.148,-2.725 2.43,-4.887 5.159,-4.887c0.113,0 0.227,0.004 0.341,0.012c2.849,0.199 5.04,2.689 4.875,5.541c-3.334,50.875 -29.167,134.75 -76.375,249.25c-35.167,85.042 -69.834,156.209 -70.167,156.917c0.014,0.097 0.014,0.195 0,0.292c-44.083,77.5 -70.458,151.875 -78.792,221.5c-13.625,115.208 63.959,221.583 176.667,242.125c14.18,2.744 28.599,4.056 43.042,3.916c0.21,-0.025 0.422,-0.038 0.633,-0.038c2.858,-0 5.209,2.351 5.209,5.208c-0,2.857 -2.351,5.208 -5.209,5.208c-0.058,0 -0.117,-0.001 -0.175,-0.003l-3.5,-0.166Z" style="fill:#2f2e41;fill-rule:nonzero;"/><path d="M2453.38,1338.67c-1.226,0.017 -2.421,-0.396 -3.375,-1.167c-37.208,-33.083 -56.042,-98.958 -56.042,-195.833c0.224,-45.156 3.874,-90.23 10.917,-134.834c17.875,-107.125 11.125,-164.541 2.333,-193.833c-9.333,-31.208 -22.791,-37.5 -22.958,-37.5c-0.383,-0.167 -0.747,-0.377 -1.083,-0.625c-5.682,-4.731 -13.379,-6.298 -20.459,-4.167c-28.916,8.542 -57.833,71.292 -66.666,94.75c-0.678,2.168 -2.7,3.654 -4.971,3.654c-2.858,0 -5.209,-2.351 -5.209,-5.208c0,-0.712 0.146,-1.417 0.43,-2.071c1.333,-3.625 33.333,-89.375 73.333,-101.083c10.036,-3.016 20.936,-0.944 29.167,5.542c3.625,1.75 17.583,10.333 27.458,41.458c14.042,44.042 13.583,111.667 -1.292,201c-0.458,2.5 -42,246.583 41.667,321.042c2.118,1.901 2.306,5.204 0.417,7.333c-0.959,0.994 -2.286,1.552 -3.667,1.542Z" style="fill:#2f2e41;fill-rule:nonzero;"/><rect x="2453.38" y="750.833" width="328" height="1928.38" style="fill:#939393;"/><path d="M2453.38,825.917l194.333,-0c8.298,-0 15.125,6.827 15.125,15.125l0,1.375c0,8.297 -6.827,15.125 -15.125,15.125l-194.333,-0l0,-31.625Z" style="fill:#747474;fill-rule:nonzero;"/><path d="M2453.38,912.833l194.333,0c8.298,0 15.125,6.828 15.125,15.125l0,1.209c0,8.297 -6.827,15.125 -15.125,15.125l-194.333,-0l0,-31.625l0,0.166Z" style="fill:#747474;fill-rule:nonzero;"/><path d="M2453.38,999.792l194.333,-0c8.298,-0 15.125,6.827 15.125,15.125l0,1.375c0,8.297 -6.827,15.125 -15.125,15.125l-194.333,-0l0,-31.625Z" style="fill:#747474;fill-rule:nonzero;"/><path d="M2453.38,1086.71l194.333,0c8.298,0 15.125,6.828 15.125,15.125l0,1.375c0,8.298 -6.827,15.125 -15.125,15.125l-194.333,0l0,-31.625Z" style="fill:#747474;fill-rule:nonzero;"/><path d="M2453.38,1169.71l194.333,0c8.298,0 15.125,6.828 15.125,15.125l0,1.375c0,8.298 -6.827,15.125 -15.125,15.125l-194.333,0l0,-31.625Z" style="fill:#747474;fill-rule:nonzero;"/><path d="M2453.38,1256.62l194.333,0c8.298,0 15.125,6.828 15.125,15.125l0,1.375c0,8.297 -6.827,15.125 -15.125,15.125l-194.333,-0l0,-31.625Z" style="fill:#747474;fill-rule:nonzero;"/><path d="M2453.38,1343.58l194.333,0c8.298,0 15.125,6.828 15.125,15.125l0,1.375c0,8.298 -6.827,15.125 -15.125,15.125l-194.333,0l0,-31.625Z" style="fill:#747474;fill-rule:nonzero;"/><path d="M2453.38,1430.5l194.333,0c8.298,0 15.125,6.828 15.125,15.125l0,1.375c0,8.297 -6.827,15.125 -15.125,15.125l-194.333,0l0,-31.625Z" style="fill:#747474;fill-rule:nonzero;"/><path d="M2453.38,1517.46l194.333,0c8.298,0 15.125,6.828 15.125,15.125l0,1.375c0,8.298 -6.827,15.125 -15.125,15.125l-194.333,0l0,-31.625Z" style="fill:#747474;fill-rule:nonzero;"/><path d="M2453.38,1604.38l194.333,0c8.298,0 15.125,6.828 15.125,15.125l0,1.333c0,8.298 -6.827,15.125 -15.125,15.125l-194.333,0l0,-31.625l0,0.042Z" style="fill:#747474;fill-rule:nonzero;"/><path d="M2453.38,1691.33l194.333,0c8.298,0 15.125,6.828 15.125,15.125l0,1.375c0,8.298 -6.827,15.125 -15.125,15.125l-194.333,0l0,-31.625Z" style="fill:#747474;fill-rule:nonzero;"/><path d="M2453.38,1774.29l194.333,-0c8.298,-0 15.125,6.827 15.125,15.125l0,1.375c0,8.297 -6.827,15.125 -15.125,15.125l-194.333,-0l0,-31.625Z" style="fill:#747474;fill-rule:nonzero;"/><path d="M2453.38,1861.25l194.333,0c8.298,0 15.125,6.828 15.125,15.125l0,1.375c0,8.297 -6.827,15.125 -15.125,15.125l-194.333,0l0,-31.625Z" style="fill:#747474;fill-rule:nonzero;"/><path d="M2453.38,1948.17l194.333,-0c8.298,-0 15.125,6.827 15.125,15.125l0,1.375c0,8.297 -6.827,15.125 -15.125,15.125l-194.333,-0l0,-31.625Z" style="fill:#747474;fill-rule:nonzero;"/><path d="M2453.38,2035.12l194.333,0c8.298,0 15.125,6.828 15.125,15.125l0,1.375c0,8.297 -6.827,15.125 -15.125,15.125l-194.333,0l0,-31.625Z" style="fill:#747474;fill-rule:nonzero;"/><path d="M2453.38,2122.04l194.333,-0c8.298,-0 15.125,6.827 15.125,15.125l0,1.375c0,8.297 -6.827,15.125 -15.125,15.125l-194.333,-0l0,-31.625Z" style="fill:#747474;fill-rule:nonzero;"/><path d="M2453.38,2208.96l194.333,0c8.298,0 15.125,6.828 15.125,15.125l0,1.375c0,8.298 -6.827,15.125 -15.125,15.125l-194.333,0l0,-31.625Z" style="fill:#747474;fill-rule:nonzero;"/><path d="M2453.38,2295.83l194.333,0c8.298,0 15.125,6.828 15.125,15.125l0,1.542c0,8.297 -6.827,15.125 -15.125,15.125l-194.333,0l0,-31.792Z" style="fill:#747474;fill-rule:nonzero;"/><path d="M2453.38,2375l194.333,0c8.298,0 15.125,6.828 15.125,15.125l0,1.375c0,8.297 -6.827,15.125 -15.125,15.125l-194.333,0l0,-31.625Z" style="fill:#747474;fill-rule:nonzero;"/><path d="M2285.88,971.292l-57.75,-0c-0.548,-0.105 -0.947,-0.589 -0.947,-1.146c-0,-0.558 0.399,-1.041 0.947,-1.146l57.75,0c0.548,0.105 0.947,0.588 0.947,1.146c0,0.557 -0.399,1.041 -0.947,1.146Z" style="fill:#fff;fill-rule:nonzero;"/><path d="M2142.58,956.333l85.584,0l-0,27.667l-85.584,0c-0.069,0.001 -0.139,0.002 -0.208,0.002c-7.231,-0 -13.186,-5.938 -13.208,-13.169l-0,-1.208c-0.001,-0.028 -0.001,-0.057 -0.001,-0.085c0,-7.246 5.963,-13.208 13.209,-13.208c0.069,-0 0.139,0 0.208,0.001Z" style="fill:#0071f2;fill-rule:nonzero;"/><path d="M2050.29,901l61.458,-10.25c6.328,-1.053 12.827,-0.197 18.667,2.458l91.125,41.375c3.142,1.354 5.188,4.462 5.188,7.884c-0,2.024 -0.716,3.985 -2.022,5.533c-2.25,2.458 -6.041,3.583 -12.5,0.417l-98.875,-47.417l-63.041,0Z" style="fill:#f7a48b;fill-rule:nonzero;"/><path d="M2180.71,1015.58c0,0 -47.416,11.875 -55.291,35.584c-0,-0 -4.167,23.708 -51.375,35.541l-63.25,19.75l-134.5,195.209l-66.959,97.125c0,-0 -24.208,38.791 -61.5,55c0,-0 -10.583,-84.792 -81.25,-131.125c0,-0 12.5,-46.375 79.542,-101.667l197.583,-177.833l39.625,-110.584c0,0 0,-31.583 43.5,-31.583l86.5,0l99.167,47.417c0,-0 3.958,35.541 -63.208,11.833c-0,0 -43.5,-11.833 -59.292,0c0,0 -51.375,15.833 -39.5,23.708c0,0 15.792,27.667 43.458,15.834c0,-0 82.959,-31.625 110.625,-19.75c-0.166,-0 19.625,15.791 -23.875,35.541Z" style="fill:#f9b499;fill-rule:nonzero;"/><path d="M1876.21,1301.75l-66.958,97.125c0,0 -24.208,38.792 -61.5,55c0,0 -10.583,-84.792 -81.25,-131.125c40.815,13.869 72.469,46.704 84.833,88c12.365,41.296 10.5,15.792 42.125,-19.75l82.75,-89.25Z" style="fill:#f7a48b;fill-rule:nonzero;"/><path d="M1544.46,2552.25l-20.708,0l400.125,-414.417l320.083,-59.25l-7.333,11.834l-308.792,59.291l-383.375,402.542Z" style="fill:#0071f2;fill-rule:nonzero;"/><path d="M1544.46,2552.25l-20.708,0l400.125,-414.417l320.083,-59.25l-7.333,11.834l-308.792,59.291l-383.375,402.542Z" style="fill-opacity:0.2;fill-rule:nonzero;"/><path d="M1852.75,2513.25l383.875,-422.833l-308.792,59.291l-383.375,402.542l308.292,-39Z" style="fill:#0071f2;fill-rule:nonzero;"/><path d="M1094.04,2600.21l474.166,-83l165.125,7.334c8.276,0.378 16.497,-1.54 23.75,-5.542l103.5,-57.125c0,0 19.792,-11.833 15.834,-39.5c-0,-0 31.583,-11.875 11.833,-47.417l12.208,-7c8.615,-4.93 11.929,-15.867 7.5,-24.75c-4.386,-8.794 -14.981,-12.723 -24.041,-8.916l-78.625,32.75l-102.709,7.958c0,0 -19.75,0 -7.916,-19.792l27.666,-27.625l20.042,0l35.292,-35.583c-0,0 -86.959,-31.625 -146.209,23.708l-71.416,67.625c-4.923,4.749 -11.316,7.689 -18.125,8.334l-231.542,21.375c-12.5,1.166 -25,1.75 -37.5,1.75l-28.542,-0c0,-0 -110.791,43.125 -150.291,185.416Z" style="fill:#f9b499;fill-rule:nonzero;"/><path d="M1888.29,2374.96l-77.042,31" style="fill:none;fill-rule:nonzero;stroke:#f7a48b;stroke-width:4.17px;"/><path d="M1875.29,2422.38l-50.375,19.208" style="fill:none;fill-rule:nonzero;stroke:#f7a48b;stroke-width:4.17px;"/></svg>