<svg xmlns="http://www.w3.org/2000/svg" width="60" height="60"><path d="M 0 30 C 0 13.431 13.431 0 30 0 C 46.569 0 60 13.431 60 30 C 60 46.569 46.569 60 30 60 C 13.431 60 0 46.569 0 30 Z" fill="#3D2C96"></path><g transform="translate(10 10)"><path d="M 12.965 30.69 C 13.285 30.548 13.608 30.416 13.935 30.294 C 14.761 29.98 15.609 29.728 16.473 29.541 C 17.12 29.403 17.773 29.303 18.431 29.239 C 18.06 30.405 17.653 31.56 17.212 32.702 C 17.231 32.924 17.241 33.148 17.246 33.372 C 19.065 33.013 20.935 33.013 22.754 33.372 C 22.759 33.148 22.769 32.924 22.788 32.702 C 22.347 31.56 21.94 30.405 21.569 29.238 C 22.227 29.302 22.881 29.404 23.527 29.541 C 24.391 29.728 25.239 29.98 26.065 30.294 C 28.763 31.303 31.167 32.968 33.061 35.139 C 37.309 31.471 40 26.051 40 20 C 40 8.954 31.046 0 20 0 C 8.954 0 0 8.954 0 20 C 0 26.052 2.692 31.471 6.939 35.139 C 8.6 33.235 10.657 31.716 12.965 30.69 Z" fill="rgb(165,219,232)"></path><path d="M 27.035 30.69 L 28.276 34.959 L 28.628 34.976 C 28.857 34.976 29.018 35.036 29.018 35.265 C 29.018 35.645 29.038 36.071 29.074 36.445 C 29.383 36.707 29.76 37.003 30.046 37.291 C 31.115 36.668 32.125 35.948 33.061 35.139 C 31.4 33.235 29.344 31.717 27.035 30.69 Z M 24.607 30.647 L 26.065 30.294 C 25.239 29.98 24.391 29.728 23.527 29.541 C 22.88 29.404 22.226 29.303 21.568 29.239 C 21.94 30.405 22.347 31.56 22.788 32.702 C 22.77 32.925 22.758 33.149 22.753 33.372 C 23.786 33.576 24.802 33.93 25.741 34.345 Z" fill="rgb(82,83,83)"></path><path d="M 9.954 37.291 C 10.186 37.426 10.421 37.559 10.659 37.685 C 10.743 37.284 10.876 36.729 10.916 36.316 C 10.607 36.579 10.24 37.003 9.954 37.291 Z M 25.717 34.309 C 24.767 33.888 23.773 33.574 22.753 33.372 C 20.935 33.013 19.065 33.013 17.246 33.372 C 16.213 33.576 15.136 33.885 14.197 34.3 L 14.097 34.922 L 25.903 34.922 L 25.717 34.308 Z" fill="rgb(0,0,0)"></path><path d="M 10.88 36.435 C 10.917 36.062 10.943 35.729 10.943 35.349 C 10.943 35.121 11.099 34.974 11.329 34.974 L 11.703 34.961 L 12.966 30.69 C 10.657 31.716 8.6 33.235 6.938 35.139 C 7.875 35.948 8.885 36.668 9.954 37.291 C 10.24 37.003 10.538 36.727 10.846 36.465" fill="rgb(82,83,83)"></path><path d="M 29.236 37.194 C 29.326 37.601 29.346 37.681 29.363 37.685 C 29.625 37.559 29.886 37.427 30.144 37.291 C 29.822 36.999 29.489 36.72 29.144 36.455 Z" fill="rgb(0,0,0)"></path><path d="M 25.717 34.309 L 25.903 34.922 L 28.318 34.922 L 27.035 30.69 C 26.716 30.549 26.392 30.417 26.065 30.294 L 24.607 30.647 Z" fill="rgb(170,150,120)"></path><path d="M 11.725 35.817 L 11.82 35.75 L 11.73 35.75 Z" fill="rgb(196,182,161)"></path><path d="M 28.328 35.75 L 28.237 35.75 L 28.331 35.817 Z" fill="rgb(170,150,120)"></path><path d="M 28.232 35.688 L 19.983 35.697 L 20 40 C 22.967 40.003 25.897 39.344 28.577 38.07 C 28.407 37.324 28.391 36.521 28.363 35.74 C 28.32 35.721 28.276 35.704 28.232 35.688 Z" fill="rgb(170,150,120)"></path><path d="M 19.987 35.715 C 19.987 35.715 11.692 35.705 11.68 35.713 C 11.652 36.495 11.491 37.423 11.423 38.07 C 14.103 39.344 17.033 40.003 20 40 L 20.005 35.729 Z" fill="rgb(196,182,161)"></path><path d="M 20 35.336 L 20 36.336" fill="rgb(120,100,83)"></path><path d="M 26.726 33.068 C 26.726 33.068 26.285 32.715 25.726 32.068 C 26.031 32.428 26.366 32.762 26.726 33.067 Z" fill="rgb(170,150,120)"></path><path d="M 33.103 20.197 L 33.103 20.181 L 33.103 20.196 Z" fill="rgb(255,255,255)"></path><path d="M 33.103 20.189 L 33.103 20.176" fill="rgb(187,188,189)"></path><path d="M 33.121 19.87 L 33.127 19.885 L 33.131 19.895 L 33.131 19.896 C 33.149 19.972 33.155 20.052 33.159 20.133 C 33.159 20.147 33.165 20.161 33.165 20.176 L 33.165 20.187 C 33.165 20.203 33.159 20.218 33.158 20.234 C 33.156 20.312 33.147 20.389 33.131 20.466 L 33.131 20.467 L 33.126 20.479 C 33.125 20.485 33.122 20.491 33.12 20.496 C 33.1 20.576 33.072 20.655 33.035 20.733 L 33.035 20.734 L 33.04 20.731 L 33.042 20.727 L 34.034 20.179 L 33.034 19.627 L 33.035 19.628 C 33.072 19.705 33.1 19.786 33.122 19.87 Z" fill="rgb(103,106,106)"></path><path d="M 33.08 20.496 C 33.081 20.486 33.084 20.477 33.085 20.466 C 33.094 20.389 33.099 20.312 33.099 20.234 C 33.099 20.216 33.103 20.199 33.103 20.181 C 33.103 20.165 33.1 20.149 33.1 20.133 C 33.099 20.054 33.094 19.975 33.085 19.896 C 33.084 19.887 33.081 19.879 33.08 19.87 C 33.07 19.789 33.054 19.708 33.034 19.629 C 33.027 19.601 33.018 19.577 33.01 19.552 C 32.968 19.407 32.904 19.269 32.822 19.142 C 32.792 19.099 32.76 19.057 32.725 19.017 C 32.694 18.982 32.659 18.95 32.623 18.921 C 32.609 18.911 32.594 18.903 32.58 18.894 C 32.537 18.866 32.49 18.843 32.441 18.827 C 32.395 18.812 32.347 18.804 32.298 18.802 C 32.234 18.804 32.171 18.817 32.112 18.843 C 32.078 18.857 32.046 18.874 32.015 18.894 C 32.002 18.903 31.987 18.91 31.974 18.921 C 31.909 18.971 31.852 19.03 31.806 19.097 C 31.708 19.236 31.633 19.389 31.585 19.552 L 31.58 19.571 C 31.559 19.645 31.542 19.72 31.529 19.796 C 31.525 19.82 31.519 19.842 31.516 19.867 C 31.504 19.956 31.497 20.047 31.496 20.137 C 31.496 20.15 31.493 20.162 31.493 20.175 L 31.496 20.175 C 31.496 20.937 31.857 21.554 32.301 21.554 C 32.391 21.553 32.479 21.528 32.555 21.482 C 32.585 21.465 32.613 21.447 32.64 21.425 C 32.656 21.413 32.67 21.398 32.685 21.385 C 32.719 21.351 32.753 21.314 32.785 21.272 C 32.808 21.243 32.83 21.214 32.849 21.181 C 32.888 21.118 32.921 21.053 32.95 20.985 C 32.957 20.968 32.965 20.952 32.971 20.935 C 33.025 20.794 33.061 20.646 33.08 20.496 Z M 32.327 19.998 C 32.16 19.998 32.025 19.766 32.025 19.481 C 32.025 19.195 32.16 18.963 32.327 18.963 C 32.493 18.963 32.628 19.195 32.628 19.481 C 32.628 19.766 32.493 19.998 32.327 19.998 Z" fill="rgb(0,0,0)"></path><path d="M 32.525 18.963 C 32.249 18.963 32.025 19.195 32.025 19.481 C 32.025 19.766 32.249 19.998 32.525 19.998 C 32.801 19.998 33.025 19.766 33.025 19.481 C 33.025 19.195 32.801 18.963 32.525 18.963 Z" fill="rgb(255,255,255)"></path><path d="M 31.586 19.552 C 31.633 19.395 31.698 19.257 31.774 19.142 C 31.785 19.126 31.795 19.112 31.806 19.097 C 31.853 19.03 31.91 18.971 31.974 18.921 C 31.987 18.91 32.002 18.903 32.016 18.894 C 32.059 18.866 32.106 18.843 32.155 18.827 C 32.201 18.812 32.249 18.803 32.298 18.802 C 32.362 18.803 32.425 18.817 32.484 18.843 C 32.517 18.857 32.549 18.873 32.58 18.894 C 32.594 18.903 32.609 18.91 32.622 18.921 C 32.687 18.971 32.743 19.03 32.79 19.097 L 32.822 19.142 C 32.898 19.257 32.963 19.395 33.01 19.552 L 32.298 16.29 Z" fill="rgb(144,147,147)"></path><path d="M 22.859 20.151 C 22.858 20.086 22.854 20.021 22.847 19.957 L 22.847 19.954 C 22.839 19.892 22.829 19.83 22.815 19.769 L 22.814 19.764 C 22.8 19.704 22.784 19.645 22.765 19.587 L 22.763 19.583 C 22.744 19.525 22.722 19.468 22.697 19.413 L 22.696 19.409 C 22.497 18.968 22.137 18.619 21.689 18.434 L 21.684 18.432 C 21.575 18.388 21.462 18.354 21.347 18.331 L 21.338 18.329 C 21.101 18.283 20.858 18.283 20.622 18.329 L 20.609 18.33 C 20.496 18.353 20.385 18.386 20.278 18.429 L 20.27 18.432 C 20.055 18.519 19.858 18.646 19.689 18.805 L 19.687 18.811 L 19.68 18.813 C 19.545 18.941 19.43 19.088 19.338 19.249 L 19.335 19.255 C 19.306 19.305 19.281 19.357 19.258 19.409 L 19.25 19.425 C 19.228 19.474 19.21 19.524 19.193 19.575 L 19.182 19.604 C 19.167 19.652 19.154 19.7 19.143 19.749 C 19.14 19.763 19.136 19.776 19.133 19.79 C 19.123 19.838 19.116 19.887 19.109 19.937 C 19.107 19.952 19.104 19.967 19.103 19.982 C 19.083 20.169 19.092 20.358 19.128 20.542 L 19.129 20.55 C 19.153 20.667 19.188 20.781 19.232 20.89 L 19.234 20.894 C 19.396 21.287 19.685 21.613 20.055 21.821 L 20.058 21.823 C 20.109 21.851 20.161 21.877 20.214 21.901 C 20.219 21.902 20.223 21.905 20.227 21.907 C 20.277 21.928 20.327 21.947 20.379 21.964 C 20.388 21.967 20.396 21.971 20.405 21.974 C 20.453 21.989 20.502 22.001 20.551 22.012 C 20.564 22.015 20.577 22.02 20.59 22.023 C 20.638 22.033 20.687 22.039 20.736 22.045 C 20.751 22.047 20.766 22.051 20.781 22.052 C 21.221 22.099 21.663 21.989 22.03 21.741 C 22.333 21.536 22.57 21.248 22.713 20.912 C 22.808 20.686 22.861 20.438 22.861 20.178 L 22.86 20.165 Z M 20.977 19.93 C 20.585 19.93 20.269 19.614 20.269 19.222 C 20.269 18.831 20.585 18.514 20.977 18.514 C 21.368 18.514 21.685 18.831 21.685 19.222 C 21.685 19.614 21.368 19.93 20.977 19.93 Z" fill="rgb(0,0,0)"></path><path d="M 20.976 18.515 C 20.72 18.508 20.479 18.642 20.349 18.864 C 20.009 18.872 19.723 19.122 19.669 19.458 C 19.614 19.794 19.806 20.121 20.127 20.237 C 20.447 20.352 20.804 20.224 20.976 19.93 C 21.368 19.93 21.684 19.614 21.684 19.222 C 21.684 18.831 21.368 18.514 20.976 18.514 Z" fill="rgb(255,255,255)"></path><path d="M 19.68 18.813 L 19.687 18.811 L 19.689 18.805 L 20.987 14.836 L 20.987 13.897 C 20.254 13.745 19.508 13.668 18.76 13.667 C 18.507 13.667 18.255 13.677 18.004 13.695 C 17.968 13.697 17.931 13.699 17.895 13.702 C 16.589 13.805 15.311 14.137 14.121 14.683 C 13.103 15.151 12.155 15.758 11.305 16.487 L 11.304 16.488 C 11.076 16.683 10.857 16.887 10.643 17.097 C 10.603 17.136 10.563 17.175 10.523 17.215 C 10.322 17.418 10.127 17.627 9.939 17.843 C 9.898 17.89 9.858 17.938 9.818 17.985 C 9.628 18.208 9.446 18.436 9.271 18.67 C 9.256 18.69 9.243 18.71 9.228 18.73 C 9.062 18.957 8.903 19.189 8.751 19.425 C 8.721 19.471 8.69 19.517 8.661 19.563 C 8.537 19.759 8.423 19.96 8.309 20.162 L 14.221 20.162 Z" fill="rgb(187,188,189)"></path><path d="M 24.671 18.366 C 24.698 18.002 24.716 17.637 24.723 17.272 C 24.727 17.109 24.725 16.946 24.725 16.783 C 24.725 16.736 24.726 16.689 24.725 16.642 C 24.721 16.221 24.705 15.801 24.679 15.381 L 24.675 15.378 L 24.674 15.375 L 24.205 15.107 L 24.194 15.101 L 24.072 15.032 L 24.069 15.031 L 23.984 14.983 L 23.968 14.973 C 23.676 14.82 23.379 14.678 23.075 14.549 C 22.403 14.265 21.497 14.017 20.987 13.897 L 20.987 14.836 L 22.273 18.811 L 22.275 18.815 C 22.453 18.984 22.595 19.186 22.695 19.409 L 22.697 19.413 C 22.722 19.468 22.744 19.525 22.763 19.583 L 22.765 19.587 C 22.783 19.645 22.8 19.704 22.813 19.764 C 22.813 19.766 22.814 19.767 22.815 19.769 C 22.828 19.829 22.839 19.891 22.846 19.954 L 22.846 19.957 C 22.854 20.021 22.858 20.085 22.859 20.151 L 22.864 20.162 L 24.439 20.162 C 24.545 19.585 24.62 19.001 24.667 18.415 L 24.671 18.367 Z" fill="rgb(227,221,219)"></path><path d="M 26.736 16.961 L 26.728 16.975 L 26.736 16.962" fill="rgb(252,176,63)"></path><path d="M 19.689 18.805 C 19.858 18.646 20.055 18.52 20.27 18.432 L 20.278 18.429 C 20.385 18.386 20.496 18.353 20.609 18.33 L 20.621 18.328 C 20.858 18.282 21.101 18.283 21.338 18.329 L 21.347 18.331 C 21.696 18.401 22.017 18.569 22.275 18.815 L 22.273 18.811 L 20.987 14.836 Z" fill="rgb(144,147,147)"></path><path d="M 19.232 20.889 C 19.187 20.78 19.153 20.666 19.129 20.55 L 19.128 20.542 C 19.092 20.358 19.083 20.169 19.103 19.982 C 19.104 19.967 19.107 19.952 19.109 19.937 C 19.116 19.887 19.122 19.838 19.132 19.79 C 19.135 19.776 19.14 19.763 19.143 19.749 C 19.154 19.7 19.167 19.652 19.181 19.604 L 19.193 19.575 C 19.209 19.524 19.228 19.474 19.249 19.425 L 19.258 19.409 C 19.281 19.356 19.306 19.305 19.335 19.255 L 19.338 19.249 C 19.43 19.088 19.546 18.941 19.68 18.813 L 14.221 20.162 L 14.21 20.162 L 19.617 21.482 C 19.454 21.312 19.324 21.112 19.233 20.894 L 19.232 20.89 Z" fill="rgb(103,106,106)"></path><path d="M 31.516 19.867 C 31.519 19.843 31.525 19.819 31.529 19.796 C 31.542 19.718 31.559 19.643 31.58 19.571 C 31.582 19.563 31.583 19.553 31.585 19.545 L 32.297 16.283 L 32.297 14.423 C 31.716 13.943 31.092 13.68 30.444 13.68 C 29.624 13.68 28.859 14.133 28.287 14.692 C 27.662 15.304 27.178 16.074 26.787 16.851 L 26.733 16.957 C 26.854 17.061 26.973 17.167 27.091 17.275 C 27.357 17.519 27.618 17.768 27.875 18.022 C 27.994 18.14 28.111 18.261 28.229 18.381 C 28.354 18.508 28.479 18.635 28.603 18.765 C 29.021 19.204 29.428 19.652 29.825 20.11 L 29.826 20.11 L 29.887 20.175 L 31.493 20.175 C 31.493 20.162 31.496 20.15 31.496 20.137 C 31.497 20.044 31.504 19.953 31.516 19.867 Z M 26.733 16.966 C 26.732 16.964 26.731 16.963 26.731 16.961 L 26.728 16.966 L 26.735 16.973 Z" fill="rgb(227,221,219)"></path><path d="M 7.34 22.214 L 7.354 22.178 C 7.57 21.619 7.819 21.073 8.099 20.542 C 8.143 20.459 8.185 20.377 8.23 20.295 C 8.255 20.25 8.283 20.207 8.308 20.162 C 8.422 19.96 8.537 19.759 8.66 19.563 C 8.69 19.517 8.72 19.471 8.75 19.425 C 8.902 19.189 9.062 18.957 9.228 18.73 C 9.242 18.71 9.256 18.69 9.27 18.67 C 9.483 18.386 9.706 18.11 9.939 17.843 C 10.127 17.627 10.321 17.417 10.523 17.215 L 10.643 17.097 C 10.856 16.887 11.076 16.683 11.304 16.488 L 11.305 16.487 C 12.204 13.477 15.105 11.627 18.359 11.627 C 19.668 11.627 20.971 12.005 22.086 12.687 C 23.231 13.387 24.011 14.071 24.617 15.267 L 24.626 15.285 C 24.642 15.315 24.659 15.345 24.674 15.375 L 24.675 15.378 L 24.679 15.381 C 25.188 15.696 25.673 16.048 26.129 16.435 C 26.283 16.564 26.433 16.697 26.581 16.833 C 26.63 16.878 26.68 16.921 26.728 16.966 L 26.731 16.961 C 26.748 16.925 26.765 16.89 26.782 16.855 C 27.241 13.962 28.697 12.384 30.202 12.384 C 31.337 12.384 32.162 13.061 32.785 14.882 L 32.791 14.901 L 32.793 14.904 C 32.969 15.095 33.14 15.305 33.307 15.536 L 33.306 15.536 L 33.316 15.549 L 33.341 15.629 L 33.318 15.534 C 31.445 9.99 26.202 5.998 20.025 5.998 C 12.279 5.998 5.998 12.278 5.998 20.025 C 5.998 21.553 6.242 23.023 6.695 24.391 L 6.697 24.383 C 6.857 23.645 7.072 22.92 7.34 22.214 Z" fill="rgb(82,83,83)"></path><path d="M 33.528 20.18 L 33.038 20.727 L 33.037 20.731 C 33.019 20.801 32.997 20.869 32.971 20.935 C 32.965 20.952 32.957 20.968 32.95 20.985 C 32.922 21.053 32.889 21.119 32.85 21.181 C 32.803 21.255 32.747 21.323 32.685 21.385 C 32.67 21.398 32.656 21.413 32.641 21.425 C 32.604 21.454 32.564 21.48 32.522 21.5 C 32.454 21.535 32.378 21.554 32.302 21.554 C 31.857 21.554 31.497 20.937 31.497 20.175 L 29.882 20.175 L 29.883 20.176 C 30.186 20.527 30.485 20.881 30.779 21.24 C 31.061 21.585 31.34 21.933 31.615 22.284 L 31.656 22.335 C 31.917 22.669 32.175 23.004 32.431 23.34 L 32.506 23.437 C 32.778 23.796 33.048 24.155 33.317 24.516 C 33.79 23.117 34.038 21.652 34.053 20.175 L 33.599 20.157 L 33.528 20.18 Z" fill="rgb(255,255,255)"></path><path d="M 17.895 13.702 L 18.004 13.695 C 18.256 13.677 18.508 13.668 18.76 13.667 C 19.521 13.667 20.264 13.748 20.987 13.897 C 21.497 14.017 22.403 14.265 23.075 14.549 C 23.357 14.669 23.634 14.799 23.906 14.94 L 23.968 14.973 L 23.985 14.983 L 24.069 15.031 L 24.072 15.032 L 24.194 15.101 L 24.205 15.107 C 24.378 15.205 24.569 15.315 24.642 15.357 L 24.661 15.367 L 24.674 15.375 C 24.659 15.345 24.642 15.315 24.627 15.285 L 24.618 15.267 C 24.012 14.071 23.079 13.046 21.934 12.346 C 20.812 11.658 19.523 11.291 18.207 11.286 C 14.953 11.286 12.204 13.477 11.306 16.487 C 12.156 15.758 13.104 15.151 14.122 14.683 C 15.312 14.137 16.589 13.806 17.895 13.702 Z" fill="rgb(0,0,0)"></path><path d="M 33.316 15.549 L 33.307 15.536 C 33.148 15.315 32.976 15.104 32.793 14.904 L 32.789 14.898 C 32.709 14.812 32.628 14.729 32.546 14.651 C 32.516 14.621 32.483 14.595 32.452 14.567 C 32.401 14.52 32.35 14.472 32.298 14.429 L 32.298 16.29 L 33.01 19.552 C 33.018 19.577 33.027 19.601 33.034 19.627 L 33.528 20.18 L 33.532 20.175 L 34.049 20.175 C 34.05 20.127 34.053 20.08 34.053 20.032 L 34.053 20.031 C 34.053 18.535 33.812 17.049 33.341 15.629 C 33.333 15.603 33.325 15.575 33.316 15.549 Z" fill="rgb(187,188,189)"></path><path d="M 28.287 14.692 C 28.859 14.133 29.623 13.68 30.443 13.68 C 31.092 13.68 31.715 13.943 32.297 14.424 L 32.297 14.43 L 32.297 14.429 C 32.35 14.472 32.401 14.52 32.453 14.567 C 32.483 14.595 32.515 14.621 32.547 14.651 C 32.628 14.729 32.709 14.812 32.789 14.899 L 32.793 14.904 L 32.792 14.902 L 32.785 14.882 C 32.162 13.061 31.157 11.878 30.023 11.878 C 28.517 11.878 27.241 13.962 26.782 16.855 L 26.787 16.851 C 27.178 16.074 27.662 15.304 28.287 14.692 Z M 26.253 32.474 C 26.253 32.474 26.051 32.313 25.793 32.017 C 25.634 31.836 25.49 31.642 25.361 31.438 C 25.264 31.284 25.186 31.097 25.101 30.911 C 25.002 30.697 25.001 30.555 24.944 30.355 C 24.793 29.827 24.757 29.272 24.838 28.728 C 24.858 28.583 24.887 28.436 24.925 28.284 C 25.039 27.831 25.235 27.348 25.54 26.838 L 25.618 26.663 C 25.718 26.497 25.741 26.504 25.835 26.343 C 27.173 24.085 27.895 22.377 27.542 19.748 C 27.504 19.479 27.46 19.211 27.41 18.943 C 27.39 19.079 27.315 19.514 27.313 19.523 C 27.299 19.583 27.263 19.649 27.249 19.689 C 26.668 21.41 25.753 22.675 24.437 24.104 C 24.258 24.298 24.071 24.494 23.88 24.692 C 23.558 25.026 23.221 25.367 22.863 25.722 L 22.427 26.154 C 22.292 26.289 22.123 26.576 21.921 26.788 C 21.797 27.136 21.655 27.529 21.536 27.942 C 21.482 27.921 21.431 27.903 21.376 27.882 C 18.818 26.893 17.106 25.571 17.106 25.571 C 17.106 25.571 18.423 27.286 20.644 28.897 C 20.858 29.053 21.07 29.187 21.277 29.307 C 21.186 30.757 21.825 32.148 24.711 32.563 C 25.199 32.633 25.699 32.63 26.202 32.573 C 26.197 32.558 26.23 32.559 26.228 32.55 C 26.225 32.542 26.255 32.52 26.255 32.52" fill="rgb(0,0,0)"></path><path d="M 24.709 28.743 C 27.271 29.157 31.063 29.089 35 27.246 C 35.095 27.202 35.199 27.318 35.294 27.272 C 35.294 27.272 32.603 30.02 29.39 31.573 C 29.297 31.619 29.204 31.667 29.109 31.71 C 28.799 31.852 28.483 31.975 28.166 32.09 C 27.544 32.313 26.914 32.483 26.289 32.561 C 26.26 32.565 26.231 32.57 26.202 32.573 L 26.191 32.538 L 26.187 32.525 C 26.187 32.525 25.983 32.364 25.726 32.068 C 25.44 31.741 25.201 31.374 25.017 30.979 C 24.927 30.786 24.853 30.585 24.794 30.38 C 24.685 29.995 24.635 29.595 24.647 29.194 C 24.652 29.046 24.666 28.899 24.687 28.753 Z" fill="rgb(159,34,84)"></path><path d="M 22.873 25.826 C 23.23 25.471 23.568 25.13 23.889 24.797 C 24.081 24.599 24.268 24.402 24.446 24.209 C 25.762 22.779 26.729 21.442 27.31 19.722 C 27.33 19.662 27.345 19.601 27.357 19.539 C 27.371 19.475 27.384 19.403 27.397 19.323 C 27.403 19.267 27.576 19.155 27.581 19.103 C 27.436 18.355 27.099 17.567 26.733 16.966 L 26.735 16.973 L 26.729 16.966 C 26.681 16.921 26.63 16.878 26.581 16.833 C 26.434 16.697 26.283 16.564 26.129 16.435 C 25.673 16.048 25.188 15.696 24.679 15.381 C 24.705 15.801 24.721 16.222 24.726 16.642 C 24.727 16.689 24.725 16.736 24.725 16.783 C 24.726 16.946 24.727 17.109 24.723 17.272 C 24.716 17.638 24.699 18.002 24.671 18.366 L 24.667 18.415 C 24.621 19.001 24.545 19.584 24.439 20.162 L 24.255 21.037 C 23.868 22.603 23.083 24.024 22.438 25.491 C 22.265 25.88 22.106 26.275 21.962 26.675 L 21.922 26.787 C 22.123 26.576 22.302 26.393 22.437 26.259 L 22.873 25.827 Z" fill="rgb(252,176,63)"></path><path d="M 14.406 34.252 C 15.345 33.837 16.214 33.576 17.246 33.372 C 17.242 33.149 17.23 32.925 17.211 32.702 C 17.653 31.56 18.06 30.405 18.431 29.238 C 17.773 29.302 17.12 29.403 16.473 29.541 C 15.609 29.728 14.761 29.98 13.935 30.294 L 15.393 30.647 L 14.22 34.329 Z" fill="rgb(82,83,83)"></path><path d="M 32.431 23.34 C 32.175 23.003 31.916 22.669 31.655 22.336 L 31.615 22.284 C 31.336 21.929 31.054 21.577 30.768 21.228 C 30.478 20.873 30.182 20.523 29.882 20.176 L 29.825 20.11 C 29.427 19.653 29.02 19.205 28.603 18.765 C 28.479 18.636 28.355 18.508 28.229 18.381 C 28.111 18.261 27.993 18.14 27.874 18.022 C 27.617 17.768 27.356 17.519 27.09 17.275 C 26.972 17.167 26.853 17.061 26.733 16.957 L 26.731 16.961 C 26.984 17.689 27.273 18.427 27.418 19.186 C 27.456 19.384 27.487 19.576 27.513 19.764 C 27.866 22.393 27.023 24.11 25.685 26.368 C 25.589 26.53 25.491 26.695 25.39 26.863 C 25.084 27.373 24.888 27.856 24.775 28.309 C 24.738 28.456 24.709 28.604 24.687 28.753 C 27.311 29.177 31.257 29.255 35.294 27.272 C 35.294 27.272 34.502 26.108 33.311 24.509 C 33.044 24.15 32.776 23.793 32.505 23.437 L 32.431 23.34 Z" fill="rgb(223,0,103)"></path><path d="M 14.08 34.988 L 15.393 30.647 L 13.935 30.294 C 13.609 30.417 13.285 30.547 12.966 30.69 L 11.665 34.988 L 13.117 35.01 L 14.081 34.988 Z" fill="rgb(170,150,120)"></path><path d="M 15.003 33.11 C 15.131 33.159 15.261 33.203 15.391 33.249 C 16.88 33.772 18.447 34.038 20.026 34.037 C 21.878 34.037 23.645 33.675 25.264 33.022 C 25.35 32.988 25.434 32.95 25.519 32.914 C 25.656 32.855 25.792 32.795 25.928 32.733 C 26.049 32.676 26.169 32.621 26.289 32.561 C 26.26 32.565 26.231 32.57 26.202 32.573 C 25.699 32.63 25.199 32.633 24.711 32.563 C 21.825 32.148 21.186 30.757 21.277 29.307 C 21.059 29.181 20.847 29.044 20.643 28.897 C 18.423 27.286 17.106 25.571 17.106 25.571 C 17.106 25.571 18.818 26.893 21.376 27.882 L 21.536 27.942 C 21.656 27.529 21.797 27.136 21.921 26.787 L 21.962 26.675 C 22.106 26.274 22.264 25.88 22.437 25.491 C 23.083 24.024 23.867 22.603 24.254 21.037 L 24.439 20.162 L 22.861 20.162 L 22.861 20.165 L 22.86 20.165 L 22.861 20.178 C 22.862 20.713 22.635 21.222 22.239 21.579 C 21.842 21.937 21.312 22.109 20.781 22.052 C 20.765 22.051 20.751 22.047 20.736 22.045 C 20.687 22.04 20.638 22.032 20.59 22.023 C 20.576 22.02 20.563 22.015 20.55 22.012 C 20.501 22.002 20.453 21.989 20.405 21.974 C 20.396 21.971 20.387 21.967 20.379 21.964 C 20.328 21.947 20.277 21.928 20.227 21.907 L 20.214 21.901 C 20.161 21.877 20.109 21.851 20.058 21.823 L 20.055 21.821 C 19.893 21.73 19.746 21.615 19.617 21.481 L 14.21 20.161 L 8.308 20.161 C 8.283 20.207 8.255 20.25 8.23 20.295 C 8.185 20.377 8.143 20.46 8.099 20.542 C 7.819 21.072 7.57 21.619 7.354 22.179 L 7.34 22.215 C 7.072 22.921 6.857 23.646 6.698 24.383 C 7.622 27.189 9.406 29.633 11.797 31.368 C 11.866 31.418 11.939 31.462 12.008 31.511 C 12.938 32.164 13.943 32.701 15.003 33.11 Z" fill="rgb(255,255,255)"></path><path d="M 29.153 36.465 C 29.115 36.09 29.096 35.713 29.094 35.336 C 29.095 35.108 28.909 34.922 28.681 34.922 L 11.319 34.922 C 11.091 34.922 10.905 35.108 10.905 35.336 C 10.903 36.125 10.82 36.912 10.659 37.685 C 10.911 37.817 11.165 37.947 11.423 38.07 C 11.593 37.324 11.697 36.558 11.725 35.777 L 11.726 35.75 L 28.274 35.75 C 28.274 35.759 28.275 35.767 28.275 35.777 C 28.303 36.558 28.407 37.325 28.577 38.07 C 28.834 37.947 29.089 37.819 29.341 37.685 C 29.256 37.282 29.194 36.875 29.153 36.465 Z" fill="rgb(139,116,96)"></path></g></svg>