<?xml version="1.0" encoding="utf-8"?>
<svg id="Capa_1" data-name="Capa 1" xmlns="http://www.w3.org/2000/svg" viewBox="0 0 61.99 45.67"><defs><style>.cls-1{fill:#e95420;}.cls-2{fill:#fff;}</style></defs><title>ubuntu_OS</title><g id="logo"><path id="roundel" class="cls-1" d="M48.5,28.2A17.53,17.53,0,1,1,31,10.67,17.53,17.53,0,0,1,48.5,28.2"/><path id="circle-of-friends" class="cls-2" d="M35.74,19.91a2.31,2.31,0,1,0,2.27-4,2.25,2.25,0,0,0-3.15.88A2.39,2.39,0,0,0,35.74,19.91ZM31,35a7.35,7.35,0,0,1-2.86-.59L26.5,37.29a10.35,10.35,0,0,0,4.55,1A11,11,0,0,0,33.76,38a3.47,3.47,0,0,1,1.61-2.34,3.35,3.35,0,0,1,2.79-.22,10.28,10.28,0,0,0,3-6.6l-3.38-.08A6.8,6.8,0,0,1,31,35Zm0-13.64a6.79,6.79,0,0,1,6.82,6.23l3.38-.07a10.24,10.24,0,0,0-3-6.6,3.17,3.17,0,0,1-2.79-.22,3.36,3.36,0,0,1-1.61-2.35,11,11,0,0,0-2.71-.37,10.57,10.57,0,0,0-4.55,1l1.61,2.93A7.53,7.53,0,0,1,31,21.31ZM24.15,28.2a6.87,6.87,0,0,1,2.94-5.57L25.4,19.77a9.94,9.94,0,0,0-4.18,5.94,3.24,3.24,0,0,1,1.17,2.49,3.13,3.13,0,0,1-1.17,2.49,10.18,10.18,0,0,0,4.18,5.94l1.69-2.86A6.87,6.87,0,0,1,24.15,28.2Zm11.59,8.21a2.32,2.32,0,1,0,3.15.88A2.27,2.27,0,0,0,35.74,36.41ZM19.09,25.85a2.35,2.35,0,1,0,2.35,2.35,2.37,2.37,0,0,0-2.35-2.35"/></g></svg>