<?xml version="1.0" encoding="UTF-8" standalone="no"?><!DOCTYPE svg PUBLIC "-//W3C//DTD SVG 1.1//EN" "http://www.w3.org/Graphics/SVG/1.1/DTD/svg11.dtd"><svg width="100%" height="100%" viewBox="0 0 1344 1048" version="1.1" xmlns="http://www.w3.org/2000/svg" xmlns:xlink="http://www.w3.org/1999/xlink" xml:space="preserve" xmlns:serif="http://www.serif.com/" style="fill-rule:evenodd;clip-rule:evenodd;stroke-linejoin:round;stroke-miterlimit:2;"><rect id="Artboard1" x="0" y="0" width="1344" height="1048" style="fill:none;"/><g><rect x="210.12" y="209.779" width="73.931" height="304.415" style="fill:#a8a7a7;"/><path d="M131.303,630.239c0.871,2.406 1.862,4.602 2.97,6.544c-1.484,-0.056 -2.374,-2.683 -2.97,-6.544Zm1097.26,15.253c-0.542,-5.068 -1.269,-9.98 -2.159,-14.753c-0.146,-0.84 -0.3,-1.679 -0.475,-2.504c-5.025,-25.357 -14.621,-46.654 -26.579,-65.317c-2.052,-3.207 -4.173,-6.332 -6.361,-9.403c-0.107,-0.148 -0.213,-0.296 -0.32,-0.438c-0.3,-0.424 -0.61,-0.847 -0.92,-1.262c-0.3,-0.418 -0.6,-0.834 -0.91,-1.244c-0.387,-0.529 -0.774,-1.058 -1.181,-1.588c-0.213,-0.296 -0.436,-0.592 -0.668,-0.889c-0.078,-0.12 -0.155,-0.227 -0.252,-0.339c-0.077,-0.105 -0.164,-0.219 -0.252,-0.332l-0.029,-0.049l-0.125,-0.163c-0.475,-0.614 -0.94,-1.214 -1.414,-1.82l-0.078,-0.114l-0.087,-0.113l-0.019,-0.014c-0.078,-0.113 -0.155,-0.212 -0.242,-0.31l-0.116,-0.148l0,-0.007c-0.223,-0.283 -0.446,-0.558 -0.659,-0.833c-0.213,-0.282 -0.436,-0.559 -0.658,-0.841l-0.029,-0.035l-0.039,-0.035c-0.116,-0.155 -0.242,-0.31 -0.358,-0.459c-0.126,-0.155 -0.242,-0.31 -0.368,-0.459c-0.339,-0.424 -0.678,-0.848 -1.017,-1.263c-0.3,-0.368 -0.581,-0.727 -0.891,-1.088c-0.397,-0.507 -0.823,-1.015 -1.239,-1.517c-0.126,-0.154 -0.252,-0.303 -0.368,-0.445c-0.688,-0.819 -1.365,-1.638 -2.053,-2.443c-0.707,-0.824 -1.413,-1.659 -2.13,-2.47c-1.539,-1.792 -3.108,-3.558 -4.696,-5.308c-1.143,-1.263 -2.295,-2.52 -3.457,-3.77c-0.745,-0.818 -1.51,-1.631 -2.265,-2.442l-0.078,-0.077l-0.077,-0.078c-0.891,-0.954 -1.792,-1.899 -2.692,-2.844c-0.901,-0.947 -1.791,-1.879 -2.702,-2.811c-0.803,-0.84 -1.617,-1.665 -2.42,-2.49c-2.324,-2.373 -4.648,-4.724 -6.972,-7.039c-0.097,-0.099 -0.203,-0.198 -0.3,-0.304c-1.172,-1.171 -2.333,-2.33 -3.505,-3.487c-0.097,-0.085 -0.184,-0.175 -0.271,-0.262l0,-0.007c-1.085,-1.058 -2.15,-2.123 -3.215,-3.176c-0.213,-0.205 -0.416,-0.409 -0.629,-0.614c-0.097,-0.106 -0.204,-0.205 -0.31,-0.304c-0.097,-0.099 -0.203,-0.196 -0.3,-0.303l0,-0.007l-0.01,0c-1.104,-1.102 -2.217,-2.187 -3.321,-3.281c-3.466,-3.432 -6.875,-6.814 -10.196,-10.188l-0.01,0c-0.774,-0.777 -1.51,-1.567 -2.217,-2.363c-0.242,-0.269 -0.474,-0.53 -0.707,-0.799c-3.03,-3.501 -5.509,-7.129 -7.533,-10.864c-0.9,-1.658 -1.714,-3.339 -2.45,-5.039c-0.367,-0.848 -0.716,-1.702 -1.045,-2.556c-0.165,-0.431 -0.329,-0.862 -0.484,-1.292c-12.171,-33.755 3.243,-73.822 -25.291,-104.423c-0.281,-0.295 -0.562,-0.592 -0.843,-0.889c-4.948,-5.28 -10.079,-10.377 -15.279,-15.402c-11.726,-11.358 -23.79,-22.356 -34.964,-34.307c-3.825,-4.08 -7.446,-8.308 -10.942,-12.635c-3.485,-4.313 -6.845,-8.726 -10.128,-13.173c-2.662,-3.6 -5.277,-7.221 -7.892,-10.835c-4.735,-6.573 -9.45,-13.13 -14.349,-19.511c-11.338,-14.788 -23.672,-28.609 -39.64,-39.367c-1.718,-1.159 -3.486,-2.287 -5.292,-3.374c-5.496,-3.298 -11.095,-6.063 -16.819,-8.288c-4.107,-1.603 -8.261,-2.93 -12.477,-3.966c-6.448,-1.61 -13.026,-2.571 -19.746,-2.889c-0.925,0 -5.3,-2.646 -12.48,-6.388c-7.513,-3.918 -18.096,-9.028 -31.019,-13.545c-11.589,-4.052 -25.066,-7.624 -39.891,-9.445c-8.446,-1.031 -17.339,-1.497 -26.565,-1.157c-0.876,0.028 -1.759,0.077 -2.641,0.126c-0.822,0.036 -1.658,0.091 -2.492,0.149c-0.876,0.055 -1.752,0.126 -2.635,0.204c-8.618,0.741 -17.496,2.217 -26.572,4.596c-4.716,1.25 -9.486,2.731 -14.291,4.496c-16.901,-8.528 -34.333,-15.319 -52.342,-19.991c-19.822,-5.131 -41.383,-3.085 -60.858,3.162c-18.76,6.03 -21.581,10.095 -41.37,5.16c-16.187,-4.022 -30.608,-16.405 -47.591,-17.534c-29.89,-1.983 -45.468,12.029 -69.693,27.777c-3.504,2.295 -7.16,4.666 -10.91,7.08c-7.865,5.076 -16.195,10.299 -24.696,15.15l-0.006,0c-1.083,0.613 -2.17,1.226 -3.265,1.832c-0.412,0.228 -0.829,0.46 -1.24,0.685c-1.088,0.595 -2.177,1.187 -3.265,1.76l-0.006,0c-3.313,1.756 -6.633,3.437 -9.96,4.997c-4.934,2.33 -9.87,4.396 -14.736,6.113l-0.008,0c-1.265,0.451 -2.532,0.875 -3.791,1.27c-0.384,0.121 -0.761,0.241 -1.135,0.354c-3.636,1.1 -7.263,1.835 -10.878,2.279c-12.32,1.511 -24.544,-0.416 -36.639,-3.091c-7.537,-1.667 -15.024,-3.621 -22.459,-5.218c-4.414,-0.945 -8.816,-1.763 -13.189,-2.314c-1.643,-0.205 -3.286,-0.382 -4.921,-0.502c-11.952,-0.923 -23.759,0.523 -35.395,7.122c-30.595,17.38 -83.335,73.584 -106.64,111.419c-2.513,4.089 -4.688,7.949 -6.454,11.542c-7.359,14.943 -6.038,30.411 -3.389,46.059c0.698,4.116 1.485,8.238 2.232,12.374c2.73,15.114 4.913,30.319 0.005,45.305c-2.887,8.859 -10.37,9.783 -11.607,25.63c-1.432,18.078 3.51,26.317 -6.155,44.317c-3.346,6.24 -6.543,12.015 -9.533,17.471c-2.302,6.655 -2.738,11.52 -2.738,11.52c-0.645,5.167 -1.219,10.277 -1.727,15.297c-0.164,1.673 -0.32,3.331 -0.464,4.983c-0.307,3.325 -0.569,6.607 -0.801,9.841c-0.993,14.181 -1.245,27.389 -0.534,38.951c-0.465,13.32 -7.516,49.512 -8.466,55.597c-3.512,22.313 -17.867,38.944 -28.942,65.01c-2.231,5.261 -3.99,10.709 -5.283,16.279c-4.415,18.99 -3.505,39.411 1.78,58.576c2.135,7.737 4.976,15.275 8.473,22.433c2.095,4.291 26.072,39.651 28.625,43.617c10.555,16.483 797.892,-13.136 971.633,-14.86c20.024,-0.197 31.74,3.052 40.435,6.301c18.358,6.868 23.161,13.737 64.186,-11.955c19.182,-12.006 30.627,-27.141 36.978,-44.202c16.693,-44.832 -1.742,-103.039 -7.155,-153.173Z" style="fill:url(#_Linear1);fill-rule:nonzero;"/><path d="M1188.99,548.097l-1060.89,0c0.515,-5.029 1.081,-10.136 1.724,-15.297c0,0 0.438,-4.869 2.74,-11.528c2.997,-5.454 6.188,-11.225 9.533,-17.461c4.04,-7.509 5.532,-13.32 5.995,-18.852c0.115,-1.339 0.167,-2.653 0.18,-3.979c0.064,-4.499 -0.321,-9.035 -0.296,-14.396c0,-0.85 0.013,-1.724 0.051,-2.613c0.026,-1.434 0.103,-2.919 0.232,-4.485c0.335,-4.219 1.105,-7.376 2.122,-9.91c0.592,-1.499 1.274,-2.786 1.995,-3.928c2.636,-4.218 5.827,-6.685 7.486,-11.794c0.283,-0.862 0.541,-1.738 0.786,-2.6c0.231,-0.876 0.45,-1.752 0.643,-2.627c1.067,-4.776 1.492,-9.579 1.492,-14.396c0,-1.312 -0.038,-2.612 -0.104,-3.926c-0.218,-4.789 -0.809,-9.592 -1.569,-14.394c-0.127,-0.875 -0.27,-1.751 -0.411,-2.614c-0.27,-1.579 -0.554,-3.158 -0.837,-4.737c-0.591,-3.223 -1.195,-6.448 -1.762,-9.658c-0.167,-0.915 -0.322,-1.818 -0.475,-2.72c-0.066,-0.398 -0.143,-0.81 -0.194,-1.207c-0.798,-4.816 -1.453,-9.618 -1.736,-14.394c-0.051,-0.876 -0.104,-1.74 -0.129,-2.615c-0.154,-4.828 0.103,-9.631 0.99,-14.394c0.245,-1.314 0.541,-2.626 0.888,-3.926c0.836,-3.199 2.007,-6.369 3.564,-9.527c0.772,-1.578 1.632,-3.197 2.559,-4.869c0.464,-0.861 0.965,-1.725 1.48,-2.614c0.76,-1.326 1.569,-2.68 2.419,-4.06c2.045,-3.316 4.31,-6.765 6.779,-10.334c0.888,-1.286 1.814,-2.601 2.754,-3.928c3.344,-4.67 6.984,-9.499 10.857,-14.394c0.681,-0.876 1.388,-1.751 2.084,-2.628c3.845,-4.775 7.873,-9.604 12.041,-14.394c1.132,-1.313 2.277,-2.614 3.422,-3.927c4.336,-4.883 8.76,-9.698 13.237,-14.395c0.836,-0.876 1.673,-1.75 2.509,-2.613c4.85,-5.002 9.726,-9.844 14.551,-14.396c1.401,-1.34 2.816,-2.653 4.205,-3.926c5.764,-5.307 11.411,-10.162 16.763,-14.394c1.144,-0.903 2.264,-1.779 3.369,-2.614c5.032,-3.821 9.779,-7.032 14.075,-9.473c3.821,-2.163 7.655,-3.781 11.513,-4.923c7.888,-2.36 15.85,-2.813 23.878,-2.202c1.633,0.119 3.28,0.306 4.926,0.505c3.384,0.438 6.794,1.007 10.202,1.697c0.991,0.2 1.994,0.412 2.984,0.624c7.436,1.592 14.923,3.542 22.462,5.214c12.093,2.667 24.314,4.603 36.637,3.091c2.664,-0.331 5.34,-0.821 8.028,-1.498c0.939,-0.226 1.893,-0.491 2.844,-0.783c0.374,-0.12 0.759,-0.24 1.145,-0.359c1.247,-0.384 2.522,-0.81 3.782,-1.26l0.012,0c4.864,-1.725 9.804,-3.795 14.73,-6.115c3.332,-1.567 6.651,-3.239 9.959,-5.003l0.011,0c1.094,-0.571 2.174,-1.166 3.267,-1.751c0.413,-0.226 0.824,-0.464 1.237,-0.69c1.093,-0.611 2.186,-1.221 3.267,-1.832c8.503,-4.855 16.839,-10.081 24.699,-15.149c1.97,-1.26 3.898,-2.521 5.803,-3.755c1.736,-1.128 3.434,-2.23 5.107,-3.33c3.267,-2.123 6.38,-4.219 9.378,-6.236c1.994,-1.34 3.95,-2.653 5.866,-3.926c9.121,-6.051 17.624,-11.211 27.247,-14.396c3.474,-1.154 7.088,-2.043 10.935,-2.613c4.978,-0.77 10.342,-1.008 16.273,-0.61c1.608,0.106 3.204,0.318 4.773,0.61c3.1,0.583 6.124,1.499 9.107,2.613c11.399,4.245 22.103,11.437 33.706,14.315c0.103,0.027 0.219,0.054 0.322,0.081c12.762,3.144 18.41,2.507 26.011,0c4.027,-1.328 8.582,-3.172 15.038,-5.242c19.478,-6.248 41.039,-8.291 60.863,-3.157c8.864,2.294 17.599,5.121 26.193,8.399c3.255,1.247 6.47,2.546 9.674,3.926c5.543,2.376 11.036,4.935 16.466,7.668c2.458,-0.902 4.902,-1.725 7.346,-2.494c2.328,-0.729 4.644,-1.392 6.946,-2.003c9.082,-2.388 17.959,-3.86 26.579,-4.603c0.875,-0.067 1.749,-0.147 2.636,-0.2c0.824,-0.053 1.66,-0.119 2.484,-0.145c0.888,-0.053 1.762,-0.106 2.65,-0.133c9.223,-0.332 18.113,0.133 26.553,1.154c2.289,0.279 4.54,0.611 6.766,0.982c6.406,1.021 12.53,2.375 18.319,3.914c3.088,0.822 6.073,1.697 8.967,2.613c1.993,0.623 3.948,1.274 5.839,1.938c11.76,4.112 21.574,8.715 28.908,12.457c0.732,0.371 1.44,0.73 2.122,1.088c1.994,1.049 3.782,1.989 5.326,2.838c4.027,2.177 6.483,3.557 7.153,3.557c6.714,0.317 13.289,1.273 19.746,2.892c4.207,1.034 8.362,2.36 12.479,3.967c3.023,1.166 6.008,2.493 8.967,3.979c1.659,0.822 3.293,1.686 4.927,2.614c0.977,0.544 1.955,1.102 2.92,1.686c1.801,1.088 3.577,2.215 5.287,3.382c4.31,2.893 8.349,6.011 12.17,9.327c1.493,1.274 2.946,2.587 4.375,3.927c4.848,4.538 9.36,9.367 13.649,14.394c0.755,0.863 1.491,1.738 2.208,2.628c2.488,2.971 4.89,6.009 7.242,9.087c1.356,1.752 2.692,3.53 4.009,5.307c0.978,1.301 1.937,2.614 2.895,3.927c2.508,3.397 4.958,6.833 7.445,10.27c0.989,1.379 1.996,2.759 2.983,4.125c0.629,0.875 1.278,1.751 1.908,2.614c0.997,1.367 2.003,2.733 3.011,4.099c2.556,3.463 5.15,6.899 7.833,10.296c0.746,0.968 1.521,1.922 2.285,2.878c0.291,0.345 0.572,0.704 0.862,1.049c3.234,3.966 6.565,7.84 10.08,11.582c0.881,0.942 1.772,1.884 2.672,2.812c0.823,0.876 1.675,1.752 2.518,2.614c4.773,4.896 9.692,9.658 14.63,14.395c1.366,1.314 2.741,2.614 4.115,3.927c3.68,3.516 7.369,7.018 11.039,10.56c1.316,1.275 2.624,2.548 3.921,3.835c0.891,0.862 1.762,1.738 2.643,2.612c2.944,2.933 5.849,5.918 8.705,8.956c0.281,0.305 0.571,0.598 0.833,0.889c1.394,1.5 2.682,3.012 3.873,4.551c1.007,1.3 1.946,2.601 2.808,3.927c3.079,4.643 5.354,9.459 7.058,14.395c0.31,0.876 0.601,1.751 0.853,2.627c1.452,4.71 2.42,9.526 3.088,14.395c0.184,1.3 0.349,2.613 0.485,3.927c0.522,4.762 0.803,9.577 1.036,14.395c0.038,0.809 0.077,1.631 0.116,2.441c0.639,14.925 0.987,29.877 5.993,43.767c0.155,0.437 0.31,0.863 0.475,1.287c0.319,0.862 0.668,1.712 1.045,2.561c0.727,1.698 1.54,3.383 2.45,5.041c2.024,3.729 4.503,7.364 7.543,10.866c0.232,0.266 0.465,0.531 0.697,0.796c0.707,0.796 1.453,1.593 2.227,2.361c3.331,3.37 6.739,6.753 10.196,10.19c1.104,1.087 2.217,2.175 3.321,3.278l0.01,0l0,0.012c0.106,0.107 0.213,0.2 0.31,0.305c0.106,0.093 0.193,0.199 0.31,0.306c0.193,0.199 0.396,0.397 0.619,0.61c1.065,1.048 2.13,2.122 3.215,3.171l0,0.012c0.087,0.08 0.164,0.173 0.271,0.266c1.172,1.154 2.343,2.309 3.515,3.477c0.087,0.106 0.193,0.211 0.29,0.304c2.314,2.321 4.648,4.67 6.972,7.046c0.813,0.822 1.607,1.643 2.42,2.494c0.901,0.929 1.801,1.856 2.702,2.799c0.9,0.956 1.801,1.896 2.692,2.852l0.077,0.08l0.078,0.067c0.755,0.822 1.51,1.631 2.275,2.44c1.152,1.261 2.304,2.508 3.447,3.782c1.578,1.75 3.147,3.516 4.696,5.306c0.717,0.809 1.423,1.645 2.13,2.467c0.688,0.81 1.365,1.619 2.053,2.442c0.116,0.146 0.242,0.292 0.368,0.451c0.116,0.145 0.232,0.292 0.348,0.438c0.61,0.717 1.182,1.433 1.772,2.163c0.349,0.41 0.688,0.835 1.017,1.26c0.136,0.146 0.261,0.305 0.378,0.464c0.116,0.146 0.242,0.305 0.358,0.451l0.039,0.04l0.029,0.039c0.232,0.279 0.445,0.559 0.648,0.837c0.223,0.278 0.446,0.543 0.659,0.835l0.135,0.146c0.078,0.107 0.165,0.198 0.243,0.319l0.009,0.012l0.078,0.107l0.087,0.12c0.484,0.609 0.939,1.207 1.404,1.816l0.126,0.16l0.038,0.054c0.097,0.119 0.175,0.226 0.252,0.332c0.087,0.118 0.174,0.225 0.252,0.344Z" style="fill:#e4f0ff;fill-rule:nonzero;"/><path d="M430.487,194.39c-1.088,0.595 -2.177,1.187 -3.265,1.76l-0.006,-0c-3.313,1.756 -6.633,3.437 -9.96,4.997c-4.934,2.33 -9.87,4.396 -14.735,6.113l0,325.537l-272.695,0c-0.645,5.167 -1.219,10.278 -1.726,15.297c-0.164,1.673 -0.322,3.331 -0.465,4.983c-0.307,3.325 -0.569,6.607 -0.801,9.841l304.893,0l-0,-369.213c-0.412,0.228 -0.829,0.46 -1.24,0.685Z" style="fill:#fff;fill-rule:nonzero;"/><path d="M783.321,161.977c-8.618,0.741 -17.496,2.217 -26.572,4.596l0,366.224l-297.055,0l0,-356.074c-7.865,5.076 -16.195,10.299 -24.696,15.15l-0.006,0l0,0.004c-1.089,0.609 -2.177,1.222 -3.265,1.828c-0.412,0.228 -0.829,0.46 -1.24,0.685l0,368.528l355.469,0l0,-401.145c-0.876,0.055 -1.752,0.126 -2.635,0.204Z" style="fill:#fff;fill-rule:nonzero;"/><path d="M1143.29,498.088c-0.097,-0.106 -0.204,-0.205 -0.31,-0.304c-0.097,-0.099 -0.203,-0.204 -0.3,-0.31l-0.01,0c-1.104,-1.102 -2.217,-2.187 -3.321,-3.282c-3.466,-3.431 -6.875,-6.813 -10.196,-10.187l-0.01,0c-0.764,-0.783 -1.5,-1.574 -2.217,-2.363c-0.242,-0.269 -0.474,-0.53 -0.707,-0.799c-3.03,-3.501 -5.509,-7.129 -7.533,-10.864c-0.9,-1.658 -1.714,-3.339 -2.45,-5.039c-0.367,-0.848 -0.716,-1.702 -1.045,-2.556c-0.165,-0.431 -0.329,-0.861 -0.484,-1.292l0,71.705l-297.052,0l0,-370.142c-8.446,-1.031 -17.338,-1.497 -26.565,-1.157c-0.876,0.028 -1.759,0.077 -2.641,0.126l0,401.294l355.47,0l0,-64.216c-0.213,-0.205 -0.416,-0.409 -0.629,-0.614Z" style="fill:#fff;fill-rule:nonzero;"/><path d="M434.989,191.872l-0,371.046l-7.77,0l-0,-366.768c1.089,-0.573 2.177,-1.165 3.266,-1.76c0.41,-0.225 0.828,-0.457 1.238,-0.685c1.097,-0.606 2.185,-1.219 3.266,-1.833Z" style="fill:#cadbdd;fill-rule:nonzero;"/><path d="M791.086,161.498l0,401.42l-7.767,0l0,-400.941c0.875,-0.078 1.757,-0.141 2.635,-0.205c0.834,-0.057 1.669,-0.112 2.489,-0.148c0.885,-0.049 1.767,-0.098 2.643,-0.126Z" style="fill:#cadbdd;fill-rule:nonzero;"/><path d="M1199.36,562.918l-1072.53,0c0.232,-3.234 0.494,-6.516 0.801,-9.841l1065.04,0c0.107,0.142 0.223,0.29 0.32,0.438c2.188,3.071 4.309,6.196 6.371,9.403Z" style="fill:#cadbdd;fill-rule:nonzero;"/><path d="M749.8,168.579l-0,348.221l-284.305,0l-0,-343.829c1.736,-1.128 3.434,-2.23 5.107,-3.33c3.267,-2.123 6.38,-4.219 9.378,-6.236c1.994,-1.34 3.95,-2.653 5.866,-3.926c9.121,-6.051 17.624,-11.211 27.247,-14.396c3.474,-1.154 7.088,-2.043 10.935,-2.613c4.978,-0.77 10.342,-1.008 16.273,-0.61c1.608,0.106 3.204,0.318 4.773,0.61c3.1,0.583 6.124,1.499 9.107,2.613c11.399,4.245 22.103,11.437 33.706,14.315c0.103,0.027 0.219,0.054 0.322,0.081l26.011,0c4.027,-1.328 8.582,-3.172 15.038,-5.242c19.478,-6.248 41.039,-8.291 60.863,-3.157c8.864,2.294 17.599,5.121 26.193,8.399c3.255,1.247 6.47,2.546 9.674,3.926c5.543,2.376 11.036,4.935 16.466,7.668c2.458,-0.902 4.902,-1.725 7.346,-2.494Z" style="fill:#8a8e8d;fill-rule:nonzero;"/><path d="M545.074,142.47l-21.046,0c4.978,-0.77 10.342,-1.008 16.273,-0.61c1.608,0.106 3.204,0.318 4.773,0.61Z" style="fill:#c0cecc;fill-rule:nonzero;"/><path d="M587.887,159.398c0.103,0.027 0.219,0.054 0.322,0.081l-102.363,0c9.121,-6.051 17.624,-11.211 27.247,-14.396l41.088,0c11.399,4.245 22.103,11.437 33.706,14.315Z" style="fill:#c0cecc;fill-rule:nonzero;"/><path d="M716.314,159.479l-102.094,0c4.027,-1.328 8.582,-3.172 15.038,-5.242c19.478,-6.248 41.039,-8.291 60.863,-3.157c8.864,2.294 17.599,5.121 26.193,8.399Z" style="fill:#c0cecc;fill-rule:nonzero;"/><path d="M749.8,168.579l-0,9.221l-284.305,0l-0,-4.829c1.736,-1.128 3.434,-2.23 5.107,-3.33c3.267,-2.123 6.38,-4.219 9.378,-6.236l246.008,0c5.543,2.376 11.036,4.935 16.466,7.668c2.458,-0.902 4.902,-1.725 7.346,-2.494Z" style="fill:#c0cecc;fill-rule:nonzero;"/><rect x="465.495" y="180.427" width="284.305" height="14.395" style="fill:#c0cecc;"/><rect x="465.495" y="198.748" width="284.305" height="14.394" style="fill:#c0cecc;"/><rect x="465.495" y="215.757" width="284.305" height="14.394" style="fill:#c0cecc;"/><rect x="465.495" y="234.078" width="284.305" height="14.394" style="fill:#c0cecc;"/><rect x="465.495" y="251.087" width="284.305" height="14.394" style="fill:#c0cecc;"/><rect x="465.495" y="269.409" width="284.305" height="14.395" style="fill:#c0cecc;"/><rect x="465.495" y="286.417" width="284.305" height="14.395" style="fill:#c0cecc;"/><rect x="465.495" y="304.739" width="284.305" height="14.395" style="fill:#c0cecc;"/><rect x="465.495" y="321.761" width="284.305" height="14.394" style="fill:#c0cecc;"/><rect x="465.495" y="340.082" width="284.305" height="14.394" style="fill:#c0cecc;"/><rect x="465.495" y="357.092" width="284.305" height="14.395" style="fill:#c0cecc;"/><rect x="465.495" y="375.413" width="284.305" height="14.393" style="fill:#c0cecc;"/><rect x="465.495" y="392.421" width="284.305" height="14.395" style="fill:#c0cecc;"/><rect x="465.495" y="410.743" width="284.305" height="14.394" style="fill:#c0cecc;"/><rect x="465.495" y="427.751" width="284.305" height="14.394" style="fill:#c0cecc;"/><rect x="465.495" y="446.073" width="284.305" height="14.395" style="fill:#c0cecc;"/><rect x="465.495" y="463.095" width="284.305" height="14.394" style="fill:#c0cecc;"/><rect x="465.495" y="481.416" width="284.305" height="14.395" style="fill:#c0cecc;"/><rect x="465.495" y="498.425" width="284.305" height="14.395" style="fill:#c0cecc;"/><path d="M1108.72,414.883l0,20.987l-284.308,0l0,-272.239c6.406,1.021 12.53,2.375 18.319,3.914c3.088,0.822 6.073,1.697 8.967,2.613c1.993,0.623 3.948,1.274 5.839,1.938c11.76,4.112 21.574,8.715 28.908,12.457c0.732,0.371 1.44,0.73 2.122,1.088c1.994,1.049 3.782,1.989 5.326,2.838c4.027,2.177 6.483,3.557 7.153,3.557c6.714,0.317 13.289,1.273 19.746,2.892c4.207,1.034 8.362,2.36 12.479,3.967c3.023,1.166 6.008,2.493 8.967,3.979c1.659,0.822 3.293,1.686 4.927,2.614c0.977,0.544 1.955,1.102 2.92,1.686c1.801,1.088 3.577,2.215 5.287,3.382c4.31,2.893 8.349,6.011 12.17,9.327c1.493,1.274 2.946,2.587 4.375,3.927c4.848,4.538 9.36,9.367 13.649,14.394c0.755,0.863 1.491,1.738 2.208,2.628c2.488,2.971 4.89,6.009 7.242,9.087c1.356,1.752 2.692,3.53 4.009,5.307c0.978,1.301 1.937,2.614 2.895,3.927c2.508,3.397 4.958,6.833 7.445,10.27c0.989,1.379 1.996,2.759 2.983,4.125c0.629,0.875 1.278,1.751 1.908,2.614c0.997,1.367 2.003,2.733 3.011,4.099c2.556,3.463 5.15,6.899 7.833,10.296c0.746,0.968 1.521,1.922 2.285,2.878c0.291,0.345 0.572,0.704 0.862,1.049c3.234,3.966 6.565,7.84 10.08,11.582c0.881,0.942 1.772,1.884 2.672,2.812c0.823,0.876 1.675,1.752 2.518,2.614c4.773,4.896 9.692,9.658 14.63,14.395c1.366,1.314 2.741,2.614 4.115,3.927c3.68,3.516 7.369,7.018 11.039,10.56c1.316,1.275 2.624,2.548 3.921,3.835c0.891,0.862 1.762,1.738 2.643,2.612c2.944,2.933 5.849,5.918 8.705,8.956c0.281,0.305 0.571,0.598 0.833,0.889c1.394,1.5 2.682,3.012 3.873,4.551c1.007,1.3 1.946,2.601 2.808,3.927c3.079,4.643 5.354,9.459 7.058,14.395c0.31,0.876 0.601,1.751 0.853,2.627c1.452,4.71 2.42,9.526 3.088,14.395c0.184,1.3 0.349,2.613 0.485,3.927c0.522,4.762 0.803,9.577 1.036,14.395l0.116,0Z" style="fill:#8a8e8d;fill-rule:nonzero;"/><path d="M842.733,167.545l-18.319,-0l-0,-3.914c6.406,1.021 12.53,2.375 18.319,3.914Z" style="fill:#c0cecc;fill-rule:nonzero;"/><path d="M886.447,184.553l-62.033,0l0,-14.395l27.286,0c1.993,0.623 3.948,1.274 5.839,1.938c11.76,4.112 21.574,8.715 28.908,12.457Z" style="fill:#c0cecc;fill-rule:nonzero;"/><path d="M942.24,202.874l-117.826,0l0,-14.395l69.481,0c4.027,2.177 6.483,3.557 7.153,3.557c6.714,0.317 13.289,1.273 19.746,2.892c4.207,1.034 8.362,2.36 12.479,3.967c3.023,1.166 6.008,2.493 8.967,3.979Z" style="fill:#c0cecc;fill-rule:nonzero;"/><path d="M967.544,219.883l-143.13,0l0,-14.395l122.753,0c0.977,0.544 1.955,1.102 2.92,1.686c1.801,1.088 3.577,2.215 5.287,3.382c4.31,2.893 8.349,6.011 12.17,9.327Z" style="fill:#c0cecc;fill-rule:nonzero;"/><path d="M985.568,238.204l-161.154,0l0,-14.394l147.505,0c4.848,4.538 9.36,9.367 13.649,14.394Z" style="fill:#c0cecc;fill-rule:nonzero;"/><path d="M999.027,255.226l-174.613,0l0,-14.394l163.362,0c2.488,2.971 4.89,6.009 7.242,9.087c1.356,1.752 2.692,3.53 4.009,5.307Z" style="fill:#c0cecc;fill-rule:nonzero;"/><path d="M1012.35,273.548l-187.936,0l0,-14.395l177.508,0c2.508,3.397 4.958,6.833 7.445,10.27c0.989,1.379 1.996,2.759 2.983,4.125Z" style="fill:#c0cecc;fill-rule:nonzero;"/><path d="M1025.1,290.557l-200.688,0l0,-14.395l189.844,0c0.997,1.367 2.003,2.733 3.011,4.099c2.556,3.463 5.15,6.899 7.833,10.296Z" style="fill:#c0cecc;fill-rule:nonzero;"/><path d="M1041,308.878l-216.587,0l0,-14.394l203.835,0c3.234,3.966 6.565,7.84 10.08,11.582c0.881,0.942 1.772,1.884 2.672,2.812Z" style="fill:#c0cecc;fill-rule:nonzero;"/><path d="M1058.15,325.887l-233.735,0l0,-14.395l219.105,0c4.773,4.896 9.692,9.658 14.63,14.395Z" style="fill:#c0cecc;fill-rule:nonzero;"/><path d="M1077.22,344.209l-252.81,0l0,-14.395l237.85,0c3.68,3.516 7.369,7.018 11.039,10.56c1.316,1.275 2.624,2.548 3.921,3.835Z" style="fill:#c0cecc;fill-rule:nonzero;"/><path d="M1093.28,361.217l-268.864,0l0,-14.396l255.453,0c2.944,2.933 5.849,5.918 8.705,8.956c0.281,0.305 0.571,0.598 0.833,0.889c1.394,1.5 2.682,3.012 3.873,4.551Z" style="fill:#c0cecc;fill-rule:nonzero;"/><path d="M1103.14,379.539l-278.73,0l0,-14.395l271.672,0c3.079,4.643 5.354,9.459 7.058,14.395Z" style="fill:#c0cecc;fill-rule:nonzero;"/><path d="M1107.09,396.561l-282.671,-0l0,-14.395l279.583,-0c1.452,4.71 2.42,9.526 3.088,14.395Z" style="fill:#c0cecc;fill-rule:nonzero;"/><path d="M1108.61,414.883l-284.192,0l-0,-14.395l283.156,0c0.522,4.762 0.803,9.577 1.036,14.395Z" style="fill:#c0cecc;fill-rule:nonzero;"/><rect x="824.414" y="417.496" width="284.308" height="14.395" style="fill:#c0cecc;"/><path d="M394.739,209.668l-0,275.291l-246.65,0c0.115,-1.339 0.167,-2.653 0.18,-3.979c0.064,-4.499 -0.321,-9.035 -0.296,-14.396c-0,-0.85 0.013,-1.724 0.051,-2.613c0.026,-1.434 0.103,-2.919 0.232,-4.485c0.335,-4.219 1.105,-7.376 2.122,-9.91c0.592,-1.499 1.274,-2.786 1.995,-3.928c2.636,-4.218 5.827,-6.685 7.486,-11.794c0.283,-0.862 0.541,-1.738 0.786,-2.6c0.231,-0.876 0.45,-1.752 0.643,-2.627c1.067,-4.776 1.492,-9.579 1.492,-14.396c-0,-1.312 -0.038,-2.612 -0.104,-3.926c-0.218,-4.789 -0.809,-9.592 -1.569,-14.394c-0.127,-0.875 -0.27,-1.751 -0.411,-2.614c-0.27,-1.579 -0.554,-3.158 -0.837,-4.737c-0.591,-3.223 -1.195,-6.448 -1.762,-9.658c-0.167,-0.915 -0.322,-1.818 -0.475,-2.72c-0.066,-0.398 -0.143,-0.81 -0.194,-1.207c-0.798,-4.816 -1.453,-9.618 -1.736,-14.394c-0.051,-0.876 -0.104,-1.74 -0.129,-2.615c-0.154,-4.828 0.103,-9.631 0.99,-14.394c0.245,-1.314 0.541,-2.626 0.888,-3.926c0.836,-3.199 2.007,-6.369 3.564,-9.527c0.772,-1.578 1.632,-3.197 2.559,-4.869c0.464,-0.861 0.965,-1.725 1.48,-2.614c0.76,-1.326 1.569,-2.68 2.419,-4.06c2.045,-3.316 4.31,-6.765 6.779,-10.334c0.888,-1.286 1.814,-2.601 2.754,-3.928c3.344,-4.67 6.984,-9.499 10.857,-14.394c0.681,-0.876 1.388,-1.751 2.084,-2.628c3.845,-4.775 7.873,-9.604 12.041,-14.394c1.132,-1.313 2.277,-2.614 3.422,-3.927c4.336,-4.883 8.76,-9.698 13.237,-14.395c0.836,-0.876 1.673,-1.75 2.509,-2.613c4.85,-5.002 9.726,-9.844 14.551,-14.396c1.401,-1.34 2.816,-2.653 4.205,-3.926c5.764,-5.307 11.411,-10.162 16.763,-14.394c1.144,-0.903 2.264,-1.779 3.369,-2.614c5.032,-3.821 9.779,-7.032 14.075,-9.473c3.821,-2.163 7.655,-3.781 11.513,-4.923c7.888,-2.36 15.85,-2.813 23.878,-2.202c1.633,0.119 3.28,0.306 4.926,0.505c3.384,0.438 6.794,1.007 10.202,1.697c0.991,0.2 1.994,0.412 2.984,0.624c7.436,1.592 14.923,3.542 22.462,5.214c12.093,2.667 24.314,4.603 36.637,3.091c2.664,-0.331 5.34,-0.821 8.028,-1.498Z" style="fill:#8a8e8d;fill-rule:nonzero;"/><path d="M394.739,209.668l-0,6.965l-134.705,0c5.032,-3.821 9.779,-7.032 14.075,-9.473c3.821,-2.163 7.655,-3.781 11.513,-4.923l39.006,0c0.991,0.2 1.994,0.412 2.984,0.624c7.436,1.592 14.923,3.542 22.462,5.214c12.093,2.667 24.314,4.603 36.637,3.091c2.664,-0.331 5.34,-0.821 8.028,-1.498Z" style="fill:#c0cecc;fill-rule:nonzero;"/><path d="M394.739,219.247l-0,14.394l-154.837,0c5.764,-5.307 11.411,-10.162 16.763,-14.394l138.074,0Z" style="fill:#c0cecc;fill-rule:nonzero;"/><path d="M394.739,237.567l-0,14.396l-173.593,0c4.85,-5.002 9.726,-9.844 14.551,-14.396l159.042,0Z" style="fill:#c0cecc;fill-rule:nonzero;"/><path d="M394.739,254.576l-0,14.395l-189.339,0c4.336,-4.883 8.76,-9.698 13.237,-14.395l176.102,0Z" style="fill:#c0cecc;fill-rule:nonzero;"/><path d="M394.739,272.898l-0,14.394l-204.802,0c3.845,-4.775 7.873,-9.604 12.041,-14.394l192.761,0Z" style="fill:#c0cecc;fill-rule:nonzero;"/><path d="M394.739,289.92l-0,14.394l-217.743,0c3.344,-4.67 6.984,-9.499 10.857,-14.394l206.886,0Z" style="fill:#c0cecc;fill-rule:nonzero;"/><path d="M394.739,308.242l-0,14.394l-229.695,0c0.76,-1.326 1.569,-2.68 2.419,-4.06c2.045,-3.316 4.31,-6.765 6.779,-10.334l220.497,0Z" style="fill:#c0cecc;fill-rule:nonzero;"/><path d="M394.739,325.25l-0,14.396l-237.298,0c0.836,-3.199 2.007,-6.369 3.564,-9.527c0.772,-1.578 1.632,-3.197 2.559,-4.869l231.175,0Z" style="fill:#c0cecc;fill-rule:nonzero;"/><path d="M394.739,343.572l-0,14.394l-239.176,0c-0.154,-4.828 0.103,-9.631 0.99,-14.394l238.186,0Z" style="fill:#c0cecc;fill-rule:nonzero;"/><path d="M394.739,360.581l-0,14.394l-237.311,0c-0.798,-4.816 -1.453,-9.618 -1.736,-14.394l239.047,0Z" style="fill:#c0cecc;fill-rule:nonzero;"/><path d="M394.739,378.902l-0,14.395l-234.043,0c-0.27,-1.579 -0.554,-3.158 -0.837,-4.737c-0.591,-3.223 -1.195,-6.448 -1.762,-9.658l236.642,0Z" style="fill:#c0cecc;fill-rule:nonzero;"/><path d="M394.739,395.911l-0,14.394l-232.063,0c-0.218,-4.789 -0.809,-9.592 -1.569,-14.394l233.632,0Z" style="fill:#c0cecc;fill-rule:nonzero;"/><path d="M394.739,414.231l-0,14.396l-233.451,0c1.067,-4.776 1.492,-9.579 1.492,-14.396l231.959,0Z" style="fill:#c0cecc;fill-rule:nonzero;"/><path d="M394.739,431.254l-0,14.394l-242.366,0c2.636,-4.218 5.827,-6.685 7.486,-11.794c0.283,-0.862 0.541,-1.738 0.786,-2.6l234.094,0Z" style="fill:#c0cecc;fill-rule:nonzero;"/><path d="M394.739,449.576l-0,14.395l-246.715,0c0.026,-1.434 0.103,-2.919 0.232,-4.485c0.335,-4.219 1.105,-7.376 2.122,-9.91l244.361,0Z" style="fill:#c0cecc;fill-rule:nonzero;"/><path d="M394.739,466.584l-0,14.396l-246.47,0c0.064,-4.499 -0.321,-9.035 -0.296,-14.396l246.766,0Z" style="fill:#c0cecc;fill-rule:nonzero;"/><path d="M812.828,280.868c0,4.226 -3.322,7.653 -7.42,7.653c-4.098,0 -7.42,-3.427 -7.42,-7.653l0,-42.848c0,-4.225 3.322,-7.651 7.42,-7.651c4.098,0 7.42,3.426 7.42,7.651l0,42.848Z" style="fill:#cadbdd;fill-rule:nonzero;"/><path d="M805.601,262.188c-3.195,0 -5.785,-2.669 -5.785,-5.961l0,-49.044c0,-3.295 2.59,-5.964 5.785,-5.964c3.193,0 5.781,2.669 5.781,5.964l0,49.044c0,3.292 -2.588,5.961 -5.781,5.961Z" style="fill:#cadbdd;fill-rule:nonzero;"/><path d="M803.792,262.188c-3.193,0 -5.782,-2.669 -5.782,-5.961l0,-49.044c0,-3.295 2.589,-5.964 5.782,-5.964c3.194,0 5.784,2.669 5.784,5.964l0,49.044c0,3.292 -2.59,5.961 -5.784,5.961Z" style="fill:#fff;fill-rule:nonzero;"/><path d="M453.738,280.868c0,4.226 -3.323,7.653 -7.42,7.653c-4.097,0 -7.418,-3.427 -7.418,-7.653l0,-42.848c0,-4.225 3.321,-7.651 7.418,-7.651c4.097,0 7.42,3.426 7.42,7.651l0,42.848Z" style="fill:#cadbdd;fill-rule:nonzero;"/><path d="M446.51,262.188c-3.194,0 -5.782,-2.669 -5.782,-5.961l0,-49.044c0,-3.295 2.588,-5.964 5.782,-5.964c3.194,0 5.784,2.669 5.784,5.964l0,49.044c0,3.292 -2.59,5.961 -5.784,5.961Z" style="fill:#cadbdd;fill-rule:nonzero;"/><path d="M444.702,262.188c-3.194,0 -5.782,-2.669 -5.782,-5.961l0,-49.044c0,-3.295 2.588,-5.964 5.782,-5.964c3.195,0 5.785,2.669 5.785,5.964l0,49.044c0,3.292 -2.59,5.961 -5.785,5.961Z" style="fill:#fff;fill-rule:nonzero;"/><path d="M1301.21,868.971c0,20.643 -273.196,37.359 -610.203,37.359c-337.012,0 -610.215,-16.716 -610.215,-37.359c0,-20.63 273.203,-37.346 610.215,-37.346c144.185,0 276.714,3.063 381.131,8.171c17.177,0.85 33.599,1.738 49.178,2.694c13.488,0.822 26.356,1.685 38.537,2.574c13.256,0.967 25.708,1.989 37.307,3.038c65.697,5.956 104.05,13.134 104.05,20.869Z" style="fill:url(#_Linear2);fill-rule:nonzero;"/><rect x="112.643" y="185.572" width="165.87" height="668.196" style="fill:#919191;"/><rect x="192.656" y="185.572" width="182.788" height="668.196" style="fill:#bcbbbb;"/><rect x="207.377" y="185.572" width="73.931" height="638.513" style="fill:#a8a7a7;"/><path d="M294.424,721.203c0,2.168 1.707,3.928 3.808,3.928c2.104,0 3.81,-1.76 3.81,-3.928l0,-59.478c0,-2.17 -1.706,-3.928 -3.81,-3.928c-2.101,0 -3.808,1.758 -3.808,3.928l0,59.478Z" style="fill:#d6e0ff;fill-rule:nonzero;"/><path d="M230.535,250.203l-23.405,2.745l0,105.041l33.408,0l0,-107.786l-10.003,0Z" style="fill:#0051f1;fill-rule:nonzero;"/><rect x="231.805" y="250.203" width="22.474" height="107.786" style="fill:#0036d0;"/><path d="M248.366,262.601c0.579,3.366 -1.474,6.759 -4.584,7.579c-3.111,0.82 -6.096,-1.208 -6.669,-4.528c-0.57,-3.32 1.481,-6.713 4.583,-7.577c3.103,-0.865 6.09,1.162 6.67,4.526Z" style="fill:#fff;fill-rule:nonzero;"/><path d="M241.801,258.68c-2.789,0.775 -4.638,3.834 -4.126,6.819c0.517,2.987 3.208,4.814 6.002,4.076c2.795,-0.739 4.647,-3.799 4.126,-6.82c-0.519,-3.021 -3.214,-4.85 -6.002,-4.075Zm2.086,12.106c-3.419,0.897 -6.708,-1.336 -7.336,-4.981c-0.628,-3.646 1.634,-7.384 5.041,-8.335c3.41,-0.952 6.698,1.281 7.336,4.979c0.635,3.697 -1.625,7.436 -5.041,8.337Z" style="fill:#fff;fill-rule:nonzero;"/><path d="M247.294,352.86l-8.504,0.044l0,-68.287l8.504,-0.671l0,68.914Z" style="fill:#fff;fill-rule:nonzero;"/><path d="M1098.05,876.22c0,4.049 -192.177,7.332 -429.243,7.332c-237.066,0 -429.245,-3.283 -429.245,-7.332c0,-4.048 192.179,-7.33 429.245,-7.33c237.066,0 429.243,3.282 429.243,7.33Z" style="fill:url(#_Linear3);fill-rule:nonzero;"/><path d="M705.575,590.199c0.44,-0.122 1.187,-7.648 1.61,-7.753c-3.387,-15.847 -6.047,-35.215 -8.917,-51.334c-2.365,-13.269 -4.742,-34.623 -9.714,-45.255l16.671,-43.941c12.262,6.426 23.723,10.545 29.524,26.453c6.803,18.654 6.143,37.431 9.037,57.004c2.476,16.745 5.737,33.518 8.555,50.01c0.179,1.058 0.389,2.228 0.607,3.462l-47.373,11.354Z" style="fill:#0078ee;fill-rule:nonzero;"/><rect x="726.853" y="598.357" width="15.303" height="73.024" style="fill:#151d2b;"/><rect x="731.326" y="598.357" width="15.303" height="73.024" style="fill:#222e44;"/><path d="M780.366,599.887c0,5.731 -2.966,10.382 -6.626,10.382l-68.261,-0c-3.661,-0 -6.627,-4.651 -6.627,-10.382l0,-1.038c0,-5.735 2.966,-10.385 6.627,-10.385l68.261,-0c3.66,-0 6.626,4.65 6.626,10.385l0,1.038Z" style="fill:#872533;fill-rule:nonzero;"/><path d="M711.179,599.887c0,5.731 -0.695,10.382 -1.552,10.382l-15.977,-0c-0.857,-0 -1.551,-4.651 -1.551,-10.382l0,-1.038c0,-5.735 0.694,-10.385 1.551,-10.385l15.977,-0c0.857,-0 1.552,4.65 1.552,10.385l0,1.038Z" style="fill:#5b1a2c;fill-rule:nonzero;"/><path d="M699.773,429.235c-12.985,-11.35 -62.051,-16.67 -96.309,-9.862c-20.979,4.169 -72.469,8.435 -72.035,31.473c0.409,21.859 32.331,220.063 29.909,224.463l149.977,-5.863c-2.25,-8.827 -8.16,-199.95 -11.542,-240.211Z" style="fill:#46415b;fill-rule:nonzero;"/><path d="M664.255,409.428c0.58,7.225 -4.631,13.566 -11.638,14.163l-62.585,5.334c-7.008,0.598 -13.157,-4.776 -13.736,-12.001l-1.817,-22.679c-0.579,-7.225 4.63,-13.567 11.638,-14.164l62.586,-5.334c7.008,-0.597 13.156,4.775 13.736,12.002l1.816,22.679Z" style="fill:#46415b;fill-rule:nonzero;"/><path d="M642.204,838.324l0.387,-8.033l2.015,-42.182l4.684,-97.757l9.015,-0l6.042,97.757l2.602,42.182l0.376,6.026c-0,3.697 -8.041,12.719 -11.595,12.719c-3.554,-0 -13.526,-7.014 -13.526,-10.712Z" style="fill:#747b84;fill-rule:nonzero;"/><path d="M643.527,749.947l1.782,-46.976l17.455,0l2.302,46.976l-21.539,0Z" style="fill:#151d2b;fill-rule:nonzero;"/><path d="M581.906,860.487c-0,5.938 -4.893,10.752 -10.928,10.752c-6.035,0 -10.927,-4.814 -10.927,-10.752c-0,-5.934 4.892,-10.749 10.927,-10.749c6.035,0 10.928,4.815 10.928,10.749Z" style="fill:#151d2b;fill-rule:nonzero;"/><path d="M685.305,860.487c-0,5.938 -4.892,10.752 -10.929,10.752c-6.036,0 -10.928,-4.814 -10.928,-10.752c-0,-5.934 4.892,-10.749 10.928,-10.749c6.037,0 10.929,4.815 10.929,10.749Z" style="fill:#151d2b;fill-rule:nonzero;"/><path d="M760.222,860.487c0,5.938 -4.893,10.752 -10.929,10.752c-6.036,0 -10.928,-4.814 -10.928,-10.752c0,-5.934 4.892,-10.749 10.928,-10.749c6.036,0 10.929,4.815 10.929,10.749Z" style="fill:#151d2b;fill-rule:nonzero;"/><path d="M765.446,859.552l-209.416,0l2.216,-11.391l103.046,-9.638l104.154,11.392l0,9.637Z" style="fill:#747b84;fill-rule:nonzero;"/><path d="M655.399,838.523l-0.65,0.203l0,20.826l31.18,0l0,-9.637l-30.53,-11.392Z" style="fill:#9fa4aa;fill-rule:nonzero;"/><path d="M648.916,728.352c-9.459,1.519 -36.291,5.493 -39.469,7.835c-3.853,2.836 -12.678,21.182 -20.109,12.781c-14.629,-16.532 31.499,-19.939 59.578,-20.616Z" style="fill:#151d2b;fill-rule:nonzero;"/><path d="M589.814,691.669c0.349,0.286 0.701,0.584 1.069,0.888c12.217,10.179 35.135,29.803 37.207,30.944c1.248,0.694 4.238,1.391 7.971,2.033c9.057,1.555 22.507,2.747 26.278,2.494c9.724,-0.655 18.383,-3.929 32.152,-9.4c4.143,-1.642 11.912,-15.302 19.351,-26.959l-124.028,0Z" style="fill:#151d2b;fill-rule:nonzero;"/><path d="M682.765,691.669c5.648,11.742 -17.077,28.518 -34.348,32.324c-4.032,0.884 -8.173,1.351 -12.356,1.541c9.057,1.555 22.507,2.747 26.278,2.494c9.724,-0.655 18.383,-3.929 32.152,-9.4c4.143,-1.642 11.912,-15.302 19.351,-26.959l-31.077,0Z" style="fill:#222e44;fill-rule:nonzero;"/><path d="M659.74,729.347c9.459,1.52 36.292,5.497 39.471,7.834c3.851,2.836 12.676,21.183 20.112,12.781c14.625,-16.529 -31.502,-19.936 -59.583,-20.615Z" style="fill:#151d2b;fill-rule:nonzero;"/><path d="M772.52,677.508c0,8.044 -8.399,14.567 -18.765,14.567l-193.309,0c-10.365,0 -18.767,-6.523 -18.767,-14.567l0,-1.456c0,-8.045 8.402,-14.567 18.767,-14.567l193.309,0c10.366,0 18.765,6.522 18.765,14.567l0,1.456Z" style="fill:#46415b;fill-rule:nonzero;"/><path d="M564.748,677.508c0,8.044 -1.036,14.567 -2.315,14.567l-23.834,0c-1.28,0 -2.316,-6.523 -2.316,-14.567l0,-1.456c0,-8.045 1.036,-14.567 2.316,-14.567l23.834,0c1.279,0 2.315,6.522 2.315,14.567l0,1.456Z" style="fill:#5b1a2c;fill-rule:nonzero;"/><path d="M747.994,678.205c-2.265,0.353 -5.573,0.63 -9.676,0.84c-12.607,0.676 -32.732,0.72 -53.287,0.265c-29.91,-0.652 -60.72,-2.369 -70.568,-4.795c-21.06,-5.204 -27.781,-16.934 -24.335,-40.612c2.545,-17.467 12.65,-31.743 15.034,-48.731l61.751,22.703c9.729,2.559 15.207,10.598 27.386,13.844c13.229,3.523 64.796,-0.443 76.964,7.753c34.805,23.435 -7.6,46.306 -23.269,48.733Z" style="fill:#809ddd;fill-rule:nonzero;"/><path d="M697.263,390.301c-9.531,-4.124 -32.658,-6.903 -42.682,-5.615c-10.854,1.395 -4.483,6.194 -14.578,8.396l16.033,33.445c5.829,5.486 7.984,12.805 14.823,17.792c6.646,4.848 13.631,10.534 21.051,13.756c5.143,2.237 15.817,7.628 21.228,3.668c4.393,-3.213 -2.078,-24.488 -0.89,-29.66c5.206,-22.662 9.271,-31.284 -14.985,-41.782Z" style="fill:#af5aab;fill-rule:nonzero;"/><path d="M734.14,524.985c-0.577,3.553 -2.075,6.682 -4.04,9.568c-3.952,5.77 -9.807,10.571 -14.049,15.88l-0.168,0.222c-4.622,6.117 -22.687,40.346 -21.017,77.712c0,0 -3.397,0.496 -8.55,1.181l-46.235,-6.246l-27.499,-3.675c-3.741,-9.434 -1.785,-24.741 -1.462,-37.149c1.102,-42.974 -2.071,-82.707 -0.85,-116.126c0.248,-6.892 1.231,-12.378 2.861,-16.817c6.706,-18.301 24.378,-18.641 46.855,-24.639l0.609,0.147l35.736,8.887l5.745,1.414c0.591,0.549 1.207,1.078 1.827,1.575c0.935,0.749 1.822,1.437 2.675,2.065c6.222,4.606 10.063,6.181 12.964,9.204c3.007,3.138 4.997,7.814 7.536,18.976c2.43,10.745 8.442,49.34 7.062,57.821Z" style="fill:#0b85ff;fill-rule:nonzero;"/><path d="M694.388,463.936c0.752,0.222 1.425,0.133 2.032,-0.211c-0.292,-0.069 -0.577,-0.121 -0.877,-0.204l-1.155,0.415Z" style="fill:#c96fc0;fill-rule:nonzero;"/><path d="M719.548,448.194c-1.305,7.809 -6.512,14.168 -22.731,15.073c8.615,-9.316 9.896,-17.924 9.76,-24.289c6.22,4.611 10.066,6.191 12.971,9.216Z" style="fill:#004ff7;fill-rule:nonzero;"/><path d="M715.874,428.221c-4.25,-0.661 -8.272,-1.911 -12.77,-2.275c-1.286,4.273 7.906,22.013 -6.684,37.779c23.157,-4.953 20.735,-22.226 19.454,-35.504Z" style="fill:#0078ee;fill-rule:nonzero;"/><path d="M703.108,439.494c1.969,4.203 7.06,15.178 -5.325,23.758c-18.256,7.763 -32.087,-19.067 -38.816,-38.455c11.999,0.031 20.398,-18.136 27.548,-27.354c1.853,-2.397 3.799,-5.87 5.838,-9.587c4.064,-7.449 8.513,-15.876 13.3,-18.488l19.202,40.266c-3.228,8.697 -20.672,15.426 -21.746,27.512c-0.074,0.755 -0.074,1.543 -0.001,2.348Z" style="fill:#ffb278;fill-rule:nonzero;"/><path d="M703.684,440.441c-0.468,-0.278 -4.439,-2.795 -4.836,-3.207c-10.736,-11.101 -10.391,-18.175 -10.869,-27.611c-0.477,-9.574 1.908,-17.374 4.374,-21.767c4.064,-7.449 8.513,-15.876 13.3,-18.488l19.202,40.266c-3.228,8.697 -20.097,18.722 -21.171,30.807Z" style="fill:#e5804e;fill-rule:nonzero;"/><path d="M691.627,488.541c0.19,0.447 1.09,1.654 1.597,1.24c0.49,-0.404 -0.141,-1.54 -0.303,-1.914c-1.331,-2.705 -0.99,-5.541 -0.47,-7.895c0.541,-2.383 1.219,-4.448 1.635,-6.296c0.421,-1.851 0.611,-3.483 0.53,-4.86c-0.065,-1.379 -0.368,-2.474 -0.697,-3.305c-0.715,-1.644 -1.385,-2.354 -1.717,-2.687c-0.34,-0.346 -0.41,-0.361 -0.41,-0.361c-0,0 -0.005,0.068 0.224,0.494c0.234,0.431 0.706,1.195 1.211,2.78c0.48,1.583 0.682,4.065 -0.321,7.597c-0.461,1.772 -1.19,3.794 -1.801,6.289c-0.292,1.251 -0.542,2.632 -0.55,4.158c-0.002,1.518 0.304,3.193 1.072,4.76Z" style="fill:#fff;fill-rule:nonzero;"/><path d="M704.99,486.356c-0.018,0.429 -0.207,1.776 0.404,1.948c0.618,0.175 1.016,-1.3 1.038,-1.785c0.385,-3.509 -0.588,-6.521 -1.546,-8.901c-0.994,-2.403 -2.043,-4.33 -2.771,-6.036c-0.747,-1.7 -1.177,-3.177 -1.25,-4.437c-0.089,-1.258 0.185,-2.262 0.485,-3.039c0.33,-0.766 0.664,-1.34 0.951,-1.744c0.27,-0.419 0.491,-0.705 0.643,-0.901c0.297,-0.402 0.303,-0.476 0.303,-0.476c0,0 -0.068,0.004 -0.455,0.302c-0.195,0.147 -0.47,0.363 -0.827,0.752c-0.374,0.374 -0.803,0.912 -1.255,1.717c-0.421,0.808 -0.837,1.94 -0.839,3.385c-0.011,1.442 0.391,3.105 1.104,4.902c0.699,1.809 1.699,3.774 2.62,6.101c0.892,2.312 1.745,5.072 1.395,8.212Z" style="fill:#fff;fill-rule:nonzero;"/><path d="M701.28,343.779c-7.902,-5.572 -19.503,-4.981 -27.9,0.465c-10.15,6.582 -19.593,7.099 -23.753,18.542c-7.436,20.448 4.249,36.607 -1.531,48.939c-4.475,9.545 -10.877,16.426 -17.033,24.531c15.885,1.825 37.514,-4.259 46.41,-18.833c8.206,-13.444 7.487,-41.542 20.803,-50.13l3.004,-23.514Z" style="fill:#4f231d;fill-rule:nonzero;"/><path d="M721.076,342.312l15.035,48.828c0.691,-10.422 3.796,-13.288 4.693,-23.479c1.395,-15.886 -13.004,-20.13 -19.728,-25.349Z" style="fill:#28181d;fill-rule:nonzero;"/><path d="M721.719,339.658c-24.002,-19.419 -47.637,3.593 -49.184,32.153c0,0 -0.698,26.5 5.28,38.561c4.531,9.137 30.654,27.372 42.426,22.906c5.747,-2.176 13.518,-15.635 16.108,-27.021c4.369,-19.181 4.426,-51.177 -14.63,-66.599Z" style="fill:#ffb278;fill-rule:nonzero;"/><path d="M725.237,412.139c-4.067,2.874 -9.081,3.467 -13.806,1.367c-0.913,4.616 3.939,7.69 8.856,6.944c6.17,-0.934 6.781,-8.381 4.95,-8.311Z" style="fill:#f72828;fill-rule:nonzero;"/><path d="M723.315,411.082c-1.924,-0.051 -1.931,1.819 -4.018,2.093c-2.343,0.103 -2.737,-2.338 -5.007,-0.663c-2.533,1.723 -5.81,0.025 -5.747,-0.013c5.342,5.73 15.07,6.531 20.469,-2.088c-2.841,1.944 -4.526,0.591 -5.697,0.671Z" style="fill:#e52323;fill-rule:nonzero;"/><path d="M712.785,402.07c0,0 0.198,0.002 0.53,0.045c0.171,0.024 0.37,0.029 0.587,0.061c0.217,0.028 0.474,0.04 0.741,0.072c0.261,0.036 0.556,0.048 0.855,0.085c0.297,0.025 0.612,0.049 0.936,0.075c0.322,0.013 0.65,0.045 0.985,0.049c0.328,0.017 0.658,0.004 0.989,0.006c0.164,-0.006 0.322,-0.021 0.484,-0.032c0.162,-0.003 0.318,-0.014 0.469,-0.042c0.156,-0.03 0.317,-0.03 0.463,-0.064c0.147,-0.035 0.291,-0.069 0.438,-0.091c0.147,-0.024 0.265,-0.092 0.406,-0.126c0.134,-0.036 0.27,-0.078 0.386,-0.14c0.123,-0.053 0.243,-0.108 0.362,-0.161c0.113,-0.057 0.213,-0.134 0.317,-0.194c0.222,-0.118 0.395,-0.272 0.562,-0.411l0.236,-0.195l0.18,-0.197c0.218,-0.24 0.368,-0.386 0.368,-0.386c0,0 0.004,0.196 -0.045,0.554c-0.013,0.092 -0.03,0.192 -0.047,0.301c-0.022,0.106 -0.072,0.209 -0.117,0.329c-0.043,0.118 -0.097,0.25 -0.152,0.387c-0.047,0.137 -0.153,0.25 -0.237,0.389c-0.09,0.131 -0.186,0.277 -0.299,0.408c-0.125,0.124 -0.254,0.246 -0.396,0.377c-0.131,0.136 -0.292,0.233 -0.456,0.337c-0.163,0.103 -0.332,0.218 -0.514,0.295c-0.364,0.158 -0.748,0.317 -1.147,0.385c-0.4,0.116 -0.806,0.122 -1.209,0.159c-0.4,-0.011 -0.807,-0.002 -1.185,-0.072c-0.392,-0.039 -0.765,-0.134 -1.116,-0.223c-0.352,-0.102 -0.689,-0.219 -0.997,-0.347c-0.303,-0.141 -0.593,-0.265 -0.841,-0.421c-0.253,-0.147 -0.481,-0.29 -0.671,-0.439c-0.199,-0.14 -0.362,-0.272 -0.485,-0.39c-0.249,-0.231 -0.38,-0.383 -0.38,-0.383Z" style="fill:#e5804e;fill-rule:nonzero;"/><path d="M721.762,377.396c0.104,-3.183 4.804,-4.693 8.933,-4.912c3.886,-0.213 6.769,2.013 7.618,4.653c-2.121,-2.033 -5.681,-2.011 -8.02,-1.299c-2.429,0.743 -8.737,4.129 -8.531,1.558Z" style="fill:#382227;fill-rule:nonzero;"/><path d="M703.572,379.622c0.076,-3.187 -4.53,-4.968 -8.64,-5.433c-3.876,-0.441 -6.875,1.614 -7.87,4.196c2.233,-1.906 5.785,-1.674 8.082,-0.824c2.385,0.883 8.498,4.637 8.428,2.061Z" style="fill:#382227;fill-rule:nonzero;"/><path d="M735.2,381.629c-1.098,-1.101 -2.674,-2.457 -5.002,-2.758c-2,-0.293 -3.922,0.866 -5.042,2.541c-0.401,0.587 -0.767,1.475 -1.013,2.179c-0.435,1.218 -0.306,3.769 -0.31,4.104c0.761,0.465 1.294,-1.184 2.099,-0.827c1.555,0.717 3.323,0.992 4.47,0.812c1.449,-0.222 2.488,-0.696 3.64,-1.417c0.921,-0.541 2.213,0.803 3.846,0.25c-0.294,-2.097 -1.597,-3.736 -2.688,-4.884Z" style="fill:#e5804e;fill-rule:nonzero;"/><path d="M737.887,386.511c-0.525,0.182 -0.978,0.375 -1.392,0.581c-0.879,0.434 -1.546,0.903 -2.173,1.273c-1.15,0.713 -2.188,1.191 -3.639,1.412c-0.106,0.014 -0.208,0.025 -0.331,0.035c-0.292,0.027 -0.616,0.025 -0.958,-0.008c-0.208,-0.019 -0.435,-0.04 -0.658,-0.075c-0.231,-0.032 -0.46,-0.085 -0.695,-0.138l-0.123,-0.033c-0.203,-0.053 -0.415,-0.109 -0.624,-0.177c-0.374,-0.116 -0.733,-0.259 -1.083,-0.425c-0.803,-0.351 -1.614,-0.792 -2.378,-1.26c0.003,-0.015 0.152,-0.796 0.591,-2.009c0.245,-0.704 0.605,-1.591 1.009,-2.179c0.665,-0.999 1.625,-1.822 2.715,-2.251c0.219,-0.081 0.433,-0.155 0.657,-0.214l0.205,-0.042c0.104,-0.025 0.209,-0.042 0.321,-0.049c0.377,-0.048 0.748,-0.038 1.139,0.015c2.338,0.295 3.915,1.656 5.003,2.754c0.423,0.442 0.78,0.856 1.106,1.237c0.51,0.614 0.92,1.135 1.308,1.553Z" style="fill:#fff;fill-rule:nonzero;"/><path d="M735.319,383.578c-1.083,-1.071 -2.615,-2.329 -4.849,-2.611c-0.391,-0.053 -0.762,-0.063 -1.139,-0.015c-0.112,0.007 -0.217,0.024 -0.321,0.049l-0.205,0.042c-0.224,0.059 -0.438,0.133 -0.657,0.214c-0.516,0.211 -0.999,0.505 -1.435,0.861c-0.094,1.88 -0.092,3.77 0.264,5.718c0.09,0.517 0.21,1.028 0.317,1.545c0.209,0.068 0.421,0.124 0.624,0.177l0.123,0.033c0.235,0.053 0.464,0.106 0.695,0.138c0.223,0.035 0.45,0.056 0.658,0.075c0.35,0.024 0.671,0.027 0.958,0.008c0.123,-0.01 0.225,-0.021 0.331,-0.035c1.451,-0.221 2.489,-0.699 3.639,-1.412c0.284,-0.168 0.575,-0.355 0.888,-0.546c0.054,-1.414 0.092,-2.829 0.109,-4.241Z" style="fill:#1e0c0c;fill-rule:nonzero;"/><path d="M733.849,385.739c0.033,0.883 -0.204,1.606 -0.524,1.617c-0.322,0.013 -0.61,-0.691 -0.638,-1.572c-0.032,-0.883 0.205,-1.607 0.526,-1.62c0.324,-0.013 0.608,0.692 0.636,1.575Z" style="fill:#fff;fill-rule:nonzero;"/><path d="M703.409,384.572c-1.336,-1.089 -3.259,-2.433 -6.115,-2.718c-2.446,-0.277 -4.816,0.904 -6.199,2.585c-0.497,0.591 -0.952,1.481 -1.262,2.192c-0.543,1.217 -0.406,3.774 -0.416,4.107c0.936,0.459 1.604,-1.197 2.583,-0.849c1.9,0.707 4.068,0.968 5.479,0.777c1.775,-0.234 3.055,-0.719 4.472,-1.449c1.135,-0.544 2.711,0.783 4.716,0.217c-0.34,-2.095 -1.926,-3.725 -3.258,-4.862Z" style="fill:#e5804e;fill-rule:nonzero;"/><path d="M706.667,389.434c-2.005,0.566 -3.261,1.33 -4.394,1.88c-1.416,0.726 -2.695,1.209 -4.469,1.444c-1.414,0.192 -3.583,-0.068 -5.476,-0.774c-0.984,-0.349 -1.975,-0.787 -2.911,-1.246c0.009,-0.019 0.194,-0.796 0.74,-2.015c0.309,-0.708 0.764,-1.6 1.259,-2.192c1.384,-1.683 3.753,-2.861 6.204,-2.581c2.854,0.282 4.776,1.624 6.116,2.716c1.33,1.136 2.152,2.09 2.931,2.768Z" style="fill:#fff;fill-rule:nonzero;"/><path d="M702.273,391.314c-1.416,0.726 -2.695,1.209 -4.469,1.444c-1.414,0.192 -3.583,-0.068 -5.476,-0.774c-0.454,-0.616 -1.407,-4.861 -0.912,-5.453c1.384,-1.683 3.753,-2.861 6.204,-2.581c2.854,0.282 4.776,1.624 6.116,2.716c0.058,1.045 -1.142,4.065 -1.463,4.648Z" style="fill:#1e0c0c;fill-rule:nonzero;"/><path d="M700.641,388.746c0.032,0.883 -0.261,1.607 -0.655,1.623c-0.401,0.015 -0.744,-0.688 -0.774,-1.568c-0.034,-0.884 0.26,-1.612 0.659,-1.626c0.396,-0.013 0.742,0.688 0.77,1.571Z" style="fill:#fff;fill-rule:nonzero;"/><path d="M662.72,393.031c-0.892,-5.18 1.637,-10.549 5.697,-9.755c11.904,2.332 11.628,16.372 11.628,16.372c0.531,5.277 -5.412,6.736 -8.362,5.554c-3.749,-1.499 -8.101,-7.167 -8.963,-12.171Z" style="fill:#ffb278;fill-rule:nonzero;"/><path d="M671.233,387.965c1.668,2.051 4.876,6.821 4.876,6.821c1.267,3.988 -5.181,4.839 -6.505,0.059c-0.591,-2.138 0.752,-4.475 -1.538,-5.409c-1.576,-0.638 -2.665,1.098 -3.007,2.891c-1.307,-4.562 3.552,-7.591 6.174,-4.362Z" style="fill:#e5804e;fill-rule:nonzero;"/><path d="M674.725,401.977c0.033,0.958 -0.693,1.762 -1.617,1.796c-0.926,0.036 -1.71,-0.709 -1.744,-1.667c-0.032,-0.958 0.69,-1.762 1.621,-1.797c0.924,-0.031 1.703,0.712 1.74,1.668Z" style="fill:#fff;fill-rule:nonzero;"/><path d="M676.187,400.946c1.965,-5.34 -2.08,-20.458 0.685,-25.293c4.1,-7.158 8.487,-12.076 16.174,-13.252c15.733,-2.398 24.48,-7.733 27.254,-15.335c1.606,-4.369 1.238,-9.476 -0.902,-15.205l0.954,-5.329c-37.156,-22.972 -64.085,8.66 -66.566,22.657c-0.922,5.214 0.709,10.863 2.262,16.158c0.473,1.625 0.943,3.215 1.328,4.749c1.593,6.377 15.313,25.566 18.811,30.85Z" style="fill:#683127;fill-rule:nonzero;"/><path d="M741.338,337.308c-11.305,-16.398 -26.141,-14.19 -33.488,-12.6l2.733,5.041c-4.262,1.71 -1.829,9.116 0.202,11.818c3.286,4.379 8.48,6.26 13.421,7.354c10.682,2.371 12.086,8.315 16.598,18.74c4.014,-13.177 5.462,-23.211 0.534,-30.353Z" style="fill:#683127;fill-rule:nonzero;"/><path d="M676.187,400.946c1.965,-5.34 -2.08,-20.458 0.685,-25.293c4.1,-7.158 8.487,-12.076 16.174,-13.252c15.733,-2.398 24.48,-7.733 27.254,-15.335c-5.618,-1.829 -9.789,-5.101 -15.671,-0.51c-7.38,5.754 -12.058,5.56 -20.714,7.05c-3.485,0.6 -8.106,1.915 -11.092,4.192c-3.654,2.781 -5.16,7.498 -9.983,8.494c-2.566,0.526 -4.806,0.091 -6.792,-0.945c0.473,1.625 0.943,3.215 1.328,4.749c1.593,6.377 15.313,25.566 18.811,30.85Z" style="fill:#4f231d;fill-rule:nonzero;"/><path d="M700.035,464.976c-19.52,9.803 -39.094,-1.029 -56.794,-10.517c-7.153,-3.831 -15.194,-12.856 -19.392,-19.387l-0.006,-0.008c-1.648,-2.56 -2.708,-4.731 -2.897,-6.054c-1.635,-11.409 2.654,-21.655 8.854,-29.584c10.408,-13.317 16.012,-15.335 18.175,-10.227c0,0 13.267,56.287 52.06,75.777Z" style="fill:#0078ee;fill-rule:nonzero;"/><path d="M696.621,463.649c-4.038,1.396 -10.597,-0.393 -14.914,-1.124c-8.325,-1.411 -16.417,-4.369 -24.397,-7.405c-11.051,-4.214 -21.236,-9.841 -30.484,-17.415c-0.969,-0.786 -1.965,-1.672 -2.977,-2.633l-0.006,-0.008c-1.648,-2.56 -2.708,-4.731 -2.897,-6.054c-1.635,-11.409 2.654,-21.655 8.854,-29.584c-0.676,3.671 -0.932,7.348 -0.732,11.281c0.616,11.887 5.636,21.312 13.941,29.152c12.442,11.754 29.422,19.27 45.58,23.066c2.53,0.595 5.59,1.122 8.032,0.724Z" style="fill:#004ff7;fill-rule:nonzero;"/><path d="M730.1,534.553c-3.952,5.77 -9.807,10.571 -14.049,15.88l-0.168,0.222c-4.622,6.117 -22.687,40.346 -21.017,77.712c0,0 -3.397,0.496 -8.55,1.181c-11.826,1.547 -32.931,4.042 -43.487,3.592c-36.624,-1.544 -49.692,-13.899 -49.692,-13.899c-3.73,-9.434 6.343,-24.616 7.357,-36.99c4.01,-49.16 8.555,-82.48 9.776,-115.899c0.248,-6.892 1.231,-12.378 2.861,-16.817c4.692,15.134 26.675,39.333 29.26,47.63c4.715,15.136 -7.44,44.402 16.467,45.041c23.401,0.615 50.635,-0.501 71.242,-7.653Z" style="fill:#004ff7;fill-rule:nonzero;"/><path d="M664.228,791.173c1.895,0.631 3.132,16.25 3.639,19.905c1.372,9.865 2.144,20.205 2.686,30.097c0.279,5.092 -0.77,11.321 3.341,13.126c3.228,1.417 9.875,-0.434 13.331,-0.637c2.788,-9.13 2.059,-19.894 3.435,-29.39c1.27,-8.776 2.592,-17.709 3.101,-26.457l-29.533,-6.644Z" style="fill:#ffb278;fill-rule:nonzero;"/><path d="M716.135,866.484c-20.583,-10.337 -18.704,-22.661 -24.701,-24.367c-6.101,-1.733 -5.103,5.191 -9.366,7.905c-4.234,2.696 -9.965,-0.89 -11.396,-4.951c0,0 -11.613,24.307 -0.536,26.949c7.885,1.884 14.593,3.628 22.552,3.878c17.719,0.554 33.792,-4.218 23.447,-9.414Z" style="fill:#fff;fill-rule:nonzero;"/><path d="M745.847,791.173c1.895,0.631 3.131,16.25 3.639,19.905c1.371,9.865 2.144,20.205 2.685,30.097c0.278,5.092 -0.77,11.321 3.34,13.126c3.23,1.417 9.876,-0.434 13.332,-0.637c2.788,-9.13 2.06,-19.894 3.435,-29.39c1.27,-8.776 2.592,-17.709 3.101,-26.457l-29.532,-6.644Z" style="fill:#ffb278;fill-rule:nonzero;"/><path d="M797.828,863.513c-16.723,-7.076 -18.875,-20.849 -24.87,-22.554c-6.103,-1.733 -5.009,6.349 -9.272,9.063c-4.234,2.696 -9.964,-0.89 -11.396,-4.951c0,0 -12.708,25.528 -1.632,28.172c7.888,1.882 15.706,2.08 23.647,2.655c24.381,1.766 35.667,-7.247 23.523,-12.385Z" style="fill:#fff;fill-rule:nonzero;"/><path d="M774.3,875.899c-7.938,-0.569 -15.76,-0.769 -23.645,-2.653c-3.256,-0.782 -4.451,-3.542 -4.528,-7.045c7.885,1.884 20.3,4.259 28.173,4.83c14.369,1.034 24.198,-1.659 27.337,-5.109c4.824,5.096 -6.458,11.491 -27.337,9.977Z" style="fill:#151d2b;fill-rule:nonzero;"/><path d="M753.827,658.954c-4.855,6.68 -11.212,13.003 -15.509,20.091c-12.607,0.676 -32.732,0.72 -53.287,0.265l-0.409,-33.59c6.572,9.435 24.26,9.968 34.367,11.242c12.102,1.516 21.82,3.776 34.838,1.992Z" style="fill:#5d81c1;fill-rule:nonzero;"/><path d="M708.249,789.222c-1.16,11.896 -2.395,21.188 -3.372,26.149c-0.559,0.033 -1.139,0.067 -1.761,0.101c-10.642,0.719 -28.149,3.043 -39.639,1.626l-0.045,0c-3.327,-0.409 -6.153,-1.128 -8.149,-2.303c0,0 0.247,-9.846 0.462,-20.755c0.161,-8.627 0.29,-17.93 0.247,-23.545c-0.345,-45.123 -11.094,-125.517 0.719,-138.255c13.865,-14.95 45.847,-12.447 50.474,6.092c6.713,26.859 5.681,103.832 1.064,150.89Z" style="fill:#809ddd;fill-rule:nonzero;"/><path d="M708.249,789.222c-1.16,11.896 -2.395,21.188 -3.372,26.149c-0.559,0.033 -1.139,0.067 -1.761,0.101c-9.912,0.63 -27.204,2.458 -39.639,1.626l-0.045,0c-3.327,-0.409 -6.153,-1.128 -8.149,-2.303c0,0 0.247,-9.846 0.462,-20.755c7.528,0.455 15.174,0.21 22.981,-0.1c10.375,-0.409 19.718,-3.354 29.523,-4.718Z" style="fill:#8fb2ef;fill-rule:nonzero;"/><path d="M790.502,793.587c-1.043,10.975 -2.139,19.547 -3.01,24.133c-11.898,0.641 -39.766,4.207 -48.11,-0.875l-0,-119.824c0.117,-15.65 -3.867,-42.589 7.538,-57.951c11.212,-15.106 25.854,-15.069 35.797,-0.738c14.5,20.877 11.94,111.44 7.785,155.255Z" style="fill:#005fe3;fill-rule:nonzero;"/><path d="M790.502,793.587c-1.043,10.975 -2.139,19.547 -3.01,24.133c-11.898,0.641 -39.766,4.207 -48.11,-0.875l-0,-19.04c8.085,0.61 16.313,0.344 24.722,0.012c9.267,-0.364 17.708,-2.759 26.398,-4.23Z" style="fill:#8fb2ef;fill-rule:nonzero;"/><rect x="548.241" y="598.356" width="15.303" height="62.654" style="fill:#151d2b;"/><rect x="552.714" y="598.356" width="15.304" height="62.654" style="fill:#222e44;"/><path d="M616.586,599.886c0,5.731 -3.637,10.383 -8.126,10.383l-83.725,0c-4.489,0 -8.128,-4.652 -8.128,-10.383l0,-1.037c0,-5.737 3.639,-10.385 8.128,-10.385l83.725,0c4.489,0 8.126,4.648 8.126,10.385l0,1.037Z" style="fill:#872533;fill-rule:nonzero;"/><path d="M530.648,599.886c0,5.731 -0.624,10.383 -1.395,10.383l-14.37,0c-0.771,0 -1.396,-4.652 -1.396,-10.383l0,-1.037c0,-5.737 0.625,-10.385 1.396,-10.385l14.37,0c0.771,0 1.395,4.648 1.395,10.385l0,1.037Z" style="fill:#3a131f;fill-rule:nonzero;"/><path d="M629.326,591.307c-0.285,3.67 2.04,-20.421 1.611,-20.49c2.143,-16.075 5.545,-30.429 7.151,-46.733c1.323,-13.423 2.03,-34.904 6.157,-45.914l-20.038,-42.419c-11.723,7.421 -18.687,11.107 -23.232,27.443c-5.328,19.158 -10.204,42.279 -11.564,62.029c-1.163,16.896 -0.248,30.793 -1.772,47.466c-0.098,1.069 -0.612,15.156 -0.733,16.402l42.42,2.216Z" style="fill:#0078ee;fill-rule:nonzero;"/><path d="M639.469,571.622c-9.995,-0.497 -21.058,-2.355 -30.852,3.701c-3.188,1.972 -11.822,6.832 -12.271,12.564c-0.44,5.624 5.952,9.27 8.704,10.823c26.404,14.908 60.393,1.079 87.59,-7.638l3.178,-17.283c-18.792,2.838 -37.377,-1.225 -56.349,-2.167Z" style="fill:#0b85ff;fill-rule:nonzero;"/><path d="M717.311,579.248c3.096,2.081 6.44,3.348 10.081,3.774c-0.001,-6.05 -11.786,-22.056 -15.982,-10.746c-3.063,-3.785 -7.89,-4.231 -9.66,1.09c-4.064,-3.194 -9.523,-1.793 -11.016,3.164c-6.343,-4.22 -7.16,4.218 -6.16,7.206c0,0 26.125,3.893 22.774,-3.066c3.662,2.172 8.7,5.123 12.703,3.591c-0.397,-1.809 -1.192,-3.645 -2.74,-5.013Z" style="fill:#ffb278;fill-rule:nonzero;"/><path d="M772.941,581.513c2.002,2.652 4.39,4.561 7.21,5.718c1.402,-5.879 -4.34,-23.819 -10.327,-13.69c-1.579,-4.299 -5.346,-5.713 -7.998,-0.906c-2.519,-3.93 -7.222,-3.68 -9.569,0.83c-4.106,-5.39 -6.719,2.638 -6.608,5.742c0,0 20.049,9.096 18.972,1.659c2.435,2.855 5.792,6.745 9.357,6.072c0.1,-1.838 -0.113,-3.779 -1.037,-5.425Z" style="fill:#ffb278;fill-rule:nonzero;"/><path d="M988.812,584.41l-0.184,0.007l-63.597,0c-2.823,0 -5.114,-3.281 -5.114,-7.33c0,-2.026 0.574,-3.856 1.5,-5.18c0.923,-1.328 2.199,-2.15 3.614,-2.15l63.597,0l0.184,0.008c-1.307,0.095 -2.479,0.897 -3.35,2.142c-0.93,1.324 -1.501,3.154 -1.501,5.18c0,3.92 2.149,7.126 4.851,7.323Z" style="fill:#fffee9;fill-rule:nonzero;"/><path d="M986.062,572.062c-0.087,0.096 -0.174,0.214 -0.261,0.332c-0.078,0.118 -0.155,0.236 -0.233,0.361l-49.686,0l0,-0.693l50.18,0Z" style="fill:#b7b59e;fill-rule:nonzero;"/><path d="M984.639,575.182c-0.039,0.228 -0.087,0.456 -0.117,0.693l-48.398,0l0,-0.693l48.515,0Z" style="fill:#b7b59e;fill-rule:nonzero;"/><path d="M984.639,578.994l-48.274,0l0,-0.693l48.157,0c0.03,0.235 0.068,0.471 0.117,0.693Z" style="fill:#b7b59e;fill-rule:nonzero;"/><path d="M986.052,582.113l-49.444,0l0,-0.694l48.96,0c0.155,0.251 0.31,0.486 0.484,0.694Z" style="fill:#b7b59e;fill-rule:nonzero;"/><path d="M925.03,583.723c-2.553,0 -4.63,-2.975 -4.63,-6.636c0,-1.767 0.485,-3.439 1.361,-4.693c0.871,-1.256 2.036,-1.941 3.269,-1.941l60.896,0c-0.28,0.277 -0.551,0.601 -0.813,0.963c-0.135,0.207 -0.281,0.423 -0.397,0.646c-0.126,0.222 -0.242,0.45 -0.348,0.693c-0.339,0.748 -0.581,1.565 -0.736,2.427c-0.029,0.228 -0.068,0.463 -0.087,0.693c-0.049,0.403 -0.068,0.803 -0.068,1.212c0,0.415 0.019,0.818 0.068,1.214c0.019,0.235 0.058,0.465 0.096,0.693c0.146,0.872 0.397,1.691 0.727,2.425c0.106,0.245 0.222,0.471 0.348,0.694c0.339,0.617 0.746,1.165 1.21,1.61l-60.896,0Zm61.022,-1.61c-0.174,-0.208 -0.329,-0.443 -0.484,-0.694c-0.416,-0.699 -0.736,-1.518 -0.929,-2.425c-0.049,-0.222 -0.087,-0.458 -0.117,-0.693c-0.048,-0.396 -0.077,-0.799 -0.077,-1.214c0,-0.409 0.029,-0.817 0.077,-1.212c0.03,-0.237 0.078,-0.465 0.117,-0.693c0.193,-0.889 0.503,-1.714 0.929,-2.427c0.078,-0.125 0.155,-0.243 0.233,-0.361c0.087,-0.118 0.174,-0.236 0.261,-0.332c0.775,-0.965 1.753,-1.526 2.779,-1.603l0.01,-1.385l-0.223,-0.008l-63.598,0c-1.495,0 -2.896,0.833 -3.957,2.35c-1.058,1.519 -1.64,3.529 -1.64,5.671c0,4.423 2.512,8.02 5.597,8.02l63.598,0l0.223,-0.006l-0.01,-1.387c-1.065,-0.074 -2.033,-0.671 -2.789,-1.601Z" style="fill:#0e39ff;fill-rule:nonzero;"/><path d="M940.078,585.054l-0.164,0.006l-57.913,0c-2.572,0 -4.658,-3.57 -4.658,-7.973c0,-2.205 0.522,-4.194 1.366,-5.636c0.843,-1.442 2.004,-2.336 3.292,-2.336l57.913,0l0.164,0.007c-1.194,0.105 -2.264,0.976 -3.053,2.329c-0.842,1.442 -1.365,3.431 -1.365,5.636c0,4.264 1.956,7.751 4.418,7.967Z" style="fill:#004bdc;fill-rule:nonzero;"/><path d="M973.898,568.327l-0.156,0.005l-54.503,0c-2.42,0 -4.38,-3.187 -4.38,-7.121c0,-1.968 0.491,-3.745 1.283,-5.035c0.792,-1.288 1.886,-2.087 3.097,-2.087l54.503,0l0.156,0.007c-1.124,0.093 -2.13,0.874 -2.874,2.08c-0.792,1.29 -1.284,3.067 -1.284,5.035c0,3.808 1.841,6.923 4.158,7.116Z" style="fill:#fffee9;fill-rule:nonzero;"/><path d="M971.539,556.327c-0.075,0.095 -0.15,0.209 -0.22,0.324c-0.072,0.114 -0.136,0.228 -0.2,0.35l-42.581,0l0,-0.674l43.001,0Z" style="fill:#b7b59e;fill-rule:nonzero;"/><path d="M970.319,559.359c-0.036,0.223 -0.074,0.443 -0.1,0.673l-41.473,0l-0,-0.673l41.573,0Z" style="fill:#b7b59e;fill-rule:nonzero;"/><path d="M970.319,563.063l-41.366,0l-0,-0.674l41.266,0c0.026,0.229 0.059,0.459 0.1,0.674Z" style="fill:#b7b59e;fill-rule:nonzero;"/><path d="M971.532,566.095l-42.372,0l0,-0.676l41.957,0c0.128,0.244 0.267,0.473 0.415,0.676Z" style="fill:#b7b59e;fill-rule:nonzero;"/><path d="M919.239,567.658c-2.188,0 -3.967,-2.891 -3.967,-6.447c0,-1.717 0.416,-3.341 1.163,-4.56c0.748,-1.22 1.746,-1.886 2.804,-1.886l52.188,0c-0.25,0.268 -0.482,0.585 -0.697,0.936c-0.124,0.203 -0.24,0.411 -0.344,0.626c-0.108,0.216 -0.21,0.438 -0.302,0.674c-0.291,0.728 -0.499,1.521 -0.627,2.358c-0.029,0.223 -0.058,0.45 -0.077,0.673c-0.038,0.39 -0.055,0.781 -0.055,1.179c0,0.405 0.017,0.795 0.055,1.178c0.019,0.229 0.048,0.452 0.082,0.674c0.123,0.848 0.34,1.644 0.622,2.356c0.092,0.238 0.19,0.459 0.298,0.676c0.294,0.6 0.647,1.132 1.041,1.563l-52.184,0Zm52.293,-1.563c-0.148,-0.203 -0.287,-0.432 -0.415,-0.676c-0.356,-0.678 -0.635,-1.474 -0.798,-2.356c-0.041,-0.215 -0.074,-0.445 -0.1,-0.674c-0.041,-0.383 -0.066,-0.773 -0.066,-1.178c0,-0.398 0.023,-0.796 0.066,-1.179c0.026,-0.23 0.064,-0.45 0.1,-0.673c0.163,-0.863 0.432,-1.664 0.8,-2.358c0.064,-0.122 0.128,-0.236 0.2,-0.35c0.07,-0.115 0.145,-0.229 0.22,-0.324c0.666,-0.935 1.5,-1.482 2.379,-1.556l0.013,-1.348l-0.191,-0.005l-54.501,0c-1.28,0 -2.482,0.808 -3.39,2.283c-0.908,1.476 -1.406,3.429 -1.406,5.51c0,4.297 2.151,7.793 4.796,7.793l54.501,0l0.191,-0.007l-0.013,-1.346c-0.912,-0.074 -1.741,-0.654 -2.386,-1.556Z" style="fill:#3e6aff;fill-rule:nonzero;"/><path d="M932.134,568.952l-0.142,0.005l-49.626,0c-2.205,0 -3.991,-3.469 -3.991,-7.746c0,-2.143 0.449,-4.075 1.169,-5.477c0.723,-1.401 1.718,-2.27 2.822,-2.27l49.626,0l0.142,0.007c-1.024,0.101 -1.94,0.95 -2.616,2.263c-0.722,1.402 -1.17,3.334 -1.17,5.477c0,4.141 1.677,7.531 3.786,7.741Z" style="fill:#0046db;fill-rule:nonzero;"/><path d="M931.518,579.113c0,1.076 -0.846,1.948 -1.888,1.948l-30.324,0c-1.041,0 -1.887,-0.872 -1.887,-1.948c0,-1.075 0.846,-1.947 1.887,-1.947l30.324,0c1.042,0 1.888,0.872 1.888,1.947Z" style="fill:#b7b59e;fill-rule:nonzero;"/><rect x="939.781" y="638.3" width="52.817" height="237.641" style="fill:#919191;"/><rect x="495.455" y="599.677" width="515.792" height="24.719" style="fill:#a3a1a0;"/><path d="M716.064,875.942l0,-205.445l247.02,0l0,205.445l48.163,0l0,-267.789l-472.292,0l0,267.789l177.109,0Z" style="fill:#bcbbbb;fill-rule:nonzero;"/><path d="M1033,595.913c0,6.819 -5.431,12.361 -12.122,12.361l-533.071,0c-6.693,0 -12.121,-5.542 -12.121,-12.361c0,-3.408 1.356,-6.497 3.553,-8.734c2.187,-2.246 5.219,-3.625 8.568,-3.625l533.071,0c5.858,0 10.747,4.253 11.871,9.888c0.164,0.804 0.251,1.627 0.251,2.471Z" style="fill:#919191;fill-rule:nonzero;"/><path d="M1036.83,593.442c-1.123,7.293 -6.071,12.771 -11.997,12.771l-366.084,0c-6.763,0 -12.237,-7.147 -12.237,-15.966c0,-2.388 0.397,-4.654 1.13,-6.693l377.191,0c5.926,0 10.874,4.253 11.997,9.888Z" style="fill:#bcbbbb;fill-rule:nonzero;"/><rect x="495.455" y="608.113" width="149.145" height="267.829" style="fill:#919191;"/><path d="M808.079,581.242c-0,1.42 -1.114,2.568 -2.488,2.568l-107.028,0c-1.374,0 -2.489,-1.148 -2.489,-2.568c-0,-1.415 1.115,-2.566 2.489,-2.566l107.028,0c1.374,0 2.488,1.151 2.488,2.566Z" style="fill:#252828;fill-rule:nonzero;"/><path d="M928.953,528.326c-0.594,4.136 -4.228,7.486 -8.109,7.486l-152.575,0c-3.883,0 -6.551,-3.35 -5.955,-7.486l17.631,-122.579c0.593,-4.134 4.226,-7.488 8.108,-7.488l152.577,0c3.878,0 6.546,3.354 5.952,7.488l-17.629,122.579Z" style="fill:#879293;fill-rule:nonzero;"/><path d="M935.428,528.326c-0.592,4.136 -4.224,7.486 -8.107,7.486l-152.574,0c-3.884,0 -6.55,-3.35 -5.956,-7.486l17.635,-122.579c0.593,-4.134 4.223,-7.488 8.107,-7.488l152.57,0c3.887,0 6.554,3.354 5.958,7.488l-17.633,122.579Z" style="fill:#464b4c;fill-rule:nonzero;"/><rect x="850.921" y="459.67" width="18.332" height="123.137" style="fill:#464b4c;"/><rect x="854.815" y="459.67" width="18.332" height="123.137" style="fill:#879293;"/><path d="M911.353,579.125c-0,2.588 -2.035,4.685 -4.542,4.685l-102.529,0c-2.511,0 -4.542,-2.097 -4.542,-4.685c-0,-2.587 2.031,-4.684 4.542,-4.684l102.529,0c2.507,0 4.542,2.097 4.542,4.684Z" style="fill:#464b4c;fill-rule:nonzero;"/><path d="M682.739,524.141l-1.063,14.855l-1.617,22.613l-0.853,11.905c-0.296,4.188 -2.136,7.874 -4.623,10.036l-17.492,0c-2.487,-2.162 -4.326,-5.848 -4.623,-10.036l-1.185,-16.608l-1.284,-17.91l-1.063,-14.855l33.803,0Z" style="fill:#f76c59;fill-rule:nonzero;"/><path d="M647.607,523.739c-0.006,0.404 0.001,0.812 0.033,1.227l1.084,14.027l34.229,0l1.084,-14.027c0.032,-0.415 0.038,-0.823 0.033,-1.227l-36.463,0Z" style="fill:#bc4f44;fill-rule:nonzero;"/><path d="M674.583,583.55l-17.492,-0c-2.487,-2.162 -4.326,-5.848 -4.623,-10.036l-1.185,-16.608c1.208,0.909 2.55,1.734 4.038,2.47c4.708,2.312 9.946,3.366 15.201,3.367c3.213,-0 6.43,-0.393 9.537,-1.134l-0.853,11.905c-0.296,4.188 -2.136,7.874 -4.623,10.036Z" style="fill:#b7564f;"/><path d="M680.336,527.752c0,0.887 -0.697,1.606 -1.557,1.606l-19.072,-0c-0.859,-0 -1.556,-0.719 -1.556,-1.606c0,-0.886 0.697,-1.605 1.556,-1.605l19.072,-0c0.86,-0 1.557,0.719 1.557,1.605Z" style="fill:#f76c59;fill-rule:nonzero;"/><path d="M917.622,829.201c-4.33,3.939 -10.574,3.043 -14.299,6.781c-0.873,-1.429 -2.2,-3.05 -3.194,-3.899l-1.067,0c-2.338,-0.184 -6.558,-1.082 -8.582,-2.732c2.759,-4.723 1.12,-8.058 4.319,-11.173c0.164,-0.163 0.338,-0.321 0.526,-0.478c3.217,-2.687 9.087,-2.111 10.22,-6.953c1.673,0.375 4.451,2.277 6.672,4.132c1.256,1.046 2.337,2.076 2.938,2.803c3.555,4.281 0.008,6.992 2.467,11.519Z" style="fill:#fff;fill-rule:nonzero;"/><path d="M917.622,829.201c-4.33,3.939 -10.574,3.043 -14.299,6.781c-0.873,-1.429 -2.2,-3.05 -3.194,-3.899l-1.067,0c-2.338,-0.184 -6.558,-1.082 -8.582,-2.732c2.759,-4.723 1.12,-8.058 4.319,-11.173c-0.014,0.254 -0.021,0.501 -0.021,0.731c-0,2.709 0.046,5.429 -0.015,8.139c0.77,-0.725 2.286,0.029 3.253,0.245c1.343,0.301 1.424,0.381 2.211,-0.408c1.467,-1.467 2.422,-4.395 3.747,-6.149c0.714,-0.946 1.429,-2.029 2.307,-2.764c0.049,1.524 0.404,2.967 0.529,4.36c-0.143,-0.479 -0.526,-1.164 -1.027,-1.561c-1.366,1.982 -2.839,4.006 -4.28,5.97c1.729,1.35 4.05,2.115 5.883,3.316c0.68,-1.011 1.246,-3.323 2.346,-4.045c1.042,-0.677 2.507,0.3 3.833,0.703c-1.337,-1.438 -3.323,-1.724 -5.047,-2.172c1.703,-1.112 4.473,-2.343 4.886,-4.016c0.74,-2.972 -2.447,-2.514 -4.411,-2.795c1.097,-0.887 2.174,-1.843 3.224,-2.853c1.256,1.046 2.337,2.076 2.938,2.803c3.555,4.281 0.008,6.992 2.467,11.519Z" style="fill:#d6cecc;fill-rule:nonzero;"/><path d="M937.476,837.062c-4.095,5.897 -11.745,6.593 -15.17,12.079c-1.416,-1.448 -3.422,-2.997 -4.827,-3.724l-1.263,0.3c-2.824,0.443 -8.068,0.567 -10.911,-0.821c2.024,-6.382 -0.808,-9.878 2.163,-14.478c0.151,-0.237 0.317,-0.473 0.497,-0.713c3.104,-4.096 10.225,-5.071 10.286,-11.132c2.082,-0.03 5.883,1.446 9.01,3.019c1.77,0.886 3.323,1.803 4.233,2.497c5.351,4.076 1.862,8.297 5.982,12.973Z" style="fill:#fff;fill-rule:nonzero;"/><path d="M937.476,837.062c-4.095,5.897 -11.745,6.593 -15.17,12.079c-1.416,-1.448 -3.422,-2.997 -4.827,-3.724l-1.263,0.3c-2.824,0.443 -8.068,0.567 -10.911,-0.821c2.024,-6.382 -0.808,-9.878 2.163,-14.478c0.05,0.309 0.107,0.602 0.168,0.876c0.719,3.214 1.495,6.43 2.142,9.661c0.722,-1.077 2.723,-0.609 3.925,-0.626c1.672,-0.021 1.79,0.05 2.517,-1.104c1.351,-2.157 1.707,-5.904 2.813,-8.357c0.596,-1.323 1.159,-2.811 2.005,-3.932c0.464,1.794 1.268,3.406 1.783,5.025c-0.294,-0.529 -0.931,-1.232 -1.63,-1.561c-1.096,2.737 -2.308,5.554 -3.497,8.289c2.408,1.117 5.368,1.368 7.86,2.279c0.54,-1.393 0.597,-4.298 1.711,-5.464c1.056,-1.097 3.054,-0.352 4.737,-0.248c-1.971,-1.329 -4.4,-1.109 -6.567,-1.151c1.727,-1.803 4.686,-4.042 4.736,-6.146c0.087,-3.736 -3.573,-2.293 -5.976,-2.069c1.065,-1.365 2.086,-2.803 3.066,-4.298c1.77,0.886 3.323,1.803 4.233,2.497c5.351,4.076 1.862,8.297 5.982,12.973Z" style="fill:#d6cecc;fill-rule:nonzero;"/><path d="M899.84,846.844c-4.164,0.694 -7.684,-2.37 -11.398,-1.555c-0.001,-1.234 -0.209,-2.77 -0.501,-3.694l-0.659,-0.429c-1.376,-1.052 -3.644,-3.302 -4.274,-5.137c3.491,-1.81 3.738,-4.53 6.892,-5.17c0.162,-0.031 0.329,-0.063 0.504,-0.082c3.003,-0.369 6.417,2.345 8.944,-0.19c0.893,0.902 1.889,3.194 2.561,5.232c0.384,1.153 0.661,2.222 0.758,2.914c0.579,4.073 -2.636,4.326 -2.827,8.111Z" style="fill:#fff;fill-rule:nonzero;"/><path d="M899.84,846.844c-4.164,0.694 -7.684,-2.37 -11.398,-1.555c-0.001,-1.234 -0.209,-2.77 -0.501,-3.694l-0.659,-0.429c-1.376,-1.052 -3.644,-3.302 -4.274,-5.137c3.491,-1.81 3.738,-4.53 6.892,-5.17c-0.106,0.153 -0.203,0.303 -0.291,0.445c-1.022,1.674 -2.021,3.373 -3.082,5.023c0.75,-0.137 1.401,0.936 1.917,1.459c0.715,0.724 0.736,0.806 1.521,0.639c1.46,-0.32 3.157,-1.747 4.638,-2.298c0.798,-0.298 1.651,-0.678 2.47,-0.782c-0.544,0.962 -0.869,1.996 -1.32,2.909c0.093,-0.356 0.115,-0.932 -0.045,-1.377c-1.592,0.674 -3.269,1.333 -4.901,1.968c0.558,1.528 1.704,2.935 2.383,4.414c0.804,-0.351 2.026,-1.555 2.979,-1.557c0.897,-0.002 1.436,1.192 2.103,1.974c-0.282,-1.428 -1.403,-2.4 -2.298,-3.37c1.473,-0.002 3.648,0.348 4.537,-0.518c1.579,-1.542 -0.565,-2.539 -1.67,-3.5c1.012,-0.109 2.038,-0.268 3.068,-0.469c0.384,1.153 0.661,2.222 0.758,2.914c0.579,4.073 -2.636,4.326 -2.827,8.111Z" style="fill:#d6cecc;fill-rule:nonzero;"/><path d="M937.099,841.439l-6.098,0l6.202,-67.073l5.076,0l-5.18,67.073Zm-12.675,0l1.299,-28.992l1.71,-38.081l6.801,0l-1.861,20.141l-4.335,46.932l-3.614,0Zm-2.956,0l-3.015,0l-0.019,-19.297l-0.043,-47.776l6.089,0l-1.932,43.033l-1.08,24.04Zm-11.396,0l0.111,-13.135l0.456,-53.938l4.8,0l0.047,50.381l0.015,16.692l-5.429,0Zm-2.952,0l-4.543,0l0.008,-9.981l0.056,-57.092l5.047,0l-0.469,55.406l-0.099,11.667Zm-7.49,0l-3.015,0l-0.391,-8.629l-2.625,-58.444l6.093,0l-0.053,57.846l-0.009,9.227Zm-9.586,0l-0.76,-8.199l-5.44,-58.874l6.803,0l2.637,58.752l0.375,8.321l-3.615,0Zm-8.872,0l-0.724,-9.024l-4.648,-58.049l5.08,0l5.433,58.765l0.768,8.308l-5.909,0Zm-11.108,-83.713l5.903,73.704l3.568,44.512l59.343,0l9.133,-118.216l-77.947,0Z" style="fill:#323638;fill-rule:nonzero;"/><path d="M954.882,759.95c-0,2.184 -1.718,3.956 -3.838,3.956l-84.429,0c-2.119,0 -3.838,-1.772 -3.838,-3.956c-0,-2.186 1.719,-3.96 3.838,-3.96l84.429,0c2.12,0 3.838,1.774 3.838,3.96Z" style="fill:#323638;fill-rule:nonzero;"/><path d="M931.268,759.339c0,1.177 -1.199,2.131 -2.673,2.131l-59.899,0c-1.477,0 -2.671,-0.954 -2.671,-2.131c0,-1.177 1.194,-2.131 2.671,-2.131l59.899,0c1.474,0 2.673,0.954 2.673,2.131Z" style="fill:#576063;fill-rule:nonzero;"/><path d="M363.631,255.446l1.49,-6.641c-0.822,1.978 -1.289,4.223 -1.49,6.641Z" style="fill:#4c0f20;fill-rule:nonzero;"/><path d="M1212.31,577.797l-58.54,-0l0,-65.538c0.1,0.106 0.21,0.212 0.31,0.311c0.11,0.099 0.22,0.198 0.32,0.304c0.22,0.205 0.43,0.41 0.65,0.615c1.1,1.054 2.2,2.121 3.32,3.181l-0,0.007c0.09,0.086 0.18,0.17 0.28,0.262c1.21,1.159 2.41,2.319 3.62,3.492c0.1,0.106 0.21,0.205 0.31,0.304c2.4,2.318 4.8,4.673 7.2,7.049c0.83,0.827 1.67,1.653 2.5,2.494c0.94,0.933 1.86,1.867 2.79,2.815c0.93,0.946 1.86,1.893 2.79,2.848l0.07,0.078l0.08,0.077l0,17.348l15.83,-0c0.31,0.354 0.61,0.714 0.91,1.074c0.32,0.361 0.61,0.721 0.92,1.089c0.35,0.416 0.7,0.841 1.05,1.265c0.13,0.149 0.25,0.305 0.38,0.46c0.13,0.149 0.25,0.303 0.38,0.46l0.06,0.07c0.23,0.282 0.46,0.559 0.68,0.842c0.23,0.275 0.46,0.557 0.68,0.834l0,0.007l0.12,0.148c0.09,0.098 0.17,0.198 0.25,0.311l0.02,0.014l0.09,0.113l0.08,0.114c0.5,0.607 0.98,1.208 1.46,1.823l0.13,0.163l0.04,0.049c0.08,0.113 0.17,0.227 0.25,0.332c0.09,0.113 0.17,0.22 0.26,0.34c0.23,0.297 0.46,0.594 0.69,0.891c0.42,0.53 0.82,1.06 1.22,1.59c0.32,0.41 0.63,0.827 0.94,1.244c0.32,0.417 0.64,0.841 0.95,1.265c0.11,0.142 0.23,0.291 0.33,0.439c2.26,3.075 4.45,6.206 6.58,9.416Z" style="fill:#fff;fill-rule:nonzero;"/><path d="M1158.37,516.67l-0,38.987l-8.04,-0l-0,-46.685c1.14,1.097 2.29,2.184 3.43,3.287l0.01,-0l0,0.007c0.21,0.205 0.42,0.411 0.63,0.608c0.22,0.205 0.43,0.41 0.65,0.615c1.1,1.054 2.2,2.121 3.32,3.181Z" style="fill:#cadbdd;fill-rule:nonzero;"/><path d="M1210.35,866.913c-9.26,0.844 -33.88,1.442 -62.79,1.442c-36.85,-0 -66.73,-0.973 -66.73,-2.169c-0,-0.597 7.39,-1.137 19.37,-1.536c10.34,-0.327 24.09,-0.562 39.43,-0.608c2.59,-0.024 5.24,-0.024 7.93,-0.024c10.31,-0 20.07,0.082 28.8,0.211c12.07,0.856 23.42,1.758 33.99,2.684Z" style="fill:#525b59;fill-rule:nonzero;"/><path d="M1133.92,622.041l1.1,-3.177l0.07,-0.085c14.32,-19.133 125.91,-124.308 50.19,-141.311c-61.05,-13.716 -55.33,93.565 -52.07,135.733c0.27,3.4 0.5,6.385 0.71,8.84Z" style="fill:#9eba45;fill-rule:nonzero;"/><path d="M1133.92,622.041l1.1,-3.177l0.07,-0.085c0.41,-2.233 0.85,-4.555 1.29,-6.951c0.2,-1.051 0.38,-2.122 0.61,-3.194c0.24,-1.077 0.48,-2.161 0.71,-3.261c0.47,-2.197 0.94,-4.436 1.43,-6.715c1.1,-4.542 2.16,-9.241 3.44,-13.969c0.64,-2.365 1.2,-4.766 1.92,-7.138c0.69,-2.373 1.4,-4.758 2.1,-7.143c0.67,-2.397 1.49,-4.739 2.23,-7.107c0.38,-1.177 0.75,-2.354 1.13,-3.526c0.38,-1.172 0.82,-2.319 1.22,-3.474c0.82,-2.298 1.63,-4.595 2.43,-6.85c0.86,-2.235 1.73,-4.44 2.57,-6.604c0.44,-1.084 0.82,-2.177 1.28,-3.219c0.45,-1.055 0.91,-2.096 1.35,-3.128c0.88,-2.053 1.7,-4.093 2.59,-6.034c0.91,-1.933 1.81,-3.81 2.67,-5.622c0.42,-0.908 0.84,-1.806 1.26,-2.689c0.44,-0.858 0.89,-1.701 1.32,-2.524c0.86,-1.662 1.69,-3.246 2.47,-4.751c0.38,-0.774 0.78,-1.489 1.2,-2.185c0.4,-0.695 0.79,-1.37 1.16,-2.029c1.55,-2.606 2.77,-4.962 4.01,-6.773c1.2,-1.833 2.1,-3.302 2.73,-4.295c0.55,-0.864 0.87,-1.384 0.95,-1.497c-0.1,0.106 -0.48,0.575 -1.12,1.371c-0.74,0.92 -1.83,2.246 -3.19,3.963c-1.41,1.678 -2.89,3.896 -4.64,6.42c-0.44,0.628 -0.89,1.279 -1.36,1.954c-0.47,0.668 -0.94,1.365 -1.38,2.094c-0.89,1.478 -1.84,3.02 -2.81,4.63c-0.49,0.807 -1,1.636 -1.5,2.471c-0.47,0.862 -0.96,1.74 -1.45,2.631c-0.96,1.794 -1.96,3.645 -2.97,5.556c-0.99,1.92 -1.92,3.943 -2.91,5.983c-1,2.046 -1.98,4.144 -2.87,6.337c-0.92,2.169 -1.85,4.385 -2.79,6.624c-0.89,2.258 -1.74,4.561 -2.59,6.884c-0.42,1.166 -0.88,2.33 -1.27,3.51c-0.4,1.182 -0.79,2.369 -1.19,3.558c-0.76,2.388 -1.62,4.757 -2.32,7.175c-0.69,2.417 -1.38,4.838 -2.07,7.251c-0.69,2.4 -1.24,4.84 -1.86,7.236c-0.31,1.198 -0.61,2.392 -0.9,3.584c-0.31,1.185 -0.52,2.39 -0.78,3.575c-0.5,2.37 -0.98,4.724 -1.48,7.031c-0.43,2.313 -0.83,4.591 -1.21,6.826c-0.19,1.12 -0.38,2.225 -0.56,3.318c-0.19,1.095 -0.32,2.178 -0.47,3.247c-0.09,0.631 -0.17,1.256 -0.26,1.871c0.27,3.4 0.5,6.385 0.71,8.84Z" style="fill:#728e36;fill-rule:nonzero;"/><path d="M1120,704.763l-1.14,-3.16l-0.07,-0.085c-14.58,-18.937 -127.57,-122.609 -52.09,-140.626c60.86,-14.533 56.58,92.817 53.89,135.023c-0.22,3.404 -0.42,6.393 -0.59,8.848Z" style="fill:#9eba45;fill-rule:nonzero;"/><path d="M1120,704.763l-1.14,-3.16l-0.07,-0.085c-0.44,-2.225 -0.92,-4.542 -1.39,-6.933c-0.22,-1.047 -0.41,-2.117 -0.65,-3.187c-0.25,-1.07 -0.51,-2.152 -0.76,-3.249c-0.49,-2.191 -1,-4.424 -1.51,-6.696c-1.16,-4.526 -2.29,-9.211 -3.63,-13.921c-0.68,-2.357 -1.27,-4.75 -2.02,-7.11c-0.72,-2.365 -1.46,-4.742 -2.19,-7.117c-0.71,-2.385 -1.56,-4.716 -2.33,-7.075c-0.39,-1.173 -0.78,-2.343 -1.18,-3.511c-0.39,-1.166 -0.85,-2.309 -1.27,-3.457c-0.84,-2.287 -1.68,-4.573 -2.51,-6.817c-0.9,-2.224 -1.79,-4.416 -2.66,-6.568c-0.46,-1.077 -0.85,-2.167 -1.33,-3.202c-0.46,-1.049 -0.93,-2.083 -1.38,-3.11c-0.92,-2.042 -1.76,-4.069 -2.68,-5.999c-0.94,-1.921 -1.86,-3.786 -2.74,-5.585c-0.43,-0.902 -0.87,-1.797 -1.3,-2.672c-0.45,-0.853 -0.91,-1.689 -1.35,-2.507c-0.89,-1.651 -1.73,-3.222 -2.53,-4.718c-0.39,-0.767 -0.8,-1.477 -1.23,-2.168c-0.41,-0.69 -0.81,-1.359 -1.19,-2.013c-1.58,-2.586 -2.83,-4.925 -4.1,-6.718c-1.22,-1.818 -2.15,-3.275 -2.79,-4.259c-0.56,-0.857 -0.89,-1.372 -0.96,-1.482c0.09,0.102 0.48,0.566 1.14,1.355c0.74,0.91 1.85,2.22 3.24,3.919c1.42,1.66 2.94,3.857 4.72,6.358c0.45,0.621 0.91,1.266 1.39,1.934c0.47,0.662 0.95,1.354 1.4,2.078c0.92,1.464 1.88,2.993 2.88,4.589c0.5,0.802 1.01,1.624 1.53,2.452c0.48,0.855 0.98,1.727 1.48,2.611c0.99,1.782 2.01,3.618 3.05,5.516c1.02,1.906 1.97,3.917 2.99,5.943c1.02,2.033 2.03,4.117 2.95,6.299c0.94,2.155 1.91,4.359 2.88,6.586c0.92,2.247 1.8,4.538 2.69,6.848c0.43,1.16 0.9,2.319 1.31,3.493c0.41,1.176 0.82,2.359 1.24,3.54c0.79,2.378 1.68,4.736 2.41,7.145c0.72,2.408 1.45,4.817 2.17,7.223c0.73,2.391 1.3,4.822 1.96,7.209c0.32,1.194 0.64,2.384 0.95,3.571c0.31,1.183 0.55,2.385 0.82,3.565c0.53,2.365 1.05,4.709 1.57,7.011c0.47,2.308 0.9,4.579 1.31,6.81c0.2,1.117 0.4,2.219 0.61,3.31c0.19,1.092 0.34,2.173 0.5,3.24c0.1,0.629 0.2,1.253 0.29,1.866c-0.22,3.404 -0.42,6.393 -0.59,8.848Z" style="fill:#728e36;fill-rule:nonzero;"/><path d="M1196.23,493.24c-9.03,12.334 -15.85,26.249 -21.78,40.291c-7.05,16.71 -12.91,33.912 -18.13,51.275c-13.71,45.588 -23.55,92.352 -31.71,139.221c-2.09,12.019 -4.07,24.058 -5.88,36.121l1.5,-0c0.59,-3.921 1.19,-7.841 1.82,-11.756c6.99,-43.871 15.49,-87.592 26.63,-130.609c6.11,-23.632 12.98,-47.142 21.65,-69.973c7.11,-18.716 15.29,-37.583 27.19,-53.817c0.56,-0.776 -0.73,-1.519 -1.29,-0.753Z" style="fill:#728e36;fill-rule:nonzero;"/><path d="M1172.15,442.419c-7.42,13.368 -12.43,28.029 -16.56,42.704c-4.9,17.462 -8.55,35.263 -11.56,53.144c-7.88,46.947 -11.77,94.576 -13.99,142.099c-0.57,12.186 -1.02,24.378 -1.3,36.573l1.48,-0.187c0.1,-3.965 0.2,-7.928 0.33,-11.893c1.43,-44.401 4.39,-88.843 10.04,-132.916c3.1,-24.214 6.97,-48.398 12.71,-72.137c4.7,-19.46 10.45,-39.204 20.22,-56.802c0.46,-0.841 -0.92,-1.415 -1.37,-0.585Z" style="fill:#728e36;fill-rule:nonzero;"/><path d="M1116.06,550.482c6.51,59.51 8.49,119.267 7.99,179.05l1.62,-0c0.21,-18.586 0.18,-37.173 -0.24,-55.756c-0.87,-38.811 -3.14,-77.722 -7.14,-116.341c-1.78,-17.106 -4.12,-34.045 -7.51,-50.91c-3.05,-15.166 -6.58,-30.225 -10.13,-45.279c-0.21,-0.936 -1.65,-0.54 -1.43,0.393c6.92,29.407 13.54,58.773 16.84,88.843Z" style="fill:#728e36;fill-rule:nonzero;"/><path d="M1098.82,575.076c12.17,58.614 19.85,117.909 25.08,177.465l1.61,-0.156c-1.57,-18.521 -3.38,-37.019 -5.57,-55.476c-4.58,-38.551 -10.56,-77.066 -18.24,-115.124c-3.4,-16.859 -7.35,-33.496 -12.34,-49.959c-4.48,-14.806 -9.44,-29.459 -14.4,-44.105c-0.31,-0.91 -1.7,-0.378 -1.39,0.53c9.7,28.609 19.09,57.208 25.25,86.825Z" style="fill:#728e36;fill-rule:nonzero;"/><path d="M1159.9,578.093l1.89,-2.779l0.09,-0.064c18.84,-14.711 154.08,-86.982 85.46,-123.228c-55.33,-29.229 -77.91,75.804 -85.81,117.351c-0.64,3.353 -1.19,6.297 -1.63,8.72Z" style="fill:#9eba45;fill-rule:nonzero;"/><path d="M1159.9,578.093l1.89,-2.779l0.09,-0.064c0.98,-2.047 2.02,-4.171 3.07,-6.37c0.47,-0.96 0.92,-1.948 1.42,-2.923c0.51,-0.975 1.03,-1.959 1.54,-2.958c1.02,-2.001 2.07,-4.037 3.14,-6.11c2.25,-4.094 4.5,-8.351 6.98,-12.578c1.24,-2.114 2.41,-4.285 3.72,-6.386c1.29,-2.109 2.6,-4.227 3.9,-6.343c1.28,-2.138 2.68,-4.183 4.01,-6.276c0.68,-1.036 1.34,-2.074 2.02,-3.106c0.67,-1.03 1.4,-2.023 2.09,-3.033c1.39,-2.003 2.77,-4.007 4.13,-5.974c1.42,-1.932 2.83,-3.833 4.22,-5.7c0.7,-0.931 1.36,-1.887 2.08,-2.772c0.7,-0.9 1.42,-1.784 2.11,-2.667c1.4,-1.748 2.72,-3.503 4.09,-5.142c1.38,-1.626 2.74,-3.204 4.05,-4.727c0.64,-0.764 1.28,-1.523 1.92,-2.264c0.65,-0.713 1.3,-1.409 1.93,-2.092c1.27,-1.378 2.48,-2.689 3.63,-3.938c0.56,-0.648 1.14,-1.23 1.73,-1.795c0.56,-0.566 1.12,-1.114 1.66,-1.651c2.16,-2.112 3.96,-4.064 5.64,-5.485c1.63,-1.457 2.89,-2.639 3.76,-3.432c0.76,-0.69 1.2,-1.107 1.3,-1.196c-0.12,0.076 -0.61,0.428 -1.44,1.029c-0.95,0.695 -2.35,1.689 -4.12,2.99c-1.79,1.25 -3.8,3.002 -6.15,4.979c-0.6,0.491 -1.2,1.001 -1.83,1.53c-0.62,0.523 -1.26,1.071 -1.87,1.662c-1.25,1.19 -2.57,2.43 -3.93,3.729c-0.69,0.652 -1.39,1.319 -2.1,1.992c-0.68,0.709 -1.37,1.429 -2.09,2.16c-1.39,1.481 -2.84,3.006 -4.32,4.583c-1.46,1.593 -2.88,3.304 -4.37,5.013c-1.5,1.714 -3,3.479 -4.43,5.363c-1.45,1.855 -2.93,3.749 -4.44,5.66c-1.44,1.95 -2.87,3.947 -4.3,5.967c-0.71,1.015 -1.45,2.019 -2.14,3.054c-0.69,1.038 -1.38,2.081 -2.08,3.123c-1.36,2.105 -2.8,4.168 -4.12,6.318c-1.3,2.151 -2.6,4.307 -3.89,6.456c-1.31,2.133 -2.47,4.344 -3.69,6.494c-0.62,1.076 -1.22,2.149 -1.81,3.223c-0.61,1.063 -1.13,2.172 -1.69,3.246c-1.1,2.158 -2.19,4.301 -3.27,6.399c-1.02,2.12 -2.01,4.211 -2.96,6.27c-0.48,1.03 -0.95,2.049 -1.41,3.054c-0.47,1.009 -0.88,2.019 -1.3,3.012c-0.25,0.586 -0.5,1.166 -0.74,1.735c-0.64,3.353 -1.19,6.297 -1.63,8.72Z" style="fill:#728e36;fill-rule:nonzero;"/><path d="M1117.06,542.436l-0.29,-3.347l0.03,-0.108c5.25,-23.314 64.11,-164.911 -11.94,-149.484c-61.33,12.431 -12.26,108.008 7.94,145.162c1.64,2.993 3.07,5.622 4.26,7.777Z" style="fill:#9eba45;fill-rule:nonzero;"/><path d="M1117.06,542.436l-0.29,-3.347l0.03,-0.108c-0.55,-2.202 -1.09,-4.504 -1.67,-6.872c-0.24,-1.043 -0.52,-2.09 -0.74,-3.166c-0.23,-1.076 -0.45,-2.165 -0.69,-3.264c-0.47,-2.196 -0.95,-4.434 -1.44,-6.712c-0.85,-4.595 -1.81,-9.317 -2.57,-14.157c-0.38,-2.421 -0.85,-4.84 -1.16,-7.299c-0.34,-2.448 -0.67,-4.914 -1,-7.376c-0.37,-2.461 -0.58,-4.934 -0.88,-7.397c-0.13,-1.23 -0.27,-2.454 -0.41,-3.681c-0.13,-1.224 -0.19,-2.453 -0.3,-3.672c-0.19,-2.428 -0.39,-4.855 -0.58,-7.242c-0.13,-2.394 -0.24,-4.757 -0.35,-7.079c-0.05,-1.168 -0.15,-2.32 -0.15,-3.461c-0.02,-1.145 -0.03,-2.282 -0.05,-3.404c-0.03,-2.236 -0.12,-4.43 -0.1,-6.568c0.04,-2.136 0.09,-4.215 0.14,-6.221c0.01,-1 0.03,-1.993 0.05,-2.969c0.05,-0.966 0.12,-1.917 0.17,-2.842c0.11,-1.871 0.22,-3.653 0.31,-5.346c0.03,-0.861 0.11,-1.678 0.2,-2.485c0.09,-0.798 0.17,-1.574 0.24,-2.328c0.34,-3.009 0.5,-5.657 0.89,-7.819c0.34,-2.163 0.57,-3.873 0.74,-5.037c0.15,-1.013 0.23,-1.618 0.25,-1.75c-0.04,0.132 -0.2,0.717 -0.46,1.709c-0.3,1.14 -0.76,2.797 -1.3,4.92c-0.59,2.106 -1.04,4.736 -1.61,7.755c-0.14,0.753 -0.29,1.531 -0.44,2.338c-0.15,0.8 -0.3,1.629 -0.4,2.474c-0.21,1.713 -0.44,3.508 -0.67,5.375c-0.12,0.938 -0.24,1.9 -0.37,2.869c-0.07,0.98 -0.16,1.978 -0.24,2.992c-0.14,2.03 -0.29,4.126 -0.44,6.285c-0.12,2.159 -0.14,4.382 -0.21,6.65c-0.08,2.276 -0.12,4.592 -0.03,6.956c0.05,2.354 0.1,4.758 0.16,7.187c0.11,2.423 0.27,4.875 0.44,7.343c0.1,1.235 0.16,2.486 0.28,3.722c0.12,1.24 0.25,2.485 0.37,3.73c0.28,2.493 0.47,5.004 0.82,7.497c0.36,2.49 0.71,4.983 1.07,7.464c0.35,2.477 0.85,4.924 1.26,7.366c0.21,1.218 0.42,2.433 0.64,3.639c0.21,1.205 0.51,2.394 0.75,3.582c0.52,2.366 1.04,4.712 1.53,7.021c0.55,2.287 1.11,4.531 1.68,6.725c0.28,1.099 0.57,2.185 0.84,3.259c0.28,1.074 0.6,2.117 0.91,3.152c0.17,0.612 0.35,1.217 0.52,1.815c1.64,2.993 3.07,5.622 4.26,7.777Z" style="fill:#728e36;fill-rule:nonzero;"/><path d="M1161.22,472.618l1.09,-3.177l0.08,-0.085c14.32,-19.132 125.91,-124.307 50.19,-141.312c-61.05,-13.715 -55.33,93.567 -52.07,135.734c0.26,3.399 0.5,6.386 0.71,8.84Z" style="fill:#9eba45;fill-rule:nonzero;"/><path d="M1161.22,472.618l1.09,-3.177l0.08,-0.085c0.4,-2.232 0.85,-4.554 1.29,-6.952c0.2,-1.05 0.38,-2.121 0.61,-3.194c0.23,-1.075 0.48,-2.159 0.71,-3.26c0.46,-2.197 0.94,-4.437 1.42,-6.715c1.1,-4.542 2.16,-9.24 3.45,-13.969c0.64,-2.366 1.2,-4.765 1.92,-7.137c0.69,-2.373 1.39,-4.76 2.1,-7.144c0.67,-2.396 1.49,-4.738 2.22,-7.106c0.38,-1.177 0.75,-2.354 1.14,-3.527c0.38,-1.172 0.82,-2.319 1.22,-3.474c0.82,-2.298 1.62,-4.594 2.43,-6.851c0.86,-2.235 1.72,-4.438 2.57,-6.602c0.44,-1.084 0.82,-2.178 1.28,-3.22c0.45,-1.054 0.9,-2.095 1.34,-3.128c0.89,-2.053 1.7,-4.093 2.6,-6.033c0.91,-1.933 1.8,-3.81 2.67,-5.622c0.42,-0.908 0.84,-1.808 1.26,-2.69c0.44,-0.858 0.89,-1.699 1.31,-2.524c0.87,-1.661 1.69,-3.245 2.47,-4.75c0.38,-0.775 0.79,-1.489 1.2,-2.186c0.4,-0.695 0.8,-1.37 1.17,-2.029c1.54,-2.607 2.76,-4.962 4.01,-6.772c1.19,-1.834 2.1,-3.303 2.73,-4.295c0.55,-0.865 0.87,-1.384 0.94,-1.497c-0.09,0.105 -0.47,0.574 -1.12,1.371c-0.73,0.92 -1.83,2.247 -3.19,3.963c-1.4,1.678 -2.89,3.896 -4.64,6.419c-0.44,0.628 -0.89,1.279 -1.35,1.954c-0.47,0.668 -0.94,1.365 -1.38,2.095c-0.9,1.477 -1.84,3.019 -2.82,4.63c-0.49,0.807 -0.99,1.635 -1.5,2.47c-0.47,0.863 -0.95,1.74 -1.44,2.631c-0.96,1.796 -1.96,3.644 -2.97,5.555c-1,1.92 -1.92,3.945 -2.91,5.984c-1,2.048 -1.99,4.144 -2.88,6.338c-0.91,2.169 -1.84,4.384 -2.79,6.624c-0.88,2.258 -1.74,4.561 -2.59,6.884c-0.42,1.165 -0.87,2.33 -1.27,3.509c-0.39,1.183 -0.78,2.371 -1.18,3.558c-0.76,2.388 -1.62,4.757 -2.32,7.177c-0.69,2.416 -1.39,4.836 -2.07,7.25c-0.7,2.4 -1.24,4.839 -1.86,7.235c-0.31,1.197 -0.61,2.392 -0.91,3.584c-0.3,1.185 -0.51,2.391 -0.78,3.575c-0.49,2.371 -0.98,4.723 -1.47,7.032c-0.43,2.312 -0.84,4.589 -1.22,6.826c-0.19,1.119 -0.37,2.225 -0.56,3.318c-0.18,1.095 -0.31,2.179 -0.46,3.246c-0.09,0.631 -0.18,1.256 -0.26,1.871c0.26,3.399 0.5,6.386 0.71,8.84Z" style="fill:#728e36;fill-rule:nonzero;"/><path d="M1127.67,704.441l1.99,-2.706l0.1,-0.06c19.36,-14.016 157.14,-81.315 89.89,-120.035c-54.23,-31.225 -80.62,72.916 -90.03,114.148c-0.75,3.328 -1.41,6.25 -1.95,8.653Z" style="fill:#9eba45;fill-rule:nonzero;"/><path d="M1127.67,704.441l1.99,-2.706l0.1,-0.06c1.05,-2.011 2.16,-4.096 3.29,-6.256c0.51,-0.942 1,-1.912 1.54,-2.868c0.54,-0.956 1.09,-1.922 1.64,-2.902c1.1,-1.962 2.22,-3.958 3.36,-5.99c2.4,-4.01 4.81,-8.182 7.43,-12.316c1.32,-2.068 2.57,-4.194 3.96,-6.247c1.36,-2.058 2.74,-4.129 4.12,-6.196c1.36,-2.09 2.83,-4.082 4.24,-6.126c0.71,-1.012 1.41,-2.023 2.13,-3.03c0.71,-1.005 1.47,-1.972 2.2,-2.953c1.46,-1.953 2.91,-3.906 4.35,-5.822c1.49,-1.878 2.96,-3.727 4.42,-5.542c0.74,-0.904 1.42,-1.835 2.17,-2.694c0.74,-0.874 1.49,-1.732 2.22,-2.587c1.45,-1.697 2.84,-3.403 4.26,-4.992c1.45,-1.575 2.86,-3.102 4.22,-4.575c0.67,-0.742 1.34,-1.477 2,-2.194c0.68,-0.689 1.36,-1.36 2.01,-2.021c1.32,-1.329 2.58,-2.596 3.77,-3.802c0.59,-0.627 1.19,-1.188 1.8,-1.73c0.58,-0.545 1.16,-1.073 1.71,-1.591c2.25,-2.031 4.11,-3.918 5.84,-5.277c1.69,-1.396 2.99,-2.53 3.88,-3.29c0.79,-0.663 1.25,-1.064 1.35,-1.149c-0.12,0.072 -0.63,0.407 -1.48,0.975c-0.97,0.661 -2.41,1.602 -4.22,2.839c-1.84,1.185 -3.92,2.861 -6.34,4.752c-0.6,0.468 -1.23,0.955 -1.87,1.461c-0.65,0.5 -1.3,1.025 -1.94,1.593c-1.29,1.144 -2.65,2.335 -4.06,3.584c-0.71,0.626 -1.44,1.267 -2.17,1.913c-0.71,0.684 -1.43,1.38 -2.16,2.084c-1.45,1.43 -2.95,2.9 -4.49,4.424c-1.52,1.536 -3,3.195 -4.55,4.849c-1.56,1.658 -3.13,3.368 -4.63,5.199c-1.51,1.799 -3.06,3.638 -4.63,5.495c-1.51,1.896 -3.01,3.84 -4.52,5.806c-0.74,0.988 -1.53,1.965 -2.25,2.972c-0.73,1.012 -1.46,2.031 -2.19,3.045c-1.44,2.055 -2.96,4.065 -4.34,6.165c-1.38,2.103 -2.76,4.209 -4.13,6.31c-1.38,2.085 -2.63,4.252 -3.93,6.355c-0.65,1.053 -1.3,2.103 -1.93,3.156c-0.64,1.041 -1.2,2.128 -1.8,3.182c-1.18,2.117 -2.34,4.218 -3.5,6.277c-1.1,2.08 -2.16,4.134 -3.19,6.156c-0.51,1.013 -1.02,2.014 -1.52,3.001c-0.5,0.992 -0.95,1.986 -1.4,2.963c-0.28,0.576 -0.55,1.147 -0.81,1.707c-0.75,3.328 -1.41,6.25 -1.95,8.653Z" style="fill:#728e36;fill-rule:nonzero;"/><path d="M1097.51,565.731l-1.15,-3.161l-0.07,-0.085c-0.43,-2.225 -0.91,-4.541 -1.38,-6.933c-0.22,-1.048 -0.41,-2.116 -0.66,-3.187c-0.25,-1.069 -0.5,-2.152 -0.75,-3.248c-0.49,-2.191 -1,-4.424 -1.51,-6.696c-1.17,-4.528 -2.29,-9.211 -3.64,-13.92c-0.67,-2.359 -1.26,-4.751 -2.01,-7.114c-0.73,-2.363 -1.46,-4.739 -2.2,-7.113c-0.7,-2.388 -1.55,-4.719 -2.32,-7.077c-0.39,-1.172 -0.78,-2.343 -1.18,-3.51c-0.39,-1.167 -0.85,-2.309 -1.27,-3.458c-0.84,-2.287 -1.68,-4.573 -2.51,-6.817c-0.9,-2.224 -1.79,-4.416 -2.67,-6.569c-0.45,-1.076 -0.84,-2.165 -1.32,-3.202c-0.46,-1.048 -0.93,-2.083 -1.38,-3.108c-0.92,-2.042 -1.76,-4.07 -2.68,-6c-0.94,-1.92 -1.86,-3.785 -2.74,-5.585c-0.44,-0.9 -0.87,-1.797 -1.3,-2.672c-0.46,-0.853 -0.92,-1.688 -1.35,-2.507c-0.89,-1.65 -1.73,-3.222 -2.54,-4.717c-0.38,-0.768 -0.8,-1.478 -1.22,-2.168c-0.41,-0.69 -0.81,-1.36 -1.2,-2.013c-1.57,-2.586 -2.83,-4.925 -4.1,-6.719c-1.21,-1.817 -2.14,-3.274 -2.78,-4.259c-0.57,-0.856 -0.89,-1.372 -0.97,-1.483c0.1,0.103 0.49,0.567 1.14,1.354c0.75,0.913 1.86,2.222 3.24,3.922c1.43,1.66 2.94,3.857 4.73,6.357c0.45,0.622 0.91,1.266 1.38,1.935c0.48,0.661 0.96,1.352 1.4,2.075c0.92,1.464 1.89,2.995 2.88,4.592c0.5,0.801 1.02,1.622 1.54,2.45c0.48,0.857 0.97,1.727 1.48,2.613c0.98,1.781 2,3.618 3.04,5.514c1.02,1.907 1.97,3.918 2.99,5.946c1.03,2.032 2.04,4.115 2.96,6.297c0.94,2.156 1.9,4.36 2.88,6.587c0.91,2.246 1.8,4.537 2.68,6.848c0.44,1.158 0.91,2.318 1.32,3.491c0.41,1.177 0.82,2.361 1.23,3.541c0.8,2.38 1.68,4.738 2.42,7.146c0.72,2.407 1.45,4.818 2.16,7.222c0.73,2.39 1.31,4.823 1.96,7.21c0.33,1.193 0.65,2.383 0.95,3.572c0.32,1.18 0.55,2.384 0.83,3.564c0.53,2.364 1.04,4.709 1.57,7.01c0.46,2.308 0.9,4.58 1.31,6.81c0.2,1.117 0.4,2.219 0.6,3.309c0.2,1.094 0.35,2.175 0.51,3.24c0.1,0.631 0.19,1.255 0.29,1.868c-0.22,3.404 -0.42,6.392 -0.59,8.848Z" style="fill:#728e36;fill-rule:nonzero;"/><path d="M1098.13,709.252c-7.83,18.777 -12.76,46.098 -12.76,76.525c-0,32.734 5.7,61.874 14.59,80.644l47.09,-0c5.53,-11.673 9.84,-27.339 12.3,-45.41c1.5,-10.982 2.31,-22.855 2.31,-35.234c0,-30.427 -4.93,-57.748 -12.76,-76.525l-50.77,-0Z" style="fill:#eae4d8;fill-rule:nonzero;"/><path d="M1111.19,709.252c-2.57,11.431 -4.02,24.419 -4.02,38.203c0,45.756 15.99,82.85 35.72,82.85c5.94,-0 11.53,-3.357 16.46,-9.294c1.5,-10.982 2.31,-22.855 2.31,-35.234c0,-30.427 -4.93,-57.748 -12.76,-76.525l-37.71,-0Z" style="fill:#fff;fill-rule:nonzero;"/><rect x="107.184" y="175.195" width="169.234" height="677.997" style="fill:#e5e5e4;"/><rect x="116.296" y="283.705" width="139.599" height="52.858" style="fill:#0c2b34;"/><rect x="120.192" y="290.351" width="7.817" height="40.454" style="fill:#335863;"/><path d="M137.219,298.86c0,1.846 -1.112,3.342 -2.485,3.342c-1.372,0 -2.484,-1.496 -2.484,-3.342c0,-1.845 1.112,-3.341 2.484,-3.341c1.373,0 2.485,1.496 2.485,3.341Z" style="fill:#fff;fill-rule:nonzero;"/><path d="M137.219,313.154c0,1.846 -1.112,3.341 -2.485,3.341c-1.372,0 -2.484,-1.495 -2.484,-3.341c0,-1.846 1.112,-3.341 2.484,-3.341c1.373,0 2.485,1.495 2.485,3.341Z" style="fill:#fff;fill-rule:nonzero;"/><rect x="147.149" y="295.519" width="7.681" height="31.074" style="fill:#335863;"/><rect x="158.244" y="295.519" width="7.683" height="31.074" style="fill:#335863;"/><rect x="169.34" y="295.519" width="7.683" height="31.074" style="fill:#335863;"/><rect x="180.437" y="295.519" width="7.681" height="31.074" style="fill:#335863;"/><rect x="191.533" y="295.519" width="7.68" height="31.074" style="fill:#335863;"/><rect x="202.627" y="295.519" width="7.681" height="31.074" style="fill:#335863;"/><rect x="213.725" y="295.519" width="7.68" height="31.074" style="fill:#335863;"/><rect x="224.819" y="295.519" width="7.681" height="31.074" style="fill:#335863;"/><rect x="235.915" y="295.519" width="7.681" height="31.074" style="fill:#335863;"/><rect x="247.011" y="295.519" width="7.681" height="31.074" style="fill:#335863;"/><rect x="116.296" y="359.641" width="139.599" height="52.855" style="fill:#0c2b34;"/><rect x="120.192" y="366.285" width="7.817" height="40.452" style="fill:#335863;"/><path d="M137.219,374.794c0,1.846 -1.112,3.342 -2.485,3.342c-1.372,0 -2.484,-1.496 -2.484,-3.342c0,-1.845 1.112,-3.341 2.484,-3.341c1.373,0 2.485,1.496 2.485,3.341Z" style="fill:#fff;fill-rule:nonzero;"/><path d="M137.219,389.088c0,1.846 -1.112,3.341 -2.485,3.341c-1.372,0 -2.484,-1.495 -2.484,-3.341c0,-1.846 1.112,-3.341 2.484,-3.341c1.373,0 2.485,1.495 2.485,3.341Z" style="fill:#fff;fill-rule:nonzero;"/><rect x="147.149" y="371.453" width="7.681" height="31.074" style="fill:#335863;"/><rect x="158.244" y="371.453" width="7.683" height="31.074" style="fill:#335863;"/><rect x="169.34" y="371.453" width="7.683" height="31.074" style="fill:#335863;"/><rect x="180.437" y="371.453" width="7.681" height="31.074" style="fill:#335863;"/><rect x="191.533" y="371.453" width="7.68" height="31.074" style="fill:#335863;"/><rect x="202.627" y="371.453" width="7.681" height="31.074" style="fill:#335863;"/><rect x="213.725" y="371.453" width="7.68" height="31.074" style="fill:#335863;"/><rect x="224.819" y="371.453" width="7.681" height="31.074" style="fill:#335863;"/><rect x="235.915" y="371.453" width="7.681" height="31.074" style="fill:#335863;"/><rect x="247.011" y="371.453" width="7.681" height="31.074" style="fill:#335863;"/><rect x="116.296" y="436.182" width="139.599" height="52.856" style="fill:#0c2b34;"/><rect x="120.192" y="442.826" width="7.817" height="40.454" style="fill:#335863;"/><path d="M137.219,451.336c0,1.845 -1.112,3.341 -2.485,3.341c-1.372,0 -2.484,-1.496 -2.484,-3.341c0,-1.846 1.112,-3.342 2.484,-3.342c1.373,0 2.485,1.496 2.485,3.342Z" style="fill:#fff;fill-rule:nonzero;"/><path d="M137.219,465.631c0,1.844 -1.112,3.341 -2.485,3.341c-1.372,-0 -2.484,-1.497 -2.484,-3.341c0,-1.846 1.112,-3.343 2.484,-3.343c1.373,-0 2.485,1.497 2.485,3.343Z" style="fill:#fff;fill-rule:nonzero;"/><rect x="147.149" y="447.994" width="7.681" height="31.076" style="fill:#335863;"/><rect x="158.244" y="447.994" width="7.683" height="31.076" style="fill:#335863;"/><rect x="169.34" y="447.994" width="7.683" height="31.076" style="fill:#335863;"/><rect x="180.437" y="447.994" width="7.681" height="31.076" style="fill:#335863;"/><rect x="191.533" y="447.994" width="7.68" height="31.076" style="fill:#335863;"/><rect x="202.627" y="447.994" width="7.681" height="31.076" style="fill:#335863;"/><rect x="213.725" y="447.994" width="7.68" height="31.076" style="fill:#335863;"/><rect x="224.819" y="447.994" width="7.681" height="31.076" style="fill:#335863;"/><rect x="235.915" y="447.994" width="7.681" height="31.076" style="fill:#335863;"/><rect x="247.011" y="447.994" width="7.681" height="31.076" style="fill:#335863;"/><rect x="116.296" y="518.867" width="139.599" height="52.856" style="fill:#0c2b34;"/><rect x="120.192" y="525.511" width="7.817" height="40.454" style="fill:#335863;"/><path d="M137.219,534.021c0,1.847 -1.112,3.341 -2.485,3.341c-1.372,0 -2.484,-1.494 -2.484,-3.341c0,-1.846 1.112,-3.34 2.484,-3.34c1.373,0 2.485,1.494 2.485,3.34Z" style="fill:#fff;fill-rule:nonzero;"/><path d="M137.219,548.316c0,1.846 -1.112,3.341 -2.485,3.341c-1.372,0 -2.484,-1.495 -2.484,-3.341c0,-1.847 1.112,-3.343 2.484,-3.343c1.373,0 2.485,1.496 2.485,3.343Z" style="fill:#fff;fill-rule:nonzero;"/><rect x="147.149" y="530.681" width="7.681" height="31.074" style="fill:#335863;"/><rect x="158.244" y="530.681" width="7.683" height="31.074" style="fill:#335863;"/><rect x="169.34" y="530.681" width="7.683" height="31.074" style="fill:#335863;"/><rect x="180.437" y="530.681" width="7.681" height="31.074" style="fill:#335863;"/><rect x="191.533" y="530.681" width="7.68" height="31.074" style="fill:#335863;"/><rect x="202.627" y="530.681" width="7.681" height="31.074" style="fill:#335863;"/><rect x="213.725" y="530.681" width="7.68" height="31.074" style="fill:#335863;"/><rect x="224.819" y="530.681" width="7.681" height="31.074" style="fill:#335863;"/><rect x="235.915" y="530.681" width="7.681" height="31.074" style="fill:#335863;"/><rect x="247.011" y="530.681" width="7.681" height="31.074" style="fill:#335863;"/><rect x="116.296" y="602.368" width="139.599" height="52.858" style="fill:#0c2b34;"/><rect x="120.192" y="609.014" width="7.817" height="40.454" style="fill:#335863;"/><path d="M137.219,617.525c0,1.842 -1.112,3.339 -2.485,3.339c-1.372,0 -2.484,-1.497 -2.484,-3.339c0,-1.847 1.112,-3.343 2.484,-3.343c1.373,0 2.485,1.496 2.485,3.343Z" style="fill:#fff;fill-rule:nonzero;"/><path d="M137.219,631.817c0,1.846 -1.112,3.343 -2.485,3.343c-1.372,0 -2.484,-1.497 -2.484,-3.343c0,-1.844 1.112,-3.341 2.484,-3.341c1.373,0 2.485,1.497 2.485,3.341Z" style="fill:#fff;fill-rule:nonzero;"/><rect x="147.149" y="614.182" width="7.681" height="31.074" style="fill:#335863;"/><rect x="158.244" y="614.182" width="7.683" height="31.074" style="fill:#335863;"/><rect x="169.34" y="614.182" width="7.683" height="31.074" style="fill:#335863;"/><rect x="180.437" y="614.182" width="7.681" height="31.074" style="fill:#335863;"/><rect x="191.533" y="614.182" width="7.68" height="31.074" style="fill:#335863;"/><rect x="202.627" y="614.182" width="7.681" height="31.074" style="fill:#335863;"/><rect x="213.725" y="614.182" width="7.68" height="31.074" style="fill:#335863;"/><rect x="224.819" y="614.182" width="7.681" height="31.074" style="fill:#335863;"/><rect x="235.915" y="614.182" width="7.681" height="31.074" style="fill:#335863;"/><rect x="247.011" y="614.182" width="7.681" height="31.074" style="fill:#335863;"/><rect x="116.296" y="768.554" width="139.599" height="52.858" style="fill:#0c2b34;"/><rect x="120.192" y="775.201" width="7.817" height="40.454" style="fill:#335863;"/><path d="M137.219,783.709c0,1.846 -1.112,3.343 -2.485,3.343c-1.372,-0 -2.484,-1.497 -2.484,-3.343c0,-1.843 1.112,-3.339 2.484,-3.339c1.373,-0 2.485,1.496 2.485,3.339Z" style="fill:#fff;fill-rule:nonzero;"/><path d="M137.219,798.005c0,1.845 -1.112,3.341 -2.485,3.341c-1.372,0 -2.484,-1.496 -2.484,-3.341c0,-1.846 1.112,-3.343 2.484,-3.343c1.373,0 2.485,1.497 2.485,3.343Z" style="fill:#fff;fill-rule:nonzero;"/><rect x="147.149" y="780.37" width="7.681" height="31.072" style="fill:#335863;"/><rect x="158.244" y="780.37" width="7.683" height="31.072" style="fill:#335863;"/><rect x="169.34" y="780.37" width="7.683" height="31.072" style="fill:#335863;"/><rect x="180.437" y="780.37" width="7.681" height="31.072" style="fill:#335863;"/><rect x="191.533" y="780.37" width="7.68" height="31.072" style="fill:#335863;"/><rect x="202.627" y="780.37" width="7.681" height="31.072" style="fill:#335863;"/><rect x="213.725" y="780.37" width="7.68" height="31.072" style="fill:#335863;"/><rect x="224.819" y="780.37" width="7.681" height="31.072" style="fill:#335863;"/><rect x="235.915" y="780.37" width="7.681" height="31.072" style="fill:#335863;"/><rect x="247.011" y="780.37" width="7.681" height="31.072" style="fill:#335863;"/><rect x="116.296" y="685.534" width="139.599" height="52.856" style="fill:#0c2b34;"/><rect x="120.192" y="692.178" width="7.817" height="40.454" style="fill:#335863;"/><path d="M137.219,700.688c0,1.846 -1.112,3.343 -2.485,3.343c-1.372,0 -2.484,-1.497 -2.484,-3.343c0,-1.846 1.112,-3.341 2.484,-3.341c1.373,0 2.485,1.495 2.485,3.341Z" style="fill:#fff;fill-rule:nonzero;"/><path d="M137.219,714.982c0,1.845 -1.112,3.341 -2.485,3.341c-1.372,0 -2.484,-1.496 -2.484,-3.341c0,-1.846 1.112,-3.342 2.484,-3.342c1.373,0 2.485,1.496 2.485,3.342Z" style="fill:#fff;fill-rule:nonzero;"/><rect x="147.149" y="697.347" width="7.681" height="31.074" style="fill:#335863;"/><rect x="158.244" y="697.347" width="7.683" height="31.074" style="fill:#335863;"/><rect x="169.34" y="697.347" width="7.683" height="31.074" style="fill:#335863;"/><rect x="180.437" y="697.347" width="7.681" height="31.074" style="fill:#335863;"/><rect x="191.533" y="697.347" width="7.68" height="31.074" style="fill:#335863;"/><rect x="202.627" y="697.347" width="7.681" height="31.074" style="fill:#335863;"/><rect x="213.725" y="697.347" width="7.68" height="31.074" style="fill:#335863;"/><rect x="224.819" y="697.347" width="7.681" height="31.074" style="fill:#335863;"/><rect x="235.915" y="697.347" width="7.681" height="31.074" style="fill:#335863;"/><rect x="247.011" y="697.347" width="7.681" height="31.074" style="fill:#335863;"/><rect x="118.217" y="183.628" width="135.758" height="26.503" style="fill:#0c2b34;"/><rect x="148.073" y="196.881" width="73.914" height="13.251" style="fill:#335863;"/><path d="M309.36,733.337c0.015,0.127 -1.496,0.33 -4.103,1.346c-2.589,1.05 -6.296,2.999 -10.257,6.759c-1.965,1.882 -3.986,4.235 -5.759,7.198c-0.904,1.461 -1.681,3.125 -2.362,4.91c-0.62,1.807 -1.101,3.808 -1.484,5.887c-1.548,8.37 -1.079,17.96 -0.771,27.951c0.308,9.973 -0.177,19.918 -3.11,27.909c-1.398,3.987 -3.361,7.365 -5.54,9.963c-2.193,2.582 -4.547,4.462 -6.801,5.804c-2.257,1.342 -4.428,2.125 -6.358,2.558c-1.94,0.364 -3.632,0.441 -5.004,0.285c-1.369,-0.149 -2.426,-0.39 -3.119,-0.661c-0.699,-0.245 -1.061,-0.391 -1.052,-0.433c0.022,-0.142 1.482,0.477 4.189,0.629c1.352,0.083 3.01,-0.061 4.902,-0.478c1.884,-0.487 3.995,-1.311 6.185,-2.669c2.186,-1.36 4.46,-3.234 6.567,-5.773c2.092,-2.55 3.954,-5.813 5.292,-9.7c2.801,-7.757 3.269,-17.469 2.962,-27.391c-0.303,-9.943 -0.766,-19.679 0.865,-28.259c0.406,-2.129 0.903,-4.165 1.576,-6.082c0.726,-1.862 1.548,-3.582 2.494,-5.075c1.852,-3.03 3.943,-5.389 5.968,-7.263c4.08,-3.74 7.878,-5.592 10.524,-6.515c1.335,-0.435 2.381,-0.708 3.1,-0.793c0.717,-0.111 1.094,-0.15 1.096,-0.107Z" style="fill:#0c2b34;fill-rule:nonzero;"/><rect x="246.785" y="824.619" width="11.146" height="18.232" style="fill:#0c2b34;"/><rect x="309.36" y="687.293" width="62.495" height="92.089" style="fill:#335863;"/><path d="M361.18,733.697c0,15.281 -9.21,27.666 -20.571,27.666c-11.361,0 -20.57,-12.385 -20.57,-27.666c0,-15.277 9.209,-27.666 20.57,-27.666c11.361,0 20.571,12.389 20.571,27.666Z" style="fill:#0c2b34;fill-rule:nonzero;"/><path d="M350.894,733.697c0,7.642 -4.605,13.834 -10.285,13.834c-5.682,0 -10.285,-6.192 -10.285,-13.834c0,-7.638 4.603,-13.832 10.285,-13.832c5.68,0 10.285,6.194 10.285,13.832Z" style="fill:#335863;fill-rule:nonzero;"/><path d="M319.726,701.583c0,1.42 -0.856,2.57 -1.911,2.57c-1.055,0 -1.911,-1.15 -1.911,-2.57c0,-1.419 0.856,-2.569 1.911,-2.569c1.055,0 1.911,1.15 1.911,2.569Z" style="fill:#0c2b34;fill-rule:nonzero;"/><path d="M364.208,701.583c0,1.42 -0.856,2.57 -1.909,2.57c-1.056,0 -1.911,-1.15 -1.911,-2.57c0,-1.419 0.855,-2.569 1.911,-2.569c1.053,0 1.909,1.15 1.909,2.569Z" style="fill:#0c2b34;fill-rule:nonzero;"/><path d="M364.617,769.59c0,1.418 -0.856,2.568 -1.911,2.568c-1.056,0 -1.911,-1.15 -1.911,-2.568c0,-1.419 0.855,-2.57 1.911,-2.57c1.055,0 1.911,1.151 1.911,2.57Z" style="fill:#0c2b34;fill-rule:nonzero;"/><path d="M319.726,770.646c0,1.419 -0.856,2.57 -1.911,2.57c-1.055,-0 -1.911,-1.151 -1.911,-2.57c0,-1.419 0.856,-2.57 1.911,-2.57c1.055,-0 1.911,1.151 1.911,2.57Z" style="fill:#0c2b34;fill-rule:nonzero;"/><rect x="371.856" y="687.293" width="5.043" height="92.089" style="fill:#0c2b34;"/></g><defs><linearGradient id="_Linear1" x1="0" y1="0" x2="1" y2="0" gradientUnits="userSpaceOnUse" gradientTransform="matrix(1161.77,0,0,1161.77,80.792,505.016)"><stop offset="0" style="stop-color:#fff;stop-opacity:1"/><stop offset="1" style="stop-color:#d9dbdf;stop-opacity:1"/></linearGradient><linearGradient id="_Linear2" x1="0" y1="0" x2="1" y2="0" gradientUnits="userSpaceOnUse" gradientTransform="matrix(1220.42,0,0,1220.42,80.792,868.977)"><stop offset="0" style="stop-color:#fff;stop-opacity:1"/><stop offset="1" style="stop-color:#b9d2d4;stop-opacity:1"/></linearGradient><linearGradient id="_Linear3" x1="0" y1="0" x2="1" y2="0" gradientUnits="userSpaceOnUse" gradientTransform="matrix(858.488,0,0,858.488,239.564,876.221)"><stop offset="0" style="stop-color:#fff;stop-opacity:1"/><stop offset="1" style="stop-color:#96b9ba;stop-opacity:1"/></linearGradient></defs></svg>