<?xml version="1.0" encoding="UTF-8" standalone="no"?><!DOCTYPE svg PUBLIC "-//W3C//DTD SVG 1.1//EN" "http://www.w3.org/Graphics/SVG/1.1/DTD/svg11.dtd"><svg width="100%" height="100%" viewBox="0 0 2855 2956" version="1.1" xmlns="http://www.w3.org/2000/svg" xmlns:xlink="http://www.w3.org/1999/xlink" xml:space="preserve" xmlns:serif="http://www.serif.com/" style="fill-rule:evenodd;clip-rule:evenodd;stroke-linejoin:round;stroke-miterlimit:2;"><rect id="Artboard1" x="0" y="0" width="2855" height="2956" style="fill:none;"/><clipPath id="_clip1"><rect x="0" y="0" width="2855" height="2956"/></clipPath><g clip-path="url(#_clip1)"><path d="M438.497,1818.2c-2.718,-0 -5.469,-0.601 -8.005,-1.858l-3.994,-1.988c0.448,-0.515 0.879,-1.058 1.26,-1.63c4.424,-6.62 1.823,-15.07 -5.867,-18.887l-278.38,-138.675l3.546,-10.981l32.73,-22.762c-11.783,-9.909 -16.025,-22.577 -13.407,-36.975l4.74,-14.698c4.74,-10.408 12.496,-21.446 23.035,-32.813c2.453,0.958 4.956,1.844 7.491,2.659c19.042,9.994 41.364,15.213 66.074,15.213c33.045,-0 70.382,-9.336 109.89,-29.025c9.264,-4.604 18.379,-9.651 27.378,-15.127c0.613,0.258 1.226,0.515 1.856,0.758c0.231,0.115 0.464,0.243 0.696,0.372c-1.227,10.423 -1.857,20.746 -1.857,30.897c0,28.882 5.105,54.046 14.452,75.079c-55.219,16.256 -108.93,25.078 -152.83,25.078c-21.941,-0 -41.447,-2.202 -57.439,-6.792l-32.233,22.405l268.884,133.942c7.673,3.803 10.292,12.268 5.884,18.888c-2.967,4.447 -8.369,6.92 -13.904,6.92Z" style="fill:#dde9f7;fill-rule:nonzero;"/><path d="M562.208,1786.44c-30.592,-0 -56.395,-4.304 -74.591,-13.369c-36.973,-18.416 -34.404,-52.473 -0.348,-90.377c2.403,0.93 4.839,1.788 7.308,2.574c19.041,9.994 41.364,15.213 66.073,15.213c27.925,-0 58.931,-6.663 91.711,-20.618l0,96.883c-32.481,6.348 -63.173,9.694 -90.153,9.694Z" style="fill:#dde9f7;fill-rule:nonzero;"/><path d="M413.87,1819.64c-2.718,0 -5.485,-0.6 -8.004,-1.859l-289.136,-144.036c-6.347,-3.146 -9.396,-9.608 -7.441,-15.699l101.372,-313.595c2.387,-7.378 11.236,-11.639 19.755,-9.622c8.534,2.058 13.506,9.693 11.136,17.057l-98.041,303.272l278.38,138.675c7.69,3.817 10.291,12.267 5.867,18.887c-2.967,4.447 -8.353,6.92 -13.888,6.92Z" style="fill:#4d637c;fill-rule:nonzero;"/><path d="M886.179,1584.37c-2.718,0 -5.469,-0.586 -8.004,-1.859l-289.136,-144.036c-7.673,-3.818 -10.292,-12.268 -5.883,-18.888c4.441,-6.62 14.252,-8.879 21.908,-5.061l289.153,144.036c7.672,3.818 10.291,12.268 5.866,18.888c-2.966,4.447 -8.369,6.92 -13.904,6.92Z" style="fill:#4d637c;fill-rule:nonzero;"/><path d="M124.734,1656l-1.077,-0.114c-2.121,-0.515 -3.381,-2.431 -2.784,-4.261l101.372,-313.609c0.58,-1.844 2.818,-2.945 4.939,-2.402c2.121,0.515 3.381,2.416 2.784,4.246l-101.372,313.624c-0.481,1.53 -2.105,2.516 -3.862,2.516Z" style="fill:#627996;fill-rule:nonzero;"/><path d="M413.887,1800.04l-2.005,-0.458l-269.598,-134.285c-1.922,-0.958 -2.585,-3.074 -1.475,-4.733c1.127,-1.658 3.597,-2.187 5.486,-1.272l269.58,134.285c1.939,0.958 2.586,3.074 1.475,4.733l-3.463,1.73Z" style="fill:#627996;fill-rule:nonzero;"/><path d="M886.196,1564.78l-2.006,-0.472l-289.152,-144.022c-1.922,-0.958 -2.569,-3.074 -1.475,-4.733c1.127,-1.673 3.613,-2.187 5.485,-1.272l289.153,144.036c1.922,0.958 2.585,3.074 1.475,4.719l-3.48,1.744Z" style="fill:#627996;fill-rule:nonzero;"/><path d="M602.429,1153.09c0,133.856 -109.625,296.98 -244.838,364.323c-135.213,67.357 -244.838,13.44 -244.838,-120.416c-0,-133.871 109.625,-296.981 244.838,-364.338c135.213,-67.357 244.838,-13.44 244.838,120.431Z" style="fill:#627996;fill-rule:nonzero;"/><path d="M622.448,1161.46c0,133.856 -109.608,296.98 -244.838,364.323c-135.213,67.357 -244.822,13.44 -244.822,-120.416c0,-133.871 109.609,-296.995 244.822,-364.338c135.23,-67.357 244.838,-13.44 244.838,120.431Z" style="fill:#405066;fill-rule:nonzero;"/><path d="M567.263,1576.07l196.331,-298.053l-279.457,-139.032c-25.886,-16.643 -63.953,-16.429 -106.527,4.775c-77.889,38.804 -141.046,132.784 -141.046,209.907c-0,36.131 13.97,61.981 36.707,75.45l-0.116,0.157l2.519,1.258l4.276,2.145l287.313,143.393Z" style="fill:#627996;fill-rule:nonzero;"/><path d="M399.552,1484.22c-6.745,-13.455 -10.408,-29.769 -10.408,-48.413c0,-0.129 0,-0.243 0.017,-0.372l-0,-0.229c0.05,-12.41 1.823,-25.249 4.789,-38.218l-0.149,-0.071c0.066,-0.301 0.133,-0.601 0.199,-0.901l3.199,1.587c-3.514,14.283 -5.403,28.439 -5.469,42.093l-0,0.672c-0,16.414 2.734,31.126 7.822,43.852Zm6.43,-2.117c-4.806,-12.067 -7.408,-26.079 -7.408,-41.735l-0,-0.601c0.05,-12.367 1.806,-25.178 4.773,-38.103l-0.149,-0.072c0.066,-0.3 0.132,-0.6 0.198,-0.901l2.536,1.259c-3.497,14.298 -5.402,28.452 -5.469,42.107l0,0.686c0,13.683 1.939,26.179 5.519,37.36Zm6.778,-1.029c-3.563,-10.78 -5.452,-22.963 -5.452,-36.331l-0,-0.615c0.066,-12.367 1.823,-25.178 4.772,-38.118l-0.149,-0.071c0.067,-0.3 0.133,-0.587 0.216,-0.887l3.43,1.716c-3.646,14.598 -5.618,29.068 -5.684,43.008l-0,0.715c-0,10.38 1.11,20.074 3.215,29.024c-0.116,0.515 -0.249,1.044 -0.348,1.559Zm-28.769,-0.915c-8.287,-14.227 -12.761,-32.142 -12.761,-52.873l-0,-0.615c0.066,-12.525 1.856,-25.479 4.872,-38.562l-0.149,-0.071c0.066,-0.301 0.149,-0.601 0.215,-0.901l3.597,1.787c-3.514,14.341 -5.436,28.539 -5.486,42.236l0,0.687c0,18.358 3.398,34.629 9.712,48.312Zm-9.662,-4.061c-8.568,-14.341 -13.208,-32.484 -13.208,-53.574l-0,-0.629c0.05,-12.596 1.873,-25.621 4.922,-38.79l-0.15,-0.071c0.083,-0.301 0.15,-0.601 0.216,-0.901l3.861,1.916c-3.579,14.441 -5.518,28.753 -5.584,42.55l-0,0.687c-0,18.572 3.463,35.029 9.943,48.812Zm11.335,-10.752c-2.966,-10.079 -4.557,-21.289 -4.557,-33.499l-0,-0.601c0.066,-12.425 1.823,-25.279 4.806,-38.261l-0.149,-0.072c0.066,-0.3 0.132,-0.6 0.215,-0.9l1.823,0.915c-3.513,14.326 -5.419,28.509 -5.485,42.192l-0,0.687c-0,10.581 1.176,20.432 3.347,29.539Zm-24.129,-0.329c-6.248,-13.139 -9.612,-28.938 -9.612,-46.853l0,-0.63c0.067,-12.653 1.889,-25.75 4.972,-38.976l-0.149,-0.071c0.082,-0.3 0.149,-0.601 0.215,-0.915l2.95,1.472c-3.613,14.513 -5.568,28.896 -5.634,42.765l-0,0.715c-0,15.814 2.518,30.097 7.258,42.493Zm55.766,-2.115c-0.381,-4.018 -0.564,-8.15 -0.564,-12.411l0,-0.629c0.05,-12.682 1.889,-25.793 4.988,-39.062l-0.149,-0.072c0.067,-0.285 0.133,-0.586 0.199,-0.872l2.585,1.273c-3.53,14.355 -5.435,28.539 -5.502,42.25l0,0.672c0,1.101 0.017,2.202 0.034,3.274c-0.547,1.859 -1.078,3.718 -1.591,5.577Zm-71.228,-0.101c-8.717,-14.398 -13.457,-32.684 -13.457,-53.945c0,-0.129 0,-0.258 0.017,-0.386l0,-0.258c0.05,-12.725 1.906,-25.908 5.021,-39.219l-0.149,-0.071c0.083,-0.315 0.149,-0.629 0.232,-0.93l3.514,1.744c-3.58,14.456 -5.519,28.768 -5.585,42.565l-0,0.715c-0,19.002 3.629,35.802 10.407,49.785Zm5.834,-3.317c-6.132,-13.054 -9.397,-28.739 -9.397,-46.468l0,-0.615c0.05,-12.525 1.856,-25.493 4.872,-38.575l-0.149,-0.072c0.067,-0.314 0.149,-0.615 0.216,-0.915l3.314,1.644c-3.629,14.584 -5.618,29.025 -5.684,42.965l-0,0.716c-0,15.327 2.37,29.196 6.828,41.32Zm-32.78,-8.993c-9.098,-14.527 -14.087,-33.157 -14.087,-54.933l0,-0.657c0.066,-12.84 1.939,-26.151 5.121,-39.591l-0.132,-0.071c0.066,-0.315 0.149,-0.629 0.215,-0.93l3.48,1.73c-3.613,14.527 -5.568,28.896 -5.634,42.779l-0,0.715c-0,19.56 3.877,36.746 11.037,50.958Zm11.6,-6.005c-4.325,-11.624 -6.612,-24.993 -6.612,-39.806l-0,-0.643c0.066,-12.739 1.922,-25.936 5.055,-39.276l-0.15,-0.072c0.067,-0.3 0.15,-0.614 0.216,-0.929l2.303,1.144c-3.679,14.684 -5.684,29.211 -5.75,43.222l-0,0.73c-0,12.968 1.707,24.892 4.938,35.63Zm-7.441,-0.944c-5.435,-12.568 -8.352,-27.366 -8.352,-44.009l-0,-0.643c0.05,-12.582 1.873,-25.607 4.922,-38.762l-0.149,-0.071c0.066,-0.315 0.149,-0.629 0.215,-0.93l3.116,1.545c-3.679,14.712 -5.685,29.253 -5.751,43.294l0,0.714c0,14.313 2.105,27.309 5.999,38.862Zm-22.074,-0.257l-1.608,-0.801c-9.147,-14.541 -14.102,-33.228 -14.102,-55.047l-0,-0.686c0.066,-13.297 2.055,-27.08 5.452,-40.992l-0.133,-0.071c0.083,-0.315 0.166,-0.629 0.232,-0.944l4.525,2.245c-3.762,14.841 -5.801,29.525 -5.867,43.68l-0,0.743c-0,19.988 4.027,37.489 11.501,51.873Zm126.131,-11.21c0.796,-5.59 1.857,-11.238 3.166,-16.9l-0.15,-0.071c0.067,-0.286 0.133,-0.586 0.199,-0.873l1.658,0.815c-0.829,3.375 -1.575,6.735 -2.221,10.081c-0.912,2.316 -1.79,4.632 -2.652,6.948Zm-147.791,-0.686c-8.916,-14.469 -13.788,-32.928 -13.788,-54.46l0,-0.672c0.066,-13.097 2.005,-26.681 5.32,-40.392l-0.149,-0.072c0.083,-0.314 0.165,-0.643 0.232,-0.957l4.574,2.287c-3.911,15.17 -6.049,30.211 -6.132,44.695l-0,0.758c-0,18.573 3.463,35.03 9.943,48.813Zm23.599,-0.186c-4.325,-11.61 -6.612,-24.993 -6.612,-39.791l-0,-0.658c0.066,-12.868 1.955,-26.207 5.137,-39.662l-0.132,-0.071c0.066,-0.315 0.149,-0.63 0.215,-0.944l2.287,1.144c-3.745,14.812 -5.784,29.482 -5.85,43.623l0,0.714c0,12.983 1.724,24.922 4.955,35.645Zm-18.528,-5.09c-5.303,-12.468 -8.17,-27.094 -8.17,-43.537l0,-0.672c0.067,-13.197 2.039,-26.88 5.386,-40.692l-0.149,-0.071c0.083,-0.315 0.166,-0.629 0.232,-0.944l2.966,1.473c-3.977,15.27 -6.148,30.426 -6.214,44.995l-0,0.772c-0,14.227 2.088,27.181 5.949,38.676Zm-16.207,-1.43c-8.85,-14.455 -13.689,-32.856 -13.689,-54.289l-0,-0.643c0.066,-12.811 1.939,-26.08 5.104,-39.476l-0.149,-0.086c0.066,-0.315 0.149,-0.644 0.232,-0.958l5.071,2.531c-3.878,15.084 -5.982,30.025 -6.049,44.409l0,0.758c0,18.101 3.315,34.171 9.48,47.754Zm-12.745,-10.552c-1.458,-1.744 -2.833,-3.56 -4.126,-5.461c-5.336,-12.468 -8.187,-27.152 -8.187,-43.637l0,-0.644c0.067,-12.897 1.956,-26.265 5.171,-39.748l-0.149,-0.071c0.066,-0.329 0.149,-0.644 0.232,-0.973l5.104,2.546c-3.729,14.783 -5.751,29.41 -5.817,43.522l0,0.729c0,16.343 2.701,31.055 7.772,43.737Zm-19.008,-55.475c-0.066,-1.644 -0.099,-3.303 -0.099,-4.99c-0,-11.081 1.442,-22.534 3.911,-34.115l1.939,0.958c-3.265,12.911 -5.254,25.708 -5.751,38.147Z" style="fill:#586f8a;fill-rule:nonzero;"/><path d="M617.162,1217.52l-1.144,0.257l1.144,-0.257Zm-38.282,14.169c-83.922,41.807 -152.216,143.436 -152.216,226.535c-0,8.307 0.762,16.156 2.105,23.577c-1.989,-8.55 -3.066,-17.801 -3.066,-27.752c-0,-81.212 66.753,-180.553 148.802,-221.402c13.954,-6.949 27.526,-11.796 40.436,-14.613c-11.717,3.003 -23.814,7.564 -36.061,13.655Zm-196.712,-93.136c22.687,-11.31 44.363,-17.086 63.836,-17.487c-18.064,1.816 -37.47,7.578 -57.257,17.429c-83.939,41.822 -152.216,143.436 -152.216,226.536c-0,17.872 3.231,33.757 9.264,47.211c-8.088,-14.126 -12.43,-31.827 -12.43,-52.258c0,-81.226 66.753,-180.554 148.803,-221.431Zm34.569,311.936c0,-81.212 66.753,-180.553 148.802,-221.417c12.247,-6.105 24.212,-10.58 35.68,-13.511c-9.86,2.945 -19.953,6.891 -30.144,11.967c-83.922,41.807 -152.217,143.422 -152.217,226.521c0,16.671 2.834,31.584 8.088,44.452c-6.629,-13.383 -10.209,-29.568 -10.209,-48.012Zm43.602,-324.361c-18.893,1.458 -39.359,7.334 -60.224,17.729c-83.938,41.807 -152.216,143.436 -152.216,226.535c0,21.233 4.557,39.691 12.943,54.561c-11.269,-15.142 -17.484,-35.587 -17.484,-59.922c0,-81.212 66.77,-180.554 148.803,-221.417c24.394,-12.153 47.612,-17.944 68.178,-17.486Zm-53.031,318.613c-0,-81.226 66.753,-180.553 148.802,-221.416c25.786,-12.854 50.28,-18.616 71.691,-17.358c-20.4,0.643 -42.789,6.577 -65.692,17.987c-83.922,41.821 -152.216,143.436 -152.216,226.535c-0,14.226 2.088,27.18 5.949,38.69c-5.551,-12.654 -8.534,-27.609 -8.534,-44.438Zm3.844,-294.35c-83.938,41.821 -152.216,143.436 -152.216,226.536c0,18.101 3.315,34.171 9.48,47.754c-8.85,-14.455 -13.689,-32.856 -13.689,-54.289c-0,-81.226 66.769,-180.553 148.802,-221.43c28.803,-14.341 55.981,-19.86 79.066,-16.629c-21.892,-0.415 -46.369,5.576 -71.443,18.058Zm-12.578,289.975c-0,-81.197 66.753,-180.539 148.802,-221.402c17.65,-8.808 34.719,-14.298 50.595,-16.486c-14.567,2.788 -29.813,8.036 -45.275,15.728c-83.939,41.807 -152.233,143.436 -152.233,226.535c0,13.683 1.939,26.179 5.519,37.36c-4.806,-12.067 -7.408,-26.079 -7.408,-41.735Zm23.267,-284.313c-83.938,41.807 -152.232,143.422 -152.232,226.521c-0,18.573 3.463,35.03 9.943,48.813c-8.916,-14.469 -13.788,-32.928 -13.788,-54.46c0,-81.213 66.753,-180.54 148.802,-221.417c25.422,-12.668 49.584,-18.43 70.797,-17.387c-19.821,0.987 -41.431,6.921 -63.522,17.93Zm116.122,58.35c19.705,-9.823 38.647,-15.47 56.064,-17.057c-15.992,2.487 -32.879,7.935 -50.081,16.499c-83.922,41.821 -152.216,143.436 -152.216,226.521c-0,16.414 2.734,31.126 7.822,43.852c-6.745,-13.455 -10.408,-29.769 -10.408,-48.413c0,-81.212 66.77,-180.539 148.819,-221.402Zm-156.856,217.442c-0,-81.212 66.753,-180.554 148.802,-221.417c13.059,-6.506 25.77,-11.138 37.934,-14.026c-10.872,3.002 -22.025,7.263 -33.31,12.882c-83.922,41.807 -152.216,143.436 -152.216,226.521c-0,10.581 1.176,20.432 3.347,29.539c-2.966,-10.079 -4.557,-21.289 -4.557,-33.499Zm119.618,-235.086c18.114,-9.036 35.598,-14.541 51.822,-16.614c-14.783,2.745 -30.294,8.007 -46.055,15.856c-83.921,41.807 -152.215,143.436 -152.215,226.521c-0,15.814 2.518,30.097 7.258,42.493c-6.248,-13.139 -9.612,-28.938 -9.612,-46.853c0,-81.213 66.753,-180.54 148.802,-221.403Zm-158.215,216.255c0,-81.212 66.753,-180.553 148.802,-221.416c22.969,-11.453 44.894,-17.258 64.549,-17.515c-18.428,1.658 -38.298,7.463 -58.566,17.557c-83.922,41.808 -152.216,143.437 -152.216,226.522c-0,15.327 2.37,29.196 6.828,41.32c-6.132,-13.054 -9.397,-28.739 -9.397,-46.468Zm189.818,-242.091c-14.318,2.831 -29.266,8.007 -44.446,15.556c-83.922,41.821 -152.216,143.436 -152.216,226.535c-0,19.002 3.629,35.802 10.407,49.785c-8.717,-14.398 -13.457,-32.684 -13.457,-53.945c0,-81.226 66.753,-180.554 148.803,-221.417c17.782,-8.865 34.934,-14.355 50.909,-16.514Zm-208.213,233.755c-0,-81.197 66.753,-180.538 148.802,-221.416c15.843,-7.893 31.206,-13.068 45.673,-15.642c-13.142,2.974 -26.764,7.821 -40.585,14.698c-83.939,41.807 -152.216,143.436 -152.216,226.536c-0,12.968 1.707,24.892 4.938,35.63c-4.325,-11.624 -6.612,-24.993 -6.612,-39.806Zm-9.181,-5.147c-0,-81.226 66.736,-180.553 148.785,-221.416c22.837,-11.381 44.646,-17.172 64.218,-17.501c-18.412,1.673 -38.232,7.478 -58.434,17.544c-83.938,41.807 -152.216,143.435 -152.216,226.52c0,14.313 2.105,27.309 5.999,38.862c-5.435,-12.568 -8.352,-27.366 -8.352,-44.009Zm-9.894,-3.975c0,-81.211 66.753,-180.538 148.802,-221.402c16.573,-8.25 32.582,-13.54 47.613,-15.985c-13.308,2.96 -27.129,7.85 -41.166,14.827c-83.922,41.821 -152.199,143.436 -152.199,226.535c-0,19.56 3.877,36.746 11.037,50.958c-9.098,-14.527 -14.087,-33.157 -14.087,-54.933Zm-8.501,-4.146c-0,-81.226 66.753,-180.553 148.802,-221.417c15.843,-7.906 31.189,-13.068 45.64,-15.641c-13.125,2.959 -26.748,7.807 -40.552,14.684c-83.939,41.821 -152.233,143.435 -152.233,226.52c0,12.983 1.724,24.922 4.955,35.645c-4.325,-11.61 -6.612,-24.993 -6.612,-39.791Zm223.493,-185.543c20.152,-10.052 39.525,-15.756 57.257,-17.172c-16.208,2.431 -33.343,7.935 -50.794,16.629c-83.938,41.807 -152.216,143.436 -152.216,226.521c0,18.358 3.398,34.629 9.712,48.312c-8.287,-14.227 -12.761,-32.142 -12.761,-52.873c-0,-81.212 66.753,-180.554 148.802,-221.417Zm49.584,-22.09c-16.837,2.244 -34.768,7.892 -53.014,16.985c-83.922,41.808 -152.216,143.437 -152.216,226.522c-0,18.572 3.463,35.029 9.943,48.812c-8.568,-14.341 -13.208,-32.484 -13.208,-53.574c-0,-81.197 66.753,-180.539 148.802,-221.402c21.08,-10.509 41.298,-16.271 59.693,-17.343Zm-284.993,242.334c-5.303,-12.468 -8.17,-27.094 -8.17,-43.537c0,-81.212 66.753,-180.539 148.802,-221.416c20.898,-10.409 40.934,-16.171 59.196,-17.329c-17.003,2.201 -35.133,7.892 -53.561,17.071c-83.938,41.821 -152.216,143.436 -152.216,226.535c-0,14.227 2.088,27.181 5.949,38.676Zm0.879,-38.676c-0,-81.211 66.753,-180.553 148.802,-221.416c17.981,-8.951 35.299,-14.456 51.423,-16.557c-14.119,2.845 -28.852,7.964 -43.8,15.413c-83.938,41.821 -152.216,143.436 -152.216,226.535c-0,23.491 5.568,43.566 15.76,59.15c-12.876,-15.398 -19.969,-37.031 -19.969,-63.125Zm418.913,-154.831c-5.37,-4.561 -11.319,-8.278 -17.733,-11.21c-4.507,-2.702 -9.264,-4.975 -14.318,-6.748c-4.276,-2.974 -8.883,-5.448 -13.722,-7.506c-3.099,-1.802 -6.364,-3.375 -9.711,-4.747c-2.668,-1.545 -5.453,-2.903 -8.319,-4.132c-3.365,-1.916 -6.928,-3.532 -10.59,-4.962c-3.016,-1.673 -6.182,-3.088 -9.446,-4.375c-3,-1.716 -6.149,-3.174 -9.38,-4.49c-2.005,-1.129 -4.077,-2.159 -6.182,-3.116c-5.253,-3.346 -10.904,-6.106 -16.953,-8.136l-4.359,-2.03c-1.74,-0.987 -3.529,-1.888 -5.336,-2.746c-5.784,-3.788 -12.064,-6.791 -18.809,-8.978l-3.431,-1.559c-5.502,-3.16 -11.468,-5.59 -17.749,-7.392l-0.298,-0.143c-3.198,-1.973 -6.513,-3.746 -10.009,-5.233c-2.321,-1.473 -4.74,-2.817 -7.243,-4.046c-5.386,-3.875 -11.302,-6.992 -17.616,-9.394c-2.867,-1.659 -5.866,-3.102 -8.949,-4.404c-29.482,-17.686 -71.575,-15.699 -115.508,6.177c-83.939,41.821 -152.233,143.45 -152.233,226.55c0,42.907 18.445,74.534 50.131,87.845c4.077,2.46 8.402,4.561 13.026,6.277c1.508,0.858 3.032,1.702 4.624,2.474c4.192,2.974 8.717,5.547 13.572,7.678c2.934,1.887 6.066,3.531 9.297,5.033c6.463,4.117 13.689,7.292 21.561,9.479l1.508,0.672c4.408,2.488 9.098,4.561 14.07,6.205l0.563,0.244c4.027,2.659 8.352,4.932 12.943,6.834c3.961,2.23 8.153,4.146 12.595,5.705l2.668,1.229c4.358,2.817 9.032,5.247 14.053,7.206c3.099,1.702 6.331,3.246 9.712,4.547c3.331,1.83 6.794,3.489 10.44,4.861c2.254,1.23 4.591,2.359 6.994,3.375c3.099,1.758 6.297,3.359 9.678,4.703c2.486,1.387 5.038,2.66 7.706,3.79l3.927,2.216c6.066,4.26 12.811,7.663 20.219,10.137l0.348,0.157c8.037,4.961 17.169,8.536 27.294,10.538l0.762,0.071c1.558,0 2.983,-0.929 3.331,-2.302c0.431,-1.572 -0.729,-3.16 -2.568,-3.517c-1.79,-0.358 -3.513,-0.815 -5.237,-1.273c0.016,-1.358 -0.994,-2.587 -2.585,-2.902c-2.238,-0.429 -4.392,-0.972 -6.513,-1.573l-2.436,-1.987c-2.47,-0.486 -4.856,-1.087 -7.193,-1.773l0.332,-0.443c0.431,-1.587 -0.73,-3.175 -2.569,-3.532c-2.088,-0.415 -4.093,-0.929 -6.082,-1.473l-0.05,-0.057c-0.033,-1.33 -1.027,-2.531 -2.602,-2.845l-0.895,-0.214c-16.456,-15.528 -25.637,-39.448 -25.637,-69.145c0,-81.226 66.753,-180.553 148.802,-221.417c33.493,-16.685 64.798,-21.432 90.004,-14.326l1.077,0.829l2.702,0.758c2.32,1.544 4.59,3.174 6.728,5.004l4.475,0.1c1.524,1.101 3.049,2.231 4.491,3.46l3.165,0.586c1.591,1.13 3.149,2.303 4.64,3.575l4.839,-0.014l-0.016,-4.175Z" style="fill:#bad5e2;fill-rule:nonzero;"/><path d="M404.988,1510.65c-2.718,-1.129 -5.337,-2.402 -7.856,-3.789c-5.021,-1.959 -9.695,-4.389 -14.053,-7.206l-2.668,-1.229c-4.442,-1.559 -8.634,-3.475 -12.595,-5.705c-4.591,-1.902 -8.916,-4.175 -12.943,-6.834l-0.563,-0.244c-4.972,-1.644 -9.662,-3.717 -14.07,-6.205l-1.508,-0.672c-7.872,-2.187 -15.098,-5.362 -21.561,-9.479c-3.231,-1.502 -6.363,-3.146 -9.297,-5.033c-4.855,-2.131 -9.38,-4.704 -13.572,-7.678c-1.592,-0.772 -3.116,-1.616 -4.624,-2.474c-4.624,-1.716 -8.949,-3.817 -13.026,-6.277c-31.686,-13.311 -50.131,-44.938 -50.131,-87.845c0,42.907 18.445,74.534 50.131,87.845c4.077,2.46 8.402,4.561 13.026,6.277c1.508,0.858 3.032,1.702 4.624,2.474c4.192,2.974 8.717,5.547 13.572,7.678c2.934,1.887 6.066,3.531 9.297,5.033c6.463,4.117 13.689,7.292 21.561,9.479l1.508,0.672c4.408,2.488 9.098,4.561 14.07,6.205l0.563,0.244c4.027,2.659 8.352,4.932 12.943,6.834c3.961,2.23 8.153,4.146 12.595,5.705l2.668,1.229c4.358,2.817 9.032,5.247 14.053,7.206c2.519,1.387 5.138,2.66 7.856,3.789Zm-168.457,-145.623l-0,-0.401l-0,0.401Zm-0,-0.601l-0,-0.129l-0,0.129Zm-10.01,-4.446l0,-0.415l0,0.415Zm6.844,-0.387l0,-0.214l0,0.214Zm-6.844,-0.228l0,-0.115l0,0.115Zm6.844,-0.029c0.05,-12.911 1.79,-26.265 4.989,-39.762l0.149,0.071c-3.182,13.469 -5.088,26.809 -5.138,39.691Z" style="fill:#37465b;fill-rule:nonzero;"/><path d="M400.463,1444.74l0,-0.4l0,0.4Zm6.845,-0.386l-0,-0.2l-0,0.2Zm-6.845,-0.214l0,-0.086l0,0.086Zm6.845,-0.015c0.049,-12.396 1.657,-25.221 4.623,-38.189l0.149,0.071c-2.949,12.94 -4.706,25.751 -4.772,38.118Zm-15.578,-3.76l-0,-0.386l-0,0.386Zm6.844,-0.372l-0,-0.2l-0,0.2Zm-0,-0.229c0.05,-12.396 1.657,-25.221 4.624,-38.175l0.149,0.072c-2.967,12.925 -4.723,25.736 -4.773,38.103Zm-6.844,0l-0,-0.071l-0,0.071Zm-9.413,-3.96l-0,-0.386l-0,0.386Zm6.844,-0.372l-0,-0.2l-0,0.2Zm-6.844,-0.229l-0,-0.086l-0,0.086Zm6.844,0c0.05,-12.439 1.657,-25.293 4.64,-38.289l0.149,0.071c-2.966,12.969 -4.739,25.808 -4.789,38.218Zm-14.882,-3.359l0,-0.401l0,0.401Zm6.828,-0.386l-0,-0.201l-0,0.201Zm-6.828,-0.215l0,-0.086l0,0.086Zm6.828,-0c0.05,-12.454 1.674,-25.322 4.657,-38.333l0.149,0.072c-2.983,12.982 -4.74,25.836 -4.806,38.261Zm-16.721,-3.96l-0,-0.401l-0,0.401Zm6.844,-0.387l-0,-0.2l-0,0.2Zm-6.844,-0.214l-0,-0.086l-0,0.086Zm6.844,-0.014c0.05,-12.554 1.69,-25.522 4.723,-38.633l0.149,0.071c-3.016,13.083 -4.806,26.037 -4.872,38.562Zm-16.953,-4.147l-0,-0.4l-0,0.4Zm6.844,-0.386l-0,-0.186l-0,0.186Zm-6.844,-0.214l-0,-0.115l-0,0.115Zm6.844,-0.029c0.05,-12.625 1.707,-25.679 4.772,-38.861l0.15,0.071c-3.049,13.169 -4.872,26.194 -4.922,38.79Zm-16.042,-3.731l-0,-0.401l-0,0.401Zm6.844,-0.387l0,-0.2l0,0.2Zm-6.844,-0.214l-0,-0.115l-0,0.115Zm6.844,-0.029c0.05,-12.682 1.724,-25.793 4.823,-39.047l0.149,0.071c-3.083,13.226 -4.905,26.323 -4.972,38.976Zm-16.257,-4.518l-0,-0.4l-0,0.4Zm6.844,-0.386l0,-0.2l0,0.2Zm-6.844,-0.214l-0,-0.115l-0,0.115Zm6.844,-0.015c0.05,-12.553 1.691,-25.536 4.723,-38.647l0.149,0.072c-3.016,13.082 -4.822,26.05 -4.872,38.575Zm-16.721,-3.545l-0,-0.415l-0,0.415Zm6.844,-0.386l0,-0.201l0,0.201Zm-6.844,-0.215l-0,-0.129l-0,0.129Zm6.844,-0.043c0.05,-12.754 1.74,-25.951 4.872,-39.29l0.149,0.071c-3.115,13.311 -4.971,26.494 -5.021,39.219Zm-15.346,-3.532l0,-0.4l0,0.4Zm6.828,-0.385l-0,-0.201l-0,0.201Zm-6.828,-0.215l0,-0.114l0,0.114Zm6.828,-0.043c0.066,-12.782 1.757,-25.979 4.905,-39.348l0.15,0.072c-3.133,13.34 -4.989,26.537 -5.055,39.276Zm-16.025,-4.504l-0,-0.4l-0,0.4Zm6.844,-0.386l-0,-0.2l-0,0.2Zm-6.844,-0.214l-0,-0.115l-0,0.115Zm6.844,-0.043c0.05,-12.611 1.707,-25.651 4.773,-38.833l0.149,0.071c-3.049,13.155 -4.872,26.18 -4.922,38.762Zm-16.738,-3.332l0,-0.4l0,0.4Zm6.844,-0.385l0,-0.201l0,0.201Zm-6.844,-0.215l0,-0.114l0,0.114Zm6.844,-0.057c0.066,-12.868 1.79,-26.194 4.989,-39.662l0.132,0.071c-3.182,13.44 -5.055,26.751 -5.121,39.591Zm-15.329,-3.489l-0,-0.415l-0,0.415Zm6.828,-0.386l-0,-0.215l-0,0.215Zm-6.828,-0.215l-0,-0.142l-0,0.142Zm6.828,-0.057c0.066,-12.896 1.79,-26.236 5.005,-39.733l0.132,0.071c-3.182,13.455 -5.071,26.794 -5.137,39.662Zm-17.865,-3.317l-0,-0.414l-0,0.414Zm6.828,-0.386l-0,-0.2l-0,0.2Zm-6.828,-0.214l-0,-0.172l-0,0.172Zm6.828,-0.086c0.066,-13.311 1.922,-27.109 5.319,-41.063l0.133,0.071c-3.397,13.912 -5.386,27.695 -5.452,40.992Zm-15.893,-4.175l-0,-0.401l-0,0.401Zm6.844,-0.386l0,-0.214l0,0.214Zm-6.844,-0.214l-0,-0.158l-0,0.158Zm6.844,-0.072c0.05,-13.226 1.873,-26.908 5.237,-40.763l0.149,0.071c-3.347,13.812 -5.319,27.495 -5.386,40.692Zm-17.517,-4.975l0,-0.401l0,0.401Zm6.828,-0.387l0,-0.2l0,0.2Zm-6.828,-0.214l0,-0.157l0,0.157Zm6.828,-0.071c0.066,-13.126 1.856,-26.723 5.171,-40.464l0.149,0.072c-3.315,13.711 -5.254,27.295 -5.32,40.392Zm-17.865,-5.863l0,-0.415l0,0.415Zm6.828,-0.386l-0,-0.2l-0,0.2Zm-6.828,-0.228l0,-0.115l0,0.115Zm6.828,-0.029c0.066,-12.84 1.773,-26.122 4.955,-39.562l0.149,0.086c-3.165,13.396 -5.038,26.665 -5.104,39.476Zm-11.369,-5.104l0,-0.201l0,0.201Zm0,-0.258c0.067,-12.925 1.807,-26.308 5.022,-39.819l0.149,0.071c-3.215,13.483 -5.104,26.851 -5.171,39.748Z" style="fill:#4b617c;fill-rule:nonzero;"/><path d="M407.54,1511.78c-0.232,-0.129 -0.465,-0.257 -0.696,-0.372c-0.63,-0.243 -1.243,-0.5 -1.856,-0.758c-2.718,-1.129 -5.337,-2.402 -7.856,-3.789c-5.021,-1.959 -9.695,-4.389 -14.053,-7.206l-2.668,-1.229c-4.442,-1.559 -8.634,-3.475 -12.595,-5.705c-4.591,-1.902 -8.916,-4.175 -12.943,-6.834l-0.563,-0.244c-4.972,-1.644 -9.662,-3.717 -14.07,-6.205l-1.508,-0.672c-7.872,-2.187 -15.098,-5.362 -21.561,-9.479c-3.231,-1.502 -6.363,-3.146 -9.297,-5.033c-4.855,-2.131 -9.38,-4.704 -13.572,-7.678c-1.592,-0.772 -3.116,-1.616 -4.624,-2.474c-4.624,-1.716 -8.949,-3.817 -13.026,-6.277c-31.686,-13.311 -50.131,-44.938 -50.131,-87.845l0,-0.73c0.066,-13.84 2.171,-28.195 5.767,-42.693l6.066,3.017c-3.199,13.497 -4.939,26.851 -4.989,39.762l0,0.644c0,20.431 4.342,38.132 12.43,52.258c-6.033,-13.454 -9.264,-29.339 -9.264,-47.211l-0,-0.73c0.066,-13.868 2.154,-28.252 5.767,-42.765l6.082,3.032c-3.215,13.511 -4.955,26.894 -5.022,39.819l0,0.644c0,24.335 6.215,44.78 17.484,59.922c-8.386,-14.87 -12.943,-33.328 -12.943,-54.561l0,-0.729c0.066,-13.783 2.138,-28.067 5.701,-42.493l6.082,3.017c-3.182,13.44 -4.889,26.722 -4.955,39.562l-0,0.643c-0,21.433 4.839,39.834 13.689,54.289c-6.165,-13.583 -9.48,-29.653 -9.48,-47.754l0,-0.758c0.067,-14.055 2.221,-28.668 5.917,-43.409l6.082,3.031c-3.315,13.741 -5.105,27.338 -5.171,40.464l0,0.672c0,21.532 4.872,39.991 13.788,54.46c-6.48,-13.783 -9.943,-30.24 -9.943,-48.813l-0,-0.758c0.083,-14.155 2.254,-28.867 5.999,-43.708l6.082,3.031c-3.364,13.855 -5.187,27.537 -5.237,40.763l0,0.672c0,16.443 2.867,31.069 8.17,43.537c-3.861,-11.495 -5.949,-24.449 -5.949,-38.676l-0,-0.772c0.066,-14.255 2.254,-29.067 6.065,-44.008l6.082,3.031c-3.397,13.954 -5.253,27.752 -5.319,41.063l-0,0.686c-0,26.094 7.093,47.727 19.969,63.125c-10.192,-15.584 -15.76,-35.659 -15.76,-59.15l-0,-0.743c0.066,-13.841 2.154,-28.196 5.75,-42.68l6.083,3.032c-3.215,13.497 -4.939,26.837 -5.005,39.733l-0,0.658c-0,14.798 2.287,28.181 6.612,39.791c-3.231,-10.723 -4.955,-22.662 -4.955,-35.645l0,-0.714c0.083,-13.812 2.171,-28.153 5.751,-42.622l6.082,3.017c-3.199,13.468 -4.923,26.794 -4.989,39.662l0,0.657c0,21.776 4.989,40.406 14.087,54.933c-7.16,-14.212 -11.037,-31.398 -11.037,-50.958l-0,-0.715c0.066,-13.554 2.088,-27.609 5.535,-41.778l6.082,3.017c-3.066,13.182 -4.723,26.222 -4.773,38.833l-0,0.643c-0,16.643 2.917,31.441 8.352,44.009c-3.894,-11.553 -5.999,-24.549 -5.999,-38.862l0,-0.714c0.066,-13.712 2.121,-27.938 5.651,-42.293l6.082,3.016c-3.148,13.369 -4.839,26.566 -4.905,39.348l-0,0.643c-0,14.813 2.287,28.182 6.612,39.806c-3.231,-10.738 -4.938,-22.662 -4.938,-35.63l-0,-0.73c0.066,-13.697 2.121,-27.895 5.651,-42.235l6.065,3.031c-3.132,13.339 -4.822,26.536 -4.872,39.29l0,0.258c-0.017,0.128 -0.017,0.257 -0.017,0.386c0,21.261 4.74,39.547 13.457,53.945c-6.778,-13.983 -10.407,-30.783 -10.407,-49.785l-0,-0.715c0.066,-13.483 2.071,-27.466 5.502,-41.564l6.065,3.017c-3.032,13.111 -4.673,26.094 -4.723,38.647l0,0.615c0,17.729 3.265,33.414 9.397,46.468c-4.458,-12.124 -6.828,-25.993 -6.828,-41.32l-0,-0.716c0.083,-13.611 2.121,-27.737 5.601,-41.978l6.066,3.017c-3.099,13.254 -4.773,26.365 -4.823,39.047l0,0.63c0,17.915 3.364,33.714 9.612,46.853c-4.74,-12.396 -7.258,-26.679 -7.258,-42.493l-0,-0.715c0.066,-13.554 2.087,-27.609 5.551,-41.792l6.065,3.017c-3.065,13.182 -4.722,26.236 -4.772,38.861l-0,0.629c-0,21.09 4.64,39.233 13.208,53.574c-6.48,-13.783 -9.943,-30.24 -9.943,-48.812l-0,-0.687c0.066,-13.497 2.088,-27.466 5.502,-41.578l6.065,3.017c-3.033,13.111 -4.673,26.079 -4.723,38.633l-0,0.615c-0,20.731 4.474,38.646 12.761,52.873c-6.314,-13.683 -9.712,-29.954 -9.712,-48.312l0,-0.687c0.066,-13.383 2.055,-27.251 5.419,-41.264l6.066,3.017c-2.983,13.011 -4.607,25.879 -4.657,38.333l-0,0.601c-0,12.21 1.591,23.42 4.557,33.499c-2.171,-9.107 -3.347,-18.958 -3.347,-29.539l-0,-0.687c0.066,-13.368 2.055,-27.237 5.419,-41.235l6.065,3.032c-2.983,12.996 -4.59,25.85 -4.64,38.289l-0,0.229c-0.017,0.129 -0.017,0.258 -0.017,0.372c0,18.644 3.663,34.958 10.408,48.413c-5.088,-12.726 -7.822,-27.438 -7.822,-43.852l-0,-0.672c0.066,-13.34 2.038,-27.166 5.402,-41.135l6.066,3.031c-2.967,12.954 -4.574,25.779 -4.624,38.175l-0,0.601c-0,15.656 2.602,29.668 7.408,41.735c-3.58,-11.181 -5.519,-23.677 -5.519,-37.36l0,-0.686c0.067,-13.34 2.055,-27.181 5.386,-41.135l6.082,3.017c-2.966,12.968 -4.574,25.793 -4.623,38.189l-0,0.615c-0,13.368 1.889,25.551 5.452,36.331c-2.287,10.309 -4.044,20.56 -5.22,30.712Z" style="fill:#9fbbca;fill-rule:nonzero;"/><path d="M409.893,1450.49l-0,-0.401l-0,0.401Zm6.844,-0.386l0,-0.2l0,0.2Zm-6.844,-0.229l-0,-0.1l-0,0.1Zm6.844,-0.014c0.05,-12.711 1.724,-25.837 4.839,-39.134l0.149,0.072c-3.099,13.269 -4.938,26.38 -4.988,39.062Z" style="fill:#4b617c;fill-rule:nonzero;"/><path d="M413.108,1479.51c-2.105,-8.95 -3.215,-18.644 -3.215,-29.024l-0,-0.715c0.066,-13.64 2.121,-27.795 5.601,-42.064l6.082,3.016c-3.115,13.297 -4.789,26.423 -4.839,39.134l0,0.629c0,4.261 0.183,8.393 0.564,12.411c-1.558,5.547 -2.95,11.08 -4.193,16.613Z" style="fill:#9fbbca;fill-rule:nonzero;"/><path d="M418.858,1454.05l0,-0.386l0,0.386Zm0,-0.6l0,-0.072l0,0.072Zm8.32,-20.947c0.762,-5.748 1.839,-11.553 3.181,-17.4l0.15,0.071c-1.309,5.662 -2.37,11.31 -3.166,16.9c-0.066,0.143 -0.116,0.286 -0.165,0.429Z" style="fill:#4b617c;fill-rule:nonzero;"/><path d="M418.892,1457.32c-0.017,-1.072 -0.034,-2.173 -0.034,-3.274l0,-0.672c0.067,-13.397 2.055,-27.28 5.42,-41.292l6.081,3.017c-1.342,5.847 -2.419,11.652 -3.181,17.4c-3.066,8.264 -5.834,16.557 -8.286,24.821Zm11.385,-32.913c0.563,-2.803 1.193,-5.605 1.872,-8.422l1.293,0.643c-1.077,2.603 -2.138,5.176 -3.165,7.779Z" style="fill:#9fbbca;fill-rule:nonzero;"/><path d="M540.499,978.143l-102.765,-51.186c-4.971,-2.474 -11.054,-2.474 -16.025,-0c-4.955,2.459 -8.004,7.02 -8.004,11.967l-0,72.362c10.987,-2.932 21.692,-4.976 32.05,-6.163l0,-42.25l78.718,39.219c1.492,0.743 2.436,1.43 3,1.916c-0.564,0.514 -1.575,1.258 -3.182,2.059l-105.184,52.387c-10.523,5.262 -29.614,5.276 -40.022,0.086l-102.764,-51.172c-4.972,-2.474 -11.071,-2.474 -16.042,-0c-4.955,2.459 -8.005,7.02 -8.005,11.967l0,89.419c10.275,-10.009 21.031,-19.374 32.051,-28.296l-0,-37.174l78.718,39.219c20.152,10.037 51.821,10.009 72.089,-0.1l105.201,-52.387c12.495,-6.206 19.655,-15.7 19.655,-26.022c-0,-10.267 -7.093,-19.689 -19.489,-25.851Z" style="fill:#4d637c;fill-rule:nonzero;"/><path d="M398.939,1070.44c-10.839,-0 -21.66,-2.045 -29.88,-6.134l-102.765,-51.201c-1.922,-0.944 -2.568,-3.059 -1.458,-4.718c1.11,-1.658 3.58,-2.202 5.469,-1.273l102.764,51.187c14.054,7.02 37.901,6.977 52.054,-0.086l105.184,-52.387c6.214,-3.103 9.645,-7.021 9.645,-11.052c-0,-3.975 -3.364,-7.836 -9.48,-10.896l-102.747,-51.171c-1.923,-0.959 -2.586,-3.074 -1.475,-4.733c1.11,-1.659 3.596,-2.188 5.468,-1.258l102.782,51.172c8.683,4.346 13.473,10.337 13.473,16.9c-0,6.591 -4.839,12.639 -13.656,17.043l-105.184,52.373c-8.336,4.16 -19.273,6.234 -30.194,6.234Z" style="fill:#627996;fill-rule:nonzero;"/><path d="M895.344,1298.77c-0,133.857 -109.609,296.981 -244.839,364.338c-135.213,67.357 -244.822,13.44 -244.822,-120.431c0,-133.871 109.609,-296.98 244.822,-364.337c135.23,-67.358 244.839,-13.426 244.839,120.43Z" style="fill:#627996;fill-rule:nonzero;"/><path d="M915.379,1307.14c0,133.856 -109.608,296.98 -244.838,364.337c-135.213,67.358 -244.822,13.44 -244.822,-120.43c0,-133.871 109.609,-296.981 244.822,-364.338c135.23,-67.357 244.838,-13.426 244.838,120.431Z" style="fill:#405066;fill-rule:nonzero;"/><path d="M811.604,1358.84c-0,77.108 -63.157,171.088 -141.063,209.892c-77.906,38.819 -141.063,7.75 -141.063,-69.387c0,-77.123 63.157,-171.103 141.063,-209.893c77.906,-38.818 141.063,-7.749 141.063,69.388Z" style="fill:#39485b;fill-rule:nonzero;"/><path d="M676.49,1316c0,3.246 -2.651,7.221 -5.949,8.851c-3.281,1.644 -5.949,0.328 -5.949,-2.917c-0,-3.26 2.668,-7.235 5.949,-8.879c3.298,-1.63 5.949,-0.315 5.949,2.945Z" style="fill:#7491af;fill-rule:nonzero;"/><path d="M676.49,1528.4c0,3.245 -2.651,7.22 -5.949,8.85c-3.281,1.645 -5.949,0.329 -5.949,-2.931c-0,-3.246 2.668,-7.22 5.949,-8.85c3.298,-1.644 5.949,-0.329 5.949,2.931Z" style="fill:#7491af;fill-rule:nonzero;"/><path d="M765.914,1279.87c23.549,13.126 38.084,39.22 38.084,75.98c-0,76.722 -62.843,170.229 -140.351,208.834c-36.873,18.373 -70.333,20.846 -95.373,10.28c25.604,14.269 61.897,13.182 102.267,-6.934c77.509,-38.619 140.35,-132.113 140.35,-208.835c0,-40.22 -17.367,-67.7 -44.977,-79.325Z" style="fill:#627996;fill-rule:nonzero;"/><path d="M320.486,1616.73l-2.536,-1.601c-10.938,-28.925 -16.523,-66.071 -16.671,-110.394c-0.431,-147.197 30.675,-197.168 32.001,-199.212l3.629,-0.901l1.044,3.131c-0.315,0.501 -31.736,51.272 -31.322,196.953c0.116,43.852 5.651,80.54 16.39,109.007l-1.723,2.902l-0.812,0.115Z" style="fill:#bad5e2;fill-rule:nonzero;"/><path d="M575.682,1494.32c-1.807,0 -3.646,-0.4 -5.32,-1.244l-87.485,-43.565c-5.104,-2.545 -6.861,-8.179 -3.911,-12.597c2.966,-4.403 9.496,-5.919 14.6,-3.374l87.485,43.565c5.104,2.546 6.861,8.179 3.894,12.597c-1.972,2.96 -5.551,4.618 -9.263,4.618Z" style="fill:#627996;fill-rule:nonzero;"/><path d="M575.698,1482.46l-2.005,-0.458l-87.468,-43.565c-1.923,-0.958 -2.569,-3.074 -1.475,-4.733c1.127,-1.658 3.596,-2.202 5.485,-1.272l87.468,43.58c1.923,0.943 2.586,3.059 1.475,4.718l-3.48,1.73Z" style="fill:#738ead;fill-rule:nonzero;"/><path d="M1112.74,2058.9c-59.113,-0 -118.359,-11.281 -163.618,-33.829c-2.005,-1.001 -3.977,-2.016 -5.899,-3.046c12.313,1.559 24.344,3.103 36.044,4.59c50.628,6.463 93.816,11.981 126.115,15.356c12.578,10.165 29.548,13.783 44.082,13.783c5.768,0 11.153,-0.572 15.711,-1.53c5.154,-1.072 9.744,-3.274 13.456,-6.32l9.397,4.69c-24.312,4.204 -49.783,6.306 -75.288,6.306Zm-13.937,-23.378c-31.802,-3.474 -72.786,-8.721 -118.558,-14.569c-16.009,-2.044 -32.631,-4.161 -49.717,-6.32c-49.484,-31.369 -61.731,-72.518 -36.658,-108.563l189.272,94.28c2.237,5.747 4.574,12.196 7.027,19.545c2.038,6.105 5.004,11.281 8.634,15.627Zm163.601,-4.346l-0,-172.818c3.762,1.658 7.458,3.374 11.037,5.161c90.137,44.895 90.584,117.443 1.027,162.066c-3.91,1.945 -7.938,3.818 -12.064,5.591Z" style="fill:#dae3f1;fill-rule:nonzero;"/><path d="M1108.91,1800.94c-0,0 -24.262,22.319 30.841,61.638c24.974,17.83 38.994,45.911 26.366,54.518c-15.213,10.395 -79.696,8.136 -94.262,-22.948c-13.805,-29.468 -13.308,-51.829 -29.118,-61.009c-15.826,-9.164 -5.684,-42.936 22.605,-51.272c-0,0 0.994,5.305 6.794,11.267c12.993,13.354 35.282,17.286 36.774,7.806Z" style="fill:#fff;fill-rule:nonzero;"/><path d="M1108.91,1789.45c-0,0 -24.262,22.305 30.841,61.638c24.974,17.815 38.994,45.911 26.366,54.518c-15.213,10.38 -79.696,8.135 -94.262,-22.962c-13.805,-29.454 -13.308,-51.83 -29.118,-60.995c-15.826,-9.165 -5.684,-42.937 22.605,-51.286c-0,-0 0.994,5.318 6.794,11.266c12.993,13.369 35.282,17.3 36.774,7.821Z" style="fill:#44a8f2;fill-rule:nonzero;"/><path d="M1288.49,1143.58l0.066,-0.715c0.331,-8.192 -0.58,-16.571 -2.884,-24.921c-13.738,-49.871 -71.741,-80.697 -129.545,-68.844c-57.804,11.853 -93.534,61.896 -79.795,111.766c6.761,24.507 71.078,241.949 80.624,291.548c2.055,35.116 -133.142,245.18 -90.568,307.447c4.26,6.205 30.195,17.815 41.199,23.305c21.395,10.652 176.66,-282.84 179.328,-333.769c15.827,-173.418 0.299,-280.166 1.575,-305.817Z" style="fill:#273a49;fill-rule:nonzero;"/><path d="M1262.4,1520.82l-0,-394.163c8.734,-8.836 13.556,-18.344 14.517,-27.867l0,-1.444c3.779,6.406 6.729,13.297 8.75,20.603c1.989,7.178 2.934,14.37 2.95,21.462c0,1.158 -0.033,2.316 -0.066,3.459l-0.066,0.715c-0.05,1.001 -0.083,2.117 -0.083,3.375c-0.017,19.788 5.684,70.46 5.668,148.569c-0,43.122 -1.757,94.594 -7.16,153.873c-0.646,12.268 -10.142,38.619 -24.51,71.418Z" style="fill:#1d2e3e;fill-rule:nonzero;"/><path d="M1116.29,1912.02c-0,-0 14.036,48.255 59.096,90.476c23.516,22.048 11.7,47.169 -10.208,51.73c-22.191,4.632 -63.522,0.186 -75.006,-34.329c-20.003,-60.108 -33.642,-60.98 -33.775,-98.012c0,0 6.347,8.036 20.517,8.364c15.694,0.386 39.359,-7.406 39.376,-18.229Z" style="fill:#fff;fill-rule:nonzero;"/><path d="M1116.29,1899.61c-0,-0 14.036,48.255 59.096,90.491c23.516,22.033 11.7,47.155 -10.208,51.716c-22.191,4.618 -63.522,0.185 -75.006,-34.33c-20.003,-60.094 -33.642,-60.966 -33.775,-98.012c0,0 6.347,8.036 20.517,8.379c15.694,0.372 39.359,-7.42 39.376,-18.244Z" style="fill:#44a8f2;fill-rule:nonzero;"/><path d="M1673.13,871.61l-189.022,-74.306c-1.873,-0.601 -4.028,-1.159 -6.066,-1.516c-20.202,-3.531 -40.536,7.464 -45.441,24.55c-4.889,17.071 7.524,33.771 27.742,37.288c-0,0 211.08,47.598 214.03,49.814c3.58,2.688 24.03,15.342 28.554,16.7c8.9,2.731 -3.264,7.22 7.192,5.047c2.47,-0.5 40.387,22.862 49.005,21.904c35.266,-9.922 14.964,-46.925 9.164,-51.157c-31.355,-22.806 -58.301,-28.253 -95.158,-28.324Z" style="fill:#ffa89c;fill-rule:nonzero;"/><path d="M1217.86,570.197c31.935,-15.699 80.773,14.183 100.875,36.716c22.489,25.136 149.167,173.305 149.167,173.305l212.539,91.506c-4.624,-0.629 -16.257,1.044 -16.042,17.972c0.033,2.031 -3.232,13.469 1.16,15.142l-248.949,-48.27l-201.22,-226.321c-14.318,-20.817 -23.234,-47.44 2.47,-60.05Z" style="fill:#ffa89c;fill-rule:nonzero;"/><path d="M1191.29,599.307c-3.381,-17.615 6.446,-51.272 64.117,-42.822c57.655,8.464 130.921,117.342 130.921,117.342c9.297,10.295 -4.557,33.028 -30.957,50.772c-26.399,17.758 -55.351,23.778 -64.648,13.483c0,0 -89.822,-88.947 -99.433,-138.775Z" style="fill:#44a8f2;fill-rule:nonzero;"/><path d="M1253.06,1132.39c-2.983,-5.605 -1.922,-13.168 -5.17,-18.444c-16.307,-26.78 -18.793,-14.87 -35.299,-22.948c-42.375,-20.746 -90.75,-14.984 -138.097,-14.77c-5.22,0.029 -11.55,-0.272 -18.378,-0.572c-20.748,-0.9 -46.121,-1.801 -59.495,6.306l-0.414,0.314c-11.12,20.16 -15.959,41.407 -17.235,63.669c0.68,8.893 1.143,14.727 1.309,16.099l0,0.086c12.81,110.837 32.399,396.78 31.786,414.695c-0.928,27.638 23.781,314.753 23.781,316.669c-0.017,6.977 5.253,13.926 15.909,19.23c21.379,10.667 34.868,10.609 56.396,-0.114c10.357,-5.162 15.726,-11.853 16.124,-18.602c0.083,-1.144 9.728,-197.239 26.914,-386.456c12.446,-136.988 -6.928,-231.139 51.705,-276.935c22.837,-17.83 40.453,-40.221 47.297,-66.142c2.867,-10.838 4.209,-19.06 4.657,-25.479l1.525,-1.044c-1.16,-1.758 -2.271,-3.588 -3.315,-5.562Z" style="fill:#273a49;fill-rule:nonzero;"/><path d="M945.259,662.489c24.974,-28.066 103.096,-75.607 110.355,-79.21c45.424,-22.533 105.217,-35.044 145.951,-37.26c17.567,-1.673 38.63,0.443 52.518,7.506c28.653,14.527 33.525,41.135 39.309,62.968c9.198,33.486 19.191,79.224 19.191,141.492c-0,45.839 -31.288,298.01 -35.747,333.668l0.083,0.358l0,6.777c-1.707,16.857 -15.544,33.729 -41.662,46.783c-20.832,10.337 -46.519,16.857 -73.332,19.445l-0.15,-0c-44.496,4.303 -92.158,-2.088 -126.545,-19.202c-29.101,-14.527 -42.806,-33.729 -40.95,-52.816c0.099,-1.53 0.497,-3.103 0.845,-4.676l0.132,-0.872l0.083,-0.3l0.233,-1.287l0.231,-0.529c32.283,-104.446 -40.668,-191.777 -54.738,-226.292c-0.961,-1.945 -1.773,-4.318 -2.585,-6.949l-0.961,-2.788l-0.812,-2.774l-0.961,-2.917c-0.796,-2.931 -1.774,-5.976 -2.569,-9.308l-0,-0.285c-0.497,-2.231 -1.144,-4.447 -1.624,-6.678c-1.127,-4.589 -2.254,-9.45 -3.215,-14.583c-0.332,-2.517 -0.812,-5.005 -1.293,-7.507c-0.48,-2.645 -0.961,-5.29 -1.292,-7.921c-1.293,-8.493 -2.254,-17.1 -3.066,-25.993l-0,-0.143c-3.215,-40.592 0.812,-84.1 22.571,-108.707Z" style="fill:#44a8f2;fill-rule:nonzero;"/><path d="M1131.98,802.937l42.392,-21.118l0,-14.627l-42.392,21.104l0,14.641Zm0,18.544l42.392,-21.118l0,-14.64l-42.392,21.117l0,14.641Zm0,3.575l42.392,-21.104l0,14.641l-42.392,21.104l0,-14.641Z" style="fill:#a6e6ff;fill-rule:nonzero;"/><path d="M1262.4,1126.65l-0,-60.609l16.672,7.607c-0.995,8.078 -1.757,14.24 -2.238,18l0.083,0.358l0,6.777c-0.961,9.523 -5.783,19.031 -14.517,27.867Z" style="fill:#3285ce;fill-rule:nonzero;"/><path d="M1312.58,757.985l-0,-0.644l-0,0.644Zm-0,-0.787l-0,-0.6l-0,0.6Zm-0,-0.743c-0.017,-0.215 -0.017,-0.429 -0.017,-0.644c0,0.215 0,0.429 0.017,0.644Zm-0.017,-0.672l0,-0.629l0,0.629Zm0,-0.744l0,-0.658l0,0.658Zm0,-0.715c-0.033,-3.974 -0.099,-7.878 -0.199,-11.724c0.1,3.846 0.166,7.75 0.199,11.724Z" style="fill:#bcc9d9;fill-rule:nonzero;"/><path d="M1312.37,742.6c-0.298,-11.024 -0.895,-21.49 -1.757,-31.441c0.862,9.937 1.459,20.417 1.757,31.441Zm-1.757,-31.455c-0.016,-0.158 -0.032,-0.3 -0.032,-0.443c-0,0.143 0.016,0.285 0.032,0.443Z" style="fill:#3285ce;fill-rule:nonzero;"/><path d="M1287.73,1002.46l-25.323,-16.5l-0,-224.948l-123.413,-61.481c47.181,-22.276 85.114,-41.407 113.751,-56.391c5.668,-2.959 11.767,-4.318 17.749,-4.318c15.976,0 31.007,9.723 33.758,24.778c2.602,14.198 4.822,29.84 6.331,47.098c-0,0.143 0.016,0.285 0.032,0.443l0,0.014c0.862,9.951 1.459,20.417 1.757,31.441c0.1,3.846 0.166,7.75 0.199,11.724l0,1.487c0,0.215 0,0.429 0.017,0.644l-0,1.53c-0,30.897 -14.219,155.589 -24.858,244.479Z" style="fill:#3285ce;fill-rule:nonzero;"/><path d="M1123.54,472.628c-6.098,-12.182 -20.732,-20.232 -36.889,-19.002c-20.152,1.544 -35.051,16.9 -33.261,34.286c-0,0 8.386,108.907 8.236,111.81c-0.364,7.291 4.856,14.727 15.91,20.574c21.842,11.582 57.737,12.468 80.143,1.988c11.667,-5.448 17.318,-12.883 17.003,-20.418c-0.132,-3.531 -51.142,-129.238 -51.142,-129.238Z" style="fill:#ea8c8c;fill-rule:nonzero;"/><path d="M1009.01,455.342c20.103,109.879 145.604,129.353 171.142,123.047c35.498,-8.793 47.132,-73.877 38,-143.464c-9.115,-69.602 -63.339,-121.447 -121.093,-115.813c-57.755,5.634 -100.693,67.043 -88.049,136.23Z" style="fill:#ffa89c;fill-rule:nonzero;"/><path d="M1195.83,337.413c45.243,25.994 75.072,82.642 13.391,97.483c-107.206,25.779 -153.343,4.933 -152.763,72.59c0.116,13.655 0.746,30.483 0.746,30.483c-0,0 -31.786,-10.151 -65.03,-73.476c-16.837,-32.071 -18.395,-62.353 -10.938,-88.018c7.309,-25.222 38.481,-26.079 38.481,-26.079c0,-0 8.038,-43.423 70.101,-43.408c31.918,-0 68.277,8.778 106.012,30.425Z" style="fill:#32425b;fill-rule:nonzero;"/><path d="M1049.66,494.118c-9.197,-9.594 -10.772,-21.561 -3.546,-26.723c7.242,-5.161 20.566,-1.573 29.78,8.021c9.181,9.58 10.772,21.547 3.53,26.708c-7.242,5.176 -20.566,1.588 -29.764,-8.006Z" style="fill:#ffa89c;fill-rule:nonzero;"/><path d="M1130.3,429.749c0,-0 -36.193,11.71 -31.669,41.635c0,0 27.162,-19.531 68.891,-28.009c41.696,-8.479 17.053,-20.546 17.053,-20.546l-54.275,6.92Z" style="fill:#32425b;fill-rule:nonzero;"/><path d="M1651.19,1141.5l0.199,0.143l-0.398,-0.2l0.199,0.057Z" style="fill:#4b77aa;fill-rule:nonzero;"/><path d="M1764.49,931.618c-10.507,-8.479 -17.914,-6.148 -46.585,-3.718c-7.192,0.615 -9.545,1.573 -11.517,4.133c-5.088,6.662 17.351,22.318 24.676,22.204c6.364,-0.1 59.478,-1.602 33.426,-22.619Z" style="fill:#ffa89c;fill-rule:nonzero;"/><path d="M1724.29,887.337c4.69,2.374 8.402,4.718 12.363,7.35c3.828,2.601 7.524,5.375 10.954,8.464c6.745,6.062 13.092,13.482 14.7,22.733c0.397,2.216 -1.426,4.318 -4.077,4.719c-2.27,0.343 -4.408,-0.687 -5.204,-2.402l-0.166,-0.344c-2.767,-5.933 -8.849,-10.751 -15.776,-14.641c-3.447,-1.987 -7.176,-3.717 -10.988,-5.29c-3.761,-1.529 -7.954,-3.074 -11.501,-4.032c-5.684,-1.558 -8.634,-6.705 -6.612,-11.538c2.038,-4.818 8.302,-7.478 13.987,-5.934l2.138,0.815l0.182,0.1Z" style="fill:#ffa89c;fill-rule:nonzero;"/><path d="M1425.99,1092.94c5.187,-1.316 10.473,-0.716 19.571,-1.43c4.873,-0.386 10.689,0.758 15.645,0.7c9.777,-0.157 20.483,0.83 29.664,5.919c2.171,1.202 2.801,3.718 1.408,5.591c-1.209,1.63 -3.529,2.259 -5.551,1.63l-0.431,-0.143c-7.01,-2.202 -15.28,-1.616 -23.267,0.071c-4.011,0.801 -8.005,1.945 -11.916,3.261c-3.811,1.3 -7.938,2.859 -11.169,4.403c-5.105,2.474 -35.78,4.089 -38.647,-0.343c-2.867,-4.418 23.168,-13.182 28.272,-15.656l2.138,-0.772l-5.717,-3.231Z" style="fill:#ffa89c;fill-rule:nonzero;"/><path d="M1415.1,1085.55c-0,-0 49.882,20.159 63.007,34.214c12.247,13.125 68.245,31.641 13.457,39.205c-32.018,4.418 -49.485,18.644 -66.72,-1.887c-12.76,-15.213 -21.179,-23.249 -33.956,-32.428c-5.37,-3.846 -4.442,-12.754 -3.812,-18.745c1.027,-9.536 5.767,-30.039 28.024,-20.359Z" style="fill:#ffa89c;fill-rule:nonzero;"/><path d="M1023.45,731.019l153.194,198.268c1.127,1.358 2.519,2.531 4.093,3.431l234.961,153.159c3.414,5.577 -0.232,8.55 -9.827,22.105c-9.877,13.897 -7.656,17.172 -14.981,16.671l-265.438,-121.074c-5.701,-2.317 -10.44,-5.777 -13.937,-9.823l-2.287,-2.731l-178.036,-208.505c-28.338,-31.384 -22.72,-54.289 -21.361,-62.939c1.325,-8.107 5.767,-9.752 11.932,-16.2c3.563,-1.873 8.004,-3.374 13.224,-4.418c26.433,-4.947 62.511,4.89 80.591,21.976l7.872,10.08Z" style="fill:#ffa89c;fill-rule:nonzero;"/><path d="M909.165,736.595c-2.171,-17.772 11.037,-79.954 68.112,-68.901c57.075,11.052 116.038,145.809 116.038,145.809c8.668,10.709 -6.562,32.771 -34.022,49.299c-27.427,16.529 -56.694,21.247 -65.361,10.538c-0,-0 -76.928,-72.576 -84.767,-136.745Z" style="fill:#44a8f2;fill-rule:nonzero;"/><path d="M1359.09,2135.67c-1.774,-0.115 -183.091,-12.482 -580.161,-40.52c-365.617,-25.822 -444.568,-44.667 -450.633,-65.013c-1.872,-6.305 2.884,-12.596 14.551,-19.259c83.209,-47.541 409.152,-5.962 624.823,21.561c91.661,11.696 164.048,20.918 182.129,18.516l1.01,5.662c-19.091,2.516 -88.313,-6.306 -184.1,-18.516c-214.661,-27.409 -539.062,-68.787 -620.216,-22.462c-8.883,5.09 -12.844,9.48 -11.767,13.082c7.905,26.538 241.822,46.397 444.733,60.738c397.054,28.024 578.371,40.392 580.161,40.52l-0.53,5.691Z" style="fill:#bad5e2;fill-rule:nonzero;"/><path d="M1371.61,2124.19c-1.773,-0.114 -183.106,-12.482 -580.161,-40.534c-365.617,-25.822 -444.567,-44.666 -450.632,-64.998c-1.873,-6.291 2.883,-12.597 14.534,-19.259c83.225,-47.569 409.201,-5.962 624.889,21.561c91.578,11.696 163.949,20.975 182.079,18.53l1.011,5.648c-19.091,2.53 -88.297,-6.292 -184.068,-18.516c-214.677,-27.395 -539.111,-68.83 -620.249,-22.462c-8.883,5.076 -12.843,9.479 -11.766,13.083c7.905,26.522 241.838,46.396 444.733,60.722c397.054,28.038 578.371,40.406 580.144,40.535l-0.514,5.69Z" style="fill:#bad5e2;fill-rule:nonzero;"/><path d="M1188.42,2160.66c-1.79,-0.114 -183.107,-12.482 -580.178,-40.52c-365.617,-25.822 -444.567,-44.666 -450.632,-65.012c-1.873,-6.306 2.883,-12.597 14.533,-19.26c83.226,-47.554 409.202,-5.962 624.89,21.562c91.595,11.681 163.933,20.946 182.096,18.515l0.994,5.662c-19.124,2.488 -88.28,-6.291 -184.068,-18.515c-214.693,-27.395 -539.111,-68.802 -620.249,-22.462c-8.883,5.09 -12.844,9.479 -11.766,13.082c7.905,26.537 241.822,46.397 444.732,60.723c397.055,28.039 578.372,40.406 580.161,40.535l-0.513,5.69Z" style="fill:#bad5e2;fill-rule:nonzero;"/><path d="M1145.09,2409.86c-53.479,-78.924 -137.599,-79.339 -244.126,-79.868c-67.316,-0.329 -143.565,-0.715 -223.741,-22.191c-52.65,-14.097 -78.337,-34.658 -76.349,-61.108c4.889,-64.699 183.19,-146.096 325.728,-167.357l1.143,5.648c-137.334,20.474 -315.635,100.9 -320.242,162.094c-1.773,23.463 22.34,42.065 71.675,55.262c79.249,21.218 155,21.604 221.82,21.933c104.338,0.514 194.425,0.957 249.826,82.698l-5.734,2.889Z" style="fill:#bad5e2;fill-rule:nonzero;"/><path d="M1892.28,2553.7l-106.891,-0l-470.9,-234.571l759.737,-378.421l524.329,261.179l-706.275,351.813Z" style="fill:#dde9f7;fill-rule:nonzero;"/><path d="M2458.14,2218.87l-672.369,334.913l-0,-1629.28l672.369,-334.913l-0,1629.28Z" style="fill:#323c4c;fill-rule:nonzero;"/><path d="M1771.63,2546.75l14.136,7.035l-0,-1629.28l-14.136,-7.034l-0,1629.28Z" style="fill:#4f5f77;fill-rule:nonzero;"/><path d="M1308.08,2314.79l-14.136,7.034l0,-1629.28l14.136,-7.035l0,1629.28Z" style="fill:#323c4c;fill-rule:nonzero;"/><path d="M2443.99,582.55l14.153,7.034l-672.369,334.913l-14.136,-7.034l672.352,-334.913Z" style="fill:#627996;fill-rule:nonzero;"/><path d="M635.325,350.982l-14.153,7.035l672.353,334.912l14.152,-7.034l-672.352,-334.913Z" style="fill:#627996;fill-rule:nonzero;"/><path d="M2443.99,582.55l-464.039,-231.139l-672.352,334.913l464.039,231.139l672.352,-334.913Z" style="fill:#627996;fill-rule:nonzero;"/><path d="M1759.2,876.099l-2.104,-1.044l0.895,-2.873l603.246,-300.498l3.331,0.772l-0.878,2.873l-603.263,300.484l-1.227,0.286Z" style="fill:#465368;fill-rule:nonzero;"/><path d="M1770.16,882.662l-2.121,-1.044l0.894,-2.874l603.247,-300.498l3.33,0.773l-0.878,2.873l-603.262,300.498l-1.21,0.272Z" style="fill:#465368;fill-rule:nonzero;"/><path d="M1783,889.239l-2.104,-1.058l0.878,-2.874l603.263,-300.484l3.33,0.772l-0.894,2.874l-603.246,300.484l-1.227,0.286Z" style="fill:#465368;fill-rule:nonzero;"/><path d="M1771.63,2546.75l-464.039,-231.153l-0,-1629.27l464.039,231.139l-0,1629.28Z" style="fill:#4f5f77;fill-rule:nonzero;"/><path d="M1262.4,2089.64l-74.376,-37.046c26.698,-4.604 51.987,-11.739 74.376,-21.418l-0,58.464Zm-368.534,-183.57l-241.507,-120.302l0,-9.022c59.13,-11.567 124.176,-33.1 183.488,-62.653c128.866,-64.184 181.88,-141.85 118.409,-173.462c-18.196,-9.065 -43.999,-13.354 -74.592,-13.354c-13.573,-0 -28.073,0.843 -43.27,2.488l-2.635,-1.316c50.098,-69.33 81.618,-149.527 81.618,-221.316c0,-75.207 -34.602,-125.193 -88.91,-142.593c-19.041,-9.994 -41.364,-15.213 -66.057,-15.213c-32.531,0 -69.222,9.051 -108.051,28.096l0,-720.284l337.776,168.258c-18.097,12.853 -35.365,26.379 -44.878,37.088c-3.198,3.618 -6.016,7.635 -8.468,11.996c-14.087,9.522 -21.809,25.851 -25.372,39.977c-0.713,1.401 -1.26,3.045 -1.591,5.119c-0.928,5.905 -3.845,18.472 3.43,35.83c2.618,8.593 6.198,17.186 10.391,25.607c0.596,5.519 1.292,10.938 2.105,16.314c0.331,2.631 0.812,5.276 1.292,7.921c0.481,2.502 0.961,4.99 1.293,7.507c0.961,5.133 2.088,9.994 3.215,14.583c0.48,2.231 1.127,4.447 1.624,6.678l-0,0.285c0.795,3.332 1.773,6.377 2.569,9.308l0.961,2.917l0.812,2.774l0.961,2.788c0.812,2.631 1.624,5.004 2.585,6.949c13.921,34.129 85.38,119.888 55.799,222.775c-0.083,0.057 -0.166,0.1 -0.249,0.143l-0.414,0.314c-11.12,20.16 -15.959,41.407 -17.235,63.669c0.68,8.893 1.143,14.727 1.309,16.099l0,0.086c12.81,110.837 32.399,396.78 31.786,414.695c-0.663,19.888 11.949,174.133 19.058,259.792c-30.311,5.504 -58.732,14.312 -83.011,26.408c-25.206,12.553 -43.286,27.323 -54.241,43.051Z" style="fill:#b4dbff;fill-rule:nonzero;"/><path d="M652.361,1776.75l0,-96.883c6,-2.545 12.065,-5.347 18.18,-8.393c54.49,-27.137 104.836,-69.83 145.504,-119.901l62.13,30.94c2.535,1.273 5.286,1.859 8.004,1.859c5.535,0 10.938,-2.473 13.904,-6.92c4.425,-6.62 1.806,-15.07 -5.866,-18.888l-57.821,-28.795c15.197,-1.645 29.697,-2.488 43.27,-2.488c30.593,-0 56.396,4.289 74.592,13.354c63.471,31.612 10.457,109.278 -118.409,173.462c-59.312,29.553 -124.358,51.086 -183.488,62.653Z" style="fill:#9cc9f7;fill-rule:nonzero;"/><path d="M886.179,1584.37c-2.718,0 -5.469,-0.586 -8.004,-1.859l-62.13,-30.94c4.077,-5.019 8.054,-10.109 11.932,-15.256l56.213,27.995l2.006,0.472l3.48,-1.744c1.11,-1.645 0.447,-3.761 -1.475,-4.719l-55.915,-27.852c0.497,-0.672 0.995,-1.33 1.475,-2.016l2.635,1.316l57.821,28.795c7.672,3.818 10.291,12.268 5.866,18.888c-2.966,4.447 -8.369,6.92 -13.904,6.92Z" style="fill:#36557c;fill-rule:nonzero;"/><path d="M886.196,1564.78l-2.006,-0.472l-56.213,-27.995c1.442,-1.945 2.9,-3.889 4.309,-5.848l55.915,27.852c1.922,0.958 2.585,3.074 1.475,4.719l-3.48,1.744Z" style="fill:#456896;fill-rule:nonzero;"/><path d="M1262.4,1858.36c-38.812,-17 -86.275,-26.437 -134.616,-28.31c1.127,-19.746 2.552,-43.294 4.226,-69.588c35.182,-48.241 96.4,-161.994 130.39,-239.646l-0,337.544Zm-108.266,-391.604c0.431,-7.707 0.778,-15.227 1.077,-22.619c0.696,3.116 1.276,5.89 1.74,8.278c0.199,3.317 -0.829,8.178 -2.817,14.341Z" style="fill:#b4dbff;fill-rule:nonzero;"/><path d="M652.361,1196.43l0,-19.001c38.829,-19.045 75.52,-28.096 108.051,-28.096c24.693,0 47.016,5.219 66.057,15.213c-14.119,-4.518 -29.548,-6.849 -46.054,-6.849c-33.029,0 -70.349,9.323 -109.874,29.011c-6.115,3.045 -12.18,6.291 -18.18,9.722Z" style="fill:#456896;fill-rule:nonzero;"/><path d="M652.361,1679.87l0,-103.216c5.95,-2.216 12.015,-4.847 18.18,-7.921c77.906,-38.804 141.063,-132.784 141.063,-209.892c-0,-54.59 -31.636,-86.117 -77.74,-86.117c-19.042,0 -40.553,5.377 -63.323,16.729c-6.165,3.06 -12.23,6.477 -18.18,10.195l0,-103.217c6,-3.431 12.065,-6.677 18.18,-9.722c39.525,-19.688 76.845,-29.011 109.874,-29.011c16.506,0 31.935,2.331 46.054,6.849c54.308,17.4 88.91,67.386 88.91,142.593c0,71.789 -31.52,151.986 -81.618,221.316c-0.48,0.686 -0.978,1.344 -1.475,2.016c-1.409,1.959 -2.867,3.903 -4.309,5.848c-3.878,5.147 -7.855,10.237 -11.932,15.256c-40.668,50.071 -91.014,92.764 -145.504,119.901c-6.115,3.046 -12.18,5.848 -18.18,8.393Z" style="fill:#2d4566;fill-rule:nonzero;"/><path d="M652.361,1576.65l0,-0.729c5.95,-2.188 12.015,-4.818 18.18,-7.892c77.509,-38.619 140.35,-132.113 140.35,-208.835c0,-40.22 -17.367,-67.7 -44.977,-79.325c23.549,13.126 38.084,39.22 38.084,75.98c-0,76.722 -62.843,170.229 -140.351,208.834c-3.795,1.901 -7.557,3.617 -11.286,5.176l0,-270.215c5.95,-3.718 12.015,-7.135 18.18,-10.195c22.77,-11.352 44.281,-16.729 63.323,-16.729c46.104,0 77.74,31.527 77.74,86.117c-0,77.108 -63.157,171.088 -141.063,209.892c-6.165,3.074 -12.23,5.705 -18.18,7.921Zm20.848,-51.901c-0.795,-0 -1.707,0.229 -2.668,0.715c-3.281,1.63 -5.949,5.604 -5.949,8.85c-0,2.302 1.325,3.646 3.281,3.646c0.795,0 1.707,-0.229 2.668,-0.715c3.298,-1.63 5.949,-5.605 5.949,-8.85c0,-2.317 -1.325,-3.646 -3.281,-3.646Zm0,-212.395c-0.795,0 -1.707,0.229 -2.668,0.701c-3.281,1.644 -5.949,5.619 -5.949,8.879c-0,2.302 1.325,3.632 3.281,3.632c0.795,-0 1.707,-0.229 2.668,-0.715c3.298,-1.63 5.949,-5.605 5.949,-8.851c0,-2.316 -1.325,-3.646 -3.281,-3.646Z" style="fill:#283e5b;fill-rule:nonzero;"/><path d="M667.873,1325.57c-1.956,-0 -3.281,-1.33 -3.281,-3.632c-0,-3.26 2.668,-7.235 5.949,-8.879c0.961,-0.472 1.873,-0.701 2.668,-0.701c1.956,0 3.281,1.33 3.281,3.646c0,3.246 -2.651,7.221 -5.949,8.851c-0.961,0.486 -1.873,0.715 -2.668,0.715Z" style="fill:#527daf;fill-rule:nonzero;"/><path d="M667.873,1537.96c-1.956,0 -3.281,-1.344 -3.281,-3.646c-0,-3.246 2.668,-7.22 5.949,-8.85c0.961,-0.486 1.873,-0.715 2.668,-0.715c1.956,-0 3.281,1.329 3.281,3.646c0,3.245 -2.651,7.22 -5.949,8.85c-0.961,0.486 -1.873,0.715 -2.668,0.715Z" style="fill:#527daf;fill-rule:nonzero;"/><path d="M652.361,1575.92l0,-6.062c3.729,-1.559 7.491,-3.275 11.286,-5.176c77.508,-38.605 140.351,-132.112 140.351,-208.834c-0,-36.76 -14.535,-62.854 -38.084,-75.98c27.61,11.625 44.977,39.105 44.977,79.325c0,76.722 -62.841,170.216 -140.35,208.835c-6.165,3.074 -12.23,5.704 -18.18,7.892Z" style="fill:#456896;fill-rule:nonzero;"/><path d="M1188.03,2052.6l-9.397,-4.69c7.508,-6.148 11.386,-15.727 8.883,-26.151c2.403,-9.465 -0.679,-20.931 -12.131,-31.655c-25.703,-24.092 -41.298,-50.128 -49.965,-68.058c4.176,0.429 8.286,0.629 12.23,0.629c12.562,0 23.334,-2.073 28.471,-5.576c4.723,-3.217 5.718,-9.15 3.812,-16.257c4.607,-11.609 -8.75,-34.471 -30.178,-49.756c-4.773,-3.417 -8.966,-6.691 -12.612,-9.851c0.199,-3.574 0.415,-7.306 0.647,-11.181c48.341,1.873 95.804,11.31 134.616,28.31l-0,172.818c-22.389,9.679 -47.678,16.814 -74.376,21.418Zm-104.886,-52.244l-189.272,-94.28c10.955,-15.728 29.035,-30.498 54.241,-43.051c24.279,-12.096 52.7,-20.904 83.011,-26.408c2.784,33.371 4.723,56.333 4.723,56.877c-0.017,6.977 5.253,13.926 15.909,19.23c1.624,0.815 3.215,1.573 4.773,2.259c0.132,2.774 0.348,5.348 0.646,7.75c-0.514,-0.529 -0.779,-0.844 -0.779,-0.844c0.117,32.513 10.64,37.16 26.748,78.467Z" style="fill:#9ac3f1;fill-rule:nonzero;"/><path d="M1137.65,1922.67c-3.944,0 -8.054,-0.2 -12.23,-0.629c-2.27,-4.675 -4.044,-8.793 -5.419,-12.181c6.016,0.886 12.015,1.315 17.666,1.315c12.545,0 23.317,-2.073 28.454,-5.576c1.79,-1.23 3.049,-2.831 3.812,-4.762c1.906,7.107 0.911,13.04 -3.812,16.257c-5.137,3.503 -15.909,5.576 -28.471,5.576Z" style="fill:#b4dbff;fill-rule:nonzero;"/><path d="M1137.66,1911.18c-5.651,0 -11.65,-0.429 -17.666,-1.315c-0.646,-1.573 -1.194,-3.003 -1.657,-4.247c3.728,-3.646 5.7,-7.62 5.932,-11.61c0.033,-0.357 1.011,-20.045 2.867,-52.773c3.646,3.16 7.839,6.434 12.612,9.851c21.428,15.285 34.785,38.147 30.178,49.756c-0.763,1.931 -2.022,3.532 -3.812,4.762c-5.137,3.503 -15.909,5.576 -28.454,5.576Z" style="fill:#3091f2;fill-rule:nonzero;"/><path d="M1143.61,1597.01c2.337,-29.453 4.872,-59.55 7.574,-89.461c1.276,-14.055 2.22,-27.652 2.95,-40.792c1.988,-6.163 3.016,-11.024 2.817,-14.341c-0.464,-2.388 -1.044,-5.162 -1.74,-8.278c3.944,-96.954 -0.812,-166.699 39.674,-206.519c19.091,72.219 34.47,148.97 28.239,192.02c-6.513,44.939 -42.574,110.18 -79.514,167.371Z" style="fill:#1b3249;fill-rule:nonzero;"/><path d="M1132.01,1760.46c3.032,-47.669 6.927,-104.288 11.6,-163.453c36.94,-57.191 73.001,-122.432 79.514,-167.371c6.231,-43.05 -9.148,-119.801 -28.239,-192.02c2.502,-2.444 5.154,-4.775 8.004,-7.005c22.837,-17.83 40.453,-40.221 47.297,-66.142c2.867,-10.838 4.209,-19.06 4.657,-25.479l1.525,-1.044c-0.829,-1.258 -1.625,-2.545 -2.403,-3.903c3.132,-2.388 5.949,-4.862 8.435,-7.392l-0,394.163c-33.99,77.652 -95.208,191.405 -130.39,239.646Z" style="fill:#14283e;fill-rule:nonzero;"/><path d="M1178.63,2047.91l-12.611,-6.276c10.822,-2.545 19.041,-10.152 21.494,-19.875c2.503,10.424 -1.375,20.003 -8.883,26.151Zm-89.937,-44.795l-5.552,-2.759c-16.108,-41.307 -26.631,-45.954 -26.748,-78.467c0,0 0.265,0.315 0.779,0.844c3.066,24.378 14.982,32.313 31.521,80.382Z" style="fill:#b4dbff;fill-rule:nonzero;"/><path d="M1166.02,2041.63l-3.63,-1.802l-0.066,-0.343c-0.165,0.014 -0.331,0.043 -0.497,0.057l-73.133,-36.431c-16.539,-48.069 -28.455,-56.004 -31.521,-80.382c-0.298,-2.402 -0.514,-4.976 -0.646,-7.75c8.535,3.803 15.91,5.705 23.268,5.705c8.534,-0 17.085,-2.559 27.509,-7.663c0.282,-0.129 0.564,-0.272 0.846,-0.415c4.225,-2.102 7.623,-4.475 10.192,-6.992c0.463,1.244 1.011,2.674 1.657,4.247c1.375,3.388 3.149,7.506 5.419,12.181c8.667,17.93 24.262,43.966 49.965,68.058c11.452,10.724 14.534,22.19 12.131,31.655c-2.453,9.723 -10.672,17.33 -21.494,19.875Z" style="fill:#3091f2;fill-rule:nonzero;"/><path d="M1079.79,1920.69c-7.358,-0 -14.733,-1.902 -23.268,-5.705c-1.558,-0.686 -3.149,-1.444 -4.773,-2.259c-10.656,-5.304 -15.926,-12.253 -15.909,-19.23c-0,-0.544 -1.939,-23.506 -4.723,-56.877c-7.109,-85.659 -19.721,-239.904 -19.058,-259.792c0.613,-17.915 -18.976,-303.858 -31.786,-414.695l0,-0.086c-0.166,-1.372 -0.629,-7.206 -1.309,-16.099c1.276,-22.262 6.115,-43.509 17.235,-63.669l0.414,-0.314c0.083,-0.043 0.166,-0.086 0.249,-0.143c-0.348,1.172 -0.696,2.345 -1.061,3.517l-0.231,0.529l-0.233,1.287l-0.083,0.3l-0.132,0.872c-0.348,1.573 -0.746,3.146 -0.845,4.676c-1.856,19.087 11.849,38.289 40.95,52.816c10.954,5.447 23.267,9.822 36.392,13.097c-1.557,43.351 -7.225,222.617 -5.866,509.847c0.53,115.155 4.093,195.552 8.501,251.513c1.873,0.229 3.729,0.358 5.585,0.358c8.535,-0 17.07,-2.517 27.46,-7.606c-10.424,5.104 -18.975,7.663 -27.509,7.663Z" style="fill:#1b3249;fill-rule:nonzero;"/><path d="M1107.3,1913.02c0.282,-0.129 0.564,-0.272 0.846,-0.415c4.225,-2.102 7.623,-4.475 10.192,-6.992c-2.569,2.517 -5.967,4.89 -10.192,6.992c-0.282,0.143 -0.564,0.286 -0.846,0.415Z" style="fill:#2372ce;fill-rule:nonzero;"/><path d="M1079.84,1920.63c-1.856,-0 -3.712,-0.129 -5.585,-0.358c-4.408,-55.961 -7.971,-136.358 -8.501,-251.513c-1.359,-287.23 4.309,-466.496 5.866,-509.847c19.771,4.932 41.398,7.406 63.058,7.406c9.065,0 18.146,-0.429 27.095,-1.301l0.15,-0c26.813,-2.588 52.5,-9.108 73.332,-19.445c7.159,-3.589 13.39,-7.45 18.71,-11.524c0.778,1.358 1.574,2.645 2.403,3.903l-1.525,1.044c-0.448,6.419 -1.79,14.641 -4.657,25.479c-6.844,25.921 -24.46,48.312 -47.297,66.142c-2.85,2.23 -5.502,4.561 -8.004,7.005c-40.486,39.82 -35.73,109.565 -39.674,206.519c-0.812,19.988 -1.989,41.135 -4.027,63.411c-17.186,189.217 -26.831,385.312 -26.914,386.456c-0.232,3.99 -2.204,7.964 -5.932,11.61c-2.569,2.517 -5.967,4.89 -10.192,6.992c-0.282,0.143 -0.564,0.286 -0.846,0.415c-10.39,5.089 -18.925,7.606 -27.46,7.606Z" style="fill:#14283e;fill-rule:nonzero;"/><path d="M1134.68,1166.32c-21.66,0 -43.287,-2.474 -63.058,-7.406c-13.125,-3.275 -25.438,-7.65 -36.392,-13.097c-29.101,-14.527 -42.806,-33.729 -40.95,-52.816c0.099,-1.53 0.497,-3.103 0.845,-4.676l0.132,-0.872l0.083,-0.3l0.233,-1.287l0.231,-0.529c0.365,-1.172 0.713,-2.345 1.061,-3.517c29.581,-102.887 -41.878,-188.646 -55.799,-222.775c-0.961,-1.945 -1.773,-4.318 -2.585,-6.949l-0.961,-2.788l-0.812,-2.774l-0.961,-2.917c-0.796,-2.931 -1.774,-5.976 -2.569,-9.308l-0,-0.285c-0.497,-2.231 -1.144,-4.447 -1.624,-6.678c-1.127,-4.589 -2.254,-9.45 -3.215,-14.583c-0.332,-2.517 -0.812,-5.005 -1.293,-7.507c-0.48,-2.645 -0.961,-5.29 -1.292,-7.921c-0.813,-5.376 -1.509,-10.795 -2.105,-16.314c24.543,49.171 70.283,92.322 70.283,92.322c3.149,3.889 8.982,5.733 16.473,5.733c1.027,0 2.071,-0.029 3.148,-0.1l21.362,25.021c22.405,61.438 50.611,137.546 45.176,230.396c-0.912,15.742 12.71,29.368 30.907,30.912c7.855,0.672 15.81,1.001 23.781,1.001c9.032,-0 18.081,-0.429 26.996,-1.287c-8.949,0.872 -18.03,1.301 -27.095,1.301Zm-81.453,-427.048c-21.411,-33.3 -48.905,-66.328 -75.95,-71.575c-4.608,-0.887 -8.916,-1.301 -12.977,-1.301c-11.103,-0 -20.168,3.116 -27.509,8.092c2.452,-4.361 5.27,-8.378 8.468,-11.996c9.513,-10.709 26.781,-24.235 44.878,-37.088l148.852,74.134c-22.787,10.752 -47.712,22.247 -74.808,34.358c-3.894,1.744 -7.524,3.531 -10.954,5.376Z" style="fill:#3091f2;fill-rule:nonzero;"/><path d="M1134.78,1166.3c-7.971,-0 -15.926,-0.329 -23.781,-1.001c-18.197,-1.544 -31.819,-15.17 -30.907,-30.912c5.435,-92.85 -22.771,-168.958 -45.176,-230.396l74.31,87.031l2.287,2.731c3.497,4.046 8.236,7.506 13.937,9.823l136.953,62.467l-0,60.609c-6.729,6.82 -15.777,13.225 -27.145,18.916c-20.832,10.337 -46.519,16.857 -73.332,19.445l-0.15,-0c-8.915,0.858 -17.964,1.287 -26.996,1.287Z" style="fill:#2372ce;fill-rule:nonzero;"/><path d="M1262.4,985.964l-81.668,-53.246c-1.574,-0.9 -2.966,-2.073 -4.093,-3.431l-81.254,-105.175c0.845,-4.118 0.232,-7.763 -2.072,-10.609c0,0 -16.306,-37.274 -40.088,-74.234c3.43,-1.845 7.06,-3.632 10.954,-5.376c27.096,-12.111 52.021,-23.606 74.808,-34.358l123.413,61.481l-0,224.948Zm-88.032,-182.012l-42.392,21.104l0,14.641l42.392,-21.104l0,-14.641Zm0,-18.229l-42.392,21.117l0,14.641l42.392,-21.118l0,-14.64Zm0,-18.531l-42.392,21.104l0,14.641l42.392,-21.118l0,-14.627Z" style="fill:#2372ce;fill-rule:nonzero;"/><path d="M1131.98,839.697l0,-14.641l42.392,-21.104l0,14.641l-42.392,21.104Zm0,-18.216l0,-14.641l42.392,-21.117l0,14.64l-42.392,21.118Zm0,-18.544l0,-14.641l42.392,-21.104l0,14.627l-42.392,21.118Z" style="fill:#569cd9;fill-rule:nonzero;"/><path d="M1262.4,1066.05l-136.953,-62.467c-5.701,-2.317 -10.44,-5.777 -13.937,-9.823l-2.287,-2.731l-74.31,-87.031l-21.362,-25.021c12.844,-0.815 29.615,-6.448 45.74,-16.171c20.168,-12.139 33.741,-27.266 36.094,-38.69l81.254,105.175c1.127,1.358 2.519,2.531 4.093,3.431l81.668,53.246l-0,80.082Zm-349.144,-310.635c-7.275,-17.358 -4.358,-29.925 -3.43,-35.83c0.331,-2.074 0.878,-3.718 1.591,-5.119c-2.287,9.093 -2.851,17.272 -2.254,22.133c0.762,6.22 2.171,12.525 4.093,18.816Z" style="fill:#b4919c;fill-rule:nonzero;"/><path d="M1010.4,879.073c-7.491,0 -13.324,-1.844 -16.473,-5.733c-0,-0 -45.74,-43.151 -70.283,-92.322c-4.193,-8.421 -7.773,-17.014 -10.391,-25.607c-1.922,-6.291 -3.331,-12.596 -4.093,-18.816c-0.597,-4.861 -0.033,-13.04 2.254,-22.133c3.563,-14.126 11.285,-30.455 25.372,-39.977c7.341,-4.976 16.406,-8.092 27.509,-8.092c4.061,-0 8.369,0.414 12.977,1.301c27.045,5.247 54.539,38.275 75.95,71.575c23.782,36.96 40.088,74.234 40.088,74.234c2.304,2.846 2.917,6.491 2.072,10.609c-2.353,11.424 -15.926,26.551 -36.094,38.69c-16.125,9.723 -32.896,15.356 -45.74,16.171c-1.077,0.071 -2.121,0.1 -3.148,0.1Z" style="fill:#3091f2;fill-rule:nonzero;"/><path d="M1162.39,2039.83l-0.563,-0.286c0.166,-0.014 0.332,-0.043 0.497,-0.057l0.066,0.343Z" style="fill:#83b7e2;fill-rule:nonzero;"/><path d="M1262.4,2094.58l-2.85,-0.658l-610.041,-303.873c-1.757,-0.886 -2.851,-2.501 -2.851,-4.26l0,-1328.64c0,-2.73 2.536,-4.932 5.701,-4.932c3.149,-0 5.701,2.202 5.701,4.932l0,1325.8l607.19,302.442c2.735,1.358 3.68,4.375 2.089,6.734c-1.044,1.587 -2.967,2.46 -4.939,2.46Z" style="fill:#627996;fill-rule:nonzero;"/><path d="M1262.4,2089.64l-610.041,-303.858l0,-1328.64l610.041,303.873l-0,1328.63Zm-641.197,-1731.7l0,1629.27l672.353,334.913l-0,-1629.27l-672.353,-334.913Z" style="fill:#4f5f77;fill-rule:nonzero;"/><path d="M1440.34,2349.37l-2.221,-1.23l-29.134,-55.047l1.21,-2.788l3.232,1.029l29.134,55.047l-1.227,2.788l-0.994,0.201Z" style="fill:#2a323f;fill-rule:nonzero;"/><path d="M1459.15,2358.73l-2.204,-1.23l-29.118,-55.032l1.193,-2.789l3.232,1.044l29.117,55.033l-1.193,2.788l-1.027,0.186Z" style="fill:#2a323f;fill-rule:nonzero;"/><path d="M1477.97,2368.12l-2.221,-1.244l-29.101,-55.032l1.21,-2.788l3.215,1.029l29.134,55.047l-1.21,2.788l-1.027,0.2Z" style="fill:#2a323f;fill-rule:nonzero;"/><path d="M1496.82,2377.49l-2.221,-1.229l-29.134,-55.033l1.226,-2.788l3.232,1.044l29.117,55.032l-1.21,2.788l-1.01,0.186Z" style="fill:#2a323f;fill-rule:nonzero;"/><path d="M1515.64,2386.88l-2.22,-1.244l-29.118,-55.032l1.193,-2.789l3.249,1.03l29.1,55.047l-1.193,2.788l-1.011,0.2Z" style="fill:#2a323f;fill-rule:nonzero;"/><path d="M1534.47,2396.25l-2.204,-1.23l-29.134,-55.032l1.21,-2.788l3.232,1.044l29.117,55.032l-1.21,2.788l-1.011,0.186Z" style="fill:#2a323f;fill-rule:nonzero;"/><path d="M1553.3,2405.63l-2.221,-1.23l-29.101,-55.032l1.193,-2.789l3.232,1.03l29.117,55.046l-1.193,2.789l-1.027,0.186Z" style="fill:#2a323f;fill-rule:nonzero;"/><path d="M1572.14,2415.01l-2.221,-1.23l-29.134,-55.032l1.21,-2.788l3.232,1.029l29.134,55.047l-1.227,2.788l-0.994,0.186Z" style="fill:#2a323f;fill-rule:nonzero;"/><path d="M1590.96,2424.39l-2.22,-1.23l-29.118,-55.032l1.194,-2.788l3.247,1.03l29.101,55.046l-1.193,2.788l-1.011,0.186Z" style="fill:#2a323f;fill-rule:nonzero;"/><path d="M1609.77,2433.76l-2.204,-1.23l-29.118,-55.033l1.193,-2.802l3.232,1.044l29.117,55.032l-1.193,2.803l-1.027,0.186Z" style="fill:#2a323f;fill-rule:nonzero;"/><path d="M1628.62,2443.14l-2.22,-1.23l-29.135,-55.032l1.227,-2.788l3.232,1.029l29.117,55.047l-1.193,2.774l-1.028,0.2Z" style="fill:#2a323f;fill-rule:nonzero;"/><path d="M1647.44,2452.52l-2.22,-1.229l-29.117,-55.033l1.193,-2.802l3.247,1.044l29.118,55.032l-1.21,2.803l-1.011,0.185Z" style="fill:#2a323f;fill-rule:nonzero;"/><path d="M1665.97,2416.26c0,2.617 -2.138,3.674 -4.789,2.359c-2.635,-1.315 -4.789,-4.504 -4.789,-7.12c-0,-2.617 2.154,-3.675 4.789,-2.359c2.651,1.315 4.789,4.504 4.789,7.12Z" style="fill:#687e8e;fill-rule:nonzero;"/><path d="M1665.97,2468.89c0,2.617 -2.138,3.675 -4.789,2.345c-2.635,-1.301 -4.789,-4.504 -4.789,-7.12c-0,-2.617 2.154,-3.66 4.789,-2.359c2.651,1.329 4.789,4.518 4.789,7.134Z" style="fill:#687e8e;fill-rule:nonzero;"/><path d="M1403.55,2285.55c-0,2.617 -2.155,3.66 -4.79,2.359c-2.651,-1.33 -4.789,-4.518 -4.789,-7.134c-0,-2.617 2.138,-3.675 4.789,-2.36c2.635,1.316 4.79,4.518 4.79,7.135Z" style="fill:#687e8e;fill-rule:nonzero;"/><path d="M1403.55,2338.17c-0,2.617 -2.155,3.675 -4.79,2.359c-2.651,-1.315 -4.789,-4.504 -4.789,-7.12c-0,-2.617 2.138,-3.675 4.789,-2.359c2.635,1.315 4.79,4.504 4.79,7.12Z" style="fill:#687e8e;fill-rule:nonzero;"/><path d="M1440.34,2263.13l-2.221,-1.23l-29.134,-55.046l1.21,-2.789l3.232,1.044l29.134,55.047l-1.227,2.788l-0.994,0.186Z" style="fill:#2a323f;fill-rule:nonzero;"/><path d="M1459.15,2272.51l-2.204,-1.23l-29.118,-55.047l1.193,-2.788l3.232,1.044l29.117,55.046l-1.193,2.789l-1.027,0.186Z" style="fill:#2a323f;fill-rule:nonzero;"/><path d="M1477.97,2281.89l-2.221,-1.23l-29.101,-55.046l1.21,-2.789l3.215,1.044l29.134,55.047l-1.21,2.788l-1.027,0.186Z" style="fill:#2a323f;fill-rule:nonzero;"/><path d="M1496.82,2291.27l-2.221,-1.23l-29.134,-55.046l1.226,-2.788l3.232,1.044l29.117,55.046l-1.21,2.788l-1.01,0.186Z" style="fill:#2a323f;fill-rule:nonzero;"/><path d="M1515.64,2300.65l-2.22,-1.23l-29.118,-55.047l1.193,-2.788l3.249,1.044l29.1,55.046l-1.193,2.789l-1.011,0.186Z" style="fill:#2a323f;fill-rule:nonzero;"/><path d="M1534.47,2310.03l-2.204,-1.23l-29.134,-55.046l1.21,-2.789l3.232,1.044l29.117,55.047l-1.21,2.788l-1.011,0.186Z" style="fill:#2a323f;fill-rule:nonzero;"/><path d="M1553.3,2319.41l-2.221,-1.229l-29.101,-55.047l1.193,-2.788l3.232,1.044l29.117,55.032l-1.193,2.803l-1.027,0.185Z" style="fill:#2a323f;fill-rule:nonzero;"/><path d="M1572.14,2328.79l-2.221,-1.23l-29.134,-55.046l1.21,-2.789l3.232,1.044l29.134,55.047l-1.227,2.774l-0.994,0.2Z" style="fill:#2a323f;fill-rule:nonzero;"/><path d="M1590.96,2338.17l-2.22,-1.23l-29.118,-55.046l1.194,-2.788l3.247,1.044l29.101,55.032l-1.193,2.802l-1.011,0.186Z" style="fill:#2a323f;fill-rule:nonzero;"/><path d="M1609.77,2347.55l-2.204,-1.229l-29.118,-55.033l1.193,-2.802l3.232,1.044l29.117,55.046l-1.193,2.774l-1.027,0.2Z" style="fill:#2a323f;fill-rule:nonzero;"/><path d="M1628.62,2356.93l-2.22,-1.23l-29.135,-55.046l1.227,-2.789l3.232,1.044l29.117,55.032l-1.193,2.789l-1.028,0.2Z" style="fill:#2a323f;fill-rule:nonzero;"/><path d="M1647.44,2366.31l-2.22,-1.229l-29.117,-55.033l1.193,-2.802l3.247,1.044l29.118,55.032l-1.21,2.788l-1.011,0.2Z" style="fill:#2a323f;fill-rule:nonzero;"/><path d="M1665.97,2330.05c0,2.617 -2.138,3.674 -4.789,2.345c-2.635,-1.301 -4.789,-4.49 -4.789,-7.12c-0,-2.617 2.154,-3.675 4.789,-2.36c2.651,1.33 4.789,4.519 4.789,7.135Z" style="fill:#687e8e;fill-rule:nonzero;"/><path d="M1665.97,2382.68c0,2.617 -2.138,3.661 -4.789,2.345c-2.635,-1.315 -4.789,-4.504 -4.789,-7.12c-0,-2.617 2.154,-3.675 4.789,-2.359c2.651,1.315 4.789,4.504 4.789,7.134Z" style="fill:#687e8e;fill-rule:nonzero;"/><path d="M1403.55,2199.32c-0,2.616 -2.155,3.674 -4.79,2.359c-2.651,-1.316 -4.789,-4.504 -4.789,-7.121c-0,-2.616 2.138,-3.674 4.789,-2.359c2.635,1.316 4.79,4.504 4.79,7.121Z" style="fill:#687e8e;fill-rule:nonzero;"/><path d="M1403.55,2251.95c-0,2.617 -2.155,3.675 -4.79,2.359c-2.651,-1.315 -4.789,-4.504 -4.789,-7.134c-0,-2.617 2.138,-3.675 4.789,-2.36c2.635,1.33 4.79,4.519 4.79,7.135Z" style="fill:#687e8e;fill-rule:nonzero;"/><path d="M1440.34,2170.43l-2.221,-1.23l-29.134,-55.032l1.21,-2.789l3.232,1.044l29.134,55.033l-1.227,2.788l-0.994,0.186Z" style="fill:#2a323f;fill-rule:nonzero;"/><path d="M1459.15,2179.82l-2.204,-1.23l-29.118,-55.047l1.193,-2.788l3.232,1.044l29.117,55.032l-1.193,2.788l-1.027,0.201Z" style="fill:#2a323f;fill-rule:nonzero;"/><path d="M1477.97,2189.19l-2.221,-1.23l-29.101,-55.032l1.21,-2.789l3.215,1.044l29.134,55.033l-1.21,2.788l-1.027,0.186Z" style="fill:#2a323f;fill-rule:nonzero;"/><path d="M1496.82,2198.58l-2.221,-1.23l-29.134,-55.046l1.226,-2.788l3.232,1.044l29.117,55.032l-1.21,2.788l-1.01,0.2Z" style="fill:#2a323f;fill-rule:nonzero;"/><path d="M1515.64,2207.96l-2.22,-1.244l-29.118,-55.033l1.193,-2.788l3.249,1.044l29.1,55.032l-1.193,2.788l-1.011,0.201Z" style="fill:#2a323f;fill-rule:nonzero;"/><path d="M1534.47,2217.34l-2.204,-1.23l-29.134,-55.046l1.21,-2.789l3.232,1.044l29.117,55.033l-1.21,2.788l-1.011,0.2Z" style="fill:#2a323f;fill-rule:nonzero;"/><path d="M1553.3,2226.72l-2.221,-1.244l-29.101,-55.032l1.193,-2.788l3.232,1.044l29.117,55.032l-1.193,2.788l-1.027,0.2Z" style="fill:#2a323f;fill-rule:nonzero;"/><path d="M1572.14,2236.1l-2.221,-1.23l-29.134,-55.046l1.21,-2.789l3.232,1.044l29.134,55.032l-1.227,2.789l-0.994,0.2Z" style="fill:#2a323f;fill-rule:nonzero;"/><path d="M1590.96,2245.48l-2.22,-1.244l-29.118,-55.032l1.194,-2.788l3.247,1.029l29.101,55.047l-1.193,2.788l-1.011,0.2Z" style="fill:#2a323f;fill-rule:nonzero;"/><path d="M1609.77,2254.86l-2.204,-1.229l-29.118,-55.047l1.193,-2.788l3.232,1.044l29.117,55.032l-1.193,2.788l-1.027,0.2Z" style="fill:#2a323f;fill-rule:nonzero;"/><path d="M1628.62,2264.24l-2.22,-1.23l-29.135,-55.046l1.227,-2.789l3.232,1.03l29.117,55.046l-1.193,2.789l-1.028,0.2Z" style="fill:#2a323f;fill-rule:nonzero;"/><path d="M1647.44,2273.61l-2.22,-1.229l-29.117,-55.047l1.193,-2.788l3.247,1.044l29.118,55.032l-1.21,2.788l-1.011,0.2Z" style="fill:#2a323f;fill-rule:nonzero;"/><path d="M1665.97,2237.36c0,2.617 -2.138,3.674 -4.789,2.359c-2.635,-1.33 -4.789,-4.518 -4.789,-7.134c-0,-2.617 2.154,-3.675 4.789,-2.36c2.651,1.316 4.789,4.504 4.789,7.135Z" style="fill:#687e8e;fill-rule:nonzero;"/><path d="M1665.97,2289.97c0,2.617 -2.138,3.675 -4.789,2.359c-2.635,-1.315 -4.789,-4.504 -4.789,-7.12c-0,-2.617 2.154,-3.675 4.789,-2.359c2.651,1.315 4.789,4.504 4.789,7.12Z" style="fill:#687e8e;fill-rule:nonzero;"/><path d="M1403.55,2106.63c-0,2.616 -2.155,3.674 -4.79,2.359c-2.651,-1.316 -4.789,-4.504 -4.789,-7.135c-0,-2.616 2.138,-3.66 4.789,-2.345c2.635,1.316 4.79,4.504 4.79,7.121Z" style="fill:#687e8e;fill-rule:nonzero;"/><path d="M1403.55,2159.26c-0,2.617 -2.155,3.66 -4.79,2.359c-2.651,-1.329 -4.789,-4.518 -4.789,-7.134c-0,-2.617 2.138,-3.675 4.789,-2.345c2.635,1.301 4.79,4.504 4.79,7.12Z" style="fill:#687e8e;fill-rule:nonzero;"/><path d="M1785.77,929.43l-2.834,-0.658l-478.208,-238.188c-2.718,-1.358 -3.663,-4.375 -2.089,-6.734c1.592,-2.359 5.088,-3.174 7.806,-1.801l478.176,238.188c2.734,1.358 3.678,4.375 2.104,6.734c-1.061,1.573 -2.966,2.459 -4.955,2.459Z" style="fill:#7490af;fill-rule:nonzero;"/><path d="M1454.31,2777.04l-94.23,-0l-415.168,-206.804l311.773,-156.119l462.283,230.267l-264.658,132.656Z" style="fill:#dde9f7;fill-rule:nonzero;"/><path d="M1595.16,2659.37l-234.746,117.743l0,-528.391l234.746,-117.743l0,528.391Z" style="fill:#7491af;fill-rule:nonzero;"/><path d="M1347.95,2770.91l12.462,6.205l0,-528.391l-12.462,-6.191l0,528.377Z" style="fill:#88a1bf;fill-rule:nonzero;"/><path d="M1582.69,2124.77l12.462,6.205l-234.746,117.743l-12.462,-6.191l234.746,-117.757Z" style="fill:#a8c4dd;fill-rule:nonzero;"/><path d="M1582.69,2124.77l-409.136,-203.787l-234.729,117.742l409.119,203.802l234.746,-117.757Z" style="fill:#627996;fill-rule:nonzero;"/><path d="M992.507,2035.91l-1.856,-0.93l0.779,-2.531l173.809,-87.402l2.95,0.657l-0.779,2.545l-173.81,87.403l-1.093,0.258Z" style="fill:#465368;fill-rule:nonzero;"/><path d="M1002.17,2041.69l-1.872,-0.915l0.779,-2.531l173.809,-87.403l2.95,0.658l-0.779,2.545l-173.81,87.403l-1.077,0.243Z" style="fill:#465368;fill-rule:nonzero;"/><path d="M1013.49,2047.49l-1.856,-0.93l0.779,-2.53l173.81,-87.403l2.933,0.672l-0.763,2.531l-173.826,87.402l-1.077,0.258Z" style="fill:#465368;fill-rule:nonzero;"/><path d="M1347.95,2770.91l-409.119,-203.787l0,-528.392l409.119,203.802l0,528.377Z" style="fill:#4f5f77;fill-rule:nonzero;"/><path d="M992.39,2569.79l-2.121,-1.529l-25.67,-128.195l1.757,-2.145l2.485,1.516l25.671,128.18l-1.757,2.145l-0.365,0.028Z" style="fill:#2a323f;fill-rule:nonzero;"/><path d="M1010.37,2578.72l-2.104,-1.544l-25.671,-128.18l1.757,-2.145l2.469,1.516l25.687,128.18l-1.757,2.145l-0.381,0.028Z" style="fill:#2a323f;fill-rule:nonzero;"/><path d="M1028.37,2587.62l-2.105,-1.53l-25.67,-128.18l1.757,-2.145l2.469,1.501l25.67,128.181l-1.74,2.159l-0.381,0.014Z" style="fill:#2a323f;fill-rule:nonzero;"/><path d="M1046.37,2596.55l-2.122,-1.53l-25.67,-128.18l1.756,-2.145l2.486,1.501l25.671,128.18l-1.757,2.159l-0.364,0.015Z" style="fill:#2a323f;fill-rule:nonzero;"/><path d="M1064.36,2605.47l-2.122,-1.529l-25.67,-128.181l1.757,-2.144l2.485,1.501l25.671,128.18l-1.757,2.145l-0.364,0.028Z" style="fill:#2a323f;fill-rule:nonzero;"/><path d="M1082.35,2614.39l-2.105,-1.53l-25.67,-128.18l1.739,-2.159l2.487,1.516l25.686,128.18l-1.756,2.145l-0.381,0.028Z" style="fill:#2a323f;fill-rule:nonzero;"/><path d="M1100.34,2623.31l-2.121,-1.53l-25.671,-128.194l1.757,-2.131l2.486,1.502l25.67,128.18l-1.74,2.145l-0.381,0.028Z" style="fill:#2a323f;fill-rule:nonzero;"/><path d="M1118.34,2632.23l-2.122,-1.544l-25.67,-128.18l1.756,-2.131l2.487,1.502l25.67,128.18l-1.757,2.144l-0.364,0.029Z" style="fill:#2a323f;fill-rule:nonzero;"/><path d="M1136.34,2641.14l-2.121,-1.53l-25.671,-128.18l1.757,-2.145l2.486,1.515l25.67,128.181l-1.756,2.144l-0.365,0.015Z" style="fill:#2a323f;fill-rule:nonzero;"/><path d="M1154.32,2650.06l-2.105,-1.529l-25.687,-128.181l1.774,-2.144l2.469,1.515l25.686,128.166l-1.773,2.159l-0.364,0.014Z" style="fill:#2a323f;fill-rule:nonzero;"/><path d="M1172.32,2658.99l-2.104,-1.531l-25.688,-128.18l1.774,-2.145l2.469,1.516l25.671,128.166l-1.757,2.159l-0.365,0.015Z" style="fill:#2a323f;fill-rule:nonzero;"/><path d="M1190.31,2667.91l-2.122,-1.53l-25.67,-128.18l1.757,-2.145l2.486,1.516l25.67,128.166l-1.757,2.144l-0.364,0.029Z" style="fill:#2a323f;fill-rule:nonzero;"/><path d="M1208.31,2676.83l-2.121,-1.53l-25.67,-128.18l1.74,-2.145l2.502,1.501l25.671,128.181l-1.757,2.145l-0.365,0.028Z" style="fill:#2a323f;fill-rule:nonzero;"/><path d="M1226.31,2685.75l-2.121,-1.53l-25.67,-128.18l1.74,-2.145l2.486,1.501l25.687,128.181l-1.773,2.144l-0.349,0.029Z" style="fill:#2a323f;fill-rule:nonzero;"/><path d="M1244.29,2694.67l-2.105,-1.544l-25.687,-128.166l1.756,-2.145l2.486,1.501l25.687,128.181l-1.773,2.144l-0.364,0.029Z" style="fill:#2a323f;fill-rule:nonzero;"/><path d="M1262.29,2703.58l-2.105,-1.529l-25.687,-128.166l1.757,-2.159l2.486,1.515l25.67,128.18l-1.756,2.145l-0.365,0.014Z" style="fill:#2a323f;fill-rule:nonzero;"/><path d="M1280.28,2712.5l-2.122,-1.515l-25.67,-128.18l1.74,-2.159l2.503,1.515l25.653,128.18l-1.74,2.145l-0.364,0.014Z" style="fill:#2a323f;fill-rule:nonzero;"/><path d="M1298.26,2721.42l-2.104,-1.53l-25.671,-128.18l1.741,-2.145l2.502,1.516l25.653,128.18l-1.739,2.145l-0.382,0.014Z" style="fill:#2a323f;fill-rule:nonzero;"/><path d="M1316.26,2730.35l-2.121,-1.53l-25.654,-128.18l1.74,-2.145l2.486,1.501l25.67,128.195l-1.757,2.145l-0.364,0.014Z" style="fill:#2a323f;fill-rule:nonzero;"/><path d="M1347.95,2770.39l-0.862,-0.729l0,-527.634l0.431,-0.643l234.729,-117.257l1.177,0.272l-0.299,1.015l-234.314,117.042l-0,527.205l-0.862,0.729Z" style="fill:#323c4c;fill-rule:nonzero;"/><path d="M1477.41,2605.11c0,3.446 -2.834,7.65 -6.314,9.38c-3.48,1.744 -6.297,0.357 -6.297,-3.089c-0,-3.46 2.817,-7.649 6.297,-9.394c3.48,-1.73 6.314,-0.343 6.314,3.103Z" style="fill:#99fc70;fill-rule:nonzero;"/><path d="M1477.41,2622.27c0,3.46 -2.834,7.65 -6.314,9.394c-3.48,1.73 -6.297,0.343 -6.297,-3.103c-0,-3.445 2.817,-7.649 6.297,-9.379c3.48,-1.73 6.314,-0.343 6.314,3.088Z" style="fill:#ff3131;fill-rule:nonzero;"/><path d="M1477.41,2638.81c0,3.446 -2.834,7.649 -6.314,9.38c-3.48,1.73 -6.297,0.343 -6.297,-3.103c-0,-3.446 2.817,-7.65 6.297,-9.38c3.48,-1.73 6.314,-0.343 6.314,3.103Z" style="fill:#99fc70;fill-rule:nonzero;"/><path d="M1499.15,2594.29c0,3.447 -2.817,7.65 -6.297,9.38c-3.48,1.73 -6.315,0.343 -6.315,-3.102c0,-3.446 2.835,-7.65 6.315,-9.38c3.48,-1.73 6.297,-0.343 6.297,3.102Z" style="fill:#99fc70;fill-rule:nonzero;"/><path d="M1499.15,2611.44c0,3.446 -2.817,7.649 -6.297,9.379c-3.48,1.731 -6.315,0.343 -6.315,-3.102c0,-3.446 2.835,-7.65 6.315,-9.38c3.48,-1.73 6.297,-0.343 6.297,3.103Z" style="fill:#ff3131;fill-rule:nonzero;"/><path d="M1499.15,2627.97c0,3.461 -2.817,7.65 -6.297,9.394c-3.48,1.73 -6.315,0.343 -6.315,-3.103c0,-3.445 2.835,-7.649 6.315,-9.379c3.48,-1.744 6.297,-0.343 6.297,3.088Z" style="fill:#99fc70;fill-rule:nonzero;"/><path d="M1562.66,2195.56l-0,-3.974c-0,-7.836 -5.568,-11.467 -12.38,-8.079l-135.345,67.415c-6.811,3.403 -12.38,12.582 -12.38,20.403l0,3.974c0,7.836 5.569,11.467 12.38,8.079l135.345,-67.415c6.812,-3.388 12.38,-12.567 12.38,-20.403Zm-0,448.009l-0,-3.975c-0,-7.835 -5.568,-11.452 -12.38,-8.064l-135.345,67.415c-6.811,3.388 -12.38,12.568 -12.38,20.388l0,3.975c0,7.836 5.569,11.467 12.38,8.079l135.345,-67.415c6.812,-3.388 12.38,-12.567 12.38,-20.403Zm-59.892,-78.809l-0,-296.652c-0,-7.836 -5.569,-11.467 -12.363,-8.079l-16.838,8.393c-6.827,3.389 -12.379,12.568 -12.379,20.403l-0,296.652c-0,7.835 5.552,11.453 12.379,8.078l16.838,-8.393c6.794,-3.402 12.363,-12.581 12.363,-20.402Zm64.93,31.926l-0,-362.679c-0,-7.835 -5.585,-11.467 -12.379,-8.078l-16.838,8.393c-6.828,3.388 -12.379,12.567 -12.379,20.403l-0,362.693c-0,7.821 5.551,11.453 12.379,8.064l16.838,-8.393c6.794,-3.388 12.379,-12.567 12.379,-20.403Zm-142.223,85.087l-16.838,8.379c-6.811,3.388 -12.362,-0.243 -12.362,-8.064l-0,-362.694c-0,-7.835 5.551,-17.014 12.362,-20.403l16.838,-8.393c6.811,-3.388 12.379,0.243 12.379,8.078l0,362.68c0,7.835 -5.568,17.014 -12.379,20.417Z" style="fill:#323c4c;fill-rule:nonzero;"/><path d="M1559.71,2188.77l-0,3.96c-0,7.836 -5.568,17.015 -12.38,20.403l-135.328,67.415c-3.083,1.529 -5.867,1.573 -8.021,0.5c2.054,3.575 6.181,4.704 10.954,2.331l135.345,-67.415c6.812,-3.388 12.38,-12.567 12.38,-20.403l-0,-3.974c-0,-4.304 -1.724,-7.264 -4.359,-8.565c0.879,1.501 1.409,3.417 1.409,5.748Z" style="fill:#6d82a0;fill-rule:nonzero;"/><path d="M1408.63,2690.15l16.838,-8.379c6.811,-3.403 12.379,-12.582 12.379,-20.417l0,-362.68c0,-4.303 -1.707,-7.277 -4.342,-8.578c0.862,1.515 1.409,3.417 1.409,5.747l-0,362.694c-0,7.835 -5.568,17.015 -12.38,20.403l-16.854,8.393c-3.065,1.53 -5.85,1.558 -8.004,0.5c2.055,3.561 6.182,4.704 10.954,2.317Z" style="fill:#6d82a0;fill-rule:nonzero;"/><path d="M1558.3,2631.03c0.879,1.516 1.409,3.417 1.409,5.748l-0,3.974c-0,7.822 -5.568,17.001 -12.38,20.403l-135.328,67.401c-3.083,1.53 -5.867,1.572 -8.021,0.514c2.054,3.561 6.181,4.704 10.954,2.317l135.345,-67.415c6.812,-3.388 12.38,-12.567 12.38,-20.403l-0,-3.975c-0,-4.289 -1.724,-7.263 -4.359,-8.564Z" style="fill:#6d82a0;fill-rule:nonzero;"/><path d="M1563.34,2225.43c0.862,1.515 1.425,3.417 1.425,5.747l0,362.694c0,7.821 -5.568,17.014 -12.395,20.403l-16.838,8.393c-3.082,1.515 -5.85,1.558 -8.021,0.486c2.055,3.574 6.198,4.718 10.971,2.33l16.838,-8.393c6.81,-3.388 12.379,-12.567 12.379,-20.403l-0,-362.679c-0,-4.303 -1.707,-7.278 -4.359,-8.578Z" style="fill:#6d82a0;fill-rule:nonzero;"/><path d="M1473.57,2593.56l16.838,-8.393c6.794,-3.402 12.363,-12.581 12.363,-20.402l-0,-296.652c-0,-4.304 -1.707,-7.278 -4.342,-8.579c0.862,1.516 1.408,3.417 1.408,5.762l0,296.637c0,7.836 -5.568,17.015 -12.379,20.403l-16.838,8.393c-3.082,1.53 -5.866,1.573 -8.037,0.501c2.072,3.574 6.198,4.704 10.987,2.33Z" style="fill:#6d82a0;fill-rule:nonzero;"/><path d="M1428.41,2261.08c0,3.789 -3.115,8.407 -6.944,10.309c-3.811,1.916 -6.927,0.386 -6.927,-3.403c-0,-3.803 3.116,-8.421 6.927,-10.323c3.829,-1.902 6.944,-0.372 6.944,3.417Z" style="fill:#6d82a0;fill-rule:nonzero;"/><path d="M1365.05,2777.11l-9.247,0l0,-530.679l237.033,-118.901l4.64,6.892l-232.426,116.599l0,526.089Z" style="fill:#9cb5d3;fill-rule:nonzero;"/><path d="M2707.35,2974.8c6.927,-7.878 6.546,-18.144 -0.795,-22.962c-7.358,-4.818 -18.942,-2.359 -25.87,5.505c-6.91,7.864 -6.529,18.144 0.829,22.948c7.358,4.832 18.926,2.359 25.836,-5.491Z" style="fill:#ffa89c;fill-rule:nonzero;"/></g></svg>