<?xml version="1.0" encoding="UTF-8" standalone="no"?><!DOCTYPE svg PUBLIC "-//W3C//DTD SVG 1.1//EN" "http://www.w3.org/Graphics/SVG/1.1/DTD/svg11.dtd"><svg width="100%" height="100%" viewBox="0 0 9834 7030" version="1.1" xmlns="http://www.w3.org/2000/svg" xmlns:xlink="http://www.w3.org/1999/xlink" xml:space="preserve" xmlns:serif="http://www.serif.com/" style="fill-rule:evenodd;clip-rule:evenodd;stroke-linejoin:round;stroke-miterlimit:2;"><rect id="Artboard1" x="0" y="0" width="9833.33" height="7029.17" style="fill:none;"/><g><path d="M991.912,6465.8c-0,0 -1297.42,-2596.35 -272.375,-3997.83c1561.77,-2135.3 3221.07,414.856 4211.36,-869.198c1355.11,-1757.09 4344.84,-1183.2 3818.48,1233.18c-369.187,1694.75 1438.22,1368.24 601.942,3673.82l-8359.41,-39.967Z" style="fill:#e9e9e9;fill-rule:nonzero;"/><path d="M4879.7,5261.33l-1282.41,-0c-48.735,-0 -88.191,-43.059 -88.191,-96.17l-0,-62.448l1370.61,0l0,158.618Z" style="fill:#77a4e5;fill-rule:nonzero;"/><path d="M4225.64,6408.47l-82.677,0l-23.248,-1147.14l126.39,-0l-20.465,1147.14Z" style="fill:#677282;fill-rule:nonzero;"/><path d="M4585.17,6408.47l-804.517,0l-0,-79.16l410.063,-40.324l394.454,40.324l-0,79.16Z" style="fill:#677282;fill-rule:nonzero;"/><path d="M3702.51,6396.04c-0,-39.847 29.634,-72.083 66.198,-72.083c36.509,0 66.142,32.236 66.142,72.083c-0,39.848 -29.633,72.142 -66.142,72.142c-36.564,0 -66.198,-32.294 -66.198,-72.142Z" style="fill:#677282;fill-rule:nonzero;"/><path d="M4507.02,6396.04c-0,-39.847 29.633,-72.083 66.197,-72.083c36.509,0 66.143,32.236 66.143,72.083c-0,39.848 -29.634,72.142 -66.143,72.142c-36.564,0 -66.197,-32.294 -66.197,-72.142Z" style="fill:#677282;fill-rule:nonzero;"/><path d="M4460.96,5336.57l-556.102,-0c-33.343,-0 -60.412,-29.44 -60.412,-65.838l-0,-9.397l676.925,-0l0,9.397c0,36.398 -27.068,65.838 -60.411,65.838Z" style="fill:#677282;fill-rule:nonzero;"/><path d="M3623.92,5261.33c-63.413,-0 -114.822,-56.084 -114.822,-125.193l-0,-999.821c-0,-197.93 118.751,-358.416 265.226,-358.416l599.813,0c146.475,0 265.226,160.486 265.226,358.416l-0,1125.01l-1015.44,-0Z" style="fill:#b8c0c7;fill-rule:nonzero;"/><path d="M3635.76,5261.33c-34.763,-0 -62.976,-30.748 -62.976,-68.633l-0,-1056.38c-0,-197.93 118.749,-358.416 265.279,-358.416l599.813,0c146.475,0 265.226,160.486 265.226,358.416l-0,1125.01l-1067.34,-0Z" style="fill:#677282;fill-rule:nonzero;"/><path d="M5025.85,5261.33l-1467.31,-0c-40.166,-0 -72.801,-35.506 -72.801,-79.339c0,-43.773 32.635,-79.279 72.801,-79.279l1467.31,0c40.166,0 72.746,35.506 72.746,79.279c0,43.833 -32.58,79.339 -72.746,79.339Z" style="fill:#b8c0c7;fill-rule:nonzero;"/><path d="M5870.42,6496.49l-546.276,-0c-26.25,-34.911 -40.985,-199.298 -37.001,-241.346c0.818,-8.505 10.641,-47.937 10.641,-47.937c0,0 201.702,-92.72 227.298,31.819c0.764,3.866 1.746,7.732 2.784,11.479c32.252,116.45 177.089,169.382 260.694,184.132c54.356,9.575 74.439,40.383 81.86,61.853Z" style="fill:#0078ee;fill-rule:nonzero;"/><path d="M4381.12,4638.28c19.756,0 747.816,110.92 899.366,296.479c75.692,92.72 273.575,1307.54 273.575,1307.54c-0,0 -92.01,71.132 -294.258,4.461c-0,-0 -266.972,-786.071 -256.003,-1008.27c3.056,-61.437 -647.238,-87.13 -762.333,-116.57c-115.094,-29.499 -257.913,-101.82 -195.972,-222.493c61.996,-120.732 335.625,-261.151 335.625,-261.151Z" style="fill:#151f2c;fill-rule:nonzero;"/><path d="M5506.75,6496.49l-546.278,-0c-26.303,-34.911 -16.589,-163.851 -12.605,-205.959c0.818,-8.505 1.364,-13.441 1.364,-13.441c0,-0 186.531,-162.603 212.18,-38.064c0.765,3.866 1.692,7.732 2.729,11.479c32.307,116.45 177.089,169.382 260.696,184.132c54.354,9.575 74.437,40.383 81.914,61.853Z" style="fill:#0078ee;fill-rule:nonzero;"/><path d="M4091.07,4702.45c19.754,-0 889.323,47.044 1040.87,251.457c75.638,102.117 86.935,1281.37 86.935,1281.37c-0,0 -93.647,126.502 -295.896,53.051c0,0 -185.876,-625.668 -172.233,-1051.68c2.184,-67.741 -541.256,-75.473 -690.514,-88.438c-189.314,-16.356 -237.175,-362.674 -175.179,-495.598c61.994,-132.985 206.014,49.839 206.014,49.839Z" style="fill:#384152;fill-rule:nonzero;"/><path d="M4275.63,3368.84l-10.86,2.403c-48.57,10.693 -96.376,-23.861 -106.199,-76.793l-11.514,-62.133c-9.769,-52.932 21.938,-104.984 70.453,-115.683l10.915,-2.403c48.569,-10.693 96.375,23.867 106.144,76.793l11.516,62.133c9.823,52.938 -21.884,104.989 -70.455,115.683Z" style="fill:#43a1f6;fill-rule:nonzero;"/><path d="M4666.49,4690.02c-109.038,189.782 -789.892,246.937 -789.892,246.937c-11.461,-30.332 -63.251,-519.508 -72.036,-553.229c-22.157,-84.394 -36.511,-177.471 -45.624,-268.586c-0.109,-1.13 -0.273,-2.319 -0.383,-3.509c-15.661,-158.023 -15.771,-310.087 -13.643,-401.421c1.201,-52.843 3.166,-85.393 3.275,-86.975l0,-0.042c1.638,-0.773 3.33,-1.499 4.966,-2.218c41.203,-18.842 80.714,-35.072 118.587,-49.132c0.164,-0.041 0.328,-0.083 0.328,-0.083c31.816,-11.836 62.486,-22.041 91.956,-30.843c51.79,-15.505 100.032,-26.657 144.619,-34.388c52.553,-9.064 100.141,-13.376 142.817,-14.357c1.911,-0.084 3.766,-0.084 5.731,-0.131c11.242,-0.209 22.102,-0.167 32.689,0.089c106.309,2.48 177.09,25.544 212.89,40.924c4.966,2.135 9.223,4.146 12.824,5.942c0.437,0.214 0.929,0.428 1.364,0.636c4.093,1.963 7.204,3.634 9.388,4.829c0.272,0.125 0.6,0.298 0.873,0.512c1.036,0.6 2.073,1.243 3.056,1.885l55.992,641.614l80.223,501.546Z" style="fill:#0078ee;fill-rule:nonzero;"/><path d="M5385.87,4341.5c-77.821,39.431 -540.766,72.44 -585.242,58.522c-22.813,-7.196 -118.207,-98.786 -214.254,-211.549l-0.11,-0.06c-90.865,-106.578 -182.439,-232.068 -213.381,-322.35c-63.523,-185.583 -8.895,-350.345 -8.895,-350.345c-0,0 118.096,-0.535 166.284,31.141c48.133,31.771 323.51,584.406 360.292,598.971c36.837,14.63 472.985,41.81 522.864,67.681c0,0 50.209,88.676 -27.558,127.989Z" style="fill:#0078ee;fill-rule:nonzero;"/><path d="M4257.08,3514.49l-0.11,31.248c0,-0 7.968,97.692 -102.433,112.145c-110.347,14.493 -194.063,-37.773 -191.17,-113.18c9.823,-58.391 20.683,-98.501 21.339,-146.806c0.271,-17.949 -0.874,-36.999 -3.984,-58.505l213.926,-5.008l63.033,11.111l-0.601,168.995Z" style="fill:#ee805f;fill-rule:nonzero;"/><path d="M4257.68,3345.49l-0.601,168.995c-22.702,11.556 -48.353,18.628 -77.058,18.669c-98.34,0.173 -196.19,-172.261 -199.3,-193.767l276.959,6.103Z" style="fill:#de6b4d;fill-rule:nonzero;"/><path d="M4270.28,3427.6c-0,0 -273.902,60.777 -305.991,-125.692c-32.144,-186.47 -89.118,-304.205 84.425,-350.898c173.488,-46.688 219.821,17.497 244.433,76.894c24.611,59.403 47.533,379.077 -22.867,399.696Z" style="fill:#ee805f;fill-rule:nonzero;"/><path d="M4346.25,2889.24c-0,0 -76.403,-6.275 -166.612,-48.829c-73.184,-34.53 -165.412,3.789 -195.318,21.043c0.764,-5.264 2.674,-12.448 7.259,-19.657c-0,0 -13.426,10.414 -15.39,24.95c-1.364,1.112 -2.02,1.879 -1.638,2.135c0,-0 -15.28,-3.015 -25.049,1.808c-0,0 6.876,-1.082 9.333,3.717c0.217,0.511 0.654,0.934 1.091,1.32c-114.004,60.271 -124.263,256.798 -87.481,302.207c44.204,54.627 97.359,177.738 97.359,177.738c0,-0 19.263,-29.142 11.187,-77.263c-8.077,-48.126 30.07,-48.192 78.203,-70.156c48.189,-21.963 7.913,-83.162 50.044,-120.435c42.075,-37.272 196.736,-15.647 194.663,-44.088c57.411,-22.88 42.349,-148.085 42.349,-154.49Z" style="fill:#151f2c;fill-rule:nonzero;"/><path d="M3850.95,4756.34c-13.099,-96.587 -44.369,-219.282 -58.994,-323.6c-12.224,-86.772 -23.904,-226.477 -33.017,-317.592c-0.109,-1.13 -0.273,-2.319 -0.383,-3.509c0.601,0.304 1.583,2.022 2.184,1.19c30.289,-40.026 112.857,-83.859 212.835,75.651c19.974,31.819 101.615,227.191 98.668,267.217c-13.261,182.586 -221.293,300.643 -221.293,300.643Z" style="fill:#2b6eb2;fill-rule:nonzero;"/><path d="M3916.11,4480.2c-2.237,-14.393 0.218,-32.473 10.532,-55.073c0,-0 12.825,-9.041 29.851,-19.627c25.378,-15.582 60.031,-34.436 75.749,-31.402c2.838,0.535 6.657,1.427 11.133,2.617c37.272,9.753 124.208,38.896 137.305,56.024c10.86,14.036 25.595,31.938 35.746,47.461l-300.316,-0Z" style="fill:#ee805f;fill-rule:nonzero;"/><path d="M3973.57,4480.2l-731.935,-0c-1.964,-10.23 -2.073,-19.686 0.546,-26.823c21.829,-60.069 64.397,-159.034 113.512,-265.196c36.073,-78.089 75.638,-160.104 113.021,-233.436c51.845,-101.82 99.323,-187.028 127.265,-221.969c21.992,-27.466 49.77,-50.541 78.749,-69.544c24.558,-16.153 49.988,-29.392 73.455,-39.99l0,-0.042c1.638,-0.773 3.33,-1.499 4.966,-2.218c50.972,-22.517 91.355,-32.389 91.355,-32.389c0,-0 0.546,25.21 0.601,63.958c0.164,112.43 -3.765,339.015 -36.728,394.32c-9.167,15.404 -26.25,38.658 -47.642,65.957c-0.601,0.773 -1.2,1.546 -1.801,2.319c-11.569,14.809 -24.394,30.689 -37.874,47.044c-76.347,93.256 -173.105,202.807 -184.894,216.13c-0.818,0.891 -1.255,1.367 -1.255,1.367l1.419,0l205.25,3.093l62.978,0.952l130.538,1.962c9.004,4.223 15.99,11.181 21.392,19.805c12.607,20.162 16.482,49.423 17.082,74.7Z" style="fill:#0186ff;fill-rule:nonzero;"/><path d="M5385.87,4341.5c-77.821,39.431 -540.766,72.44 -585.242,58.522c-22.813,-7.196 -118.207,-98.786 -214.254,-211.549c4.747,0.713 48.624,-79.041 248.852,111.811c0,0 52.446,25.455 195.154,11.241c142.709,-14.274 325.965,-19.508 355.49,29.975Z" style="fill:#2b6eb2;fill-rule:nonzero;"/><path d="M4043.86,3368.84l-10.915,2.403c-48.569,10.693 -96.321,-23.861 -106.144,-76.793l-11.516,-62.133c-9.822,-52.932 21.884,-104.984 70.455,-115.683l10.915,-2.403c48.569,-10.693 96.321,23.867 106.144,76.793l11.516,62.133c9.822,52.938 -21.884,104.989 -70.455,115.683Z" style="fill:#43a1f6;fill-rule:nonzero;"/><path d="M3959,3145.08c-7.312,-14.375 -18.009,-130.022 11.133,-222.1c14.08,-44.511 36.891,-69.882 65.487,-87.011c10.37,-6.197 21.939,-9.504 33.728,-9.504l28.758,0.523c-94.629,43.673 -116.567,277.316 -109.199,302.242c-0.219,-0.773 -0.546,-1.332 -0.765,-1.742l-29.142,17.592Z" style="fill:#43a1f6;fill-rule:nonzero;"/><path d="M4235.25,3388.31c-159.08,-0 -237.83,-136.999 -238.593,-138.391l14.188,-9.48l-7.093,4.74l7.093,-4.746c0.765,1.303 74.876,129.707 224.405,129.707c0.982,0 1.966,-0.006 3.002,-0.017l0.164,18.169c-1.038,0.006 -2.129,0.018 -3.166,0.018Z" style="fill:#43a1f6;fill-rule:nonzero;"/><path d="M4018.21,3308.01l-5.403,1.189c-24.23,5.335 -48.024,-11.882 -52.935,-38.254l-5.731,-30.962c-4.856,-26.371 10.915,-52.307 35.145,-57.636l5.403,-1.202c24.231,-5.329 48.024,11.895 52.882,38.266l5.729,30.956c4.912,26.371 -10.86,52.314 -35.09,57.643Z" style="fill:#2b6eb2;fill-rule:nonzero;"/><path d="M4255,3394.35l-15.007,-0c-7.64,-0 -13.915,-6.81 -13.915,-15.143c-0,-8.32 6.275,-15.136 13.915,-15.136l15.007,-0c7.641,-0 13.862,6.816 13.862,15.136c0,8.333 -6.221,15.143 -13.862,15.143Z" style="fill:#43a1f6;fill-rule:nonzero;"/><path d="M2341.72,6421.85c3.22,47.936 65.324,48.472 135.724,39.55c70.399,-8.921 51.68,10.527 150.294,12.014c98.614,1.487 132.558,-34.019 137.36,-49.364c4.257,-13.619 -43.222,-25.097 -94.029,-38.598c-6.385,-1.666 -12.825,-3.45 -19.21,-5.174c-57.302,-15.88 -95.23,-62.627 -144.237,-103.426c-46.441,-38.599 -106.308,-178.482 -106.308,-178.482l-134.687,-6.661c0,-0 56.702,125.371 78.04,179.433c12.497,31.819 7.204,70.834 1.746,100.869c-2.947,16.295 -5.839,32.948 -4.693,49.839Z" style="fill:#ee805f;fill-rule:nonzero;"/><path d="M2477.45,6461.4c70.399,-8.921 51.68,10.527 150.294,12.014c98.614,1.487 132.558,-34.019 137.36,-49.364c4.257,-13.619 -43.222,-25.097 -94.029,-38.598l-0.6,1.011c-0,-0 -63.523,37.171 -144.674,28.25c-66.197,-7.256 -133.759,-37.35 -179.382,-42.702c-2.947,16.295 -5.839,32.948 -4.693,49.839c3.22,47.936 65.324,48.472 135.724,39.55Z" style="fill:#151f2c;fill-rule:nonzero;"/><path d="M1411.47,6431.78c3.22,47.936 65.27,48.531 135.723,39.729c70.4,-8.862 51.682,10.527 150.24,12.133c98.614,1.605 132.613,-33.841 137.416,-49.186c4.256,-13.619 -43.222,-25.157 -93.976,-38.717c-6.439,-1.665 -12.824,-3.45 -19.209,-5.175c-57.302,-15.939 -95.176,-62.745 -144.128,-103.604c-46.442,-38.658 -0.054,-267.752 -0.054,-267.752l-148.167,-15.702c0,0 7.095,192.875 7.041,280.6c-0.055,34.554 -14.681,67.86 -20.138,97.835c-2.947,16.296 -5.839,32.949 -4.748,49.839Z" style="fill:#ee805f;fill-rule:nonzero;"/><path d="M1547.19,6471.51c70.4,-8.862 51.682,10.527 150.24,12.133c98.614,1.605 132.613,-33.841 137.416,-49.186c4.256,-13.619 -43.222,-25.157 -93.976,-38.717l-0.655,1.011c0,-0 -63.468,37.112 -144.672,28.131c-66.198,-7.315 -133.705,-37.528 -179.328,-42.94c-2.947,16.296 -5.839,32.949 -4.748,49.839c3.22,47.936 65.27,48.531 135.723,39.729Z" style="fill:#151f2c;fill-rule:nonzero;"/><path d="M1843.85,2472.24c25.486,-114.322 -11.46,-167.557 -44.805,-195.903c-15.826,-42.077 -33.889,-72.403 -52.335,-83.834c-33.672,-20.858 -74.056,-23.136 -102.27,-21.316c7.258,-8.172 21.556,-11.151 21.556,-11.151c-17.463,-2.837 -56.538,16.082 -56.538,16.082c-243.45,-102.225 -281.706,288.396 -276.576,379.153c5.075,90.74 4.366,197.621 -122.244,269.121c-241.65,136.434 80.277,650.547 80.277,650.547c-6.112,-73.332 304.355,-460.343 466.382,-576.245c39.402,-63.269 53.427,-175.033 54.464,-183.835c-6.821,88.622 -20.738,138.325 -33.126,166.319c73.838,-74.057 84.752,-251.879 65.215,-408.938Z" style="fill:#151f2c;fill-rule:nonzero;"/><path d="M1747.69,2904.46c0.819,0.393 -78.203,45.111 -137.688,27.394c-55.883,-16.617 -92.447,-95.623 -91.628,-95.795c23.63,-5.127 30.452,-40.591 29.961,-192.97l10.751,2.296l179.982,38.842c-0,0 -4.093,61.729 -4.257,119.876c-0.109,48.829 2.62,95.142 12.879,100.357Z" style="fill:#ee805f;fill-rule:nonzero;"/><path d="M1739.07,2684.23c-0,0 -4.093,61.729 -4.257,119.876c-100.687,-3.092 -153.951,-103.217 -175.725,-158.718l179.982,38.842Z" style="fill:#de6b4d;fill-rule:nonzero;"/><path d="M2471.34,6176.1c8.841,30.094 -11.023,61.2 -40.002,62.687l-70.29,3.568l-74.438,2.498c-18.609,0.595 -36.4,-8.267 -48.133,-23.968c-59.376,-79.399 -242.196,-343.999 -353.088,-728.5c-3.111,-10.765 -6.386,-21.708 -9.878,-32.711c-73.238,-232.722 -225.005,-524.8 -305.01,-789.163c-12.77,-42.108 -24.175,-81.777 -34.435,-119.246c-3.274,-12.013 -6.495,-23.849 -9.55,-35.446c-58.94,-223.267 -76.021,-369.811 -91.738,-526.406l577.656,5.001c0,0 121.644,1030.15 458.906,2181.69Z" style="fill:#0078ee;fill-rule:nonzero;"/><path d="M1931.55,3632.69c-1.419,299.572 40.33,428.096 40.33,428.096c-0,-0 -247.326,136.969 -541.312,36.16c-3.438,-1.189 -80.713,-494.956 -73.345,-539.616c13.643,-83.365 13.915,-169.626 7.148,-250.981c-17.954,-215.368 -71.272,-394.147 -71.272,-394.147c80.059,-19.858 155.097,-54.752 238.43,-88.825c19.21,26.02 77.821,53.247 128.684,51.999c58.557,-1.404 77.548,-28.72 74.492,-58.547c62.377,37.837 112.202,73.588 112.202,73.588c52.991,100.392 160.555,197.882 168.358,351.884c1.91,37.874 -83.66,381.997 -83.715,390.389Z" style="fill:#b8c0c7;fill-rule:nonzero;"/><path d="M1434.77,3666.08c-25.268,38.95 -73.674,275.693 -194.117,305.43c62.05,-168.711 109.201,-242.69 116.569,-294.564c13.643,-96.836 13.915,-197.032 7.148,-291.543c40.33,-77.013 70.4,-129.813 70.4,-129.813c3.165,-12.455 64.069,-217.7 83.606,-34.24c19.482,183.507 -55.392,401.165 -83.606,444.73Z" style="fill:#5f9aa8;fill-rule:nonzero;"/><path d="M1844.18,2868.39c-0,-0 85.679,50.678 121.807,100.689c36.128,50.006 247.707,464.387 247.707,505.858c0,41.483 -214.69,14.375 -214.69,14.375l-154.824,-620.922Z" style="fill:#384152;fill-rule:nonzero;"/><path d="M1772.69,2739.3c-0,-0 -238.321,4.282 -238.485,-157.488c-0.163,-161.764 -30.997,-270.162 121.153,-279.737c152.095,-9.575 181.728,52.123 193.844,106.096c12.115,53.985 -14.517,325.841 -76.512,331.129Z" style="fill:#ee805f;fill-rule:nonzero;"/><path d="M1763.85,2298.11c0,-0 -65.215,189.782 -165.357,217.842c-100.141,28.066 -143.581,-1.171 -143.581,-1.171c-0,-0 76.838,-66.493 92.774,-182.563c-0,0 166.939,-124.437 216.164,-34.108Z" style="fill:#151f2c;fill-rule:nonzero;"/><path d="M1747.69,2313.52c-0,0 48.734,42.37 60.577,83.561c11.896,41.198 17.244,125.996 39.947,123.112c-0,-0 49.116,-128.994 -6.112,-201.968c-58.557,-77.376 -94.412,-4.705 -94.412,-4.705Z" style="fill:#151f2c;fill-rule:nonzero;"/><path d="M1734.71,2816.83c0,0 137.851,371.185 141.89,446.307c4.093,75.115 16.263,1228.42 16.263,1228.42c0,0 -8.131,53.051 85.134,30.927c93.265,-22.065 117.605,-44.189 117.605,-44.189c-0,-0 -89.227,-711.425 -64.887,-958.873c24.285,-247.455 -186.531,-651.028 -186.531,-651.028l-109.474,-51.565Z" style="fill:#384152;fill-rule:nonzero;"/><path d="M2361.04,6242.36l-80.823,2.676c-14.407,0.476 -28.269,-6.304 -37.437,-18.437c-54.301,-71.666 -243.669,-339.895 -357.399,-734.209c-3.111,-10.765 -6.386,-21.708 -9.878,-32.711c-73.238,-232.722 -225.005,-524.8 -305.01,-789.163c-12.77,-42.108 -24.175,-81.777 -34.435,-119.246c-3.274,-12.013 -6.495,-23.849 -9.55,-35.446l85.079,-70.358c-0,-0 255.402,450.695 334.479,874.865c68.707,368.443 343.756,811.764 414.974,922.029Z" style="fill:#2b6eb2;fill-rule:nonzero;"/><path d="M1620.49,5359.82c1.365,195.135 -7.094,630.07 -28.924,842.69c-1.964,19.448 -17.081,34.138 -35.035,34.138l-60.304,0c-25.377,0 -44.368,-0.178 -57.029,-0.416c-10.914,-0.178 -20.247,-8.683 -22.374,-20.4c-59.922,-332.401 -102.817,-608.54 -134.196,-847.15c-26.304,-199.714 -49.662,-370.941 -67.616,-518.377c-18.064,-148.329 -30.671,-272.571 -35.145,-377.483c-0.71,-16.534 -1.201,-32.652 -1.528,-48.234c-0.273,-15.701 -0.328,-30.926 -0.219,-45.735l499.127,-52.992c-6.277,361.366 -57.575,914.059 -56.757,1033.96Z" style="fill:#0078ee;fill-rule:nonzero;"/><path d="M1496.22,6236.65c-22.811,0 -40.439,-0.178 -52.99,-0.357c-13.262,-0.178 -24.613,-10.526 -27.177,-24.741c-59.54,-330.498 -102.162,-605.269 -133.432,-842.868c-26.304,-199.714 -49.662,-370.941 -67.616,-518.377c-18.064,-148.329 -30.671,-272.571 -35.145,-377.483l183.147,117.402c-0,0 -116.895,44.903 -72.31,385.155c44.642,340.252 143.474,1213.1 205.523,1261.27Z" style="fill:#2b6eb2;fill-rule:nonzero;"/><path d="M1519.8,4469.49c0,0 -35.145,138.397 -156.789,120.733c-121.643,-17.664 -294.586,-97.24 -294.586,-97.24c0,-0 51.954,-178.958 116.623,-414.119c78.204,-284.727 175.071,-651.754 220.749,-883.252c12.824,-64.868 21.556,-119.043 24.83,-157.838l100.906,-213.382c-0,0 150.458,368.038 158.59,460.83c8.076,92.798 -170.323,1184.27 -170.323,1184.27Z" style="fill:#384152;fill-rule:nonzero;"/><path d="M1514.39,3479.65c-5.403,150.237 -37.819,441.904 -327.057,598.03c-0.764,0.351 -1.528,0.833 -2.292,1.184c78.204,-284.727 175.071,-651.754 220.749,-883.252c53.099,86.517 111.602,201.32 108.6,284.038Z" style="fill:#151f2c;fill-rule:nonzero;"/><path d="M1398.37,3271.4l133.158,-447.003c-0.327,0.185 -168.194,54.431 -252.619,100.922c0,-0 -52.827,74.152 -85.462,245.236c0,-0 -34.489,410.729 42.513,560.973c0,-0 243.287,53.021 632.557,-92.798l-0,-97.211c-0,0 -425.725,24.301 -512.933,35.352l42.786,-305.471Z" style="fill:#ee805f;fill-rule:nonzero;"/><path d="M1531.53,2824.39c-0,0 -246.889,18.955 -306.374,163.305c-59.429,144.344 -78.367,624.514 -2.674,765.914c0,0 104.181,32.342 288.474,-5.21c2.292,-0.463 4.53,-0.934 6.822,-1.409c-0,-0 58.775,-156.869 6.112,-187.802c0,0 -155.425,8.838 -139.216,-47.133c16.208,-55.971 146.856,-687.665 146.856,-687.665Z" style="fill:#384152;fill-rule:nonzero;"/><path d="M2150.61,3601.58l-7.313,25.473l-405.097,-137.35c0,0 -5.402,-6.708 -2.783,-15.612c2.947,-9.836 10.042,-9.86 10.042,-9.86l405.151,137.349Z" style="fill:#a9453d;fill-rule:nonzero;"/><path d="M2179.86,3625.65l-29.251,-24.075l-7.313,25.473l36.564,-1.398Z" style="fill:#a9453d;fill-rule:nonzero;"/><path d="M1868.52,3541.51c-0,0 91.902,-61.687 130.485,-52.2c38.529,9.486 136.815,87.058 89.554,103.848c-47.26,16.795 -85.571,-0.827 -103.743,11.371c-18.173,12.198 -31.598,34.495 -116.296,34.192c-84.697,-0.304 -0,-97.211 -0,-97.211Z" style="fill:#ee805f;fill-rule:nonzero;"/><path d="M1834.74,4087.49l420.977,0.173l162.027,-667.057l-420.977,-0.172l-162.027,667.056Z" style="fill:#151f2c;fill-rule:nonzero;"/><path d="M2015,3374.46c-0,0 -32.199,5.757 -18.228,45.974l143.746,-0l-45.951,-45.974l-79.567,0Z" style="fill:#9db0f4;fill-rule:nonzero;"/><path d="M2015,3374.46c-0,0 63.468,0 85.515,55.722c26.905,68.103 15.39,258.392 15.39,258.392l337.754,-0c-0,-0 53.317,-223.63 -58.121,-314.114l-380.538,0Z" style="fill:#fff;fill-rule:nonzero;"/><path d="M2335.67,3752.74c-0,0 -50.863,-41.501 -66.58,-17.557c-15.717,23.939 12.06,146.051 45.351,137.011c33.234,-8.981 33.616,-94.611 21.229,-119.454Z" style="fill:#ee805f;fill-rule:nonzero;"/><path d="M4604.11,2771.26c-8.35,-224.884 164.592,-324.801 341.463,-324.801c176.872,0 369.297,49.941 385.996,348.971c10.697,192.382 -83.387,310.753 -354.343,310.753c-91.41,-0 -162.41,-15.707 -216.819,-43.719l-135.451,131.17l66.525,-181.307c-58.939,-59.748 -83.77,-144.023 -87.371,-241.067Z" style="fill:#b8c0c7;fill-rule:nonzero;"/><path d="M7020.66,2523.45c15.226,-410.301 -300.316,-592.589 -623.006,-592.589c-322.637,-0 -673.76,91.108 -704.212,636.689c-19.538,350.987 152.15,566.962 646.527,566.962c166.722,-0 296.278,-28.661 395.547,-79.773l247.162,239.312l-121.48,-330.784c107.618,-109.004 152.914,-262.769 159.462,-439.817Z" style="fill:#b8c0c7;fill-rule:nonzero;"/><path d="M3002.22,6501.9l-0.927,0c-5.566,0 -10.041,-13.441 -9.878,-29.796l14.953,-1912.51l44.205,-15.166l-37.656,1927.8c-0.328,16.652 -5.021,29.677 -10.697,29.677Z" style="fill:#151f2c;fill-rule:nonzero;"/><path d="M2926.04,4594.74l2564.34,-0c20.356,-0 36.837,-17.961 36.837,-40.145l0,-35.09c0,-22.184 -16.481,-40.145 -36.837,-40.145l-2564.34,0c-20.356,0 -36.837,17.961 -36.837,40.145l-0,35.09c-0,22.184 16.481,40.145 36.837,40.145Z" style="fill:#151f2c;fill-rule:nonzero;"/><path d="M8684.49,6501.9l0.927,0c5.567,0 10.042,-13.441 9.933,-29.796l-15.008,-1912.51l-44.204,-15.166l37.656,1927.8c0.326,16.652 5.02,29.677 10.696,29.677Z" style="fill:#151f2c;fill-rule:nonzero;"/><path d="M5314.05,4594.74l3423.37,-0c23.466,-0 42.512,-20.697 42.512,-46.271l0,-22.779c0,-25.573 -18.991,-46.33 -42.512,-46.33l-3423.43,0c-23.466,0 -42.458,20.757 -42.458,46.33l0,22.779c0,25.574 18.992,46.271 42.513,46.271Z" style="fill:#151f2c;fill-rule:nonzero;"/><path d="M4969.2,4478.71l-529.196,0c-0,-25.396 18.882,-45.974 42.185,-45.974l487.011,0l-0,45.974Z" style="fill:#384152;fill-rule:nonzero;"/><path d="M5785.94,3850.54l-196.245,628.167l-823.563,0l201.593,-628.167l818.215,0Z" style="fill:#384152;fill-rule:nonzero;"/><path d="M5785.94,3850.54l-194.444,622.338l-1.801,5.829l-811.502,0l201.538,-628.167l806.209,0Z" style="fill:#384152;fill-rule:nonzero;"/><path d="M5356.84,4158.8c-5.075,24.028 -27.068,43.476 -49.061,43.476c-22.048,-0 -35.746,-19.448 -30.671,-43.476c5.076,-23.968 27.068,-43.416 49.061,-43.416c22.048,-0 35.746,19.448 30.671,43.416Z" style="fill:#43a1f6;fill-rule:nonzero;"/><path d="M5934.98,3850.54l197.555,628.821l822.254,-0.654l-201.594,-628.167l-818.215,0Z" style="fill:#151f2c;fill-rule:nonzero;"/><path d="M5958.4,3864.34l189.915,608.659l1.746,5.71l792.675,0l-196.899,-614.369l-787.437,0Z" style="fill:#f4f4f4;fill-rule:nonzero;"/><path d="M6132.54,4479.36l1148.38,-0.654c-0,-25.396 -18.884,-45.974 -42.185,-45.974l-1117.99,0l11.787,46.628Z" style="fill:#151f2c;fill-rule:nonzero;"/><path d="M7630.19,3411.76l-10.806,0c-48.024,0 -87.317,-42.833 -87.317,-95.188l0,-61.455c0,-52.355 39.293,-95.188 87.317,-95.188l10.806,-0c48.023,-0 87.317,42.833 87.317,95.188l-0,61.455c-0,52.355 -39.294,95.188 -87.317,95.188Z" style="fill:#43a1f6;fill-rule:nonzero;"/><path d="M7169.48,6280.01c0,0 -11.623,196.8 -46.551,199.536c-4.638,0.357 -177.199,-0.06 -177.199,-0.06l-220.256,-1.903c-0,0 1.583,-57.809 65.978,-69.882c64.397,-12.073 172.288,-61.139 211.471,-153.8c41.203,-97.478 166.557,26.109 166.557,26.109Z" style="fill:#151f2c;fill-rule:nonzero;"/><path d="M7799.97,4661.53c8.404,7.731 232.755,272.629 214.418,476.091c-5.348,59.712 -52.608,104.674 -107.727,104.674l-273.248,0c-0,0 -278.814,54.3 -285.473,119.96c-6.658,65.659 -63.686,419.65 -176.762,922.682c0,0 -83.333,31.284 -133.868,8.921c-66.852,-29.499 -76.566,-60.842 -76.566,-60.842c0,0 67.398,-1126.38 120.607,-1205.66c53.209,-79.28 601.396,-314.916 778.868,-338.409c177.472,-23.433 -60.249,-27.417 -60.249,-27.417Z" style="fill:#151f2c;fill-rule:nonzero;"/><path d="M6215.22,4380.58c0,-0 -158.59,-40.205 -199.137,-0c-40.549,40.145 -53.482,98.429 -53.482,98.429l252.619,0l0,-98.429Z" style="fill:#ee805f;fill-rule:nonzero;"/><path d="M6783.43,6280.01c-0,0 -11.569,196.8 -46.551,199.536c-4.638,0.357 -177.199,-0.06 -177.199,-0.06l-220.256,-1.903c-0,0 1.582,-57.809 65.978,-69.882c64.396,-12.073 172.287,-61.139 211.471,-153.8c41.203,-97.478 166.557,26.109 166.557,26.109Z" style="fill:#151f2c;fill-rule:nonzero;"/><path d="M8007.18,4661.53c6.386,5.828 54.956,148.209 87.372,309.92c27.942,139.11 -69.199,270.845 -199.901,270.845l-635.668,0c0,0 -278.869,54.3 -285.527,119.96c-6.658,65.659 -63.686,419.65 -176.762,922.682c0,0 -83.606,23.909 -148.876,-6.482c-34.709,-16.177 -62.104,-54.954 -62.104,-54.954c-0,-0 67.997,-1116.87 121.206,-1196.14c53.209,-79.28 601.343,-314.916 778.813,-338.409c177.527,-23.433 521.447,-27.417 521.447,-27.417Z" style="fill:#384152;fill-rule:nonzero;"/><path d="M7654.86,3654.53l-98.286,102.855l-167.541,0.048c-0.164,-14.679 0.382,-75.89 0.983,-131.361c0.055,-3.26 0.109,-6.524 0.109,-9.73c0.108,-12.311 0.272,-24.2 0.436,-35.03c0.328,-30.558 0.601,-52.707 0.601,-52.707l43.058,-32.086l95.667,-71.386l51.735,-38.54c-0,0.946 4.257,51.38 4.912,58.701c11.46,130.564 68.326,209.236 68.326,209.236Z" style="fill:#ee805f;fill-rule:nonzero;"/><path d="M7411.3,3635.98c3.221,-1.469 184.458,-90.067 205.631,-82.443c21.23,7.625 47.643,78.173 47.643,78.173l-319.144,78.631c0,-0 25.104,-55.656 65.87,-74.361Z" style="fill:#2b6eb2;fill-rule:nonzero;"/><path d="M8195.18,4227.91c-34.489,-232.068 -180.308,-405.763 -242.686,-470.863c-41.858,-68.669 -287.928,-125.336 -287.928,-125.336c-0,0 -203.83,50.226 -319.144,78.631c0,-0 -179.873,21.274 -281.27,204.08c-62.759,113.119 -242.414,371.714 -360.4,379.742c-117.988,8.029 -488.539,86.417 -488.539,86.417l0,99.321l564.941,16.891c6.877,0.238 13.753,-0.357 20.52,-1.784c48.624,-9.992 257.039,-55.133 360.618,-113.893c16.591,290.829 36.128,734.922 129.338,805.459c98.56,74.581 791.857,84.572 865.258,-29.142c37.547,-58.166 -8.513,-402.7 -66.033,-734.864c71.545,-37.112 119.843,-97.418 105.325,-194.659Z" style="fill:#0078ee;fill-rule:nonzero;"/><path d="M7554.82,3485.93l-8.569,5.776c0,-0 -78.803,61.859 -155.697,89.604c0.328,-30.558 0.601,-52.707 0.601,-52.707l43.058,-32.086l120.607,-10.587Z" style="fill:#de6b4d;fill-rule:nonzero;"/><path d="M7332.44,3530.2c0,-0 257.749,33.228 274.23,-142.007c16.536,-175.229 60.958,-288.955 -102.925,-317.58c-163.829,-28.632 -202.194,34.649 -220.748,91.679c-18.555,57.03 -17.19,354.752 49.443,367.908Z" style="fill:#ee805f;fill-rule:nonzero;"/><path d="M7289.82,3144.35c0,-0 48.679,190.097 83.88,174.241c35.254,-15.849 67.452,-28.839 72.036,30.51c4.638,59.35 25.103,128.935 139.871,116.237c114.822,-12.698 163.065,-355.382 121.698,-409.212c-119.296,-155.299 -583.223,-97.128 -417.485,88.224Z" style="fill:#151f2c;fill-rule:nonzero;"/><path d="M7107.27,5279.95l1274.88,0c48.407,0 87.645,-42.762 87.645,-95.515l-0,-62.151l-1362.53,0l0,157.666Z" style="fill:#77a4e5;fill-rule:nonzero;"/><path d="M6954.52,5279.95l964.471,0c35.801,0 64.833,-31.581 64.833,-70.596l-0,-16.415c-0,-39.015 -29.032,-70.655 -64.833,-70.655l-964.471,0c-35.8,0 -64.833,31.64 -64.833,70.655l-0,16.415c-0,39.015 29.033,70.596 64.833,70.596Z" style="fill:#b8c0c7;fill-rule:nonzero;"/><path d="M7757.45,6420.36l82.242,0l23.085,-1140.42l-125.628,0l20.301,1140.42Z" style="fill:#b8c0c7;fill-rule:nonzero;"/><path d="M7400.11,6420.36l799.716,0l-0,-78.744l-407.607,-40.026l-392.109,40.026l0,78.744Z" style="fill:#b8c0c7;fill-rule:nonzero;"/><path d="M8277.54,6407.99c-0,-39.609 -29.469,-71.666 -65.761,-71.666c-36.346,0 -65.814,32.057 -65.814,71.666c-0,39.61 29.468,71.726 65.814,71.726c36.292,0 65.761,-32.116 65.761,-71.726Z" style="fill:#b8c0c7;fill-rule:nonzero;"/><path d="M7477.77,6407.99c-0,-39.609 -29.414,-71.666 -65.76,-71.666c-36.346,0 -65.815,32.057 -65.815,71.666c-0,39.61 29.469,71.726 65.815,71.726c36.346,0 65.76,-32.116 65.76,-71.726Z" style="fill:#b8c0c7;fill-rule:nonzero;"/><path d="M7428.76,5354.77l742.414,-0c37.928,-0 68.653,-33.484 68.653,-74.819l-879.719,0c0,41.335 30.724,74.819 68.652,74.819Z" style="fill:#b8c0c7;fill-rule:nonzero;"/><path d="M8343.9,5279.95c34.545,0 62.597,-30.51 62.597,-68.216l-0,-1050.08c-0,-196.741 -118.097,-356.292 -263.698,-356.292l-596.266,-0c-145.601,-0 -263.644,159.551 -263.644,356.292l0,1118.29l1061.01,0Z" style="fill:#b8c0c7;fill-rule:nonzero;"/><path d="M8355.63,5279.95c63.087,0 114.167,-55.667 114.167,-124.42l-0,-993.873c-0,-196.741 -118.041,-356.292 -263.643,-356.292l-596.267,-0c-145.6,-0 -263.696,159.551 -263.696,356.292l-0,1118.29l1009.44,0Z" style="fill:#677282;fill-rule:nonzero;"/><path d="M7240.86,3533.98c147.075,-50.636 183.148,-202.343 183.475,-203.877l-15.662,-4.235l7.803,2.111l-7.803,-2.117c-0.328,1.433 -34.491,143.743 -172.669,191.329c-0.929,0.315 -1.856,0.624 -2.783,0.939l4.692,16.849c0.982,-0.327 1.965,-0.666 2.947,-0.999Z" style="fill:#43a1f6;fill-rule:nonzero;"/><path d="M7224.22,3545.86l13.862,-4.776c7.04,-2.438 11.024,-10.723 8.787,-18.419c-2.238,-7.696 -9.878,-12.002 -16.918,-9.575l-13.862,4.782c-7.04,2.426 -11.024,10.717 -8.786,18.413c2.237,7.695 9.823,12.001 16.917,9.575Z" style="fill:#43a1f6;fill-rule:nonzero;"/><path d="M7426.63,3474.71l-10.697,1.611c-47.587,7.197 -91.901,-29.35 -98.504,-81.205l-7.749,-60.872c-6.605,-51.856 26.904,-100.173 74.492,-107.369l10.696,-1.611c47.587,-7.197 91.901,29.35 98.504,81.205l7.749,60.872c6.604,51.856 -26.904,100.173 -74.491,107.369Z" style="fill:#43a1f6;fill-rule:nonzero;"/><path d="M7356.72,3252.66c-6.33,-12.977 15.935,-113.804 48.679,-192.007c15.827,-37.801 55.773,-88.396 84.316,-101.433c10.314,-4.716 23.957,-2.789 35.145,-0.042c8.132,2.005 30.834,16.392 30.834,16.392c-93.702,31.836 -175.179,243.089 -169.286,265.243c-0.164,-0.684 -0.436,-1.19 -0.6,-1.558l-29.088,13.405Z" style="fill:#43a1f6;fill-rule:nonzero;"/><path d="M7405.13,3414.18l-5.349,0.809c-23.684,3.581 -45.787,-14.625 -49.062,-40.46l-3.874,-30.332c-3.274,-25.841 13.425,-49.911 37.11,-53.497l5.348,-0.797c23.685,-3.592 45.788,14.619 49.061,40.454l3.875,30.332c3.275,25.836 -13.425,49.911 -37.109,53.491Z" style="fill:#2b6eb2;fill-rule:nonzero;"/><path d="M9562.3,6481.09l0,5.234c0,8.386 -4.474,15.285 -9.931,15.285l-8771.27,-0c-5.457,-0 -9.932,-6.899 -9.932,-15.285l0,-5.234c0,-8.386 4.475,-15.285 9.932,-15.285l8771.27,0c5.457,0 9.931,6.899 9.931,15.285Z" style="fill:#151f2c;fill-rule:nonzero;"/></g></svg>