<?xml version="1.0" encoding="UTF-8" standalone="no"?>
<!DOCTYPE svg PUBLIC "-//W3C//DTD SVG 1.1//EN" "http://www.w3.org/Graphics/SVG/1.1/DTD/svg11.dtd">
<svg width="100%" height="100%" viewBox="0 0 616 706" version="1.1" xmlns="http://www.w3.org/2000/svg" xmlns:xlink="http://www.w3.org/1999/xlink" xml:space="preserve" xmlns:serif="http://www.serif.com/" style="fill-rule:evenodd;clip-rule:evenodd;stroke-linejoin:round;stroke-miterlimit:2;">
    <g id="Artboard1" transform="matrix(0.824048,0,0,0.813519,-7.92608,-62.1097)">
        <rect x="9.618" y="76.347" width="747.172" height="867.345" style="fill:none;"/>
        <clipPath id="_clip1">
            <rect x="9.618" y="76.347" width="747.172" height="867.345"/>
        </clipPath>
        <g clip-path="url(#_clip1)">
            <g transform="matrix(1.21352,0,0,1.22923,159.858,272.289)">
                <g>
                    <g>
                        <g transform="matrix(2.44407,0,0,2.48902,-191.37,-207.686)">
                            <path d="M315,4.821C315,2.16 312.8,0 310.09,0L4.91,0C2.2,0 0,2.16 0,4.821L0,348.179C0,350.84 2.2,353 4.91,353L310.09,353C312.8,353 315,350.84 315,348.179L315,4.821Z" style="fill:white;"/>
                        </g>
                        <g transform="matrix(2.14253,0,0,2.17513,-159.362,-166.123)">
                            <path d="M157,109.5C163.075,109.5 168,114.425 168,120.5C168,126.575 163.075,131.5 157,131.5C127.566,131.5 102.564,153.031 98.024,182.15L97.892,183.035C97.045,189.051 91.481,193.24 85.465,192.392C79.449,191.544 75.26,185.981 76.108,179.965C81.803,139.554 116.291,109.5 157,109.5Z" style="fill:rgb(115,136,169);fill-opacity:0.35;"/>
                        </g>
                        <g transform="matrix(2.14253,0,0,2.17513,-159.362,-166.123)">
                            <path d="M149.601,120.091C149.864,114.021 154.998,109.314 161.067,109.577C193.682,110.99 222.366,131.651 233.833,162.125C245.756,193.81 236.611,229.515 210.911,251.679C203.255,258.281 194.501,263.359 185.07,266.727C163.306,274.498 139.13,272.761 118.596,261.674C88.707,245.536 72.038,212.637 76.807,179.148C77.664,173.133 83.234,168.952 89.248,169.808C95.263,170.665 99.444,176.235 98.587,182.249C95.119,206.603 107.251,230.546 129.048,242.316C144.063,250.423 161.749,251.693 177.672,246.008C184.561,243.548 190.95,239.842 196.543,235.018C215.263,218.875 221.912,192.913 213.242,169.873C204.972,147.894 184.366,132.892 160.829,131.592L160.115,131.557C154.045,131.294 149.338,126.16 149.601,120.091Z" style="fill:rgb(20,122,214);"/>
                        </g>
                        <g transform="matrix(2.14253,0,0,2.17513,-159.362,-166.123)">
                            <path d="M134.802,197.5L141.798,184.344L134.12,184.344L134.12,181.99L144.922,181.99L144.922,184.102L137.904,197.5L134.802,197.5ZM153.274,197.72C151.352,197.72 149.864,197.045 148.808,195.696C147.766,194.347 147.246,192.455 147.246,190.02C147.246,187.395 147.832,185.363 149.006,183.926C150.194,182.489 151.829,181.77 153.912,181.77C154.733,181.77 155.547,181.924 156.354,182.232C157.16,182.525 157.85,182.951 158.422,183.508L157.498,185.62C156.955,185.121 156.376,184.755 155.76,184.52C155.144,184.271 154.513,184.146 153.868,184.146C152.592,184.146 151.616,184.593 150.942,185.488C150.267,186.383 149.93,187.717 149.93,189.492L149.93,190.13C150.238,189.323 150.736,188.693 151.426,188.238C152.115,187.783 152.907,187.556 153.802,187.556C154.696,187.556 155.488,187.769 156.178,188.194C156.867,188.619 157.41,189.206 157.806,189.954C158.202,190.702 158.4,191.56 158.4,192.528C158.4,193.525 158.18,194.42 157.74,195.212C157.314,195.989 156.713,196.605 155.936,197.06C155.173,197.5 154.286,197.72 153.274,197.72ZM153.12,195.476C153.912,195.476 154.55,195.219 155.034,194.706C155.532,194.178 155.782,193.489 155.782,192.638C155.782,191.787 155.532,191.098 155.034,190.57C154.55,190.042 153.912,189.778 153.12,189.778C152.328,189.778 151.682,190.042 151.184,190.57C150.7,191.098 150.458,191.787 150.458,192.638C150.458,193.489 150.7,194.178 151.184,194.706C151.682,195.219 152.328,195.476 153.12,195.476ZM166.069,198.116L164.265,197.06L173.329,181.374L175.111,182.43L166.069,198.116ZM164.177,191.252C162.945,191.252 161.984,190.827 161.295,189.976C160.606,189.125 160.261,187.967 160.261,186.5C160.261,185.033 160.606,183.882 161.295,183.046C161.984,182.195 162.945,181.77 164.177,181.77C165.409,181.77 166.37,182.195 167.059,183.046C167.748,183.882 168.093,185.033 168.093,186.5C168.093,187.967 167.748,189.125 167.059,189.976C166.37,190.827 165.409,191.252 164.177,191.252ZM164.177,189.404C164.705,189.404 165.116,189.169 165.409,188.7C165.702,188.216 165.849,187.483 165.849,186.5C165.849,185.517 165.702,184.791 165.409,184.322C165.116,183.853 164.705,183.618 164.177,183.618C163.649,183.618 163.238,183.853 162.945,184.322C162.652,184.777 162.505,185.503 162.505,186.5C162.505,187.497 162.652,188.231 162.945,188.7C163.238,189.169 163.649,189.404 164.177,189.404ZM175.221,197.72C173.989,197.72 173.028,197.295 172.339,196.444C171.65,195.593 171.305,194.435 171.305,192.968C171.305,191.501 171.65,190.35 172.339,189.514C173.028,188.663 173.989,188.238 175.221,188.238C176.453,188.238 177.414,188.663 178.103,189.514C178.792,190.35 179.137,191.501 179.137,192.968C179.137,194.435 178.792,195.593 178.103,196.444C177.414,197.295 176.453,197.72 175.221,197.72ZM175.221,195.872C175.749,195.872 176.16,195.637 176.453,195.168C176.746,194.684 176.893,193.951 176.893,192.968C176.893,191.985 176.746,191.259 176.453,190.79C176.16,190.321 175.749,190.086 175.221,190.086C174.693,190.086 174.282,190.321 173.989,190.79C173.696,191.245 173.549,191.971 173.549,192.968C173.549,193.965 173.696,194.699 173.989,195.168C174.282,195.637 174.693,195.872 175.221,195.872Z" style="fill-rule:nonzero;"/>
                        </g>
                        <g transform="matrix(0.724562,0,0,0.724562,-134.268,-216.664)">
                            <g transform="matrix(84.0216,0,0,84.0216,663.658,230.261)">
                            </g>
                            <text x="252.658px" y="230.261px" style="font-family:'ArialMT', 'Arial', sans-serif;font-size:84.022px;">BandWidth</text>
                        </g>
                        <g transform="matrix(1,0,0,1,-249.288,-324.599)">
                            <g transform="matrix(36.9516,0,0,36.9516,621.971,337.198)">
                            </g>
                            <text x="256.37px" y="337.198px" style="font-family:'ArialMT', 'Arial', sans-serif;font-size:36.952px;fill:rgb(162,154,154);">Port 10Gbps unlimited</text>
                        </g>
                    </g>
                </g>
            </g>
        </g>
    </g>
</svg>
