<svg id="visual" viewBox="0 0 900 600" width="900" height="600" xmlns="http://www.w3.org/2000/svg" xmlns:xlink="http://www.w3.org/1999/xlink" version="1.1"><path d="M0 151L82 181L164 109L245 151L327 235L409 103L491 175L573 235L655 241L736 169L818 181L900 181L900 0L818 0L736 0L655 0L573 0L491 0L409 0L327 0L245 0L164 0L82 0L0 0Z" fill="#f9fafb"></path><path d="M0 199L82 235L164 157L245 223L327 349L409 175L491 277L573 313L655 361L736 235L818 295L900 241L900 179L818 179L736 167L655 239L573 233L491 173L409 101L327 233L245 149L164 107L82 179L0 149Z" fill="#f4f5f7"></path><path d="M0 415L82 361L164 385L245 439L327 457L409 355L491 421L573 421L655 463L736 373L818 385L900 457L900 239L818 293L736 233L655 359L573 311L491 275L409 173L327 347L245 221L164 155L82 233L0 197Z" fill="#eff1f3"></path><path d="M0 505L82 433L164 433L245 499L327 511L409 451L491 505L573 457L655 529L736 445L818 457L900 511L900 455L818 383L736 371L655 461L573 419L491 419L409 353L327 455L245 437L164 383L82 359L0 413Z" fill="#eaecef"></path><path d="M0 601L82 601L164 601L245 601L327 601L409 601L491 601L573 601L655 601L736 601L818 601L900 601L900 509L818 455L736 443L655 527L573 455L491 503L409 449L327 509L245 497L164 431L82 431L0 503Z" fill="#e5e7eb"></path></svg>