<svg id="visual" viewBox="0 0 900 600" width="900" height="600" xmlns="http://www.w3.org/2000/svg" xmlns:xlink="http://www.w3.org/1999/xlink" version="1.1"><path d="M0 121L82 121L82 67L164 67L164 67L245 67L245 85L327 85L327 103L409 103L409 73L491 73L491 133L573 133L573 67L655 67L655 115L736 115L736 115L818 115L818 139L900 139L900 85L900 0L900 0L818 0L818 0L736 0L736 0L655 0L655 0L573 0L573 0L491 0L491 0L409 0L409 0L327 0L327 0L245 0L245 0L164 0L164 0L82 0L82 0L0 0Z" fill="#f9fafb"></path><path d="M0 217L82 217L82 253L164 253L164 325L245 325L245 337L327 337L327 349L409 349L409 343L491 343L491 343L573 343L573 277L655 277L655 271L736 271L736 301L818 301L818 283L900 283L900 301L900 83L900 137L818 137L818 113L736 113L736 113L655 113L655 65L573 65L573 131L491 131L491 71L409 71L409 101L327 101L327 83L245 83L245 65L164 65L164 65L82 65L82 119L0 119Z" fill="#f3f5f6"></path><path d="M0 463L82 463L82 415L164 415L164 493L245 493L245 475L327 475L327 445L409 445L409 457L491 457L491 445L573 445L573 439L655 439L655 451L736 451L736 493L818 493L818 505L900 505L900 499L900 299L900 281L818 281L818 299L736 299L736 269L655 269L655 275L573 275L573 341L491 341L491 341L409 341L409 347L327 347L327 335L245 335L245 323L164 323L164 251L82 251L82 215L0 215Z" fill="#eeeff1"></path><path d="M0 511L82 511L82 511L164 511L164 547L245 547L245 541L327 541L327 505L409 505L409 559L491 559L491 517L573 517L573 523L655 523L655 493L736 493L736 559L818 559L818 547L900 547L900 541L900 497L900 503L818 503L818 491L736 491L736 449L655 449L655 437L573 437L573 443L491 443L491 455L409 455L409 443L327 443L327 473L245 473L245 491L164 491L164 413L82 413L82 461L0 461Z" fill="#e8e9ec"></path><path d="M0 601L82 601L82 601L164 601L164 601L245 601L245 601L327 601L327 601L409 601L409 601L491 601L491 601L573 601L573 601L655 601L655 601L736 601L736 601L818 601L818 601L900 601L900 601L900 539L900 545L818 545L818 557L736 557L736 491L655 491L655 521L573 521L573 515L491 515L491 557L409 557L409 503L327 503L327 539L245 539L245 545L164 545L164 509L82 509L82 509L0 509Z" fill="#e3e4e7"></path></svg>