<?xml version="1.0" encoding="UTF-8" standalone="no"?><!DOCTYPE svg PUBLIC "-//W3C//DTD SVG 1.1//EN" "http://www.w3.org/Graphics/SVG/1.1/DTD/svg11.dtd"><svg width="100%" height="100%" viewBox="0 0 5000 4167" version="1.1" xmlns="http://www.w3.org/2000/svg" xmlns:xlink="http://www.w3.org/1999/xlink" xml:space="preserve" xmlns:serif="http://www.serif.com/" style="fill-rule:evenodd;clip-rule:evenodd;stroke-linejoin:round;stroke-miterlimit:2;"><g><rect x="0" y="0" width="5000" height="4166.67" style="fill:#fff;fill-rule:nonzero;"/><path d="M4805.33,2843.35c-9.958,43.683 -29.375,83.758 -48.374,122.846c-13.584,27.958 -27.334,55.796 -39.709,84.496c-9.083,12.746 -18.125,25.504 -27.167,38.275c-17.958,11.2 -36.458,19.445 -55.625,24.833c-1.25,1.488 -2.499,2.954 -3.875,4.421c-13.083,18.171 -26.833,35.579 -41.25,52.162c-1.542,1.829 -3.125,3.634 -4.708,5.434c-18.417,20.82 -37.875,40.412 -58.375,58.754c-1.541,1.396 -3.083,2.742 -4.584,4.083c-10.249,9.375 -20.583,18.654 -31.124,27.817c-0.417,0.383 -0.875,0.721 -1.292,1.108l-0.083,0.092c-1.958,1.708 -3.917,3.391 -5.875,5.075c-0.75,0.65 -1.5,1.275 -2.209,1.921c-7.25,8.966 -14.958,17.554 -23.166,25.65c-1.542,1.687 -3.084,3.366 -4.625,5.05c-27.834,30.312 -57.5,58.604 -88.292,85.22c-0.166,0.6 -0.375,1.226 -0.588,1.83l-0.204,0.55c-0.921,2.883 -1.833,5.766 -2.833,8.633l-0.292,0.908c-0.958,2.788 -1.921,5.534 -2.875,8.275c-1.041,2.93 -2.129,5.863 -3.212,8.742l-0.079,0.196c-1.083,2.887 -2.209,5.746 -3.334,8.633c-1.125,2.883 -2.337,5.788 -3.5,8.65c-1.208,2.888 -2.421,5.771 -3.666,8.604c-1.25,2.867 -2.5,5.7 -3.75,8.538c-1.338,2.837 -2.584,5.65 -3.921,8.437c-1.329,2.813 -2.662,5.6 -4.038,8.367c-1.375,2.788 -2.754,5.579 -4.166,8.312c-1.375,2.746 -2.833,5.513 -4.296,8.225c-1.413,2.717 -2.871,5.438 -4.371,8.126l-0.042,0.07c-2.75,5 -5.541,9.909 -8.375,14.788c-0.5,0.871 -1.041,1.708 -1.541,2.525c-1.255,2.208 -2.584,4.4 -3.921,6.562c-1.579,2.621 -3.204,5.242 -4.829,7.813c-1.209,1.946 -2.463,3.896 -3.667,5.821c-2.5,3.846 -5.046,7.666 -7.588,11.441c-1.287,1.896 -2.583,3.771 -3.87,5.646c-1.75,2.5 -3.463,5 -5.25,7.475c-3.5,4.929 -7.088,9.808 -10.75,14.617c-5.625,7.45 -11.417,14.762 -17.292,21.904c-3.542,4.3 -7.125,8.529 -10.75,12.717c-4.167,4.779 -8.375,9.52 -12.625,14.133c-5.875,6.321 -11.75,12.5 -17.75,18.513c-53.667,54.375 -113.979,95.383 -181,123.004c-30.408,8.1 -60.821,16.204 -91.233,24.279c-21.85,3.392 -43.338,3.946 -64.471,1.733c-58.296,41.129 -123.608,70.654 -190.346,77.983c-9.783,1.084 -19.588,1.563 -29.425,1.517c-8.558,-0.05 -17.162,-0.021 -25.817,0c-28.558,0 -57.554,-0.121 -85.962,-2.812c-20.171,-1.925 -40.171,-5.817 -60.054,-9.904c-12.405,-2.576 -24.779,-5.196 -37.163,-7.671c-21.829,12.383 -44.137,23.75 -67.192,35.721c-4.974,2.595 -9.995,5.216 -15.045,7.891c-7.696,4.034 -15.675,7.35 -23.775,10.021c-2.284,0.746 -4.592,1.488 -6.9,2.258c-35.75,11.684 -73.563,23.534 -111.013,27.6c-37.746,4.063 -76.158,1.921 -113.875,-1.37c-13.008,-1.134 -25.867,-4.017 -38.512,-7.646c-10.267,-3.775 -20.529,-7.55 -30.821,-11.325c-2.813,-1.034 -5.646,-2.063 -8.484,-3.121c-0.579,-0.221 -1.154,-0.434 -1.758,-0.654c-9.971,2.62 -19.975,5.171 -29.975,7.6l-1.104,0.287c-2.817,0.675 -5.625,1.346 -8.438,1.996c-5.529,1.321 -11.083,2.546 -16.658,3.771c-2.908,0.65 -5.846,1.279 -8.779,1.9c-41.896,8.896 -84.279,15.65 -126.758,20.771c-19.904,2.408 -39.834,4.475 -59.759,6.179c-22.625,1.971 -45.221,3.554 -67.77,4.783c-5.242,0.292 -10.48,0.534 -15.742,0.679c-7.454,0.259 -14.904,0.38 -22.358,0.405c-8.246,0.024 -16.471,-0.096 -24.688,-0.363c-9.35,-0.283 -18.683,-0.746 -28.033,-1.346c-9.567,-0.625 -19.18,-1.275 -28.775,-1.946c-10.046,-0.7 -20.096,-1.446 -30.142,-2.237c-11.037,-0.888 -22.071,-1.875 -33.104,-2.929c-14.375,-1.346 -28.729,-2.888 -43.029,-4.692c-0.7,-0.092 -1.396,-0.171 -2.092,-0.267c-3.654,-0.454 -7.333,-0.933 -10.988,-1.437c-16.633,-2.258 -33.225,-4.854 -49.712,-7.958c-11.179,-2.088 -22.333,-4.467 -33.417,-7.067c-15.266,-3.583 -30.458,-7.596 -45.625,-11.875c-12.716,-3.584 -25.433,-7.358 -38.104,-11.233c-4.496,-1.363 -8.967,-2.734 -13.437,-4.13c-1.371,-0.429 -2.763,-0.841 -4.134,-1.275c-18.779,-5.841 -37.504,-11.754 -56.254,-17.479c-1.996,-0.596 -4.012,-1.221 -6.008,-1.846c-32.934,-10.312 -65.438,-22.575 -97.529,-35.991c-0.842,-0.359 -1.684,-0.696 -2.525,-1.08c-32.142,-13.483 -63.725,-28.82 -95.363,-44.108c-19.496,-9.45 -39.016,-18.9 -58.658,-27.916c-0.6,-0.263 -1.175,-0.525 -1.775,-0.817c-19.763,6.612 -39.521,13.2 -59.379,19.55c-22.138,7.067 -44.763,12.112 -67.6,15.862c-13.246,2.188 -26.538,3.942 -39.855,5.409c-13.245,1.466 -26.541,2.646 -39.787,3.654c-11.467,0.916 -22.888,1.708 -34.279,2.479c-2.092,0.142 -4.184,0.287 -6.275,0.429c-6.492,0.433 -13.104,0.65 -19.808,0.671c-44.017,0.196 -91.542,-7.542 -131.184,-11.367c-2.425,-0.216 -4.858,-0.483 -7.258,-0.745c-14.596,-1.613 -29.163,-3.921 -43.613,-6.588c-44.3,-8.196 -91.9,-25.604 -132.791,-38.483c-12.717,-4.017 -25.217,-8.78 -37.475,-14.405c-2.692,-1.245 -5.434,-2.499 -8.129,-3.8c-2.063,-0.933 -4.109,-1.92 -6.155,-2.879c-3.7,-1.758 -7.425,-3.558 -11.129,-5.387c-1.754,-0.867 -3.533,-1.729 -5.287,-2.617c-1.18,-0.575 -2.33,-1.179 -3.509,-1.758c-1.854,-0.938 -3.7,-1.879 -5.554,-2.834c-0.575,-0.291 -1.175,-0.604 -1.779,-0.916c-2.283,-1.179 -4.592,-2.379 -6.9,-3.579l-0.962,-0.554c-2.451,-1.275 -4.9,-2.6 -7.355,-3.921c-7.262,-3.917 -14.471,-7.959 -21.612,-12.142c-1.25,-0.742 -2.496,-1.462 -3.725,-2.208c-2.979,-1.759 -5.938,-3.563 -8.896,-5.363c-1.8,-1.104 -3.604,-2.233 -5.408,-3.362c-2.596,-1.634 -5.192,-3.296 -7.763,-4.954l-0.046,-0.021c-2.575,-1.663 -5.1,-3.346 -7.671,-5.05c-2.55,-1.709 -5.1,-3.442 -7.62,-5.167c-2.525,-1.758 -5.025,-3.537 -7.55,-5.337c-5.242,-3.726 -10.434,-7.575 -15.555,-11.517c-22.379,-17.233 -43.845,-36.271 -64.591,-56.325l-0.05,-0.05c-2.5,-2.379 -4.975,-4.834 -7.429,-7.259c-3.917,-2.358 -7.834,-4.687 -11.775,-6.895l-0.121,-0.1c-0.508,-0.309 -0.988,-0.675 -1.492,-1.03c-0.433,-0.291 -0.842,-0.604 -1.275,-0.941c-0.65,-0.504 -1.271,-1.009 -1.946,-1.558c-0.529,-0.438 -1.033,-0.871 -1.587,-1.371l-0.454,-0.388c-0.413,-0.362 -0.867,-0.771 -1.275,-1.175c-2.309,-2.096 -4.738,-4.45 -7.284,-7.067c-2.454,-2.554 -5.029,-5.341 -7.645,-8.3c-0.409,-0.454 -0.842,-0.933 -1.251,-1.416c-1.854,-2.067 -3.675,-4.204 -5.554,-6.421c-0.72,-0.838 -1.47,-1.704 -2.187,-2.596c-0.433,-0.5 -0.867,-1.033 -1.296,-1.562c-15.363,-18.509 -31.783,-40.696 -44.475,-58.463c-0.096,-0.625 -0.167,-1.229 -0.217,-1.825c-5.746,-7.596 -11.441,-15.242 -17.091,-22.908c-8.704,-11.829 -17.309,-23.704 -25.963,-35.484c-20.337,-27.645 -41.108,-54.883 -63.583,-80.145c-0.604,-0.459 -1.179,-0.892 -1.779,-1.35c-1.684,-1.325 -3.392,-2.617 -5.146,-3.913c-39.254,-16.471 -80.121,-28.687 -119.329,-44.958c-81.088,-33.679 -160.392,-76.613 -235.084,-126.159c-24.304,-16.104 -47.646,-34.162 -69.858,-53.9c-43.271,-38.437 -87.217,-78.483 -125.271,-124.229c-8.125,-9.737 -15.866,-19.812 -23.367,-30.171c-11.708,-16.183 -22.666,-33.104 -33.008,-50.512c-27.45,-46.296 -58.246,-95.458 -80.146,-146.662c-8.558,-20.071 -14.4,-41.659 -19.229,-63.271c-1.204,-5.359 -2.379,-10.742 -3.533,-16.15c-0.267,-1.088 -0.479,-2.142 -0.725,-3.246c-0.188,-0.871 -0.358,-1.708 -0.554,-2.575c-0.404,-1.992 -0.813,-4.013 -1.246,-5.984c-7.838,-37.599 -14.617,-75.75 -19.45,-114.02c-0.575,-4.521 -1.104,-9.042 -1.634,-13.559c-2.454,-21.466 -4.183,-43.033 -5.287,-64.616c-0.529,-9.784 -0.917,-19.592 -1.154,-29.4c-0.771,-28.875 -0.504,-57.792 0.458,-86.617c2.5,-73.512 12.688,-144.45 25.121,-216.067c2.258,-12.908 4.542,-25.866 6.921,-38.825c8.75,-48.316 22.333,-93.079 42.283,-136.562c34.042,-74.138 76.159,-139.454 125.608,-198.279c14.905,-17.767 30.509,-34.954 46.734,-51.613c59.596,-61.108 122.196,-117.771 183.783,-175.941c18.388,-19.042 36.129,-38.826 53.246,-59.546c12.646,-15.296 25.121,-30.7 38.008,-45.725c31.396,-36.613 66.538,-68.563 100.675,-101.592c12.596,-12.163 26.034,-23.125 40.267,-32.55c4.521,-2.979 9.038,-5.887 13.583,-8.796c1.054,-11.996 3.579,-24.279 7.763,-36.708c25.292,-74.546 90.221,-125.583 151.233,-159.383c7.042,-3.917 14.017,-7.571 20.867,-11.009c1.058,-0.433 2.112,-0.867 3.171,-1.25c44.979,-44.308 92.745,-84.596 142.241,-122.025c16.371,-47.383 39.134,-91.637 66.446,-131.854c28.125,-41.471 61.108,-78.658 96.784,-110.488c30.866,-22.308 61.733,-44.662 92.645,-66.995c59.763,-34.784 122.988,-53.73 189.696,-56.784c15.7,0.05 31.396,0.938 47.042,2.55c43.708,4.471 87.65,8.992 131.092,16.825c31.899,5.771 63.462,13.946 94.883,22.575c4.229,1.154 8.487,2.329 12.717,3.509c-0.196,-4.734 -0.267,-9.471 -0.146,-14.229c1.945,-77.792 54.858,-123.205 115.75,-136.784c15.145,-3.367 30.387,-5.241 45.65,-5.891c12.812,-0.53 25.675,-0.192 38.487,0.916c43.438,3.725 86.638,16.079 128.059,31.896c5.65,-2.763 11.32,-5.479 16.995,-8.125l0.021,-0.021c60.029,-28.2 121.809,-50.871 185.442,-66.854c76.687,-19.258 160.129,-11.587 235.442,11.85c32.837,10.242 63.224,30.504 94.933,44.354c63.129,-41.733 132.383,-71.829 203.492,-85.604c30.291,-2.454 60.579,-4.904 90.895,-7.333c52.642,0.383 100.746,17.454 144.309,51.25c47.5,33.9 96.345,65.15 146.062,94.429c69.425,38.004 140.175,72.646 211.742,104.883c8.912,4.038 17.862,8.029 26.825,11.971c1.562,-0.05 3.125,-0.096 4.687,-0.142c9.159,-0.337 18.321,-0.312 27.48,0.071c13.558,0.554 27.091,1.825 40.574,3.75c51.23,7.213 101.905,23.271 150.488,41.492c74.187,27.812 145.896,64.208 216.283,102.962c31.23,17.184 62.167,35.046 93.104,52.984c46.363,26.92 90.071,60.166 134.946,90.387c40.75,25.142 83.292,45.888 124.875,68.896c19.667,10.887 39.084,22.283 58.042,34.883c40.5,26.896 51.708,71.613 56.75,122.888c3.708,37.596 -0.667,75.942 -6.833,113.104c-1.125,6.658 -2.292,13.246 -3.458,19.808c-6.501,35.796 -7.376,73.079 -10.417,109.404c-1.334,15.53 -2.875,31.134 -5.959,46.346c-1.833,9.284 -5.917,17.742 -9.625,26.18c-2.458,5.604 -5,11.154 -7.625,16.637c8.167,1.179 16.417,2.233 24.667,3.196c13.917,1.296 27.833,2.546 41.792,3.825c28.666,10.383 40.916,32.833 36.75,67.429c-6.083,18.629 -12.167,37.258 -18.292,55.892c-6.583,12.45 -13.5,24.516 -20.792,36.3c1.125,0.983 2.25,1.945 3.376,2.908c3.249,2.833 6.541,5.625 9.833,8.363c0.542,0.458 1.083,0.941 1.625,1.395c25.541,21.688 46.333,50.675 67.667,77.6c7.499,9.471 14.249,19.688 20.458,30.313c21.083,35.912 40.166,75.221 53.291,116.158c6.209,19.4 10.334,39.184 13.084,59.208c5.25,38.538 5.333,77.988 4.833,117.413c-0.292,19.829 -1.625,40.05 -5.25,59.45c-3.875,20.504 -11.458,39.758 -19.708,58.292c-15.209,34.162 -31.709,66.804 -36.667,104.329c1.291,11.158 3.208,22.167 5.75,33.008c2.417,10.459 5.458,20.721 9.042,30.771c15.458,25.817 33.125,49.883 49.625,74.788c12.292,18.554 23.874,37.766 34.125,57.958c11.542,22.717 23.5,45.916 34.041,69.908c8,18.363 15.167,37.188 20.584,56.613c6.417,22.883 9.791,46.825 10.042,70.891c0.374,38.679 1.624,74.234 -6.876,111.467Z" style="fill:#c0d2dd;fill-rule:nonzero;"/><path d="M2122.28,1124.01c-14.325,377.78 -49.637,801.834 -104.929,1260.38c-53.512,443.837 -125.992,921.216 -216.138,1423.95c-13.245,1.466 -26.541,2.646 -39.787,3.654c228.3,-1271.63 301.983,-2153.85 322.321,-2687.03c10.192,-266.984 8.291,-472.809 2.571,-622.358c12.812,-0.53 25.675,-0.192 38.487,0.916c5.696,149.979 7.55,355.3 -2.525,620.479Z" style="fill:#fff;fill-rule:nonzero;"/><path d="M2941.13,2286.03l-169.191,-0c-311.259,-0 -563.554,-215.446 -563.554,-481.2l-0,-1058.79c-0,-78.78 22.166,-153.109 61.47,-218.738l0.021,-0.021c60.029,-28.2 121.809,-50.871 185.442,-66.854c29.821,-7.487 60.675,-10.904 91.662,-10.904c48.7,-0 97.754,8.433 143.78,22.754c32.837,10.242 63.224,30.504 94.933,44.354c63.129,-41.733 132.383,-71.829 203.492,-85.604c30.291,-2.454 60.579,-4.904 90.895,-7.333c52.642,0.383 100.746,17.454 144.309,51.25c47.5,33.9 96.345,65.15 146.062,94.429c69.425,38.004 140.175,72.646 211.742,104.883c2.687,19.042 4.058,38.417 4.058,58.054l0,1058.79c0,245.921 -216.112,448.746 -495.021,477.612c-47.787,11.251 -98.125,17.313 -150.1,17.313Zm-138.45,-1549.8c-146.433,15.167 -259.883,121.667 -259.883,250.783l-0,555.917c-0,139.525 132.479,252.637 295.896,252.637l88.833,0c27.3,0 53.729,-3.154 78.829,-9.062c146.434,-15.171 259.888,-121.671 259.888,-250.788l-0,-555.912c-0,-139.529 -132.479,-252.642 -295.892,-252.642l-88.837,0c-27.296,0 -53.734,3.159 -78.834,9.067Z" style="fill:#9cb2bf;fill-rule:nonzero;"/><path d="M2585.63,1535.71c0,139.526 132.471,252.638 295.884,252.638l88.837,-0c163.413,-0 295.892,-113.112 295.892,-252.638l-0,-555.912c-0,-139.529 -132.479,-252.642 -295.892,-252.642l-88.837,0c-163.413,0 -295.884,113.113 -295.884,252.642l0,555.912Z" style="fill:#527885;fill-rule:nonzero;"/><path d="M2542.8,1542.92c-0,139.525 132.479,252.637 295.896,252.637l88.833,0c163.417,0 295.892,-113.112 295.892,-252.637l-0,-555.917c-0,-139.521 -132.475,-252.637 -295.892,-252.637l-88.833,-0c-163.417,-0 -295.896,113.116 -295.896,252.637l-0,555.917Z" style="fill:#fff;fill-rule:nonzero;"/><path d="M2595.86,1035.76l-0,458.412c-0,115.058 109.229,208.321 243.987,208.321l73.258,-0c17.175,-0 33.954,-1.521 50.138,-4.417c50.112,-8.933 94.591,-30.991 128.233,-61.787c40.721,-37.229 65.613,-87.188 65.613,-142.117l-0,-458.412c-0,-40.9 -13.796,-79.03 -37.625,-111.192c-43.213,-58.383 -119.484,-97.133 -206.359,-97.133l-73.258,-0c-134.758,-0 -243.987,93.266 -243.987,208.325Z" style="fill:#93c3d1;fill-rule:nonzero;"/><path d="M2653.34,1033.55l-0,458.408c-0,115.063 109.225,208.325 243.979,208.325l65.925,0c50.112,-8.929 94.591,-30.991 128.233,-61.787c40.721,-37.225 65.613,-87.183 65.613,-142.117l-0,-458.412c-0,-40.896 -13.796,-79.025 -37.625,-111.192c-43.213,-58.383 -119.484,-97.133 -206.359,-97.133l-66.008,-0c-110.663,19.762 -193.758,103.546 -193.758,203.908Z" style="fill:#75a0aa;fill-rule:nonzero;"/><path d="M2728.5,1066.46l0,397.017c0,99.654 94.613,180.429 211.308,180.429l63.442,0c31.504,0 61.392,-5.879 88.225,-16.441c40.721,-37.23 65.613,-87.192 65.613,-142.121l-0,-458.413c-0,-40.892 -13.796,-79.025 -37.625,-111.192c-33.338,-18.766 -73.279,-29.708 -116.213,-29.708l-63.442,0c-116.695,0 -211.308,80.796 -211.308,180.429Z" style="fill:#92f2ff;fill-rule:nonzero;"/><path d="M3156.95,1503.55c0.096,-2.379 0.142,-4.767 0.142,-7.167l-0,-469.454c-0,-0.683 -0.005,-1.371 -0.013,-2.054c7.304,17.487 11.283,36.325 11.283,55.958l0,366.454c0,19.746 -4.025,38.692 -11.412,56.263Z" style="fill:#fff;fill-rule:nonzero;"/><path d="M3155.91,1505.96c0.779,-6.784 1.179,-13.663 1.179,-20.621l-0,11.041c-0,2.4 -0.046,4.788 -0.142,7.167c-0.338,0.808 -0.683,1.608 -1.037,2.413Z" style="fill:#e3ecee;fill-rule:nonzero;"/><path d="M3045.39,1574.05l-50.717,-0c-93.288,-0 -168.921,-64.575 -168.921,-144.238l-0,-317.375c-0,-79.65 75.633,-144.237 168.921,-144.237l50.717,-0c34.32,-0 66.254,8.75 92.895,23.75c7.613,10.271 13.938,21.3 18.796,32.929c0.008,0.683 0.013,1.371 0.013,2.054l-0,458.413c-0,6.958 -0.4,13.837 -1.179,20.621c-9.067,20.554 -22.759,39.17 -40.001,54.933c-21.449,8.446 -45.345,13.15 -70.524,13.15Z" style="fill:#e9fcff;fill-rule:nonzero;"/><path d="M3730.68,1979.09c-52.862,816.329 -201.495,1376.3 -351.721,1904.4c-4.974,2.595 -9.995,5.216 -15.045,7.891c-7.696,4.034 -15.675,7.35 -23.775,10.021c-2.284,0.746 -4.592,1.488 -6.9,2.258c152.604,-535.212 305.441,-1098.96 359.05,-1927.05c44.112,-681.421 2.429,-1070.88 -51.104,-1290.46c13.558,0.554 27.091,1.825 40.574,3.75c24.909,105.559 43.13,231.117 54.305,374.992c19.475,250.562 17.67,558.146 -5.384,914.192Z" style="fill:#fff;fill-rule:nonzero;"/><path d="M2669.41,3955.52c-7.562,-0 -15.112,-0.121 -22.658,-0.367c-9.35,-0.283 -18.683,-0.746 -28.033,-1.346c-9.567,-0.625 -19.18,-1.275 -28.775,-1.946c-10.046,-0.7 -20.096,-1.446 -30.142,-2.237c-11.037,-0.888 -22.071,-1.875 -33.104,-2.929c-14.375,-1.346 -28.729,-2.888 -43.029,-4.692c-0.7,-0.092 -1.396,-0.171 -2.092,-0.267c-3.654,-0.454 -7.333,-0.933 -10.988,-1.437c-16.633,-2.258 -33.225,-4.854 -49.712,-7.958c-11.179,-2.088 -22.333,-4.467 -33.417,-7.067c-15.266,-3.583 -30.458,-7.596 -45.625,-11.875c-12.716,-3.584 -25.433,-7.358 -38.104,-11.233c-4.496,-1.363 -8.967,-2.734 -13.437,-4.13c-1.371,-0.429 -2.763,-0.841 -4.134,-1.275c-18.779,-5.841 -37.504,-11.754 -56.254,-17.479c-1.996,-0.596 -4.012,-1.221 -6.008,-1.846c-32.934,-10.312 -65.438,-22.575 -97.529,-35.991c-0.842,-0.359 -1.684,-0.696 -2.525,-1.08c-32.142,-13.483 -63.725,-28.82 -95.363,-44.108c-19.496,-9.45 -39.016,-18.9 -58.658,-27.916c-0.6,-0.263 -1.175,-0.525 -1.775,-0.817c-19.763,6.612 -39.521,13.2 -59.379,19.55c-22.138,7.067 -44.763,12.112 -67.6,15.862c-13.246,2.188 -26.538,3.942 -39.855,5.409c65.305,-364.196 121.334,-715.075 167.601,-1049.55c325.825,19.692 672.333,32.679 1016.97,32.679c207.38,0 414.03,-4.7 615.196,-15.462c-71.833,429.166 -169.833,784.254 -267.741,1127.64c-35.75,11.684 -73.563,23.534 -111.013,27.6c-14.683,1.58 -29.471,2.221 -44.275,2.221c-23.254,0 -46.554,-1.579 -69.6,-3.591c-13.008,-1.134 -25.867,-4.017 -38.512,-7.646c-10.267,-3.775 -20.529,-7.55 -30.821,-11.325c-2.813,-1.034 -5.646,-2.063 -8.484,-3.121c-0.579,-0.221 -1.154,-0.434 -1.758,-0.654c-9.971,2.62 -19.975,5.171 -29.975,7.6l-1.104,0.287c-2.817,0.675 -5.625,1.346 -8.438,1.996c-5.529,1.321 -11.083,2.546 -16.658,3.771c-2.908,0.65 -5.846,1.279 -8.779,1.9c-41.896,8.896 -84.279,15.65 -126.758,20.771c-19.904,2.408 -39.834,4.475 -59.759,6.179c-22.625,1.971 -45.221,3.554 -67.77,4.783c-5.242,0.292 -10.48,0.534 -15.742,0.679c-7.454,0.259 -14.904,0.38 -22.358,0.405c-0.676,0.004 -1.355,0.004 -2.03,0.004Zm709.554,-72.029c95.971,-337.375 191.288,-687.738 261.405,-1109.67c420.437,-24.263 815.008,-75.625 1138.59,-166.704c1.209,-0.342 1.75,-1.825 2.625,-2.738c8,18.363 15.167,37.188 20.584,56.613c6.417,22.883 9.791,46.825 10.042,70.891c0.124,11.184 0.291,22.1 0.291,32.875c-0,26.5 -1.125,52.121 -7.167,78.592c-9.958,43.683 -29.375,83.758 -48.374,122.846c-13.584,27.958 -27.334,55.796 -39.709,84.496c-9.083,12.746 -18.125,25.504 -27.167,38.275c-17.958,11.2 -36.458,19.445 -55.625,24.833c-1.25,1.488 -2.499,2.954 -3.875,4.421c-13.083,18.171 -26.833,35.579 -41.25,52.162c-1.542,1.829 -3.125,3.634 -4.708,5.434c-18.417,20.82 -37.875,40.412 -58.375,58.754c-1.541,1.396 -3.083,2.742 -4.584,4.083c-10.249,9.375 -20.583,18.654 -31.124,27.817c-0.417,0.383 -0.875,0.721 -1.292,1.108l-0.083,0.092c-1.958,1.708 -3.917,3.391 -5.875,5.075c-0.75,0.65 -1.5,1.275 -2.209,1.921c-7.25,8.966 -14.958,17.554 -23.166,25.65c-1.542,1.687 -3.084,3.366 -4.625,5.05c-27.834,30.312 -57.5,58.604 -88.292,85.22c-0.166,0.6 -0.375,1.226 -0.588,1.83l-0.204,0.55c-0.921,2.883 -1.833,5.766 -2.833,8.633l-0.292,0.908c-0.958,2.788 -1.921,5.534 -2.875,8.275c-1.041,2.93 -2.129,5.863 -3.212,8.742l-0.079,0.196c-1.083,2.887 -2.209,5.746 -3.334,8.633c-1.125,2.883 -2.337,5.788 -3.5,8.65c-1.208,2.888 -2.421,5.771 -3.666,8.604c-1.25,2.867 -2.5,5.7 -3.75,8.538c-1.338,2.837 -2.584,5.65 -3.921,8.437c-1.329,2.813 -2.662,5.6 -4.038,8.367c-1.375,2.788 -2.754,5.579 -4.166,8.312c-1.375,2.746 -2.833,5.513 -4.296,8.225c-1.413,2.717 -2.871,5.438 -4.371,8.126l-0.042,0.07c-2.75,5 -5.541,9.909 -8.375,14.788c-0.5,0.871 -1.041,1.708 -1.541,2.525c-1.255,2.208 -2.584,4.4 -3.921,6.562c-1.579,2.621 -3.204,5.242 -4.829,7.813c-1.209,1.946 -2.463,3.896 -3.667,5.821c-2.5,3.846 -5.046,7.666 -7.588,11.441c-1.287,1.896 -2.583,3.771 -3.87,5.646c-1.75,2.5 -3.463,5 -5.25,7.475c-3.5,4.929 -7.088,9.808 -10.75,14.617c-5.625,7.45 -11.417,14.762 -17.292,21.904c-3.542,4.3 -7.125,8.529 -10.75,12.717c-4.167,4.779 -8.375,9.52 -12.625,14.133c-5.875,6.321 -11.75,12.5 -17.75,18.513c-53.667,54.375 -113.979,95.383 -181,123.004c-30.408,8.1 -60.821,16.204 -91.233,24.279c-13.159,2.041 -26.188,3.054 -39.084,3.054c-8.521,0 -16.979,-0.442 -25.387,-1.321c-58.296,41.129 -123.608,70.654 -190.346,77.983c-9.362,1.038 -18.75,1.521 -28.158,1.521c-0.425,0 -0.846,0 -1.267,-0.004c-3.542,-0.021 -7.096,-0.029 -10.654,-0.029c-5.038,-0 -10.092,0.017 -15.163,0.029c-28.558,0 -57.554,-0.121 -85.962,-2.812c-20.171,-1.925 -40.171,-5.817 -60.054,-9.904c-12.405,-2.576 -24.779,-5.196 -37.163,-7.671c-21.829,12.383 -44.137,23.75 -67.192,35.721Zm-1679.54,-67.909c-43.554,0 -90.392,-7.596 -129.542,-11.371c-2.425,-0.216 -4.858,-0.483 -7.258,-0.745c-14.596,-1.613 -29.163,-3.921 -43.613,-6.588c-44.3,-8.196 -91.9,-25.604 -132.791,-38.483c-12.717,-4.017 -25.217,-8.78 -37.475,-14.405c-2.692,-1.245 -5.434,-2.499 -8.129,-3.8c-2.063,-0.933 -4.109,-1.92 -6.155,-2.879c-3.7,-1.758 -7.425,-3.558 -11.129,-5.387c-1.754,-0.867 -3.533,-1.729 -5.287,-2.617c-1.18,-0.575 -2.33,-1.179 -3.509,-1.758c-1.854,-0.938 -3.7,-1.879 -5.554,-2.834c-0.575,-0.291 -1.175,-0.604 -1.779,-0.916c-2.283,-1.179 -4.592,-2.379 -6.9,-3.579l-0.962,-0.554c-2.451,-1.275 -4.9,-2.6 -7.355,-3.921c-7.262,-3.917 -14.471,-7.959 -21.612,-12.142c-1.25,-0.742 -2.496,-1.462 -3.725,-2.208c-2.979,-1.759 -5.938,-3.563 -8.896,-5.363c-1.8,-1.104 -3.604,-2.233 -5.408,-3.362c-2.596,-1.634 -5.192,-3.296 -7.763,-4.954l-0.046,-0.021c-2.575,-1.663 -5.1,-3.346 -7.671,-5.05c-2.55,-1.709 -5.1,-3.442 -7.62,-5.167c-2.525,-1.758 -5.025,-3.537 -7.55,-5.337c-5.242,-3.726 -10.434,-7.575 -15.555,-11.517c-22.379,-17.233 -43.845,-36.271 -64.591,-56.325l-0.05,-0.05c-2.5,-2.379 -4.975,-4.834 -7.429,-7.259c-3.917,-2.358 -7.834,-4.687 -11.775,-6.895l-0.121,-0.1c-0.508,-0.309 -0.988,-0.675 -1.492,-1.03c-0.433,-0.291 -0.842,-0.604 -1.275,-0.941c-0.65,-0.504 -1.271,-1.009 -1.946,-1.558c-0.529,-0.438 -1.033,-0.871 -1.587,-1.371l-0.454,-0.388c-0.413,-0.362 -0.867,-0.771 -1.275,-1.175c-2.309,-2.096 -4.738,-4.45 -7.284,-7.067c-2.454,-2.554 -5.029,-5.341 -7.645,-8.3c-0.409,-0.454 -0.842,-0.933 -1.251,-1.416c-1.854,-2.067 -3.675,-4.204 -5.554,-6.421c-0.72,-0.838 -1.47,-1.704 -2.187,-2.596c-0.433,-0.5 -0.867,-1.033 -1.296,-1.562c-15.363,-18.509 -31.783,-40.696 -44.475,-58.463c-0.096,-0.625 -0.167,-1.229 -0.217,-1.825c-5.746,-7.596 -11.441,-15.242 -17.091,-22.908c-8.704,-11.829 -17.309,-23.704 -25.963,-35.484c-20.337,-27.645 -41.108,-54.883 -63.583,-80.145c-0.604,-0.459 -1.179,-0.892 -1.779,-1.35c-1.684,-1.325 -3.392,-2.617 -5.146,-3.913c-39.254,-16.471 -80.121,-28.687 -119.329,-44.958c-81.088,-33.679 -160.392,-76.613 -235.084,-126.159c-24.304,-16.104 -47.646,-34.162 -69.858,-53.9c-43.271,-38.437 -87.217,-78.483 -125.271,-124.229c-8.125,-9.737 -15.866,-19.812 -23.367,-30.171c-11.708,-16.183 -22.666,-33.104 -33.008,-50.512c-27.45,-46.296 -58.246,-95.458 -80.146,-146.662c-8.558,-20.071 -14.4,-41.659 -19.229,-63.271c-1.204,-5.359 -2.379,-10.742 -3.533,-16.15c-0.267,-1.088 -0.479,-2.142 -0.725,-3.246c-0.188,-0.871 -0.358,-1.708 -0.554,-2.575c-0.404,-1.992 -0.813,-4.013 -1.246,-5.984c-7.838,-37.599 -14.617,-75.75 -19.45,-114.02c12.45,11.85 778.612,126.825 1730.11,186.171c-43.729,316.437 -98.954,667.9 -168.558,1055.58c-11.467,0.916 -22.888,1.708 -34.279,2.479c-2.092,0.142 -4.184,0.287 -6.275,0.429c-6.492,0.433 -13.104,0.65 -19.808,0.671c-0.546,0.004 -1.096,0.004 -1.642,0.004Z" style="fill:#9cb2bf;fill-rule:nonzero;"/><path d="M1761.42,3812c69.604,-387.683 124.829,-739.146 168.558,-1055.58c12.913,0.804 25.855,1.6 38.83,2.383c-46.267,334.471 -102.296,685.35 -167.601,1049.55c-13.245,1.466 -26.541,2.646 -39.787,3.654Z" style="fill:#cfd8dc;fill-rule:nonzero;"/><path d="M3333.24,3903.66c97.908,-343.391 195.908,-698.479 267.741,-1127.64c13.196,-0.709 26.238,-1.434 39.384,-2.192c-70.117,421.929 -165.434,772.292 -261.405,1109.67c-4.974,2.595 -9.995,5.216 -15.045,7.891c-7.696,4.034 -15.675,7.35 -23.775,10.021c-2.284,0.746 -4.592,1.488 -6.9,2.258Z" style="fill:#cfd8dc;fill-rule:nonzero;"/><path d="M2483.67,3942c-21.038,-2.621 -41.975,-5.767 -62.792,-9.662c-12.646,-2.384 -25.242,-5.096 -37.767,-8.1c-26.637,-6.396 -53.054,-14.038 -79.379,-22.071c-24.662,-7.521 -49.233,-15.384 -73.825,-22.888c-35,-10.671 -69.496,-23.604 -103.537,-37.837c-6.229,-2.596 -12.429,-5.259 -18.63,-8.004c-46.349,-20.38 -91.783,-43.942 -137.916,-65.1c-0.6,-0.263 -1.175,-0.525 -1.775,-0.817c-19.763,6.612 -39.521,13.2 -59.379,19.546c-22.138,7.071 -44.763,12.116 -67.6,15.866c8.271,-178.637 -3.654,-371.983 -17.138,-496.341c-4.883,-45.171 -9.975,-81.25 -14.4,-104.188l585.479,0c-23.75,17.121 -44.858,57.938 -61.708,104.188c-24.738,67.862 -40.292,147.362 -41.592,180.587c-4.637,120.796 37.504,260.034 101.713,354.454c1.542,2.267 3.075,4.5 4.641,6.713c27.259,38.533 55.555,68.487 85.605,93.654Z" style="fill:#293b49;fill-rule:nonzero;"/><path d="M2303.73,3902.17c-21.562,-6.584 -43.054,-13.409 -64.571,-20.05c-3.075,-0.934 -6.175,-1.896 -9.254,-2.838c-35,-10.671 -69.496,-23.604 -103.537,-37.837c-4.134,-1.73 -8.246,-3.484 -12.354,-5.259c-3.825,-1.637 -7.646,-3.316 -11.467,-5.05c-2.671,-1.158 -5.317,-2.358 -7.983,-3.583c-2.55,-1.154 -5.071,-2.308 -7.596,-3.463c-6.538,-3 -13.054,-6.058 -19.567,-9.158c-3.271,-1.537 -6.517,-3.075 -9.762,-4.637c-6.513,-3.105 -13.005,-6.25 -19.496,-9.375c-3.221,-1.542 -6.442,-3.1 -9.663,-4.663c-19.496,-9.45 -39.016,-18.904 -58.658,-27.916c-0.6,-0.263 -1.175,-0.525 -1.775,-0.817c-19.763,6.612 -39.521,13.2 -59.379,19.546c-22.138,7.071 -44.763,12.116 -67.6,15.866c8.271,-178.637 -3.654,-371.983 -17.138,-496.341c-4.883,-45.171 -9.975,-81.25 -14.4,-104.188l467.325,0c-27.983,8.754 -52.958,52.408 -72.55,104.188c-26.233,69.279 -42.816,153.179 -44.137,187.533c-4.279,110.675 30.745,236.862 86.037,329.842c6.488,10.941 13.267,21.4 20.288,31.325c12.187,17.237 24.591,32.741 37.237,46.875Z" style="fill:#17232b;fill-rule:nonzero;"/><path d="M1748.9,3202.4c-27.571,17.121 -52.096,57.938 -71.658,104.188c-28.729,67.862 -46.809,147.362 -48.3,180.587c-4.925,109.663 34.979,234.55 98.204,327.296c-2.092,0.142 -4.184,0.287 -6.275,0.429c-6.492,0.433 -13.104,0.65 -19.808,0.671c-44.017,0.196 -91.542,-7.542 -131.184,-11.367c-2.429,-0.216 -4.858,-0.479 -7.258,-0.745c-14.596,-1.613 -29.163,-3.917 -43.609,-6.588c-44.304,-8.196 -91.904,-25.604 -132.795,-38.483c-12.717,-4.017 -25.217,-8.78 -37.475,-14.4c-2.692,-1.25 -5.434,-2.504 -8.125,-3.8c-2.071,-0.938 -4.113,-1.925 -6.155,-2.884c-3.704,-1.758 -7.429,-3.558 -11.129,-5.387c-1.758,-0.867 -3.537,-1.729 -5.291,-2.617c-1.18,-0.575 -2.33,-1.179 -3.509,-1.758c-1.854,-0.938 -3.7,-1.879 -5.554,-2.834c-0.575,-0.291 -1.175,-0.604 -1.779,-0.916c-2.283,-1.179 -4.592,-2.379 -6.9,-3.579l-0.962,-0.554c-2.451,-1.275 -4.9,-2.6 -7.355,-3.921c-7.262,-3.917 -14.471,-7.959 -21.612,-12.142c-1.25,-0.738 -2.496,-1.462 -3.725,-2.208c-2.979,-1.759 -5.938,-3.563 -8.896,-5.363c-1.8,-1.104 -3.604,-2.233 -5.404,-3.362c-2.6,-1.634 -5.196,-3.296 -7.767,-4.954l-0.046,-0.021c-2.575,-1.663 -5.1,-3.346 -7.671,-5.05c-2.55,-1.709 -5.095,-3.442 -7.62,-5.167c-2.525,-1.758 -5.025,-3.537 -7.546,-5.337c-5.246,-3.726 -10.438,-7.575 -15.559,-11.517c-22.379,-17.233 -43.845,-36.271 -64.591,-56.325l-0.05,-0.046c-2.5,-2.383 -4.975,-4.838 -7.429,-7.263c-3.917,-2.358 -7.834,-4.687 -11.775,-6.895l-0.121,-0.1c-0.508,-0.313 -0.988,-0.671 -1.492,-1.03c-0.433,-0.291 -0.842,-0.604 -1.275,-0.941c-0.65,-0.504 -1.271,-1.009 -1.946,-1.558c-0.529,-0.438 -1.033,-0.871 -1.587,-1.371l-0.454,-0.388c-0.409,-0.362 -0.867,-0.766 -1.275,-1.175c-2.309,-2.096 -4.738,-4.45 -7.284,-7.067c-3.633,-102.291 -12.116,-197.704 -21.229,-269.87c-5.675,-45.171 -11.612,-81.25 -16.729,-104.188l680,0Z" style="fill:#293b49;fill-rule:nonzero;"/><path d="M1611.66,3202.4c-1.175,0.313 -2.379,0.7 -3.558,1.109c-31.033,10.837 -58.75,53.195 -80.675,103.079c-30.479,69.279 -49.738,153.179 -51.275,187.533c-4.617,102.742 30.1,218.829 86.471,309.338c-14.596,-1.613 -29.163,-3.917 -43.609,-6.588c-44.304,-8.196 -91.904,-25.604 -132.795,-38.483c-12.717,-4.017 -25.217,-8.78 -37.475,-14.4c-2.692,-1.25 -5.434,-2.504 -8.125,-3.8c-2.071,-0.938 -4.113,-1.925 -6.155,-2.884c-3.704,-1.758 -7.429,-3.558 -11.129,-5.387c-1.758,-0.867 -3.537,-1.729 -5.291,-2.617c-1.18,-0.575 -2.33,-1.179 -3.509,-1.758c-1.854,-0.938 -3.7,-1.879 -5.554,-2.834c-0.575,-0.291 -1.175,-0.604 -1.779,-0.916c-2.283,-1.179 -4.592,-2.379 -6.9,-3.579l-0.962,-0.554c-2.451,-1.275 -4.9,-2.6 -7.355,-3.921c-7.262,-3.917 -14.471,-7.959 -21.612,-12.142c-1.25,-0.738 -2.496,-1.462 -3.725,-2.208c-2.979,-1.759 -5.938,-3.563 -8.896,-5.363c-1.8,-1.104 -3.604,-2.233 -5.404,-3.362c-2.6,-1.634 -5.196,-3.296 -7.767,-4.954l-0.046,-0.021c-2.575,-1.663 -5.1,-3.346 -7.671,-5.05c-2.55,-1.709 -5.095,-3.442 -7.62,-5.167c-2.525,-1.758 -5.025,-3.537 -7.546,-5.337c-5.246,-3.726 -10.438,-7.575 -15.559,-11.517c-22.379,-17.233 -43.845,-36.271 -64.591,-56.325l-0.05,-0.046c-2.5,-2.383 -4.975,-4.838 -7.429,-7.263c-3.917,-2.358 -7.834,-4.687 -11.775,-6.895l-0.121,-0.1c-0.508,-0.313 -0.988,-0.671 -1.492,-1.03c-0.433,-0.291 -0.842,-0.604 -1.275,-0.941c-0.65,-0.504 -1.271,-1.009 -1.946,-1.558c-0.529,-0.438 -1.033,-0.871 -1.587,-1.371l-0.454,-0.388c-0.409,-0.362 -0.867,-0.766 -1.275,-1.175c-2.309,-2.096 -4.738,-4.45 -7.284,-7.067c-3.633,-102.291 -12.116,-197.704 -21.229,-269.87c-5.675,-45.171 -11.612,-81.25 -16.729,-104.188l542.758,0Z" style="fill:#17232b;fill-rule:nonzero;"/><rect x="969.104" y="3084.33" width="1541.93" height="222.271" style="fill:#293b49;fill-rule:nonzero;"/><rect x="969.104" y="3084.33" width="639.004" height="222.271" style="fill:#17232b;fill-rule:nonzero;"/><path d="M2808.1,2374.11c-37.066,-44.391 -84.85,-53.97 -120.8,-88.525l-230.8,72.125c0.179,41.788 57.229,107.534 73.921,157.071c28.117,83.442 6.567,175.742 -25.037,256.213c-61.013,155.346 -169.438,275.275 -314.8,349.983c14.245,-5.021 35.983,-7.679 56.75,-5.954c149.591,12.429 283.287,9.15 418.833,2.812c351.479,-16.416 181.029,-696.908 141.933,-743.725Z" style="fill:#17232b;fill-rule:nonzero;"/><path d="M2721.57,2378.92c-37.071,-44.396 -84.85,-53.975 -120.805,-88.53l-230.799,72.13c0.179,41.787 57.229,107.533 73.92,157.066c28.117,83.446 6.567,175.746 -25.041,256.213c-61.009,155.354 -169.434,275.283 -314.796,349.987c14.246,-5.02 35.983,-7.675 56.75,-5.954c149.591,12.429 283.287,9.146 418.833,2.817c351.479,-16.425 181.034,-696.908 141.938,-743.729Z" style="fill:#1f2e38;fill-rule:nonzero;"/><path d="M1781.75,2252.24l34.729,177.488c0,0 32.367,0.275 84.392,0.483c212.187,0.884 751.791,0.955 762.975,-20.958c13.887,-27.312 13.887,-109.225 -62.521,-150.179c-37.704,-20.209 -237.879,-22.121 -430.9,-18.904c-198.088,3.333 -388.675,12.07 -388.675,12.07Z" style="fill:#293b49;fill-rule:nonzero;"/><path d="M1781.75,2252.24l34.729,177.488c0,0 32.367,0.275 84.392,0.483c233.504,-0.962 505.083,-5.466 512.933,-20.958c13.892,-27.312 13.892,-109.225 -62.512,-150.179c-20.7,-11.129 -90.296,-16.663 -180.867,-18.904c-198.088,3.333 -388.675,12.07 -388.675,12.07Z" style="fill:#17232b;fill-rule:nonzero;"/><path d="M1815.73,3126.01c-123.583,-362.216 -357.592,-1582.5 -371.025,-1715.82c-22.017,-218.505 -0,-439.246 -0,-655.284c-0,0 354.221,-51.196 312.537,348.121c-9.42,90.258 -31.029,140.142 -70.345,217.258c-46.738,91.663 -38.309,87.671 41.671,159.042c249.091,222.246 266.812,547.192 299.545,852.358c22.784,212.513 40.821,579.496 -85.887,794.325l-126.496,0Z" style="fill:#6b919c;fill-rule:nonzero;"/><path d="M1496.97,1303.39c171.912,134.562 264.412,367.721 314.104,580.233c42.217,180.542 66.167,354.638 76.4,540.767c7.333,133.433 60.483,311.137 18.267,441.221c-262.888,37.429 -526.367,108.716 -796.696,95.558c-30.608,-92.146 -153.913,102.933 -167.179,4.796c-22.288,-164.85 79.629,-645.559 46.533,-809.292c-35.808,-177.162 -94.396,-347.967 -156.275,-517.096c-33.271,-90.929 -50.483,-230.216 -113.054,-302.05l777.9,-34.137Z" style="fill:#1b5466;fill-rule:nonzero;"/><path d="M1584.14,1392.13l-865.858,88.05c-2.046,-2.183 23.479,-92.558 21.65,-95.125c-24.15,-33.92 -34.65,-410.075 -34.75,-528.616c-0.025,-30.154 -89.362,-67.713 -87.871,-97.513c165.642,-29.262 585.204,-19.204 810.209,-8.208c133.72,6.529 151.225,21.333 206.641,149.587c48.817,112.988 52.684,185.175 22.567,301.521l-72.588,190.304Z" style="fill:#1b5466;fill-rule:nonzero;"/><path d="M2534.59,3126.01l-796.063,0l0,-80.016c60.225,-79.609 112.363,-165.413 205.096,-213.588c116.583,-60.546 254.371,-110.329 383.366,-123.779c130.909,-13.633 281.459,-3.129 322.926,138.458c16.808,57.392 5.92,127.021 -12.855,181.571c-23.262,67.592 -42.379,88.063 -102.47,97.354Z" style="fill:#6b919c;fill-rule:nonzero;"/><path d="M2422.68,3126.01l-1125.97,0l0,-79.954c41.584,-79.633 77.571,-165.433 141.588,-213.6c80.488,-60.554 175.6,-110.333 264.646,-123.779c39.454,-5.958 135.666,1.271 144.058,0c39.454,-5.958 135.663,1.271 144.063,0c39.441,-5.958 135.654,1.271 144.046,0c39.454,-5.958 135.662,1.271 144.058,0c90.371,-13.642 194.304,-3.121 222.925,138.446c11.608,57.412 4.091,127.042 -8.867,181.575c-16.037,67.491 -29.225,88.012 -70.546,97.312Z" style="fill:#cae1e7;fill-rule:nonzero;"/><path d="M1812.94,3126.01l-955.155,0l0,-80.016c72.271,-79.609 134.821,-165.413 246.084,-213.588c139.891,-60.546 272.662,-110.283 427.421,-123.729c157.066,-13.642 386.991,-29.85 436.733,111.725c20.171,57.404 -9.6,153.704 -32.138,208.254c-27.908,67.592 -50.85,88.063 -122.945,97.354Z" style="fill:#6b919c;fill-rule:nonzero;"/><path d="M855.829,3126.01c-84.812,-362.216 -245.396,-1582.5 -254.616,-1715.82c-15.117,-218.505 -0,-439.246 -0,-655.284c-0,0 243.079,-51.196 214.483,348.121c-6.463,90.258 -21.3,140.142 -48.283,217.258c-32.067,91.663 -26.284,87.671 28.595,159.042c170.946,222.246 183.113,547.192 205.571,852.358c15.629,212.513 28.021,579.496 -58.937,794.325l-86.813,0Z" style="fill:#6b919c;fill-rule:nonzero;"/><path d="M2646.75,3955.15c-9.35,-0.275 -18.683,-0.717 -28.033,-1.3c-9.567,-0.6 -19.18,-1.229 -28.775,-1.875c-10.046,-0.675 -20.096,-1.396 -30.142,-2.162c-11.037,-0.859 -22.071,-1.809 -33.104,-2.834c-14.375,-1.296 -28.729,-2.787 -43.029,-4.529c-0.7,-0.092 -1.396,-0.167 -2.092,-0.254c-3.654,-0.442 -7.333,-0.904 -10.988,-1.392c-9.45,-190.366 -19.329,-524.283 -14.112,-692.971c0.338,-11.162 0.746,-21.587 1.229,-31.225c7.717,-155.237 17.209,-284.495 23.342,-304.533c14.254,-46.542 -829.142,2.096 -961.288,-52.763c-54.4,-22.612 -16.325,-150.458 -5.771,-184.47c14.184,-45.638 68.609,-118.184 147.075,-164.755c41.276,-24.491 111.492,-58.154 163.73,-60.545c-0,-0 640.77,32.916 908.691,283.662c46.421,43.388 -12.066,770.042 -86.733,1221.95Z" style="fill:#002552;fill-rule:nonzero;"/><path d="M2456.47,3247.82l0,0.016c-35.746,236.705 -82.479,501.167 -114.642,666.996c-12.716,-3.458 -25.433,-7.108 -38.104,-10.846c-4.496,-1.316 -8.967,-2.646 -13.437,-3.991c-1.371,-0.421 -2.763,-0.813 -4.134,-1.229c-18.779,-5.642 -37.504,-11.351 -56.254,-16.88c-1.996,-0.575 -4.012,-1.183 -6.008,-1.783c-32.934,-9.958 -65.438,-21.8 -97.529,-34.754c-0.842,-0.346 -1.684,-0.675 -2.525,-1.046c-4.279,-180.662 -7.596,-476.254 -0.263,-623.042c7.717,-155.237 12.404,-251.666 18.533,-271.7c14.255,-46.541 -826.954,-24.041 -995.233,-120.196c-51.146,-29.229 22.434,-115.866 33.009,-149.875c21.637,-69.645 93.729,-167.145 245.225,-174.112c-0,0 97.479,-2.529 235.924,4.712l0.025,0c259.817,13.584 663.917,61.563 838.709,225.142c22.504,21.054 -3.604,249.675 -43.296,512.588Z" style="fill:#00055d;fill-rule:nonzero;"/><path d="M2032.34,2247.24c-25.833,9.05 -51.391,19.754 -77.254,30.433c-6.225,2.6 -12.504,5.179 -18.783,7.754c-31.058,12.679 -65.996,13.729 -93.758,29.983c-44.767,-80.679 -73.55,-188.046 -93.388,-287.679c-6.3,-31.762 -11.7,-62.725 -16.429,-91.808c-25.408,-156.284 5.629,-317.517 -2.725,-473.179l33.763,-148.529c117.97,43.091 125.92,300.262 138.579,399.774c21.579,169.563 18.754,394.9 129.995,533.251Z" style="fill:#0078ee;fill-rule:nonzero;"/><path d="M1764.69,1330.17l-4.999,5c10.104,17.029 18.712,34.646 26.079,52.733c-2.942,-13.521 -6.525,-26.279 -10.934,-37.871c-2.496,-6.558 -6.525,-13.746 -10.146,-19.862Z" style="fill:#bf0808;fill-rule:nonzero;"/><path d="M1955.08,2277.67c-6.225,2.6 -12.504,5.179 -18.783,7.754c-31.058,12.679 -65.996,13.729 -93.758,29.983c-44.767,-80.679 -73.55,-188.046 -93.388,-287.679c6.309,-57.471 15.333,-114.967 25.813,-172.367c15.483,-84.829 25.733,-173.491 24.733,-260.095c-0.7,-60.575 0.125,-142.88 -13.929,-207.379c55.921,137.229 39.787,301.787 53.971,447.47c14.254,146.829 40.612,310.292 115.341,442.313Z" style="fill:#0057a8;fill-rule:nonzero;"/><path d="M1571.47,2735.22c-132.225,168.962 -350.634,94.433 -435.188,90.058c-62.75,-229.983 -139.904,-933.971 -155.208,-1139.92c-1.175,-15.779 -1.975,-28.637 -2.4,-38.138c-0.15,-3.329 -0.3,-6.629 -0.475,-9.933c-8.229,-168.358 -28.454,-368.075 183.767,-464.671c68.491,-31.175 142.579,-8.65 206.904,-43.112l267.3,-65.525c39.462,2.575 91.333,160.508 140.125,199.3c111.241,88.404 57.27,438.762 49.396,772.758c-1.18,50.521 -1.33,100.667 0.325,149.479c3.349,98.867 14.004,192.225 38.087,272.104c7.904,26.213 -157.558,105.038 -292.633,277.605Z" style="fill:#0078ee;fill-rule:nonzero;"/><path d="M1571.47,2735.22c-132.225,168.962 -350.634,94.433 -435.188,90.058c-62.75,-229.983 -139.904,-933.971 -155.208,-1139.92c10.479,48.517 25.008,96.938 36.287,143.629c32.863,136.025 41.163,299.254 67.421,404.288c17.075,68.283 258.8,-7.313 330.104,-7.488c64.246,-0.175 123.317,-10.408 183.817,-22.408c62.375,-12.409 121.571,-21.558 187.546,-18.863c9.179,0.379 23.358,0.529 39.767,1c3.349,98.867 169.875,258.725 90.129,283.263c-62.5,19.233 -209.6,93.879 -344.675,266.446Z" style="fill:#0057a8;fill-rule:nonzero;"/><path d="M2549.83,2299.57l905.492,102.941l-1330.51,71.025l-822.379,-123.175l1247.4,-50.791Z" style="fill:#426075;fill-rule:nonzero;"/><path d="M2124.81,2473.53l7.096,38.013l1292.83,-70.15l30.583,-38.888l-1330.51,71.025Z" style="fill:#17232b;fill-rule:nonzero;"/><path d="M2131.9,2511.55l-787.296,-122.221l-42.179,-38.967l822.379,123.175l7.096,38.013Z" style="fill:#17232b;fill-rule:nonzero;"/><path d="M2776.88,2391.82l-622.925,37.391l-495.687,-101.704l206.967,-5.608l481.808,-13.083l33.491,-0.9l18.321,3.879l95.088,20.129l282.937,59.896Z" style="fill:#adadad;fill-rule:nonzero;"/><path d="M1661.64,2353.14l-3.371,-25.634c-0,0 512.887,71.125 520.516,70.975c7.634,-0.154 9.95,28.534 9.95,28.534l-34.779,2.195l-492.316,-76.07Z" style="fill:#494949;fill-rule:nonzero;"/><path d="M2443.08,2332.95l-270.087,30.029l-358.621,-40.054l481.804,-13.084l51.817,2.984l95.087,20.125Z" style="fill:#ccc;fill-rule:nonzero;"/><path d="M2034.75,1123.87c-36.333,48.112 -46.988,152.658 -88.233,196.395c-34.271,36.376 -62.488,57.671 -131.484,90.3c-21.275,1.113 -32.791,-11.02 -62.216,-23.404c-48.75,-20.558 -119.479,-63.304 -144.109,-85.875c-68.654,-62.954 -46.608,-47.466 -58.133,-132.346c-12.321,-90.683 -6.071,-159.974 53.537,-232.299c74.8,-90.792 172.95,-145.326 210.463,-264.288c15.996,-50.704 -1.725,-119.954 29.129,-160.883c1.333,-1.763 2.746,-3.484 4.263,-5.125l70.462,-52.496c131.138,27.446 149.508,192.104 159.817,313.646c11.108,131.05 30.304,258.629 -43.496,356.375Z" style="fill:#3a2920;fill-rule:nonzero;"/><path d="M1977.44,1006.88c-12.583,98.838 -34.012,190.288 -99.266,269.65c-45.304,55.083 -61.529,76.15 -125.354,110.629c-48.75,-20.558 -119.479,-63.304 -144.109,-85.875c-68.654,-62.954 -46.608,-47.466 -58.133,-132.346c-12.321,-90.683 -6.071,-159.974 53.537,-232.299c74.8,-90.792 172.95,-145.326 210.463,-264.288c15.996,-50.704 -1.725,-119.954 29.129,-160.883l108.334,-1.871c47.625,67.037 78.541,145.179 76.362,228.133c-2.471,93.475 -39.304,177.754 -50.963,269.15Z" style="fill:#261a15;fill-rule:nonzero;"/><path d="M1751.39,972.283c-16.067,45.179 -54.43,121.717 -83.421,190.817c-19.563,46.675 -20.509,182.375 1.996,214.887c52.808,76.271 -279.421,-47.2 -346.109,-150.979c-19.371,-30.141 -30.387,-51.758 -53.85,-78.787c75.546,-8.938 142.588,-90.767 184.175,-153.471c27.425,-41.346 51.042,-85.829 76.959,-128.371c0.975,-1.6 1.904,-3.187 2.812,-4.829c24.279,-42.983 33.225,-101.171 59.384,-136.546l158.054,247.279Z" style="fill:#ffb278;fill-rule:nonzero;"/><path d="M1751.39,972.283c-16.067,45.179 -54.43,121.717 -83.421,190.817c-59.292,-34.863 -94.754,-131.163 -109.984,-184.662c-10.754,-37.763 -18.833,-77.05 -24.033,-116.888c24.279,-42.983 33.225,-101.171 59.384,-136.546l158.054,247.279Z" style="fill:#e5804e;fill-rule:nonzero;"/><path d="M1953.52,835.404c-1.629,8.054 -3.042,16.617 -4.2,25.733c-1.117,8.805 -2.467,17.421 -4.03,25.78c-0.274,1.55 -0.575,3.096 -0.87,4.641l-0.092,0.455c-0.558,2.824 -1.129,5.629 -1.725,8.404l-0.038,0.104c-38.608,178.104 -170.183,252.962 -226.766,238.675c-129.425,-32.663 -392.234,-427.95 -49.242,-626.217c164.884,-95.312 306.096,-51.696 334.846,116.971c14.4,84.458 -29.5,113.196 -47.883,205.454Z" style="fill:#ffb278;fill-rule:nonzero;"/><path d="M1847.76,880.583c-9.884,12.309 -27.584,83.263 -27.584,83.263c0,-0 -44.4,3.387 -53.842,2.391c16.476,3.551 42.08,11.355 75.871,12.8c-3.362,-39.816 5.555,-98.454 5.555,-98.454Z" style="fill:#e5804e;fill-rule:nonzero;"/><path d="M1834.29,1027.34c-0.359,0.351 -0.763,0.696 -1.188,1.059c-0.833,0.762 -1.763,1.625 -2.804,2.508c-1.104,0.8 -2.342,1.596 -3.629,2.504c-1.309,0.88 -2.746,1.767 -4.263,2.746c-1.512,0.95 -3.25,1.621 -5.025,2.517c-1.766,0.821 -3.65,1.679 -5.621,2.487c-2.046,0.646 -4.133,1.296 -6.291,1.954c-1.113,0.317 -2.221,0.655 -3.334,0.98c-1.15,0.245 -2.296,0.425 -3.466,0.65c-2.363,0.445 -4.784,0.779 -7.259,1.175c-2.475,0.17 -5.008,0.25 -7.566,0.35c-1.288,0.012 -2.592,0.183 -3.875,0.091l-7.83,-0.579l-1.987,-0.171l-1.95,-0.366c-2.6,-0.5 -5.204,-0.984 -7.833,-1.492c-2.571,-0.629 -5.104,-1.508 -7.646,-2.25c-1.258,-0.4 -2.517,-0.758 -3.75,-1.25c-1.204,-0.537 -2.404,-1.046 -3.609,-1.579c-4.874,-1.909 -9.341,-4.529 -13.566,-7.129c-2.129,-1.246 -4.054,-2.825 -5.946,-4.254c-1.887,-1.471 -3.792,-2.767 -5.375,-4.438c-1.612,-1.604 -3.212,-3.1 -4.696,-4.629c-1.516,-1.467 -2.716,-3.175 -3.958,-4.688c-1.196,-1.575 -2.354,-3.037 -3.4,-4.466c-0.95,-1.58 -1.838,-3.046 -2.621,-4.459c-0.787,-1.391 -1.537,-2.666 -2.154,-3.887c-0.625,-1.196 -0.959,-2.375 -1.371,-3.383c-0.825,-2.034 -1.321,-3.734 -1.729,-4.855c-0.325,-1.004 -0.504,-1.591 -0.538,-1.725c0.105,0.071 0.609,0.463 1.43,1.1l0.187,0.171l0.117,0.188c0.937,1.446 2.004,2.921 3.104,4.554c1.225,1.471 2.579,2.967 3.966,4.579c1.442,1.55 2.863,3.321 4.617,4.846c1.704,1.546 3.563,3.125 5.438,4.771c1.825,1.712 4.033,3.075 6.208,4.612c2.175,1.492 4.388,3.121 6.837,4.454c4.859,2.709 9.963,5.488 15.534,7.563c1.358,0.546 2.737,1.112 4.137,1.658c1.379,0.546 2.838,0.946 4.271,1.384c2.892,0.812 5.775,1.758 8.717,2.483c2.954,0.575 5.929,1.15 8.879,1.725l2.238,0.408l2.249,0.208c1.475,0.13 2.95,0.284 4.451,0.421c1.475,0.13 2.933,0.259 4.412,0.392c1.454,0.129 2.929,0.017 4.367,0.033c2.908,-0.029 5.775,-0.041 8.554,-0.141c2.779,-0.35 5.525,-0.592 8.175,-0.975c1.304,-0.213 2.621,-0.342 3.904,-0.575c1.263,-0.288 2.508,-0.592 3.725,-0.88c2.421,-0.599 4.792,-1.199 7.079,-1.787c2.208,-0.771 4.288,-1.567 6.279,-2.354c1.9,-0.813 3.767,-1.408 5.405,-2.259Z" style="fill:#e5804e;fill-rule:nonzero;"/><path d="M1664.4,790.629c4.566,4.792 9.529,8.996 14.779,12.725c0.8,0.625 1.696,1.213 2.567,1.788c3.004,2.008 6.108,3.837 9.233,5.537c3.175,1.771 6.521,3.384 9.888,4.863c3.374,1.487 6.779,2.841 10.249,4.07c3.175,1.184 6.371,2.217 9.588,3.138c7.613,2.275 15.45,4.125 23.338,5.717c3.141,0.633 6.358,1.22 9.525,1.725c0.962,0.196 1.991,0.404 2.966,0.529c3.15,0.579 6.317,1.075 9.488,1.579l1.629,0.204c0.767,-2.775 1.429,-5.721 1.896,-8.75c-1.384,-2.354 -42.463,-9.458 -51.475,-12.741c-15.992,-5.771 -47.571,-23.226 -53.671,-20.384Z" style="fill:#fff;fill-rule:nonzero;"/><path d="M1681.5,783.717c-0.942,7.362 -1.054,14.546 -0.537,21.32c22.141,14.771 48.962,21.405 75.491,25.821c2.842,-4.408 5.509,-9.258 7.704,-14.471c-19.82,-4.275 -35.62,-11.033 -44.729,-14.354c-16.141,-5.762 -26.529,-10.412 -37.929,-18.316Z" style="fill:#191c1e;fill-rule:nonzero;"/><path d="M1664.01,790.221l0.383,0.408c16.337,6.967 29.321,12.929 53.671,20.384c29.437,9.008 50.091,10.387 51.475,12.741c6.125,-32.271 1.421,-75.067 -31.313,-90.483c-38.496,-18.188 -62.883,29.871 -74.216,56.95Z" style="fill:#e5804e;fill-rule:nonzero;"/><path d="M1932.88,889.258c4.771,1.367 12.384,3.084 19.629,4.738l-0.112,0.558c-0.679,3.45 -1.379,6.875 -2.108,10.267c-6.409,-1.367 -12.78,-3.004 -18.975,-5.079c-2.609,-0.829 -5.205,-1.759 -7.8,-2.859c-2.817,-1.133 -5.58,-2.391 -8.321,-3.787c-2.742,-1.392 -5.45,-2.892 -8.009,-4.584c-2.521,-1.608 -5.02,-3.345 -7.441,-5.266l-0.659,-0.533c-0.491,-0.376 -0.95,-0.771 -1.412,-1.167c-4.221,-3.584 -8.204,-7.654 -11.829,-12.292c1.975,-1.154 7.062,0.642 13.291,3.596c9.784,4.604 22.396,12.042 30.334,15.271c0.825,0.346 2,0.712 3.412,1.137Z" style="fill:#fff;fill-rule:nonzero;"/><path d="M1953.57,888.333c-0.338,1.892 -0.7,3.775 -1.063,5.663l-0.112,0.558c-0.679,3.45 -1.379,6.875 -2.108,10.267l-0.046,0.129c-18.238,-3.817 -36.138,-9.883 -51.142,-21.796l-0.017,-0.441c-0.07,-2.28 -0.104,-4.609 -0.025,-6.975c0.004,-0.955 0.038,-1.909 0.075,-2.888c0.155,-3.583 0.48,-7.225 0.975,-10.925c9.18,7.55 17.579,11.921 30.725,17.217c5.15,2.133 12.959,5.871 22.738,9.191Z" style="fill:#191c1e;fill-rule:nonzero;"/><path d="M1963.62,825.4c-1.988,9.846 -3.713,20.304 -5.133,31.437c-1.359,10.759 -3.013,21.284 -4.921,31.496c-0.338,1.892 -0.7,3.775 -1.063,5.663l-0.112,0.558c-5.579,-1.241 -12.192,-2.908 -19.517,-5.296c-1.121,-0.358 -2.267,-0.746 -3.412,-1.137c-13.009,-4.429 -22.013,-8.371 -30.409,-12.383c-4.416,-2.109 -8.658,-4.246 -13.216,-6.484l-0.3,-0.4c10.029,-27.262 31.383,-75.791 62.562,-58.696c6.55,3.571 11.638,8.842 15.521,15.242Z" style="fill:#e5804e;fill-rule:nonzero;"/><path d="M1940.92,782.425c-0.437,0.375 -1.754,0.633 -4.054,-0.258c-2.296,-0.934 -5.842,-3.088 -10.55,-8.134c-4.704,-5.045 -6.204,-8.962 -6.163,-11.912c0.009,-2.963 1.592,-4.642 2.367,-5.254c0,-0 0.425,-0.271 1.271,-0.696c0.85,-0.413 2.092,-1.017 3.671,-1.792c3.229,-1.4 7.879,-3.279 13.67,-4.542c5.767,-1.274 12.642,-1.899 19.813,-1.225c3.588,0.346 7.246,0.976 10.842,2.059c3.595,1.017 7.129,2.45 10.437,4.271c3.317,1.771 6.413,3.954 9.1,6.458c2.713,2.471 5.042,5.233 6.833,8.15c3.734,5.767 5.175,11.967 5.55,16.987c0.351,5.08 -0.345,9.134 -0.912,11.913c-0.671,2.7 -1.121,4.225 -1.125,4.225c0.004,0 -0.033,-1.596 -0.221,-4.358c-0.3,-2.7 -0.879,-6.571 -2.546,-10.717c-1.683,-4.108 -4.387,-8.463 -8.387,-11.65c-1.929,-1.646 -4.159,-3 -6.533,-4.05c-2.338,-1.083 -4.859,-1.837 -7.417,-2.267c-2.538,-0.466 -5.121,-0.625 -7.642,-0.5c-2.504,0.063 -4.954,0.463 -7.25,0.992c-4.6,1.096 -8.571,2.879 -11.675,4.763c-3.108,1.879 -5.337,3.87 -6.85,5.233c-0.717,0.721 -1.283,1.296 -1.666,1.683c-0.388,0.379 -0.563,0.621 -0.563,0.621Z" style="fill:#261a15;fill-rule:nonzero;"/><path d="M1821.8,715.975c0.579,0.992 1.616,3.442 0.696,6.492c-0.888,3.058 -3.592,6.408 -9.829,9.354c-6.238,2.946 -10.463,3.391 -13.092,3.125c-2.621,-0.292 -3.959,-1.354 -4.308,-2.008c-0,-0 -0.109,-0.363 -0.438,-0.992c-0.304,-0.646 -0.762,-1.592 -1.337,-2.792c-1.3,-2.342 -3.213,-5.754 -6.205,-9.542c-2.966,-3.787 -6.991,-7.941 -11.962,-11.766c-2.459,-1.963 -5.213,-3.696 -8.084,-5.413c-2.912,-1.566 -5.966,-3.133 -9.166,-4.279c-3.188,-1.175 -6.483,-2.179 -9.788,-2.712c-3.304,-0.596 -6.625,-0.867 -9.812,-0.675c-6.442,0.183 -12.271,2.3 -16.784,5.179c-4.416,2.987 -7.533,6.65 -9.25,9.4c-0.995,1.317 -1.499,2.579 -1.979,3.337c-0.433,0.788 -0.662,1.209 -0.662,1.209c-0,-0 0.112,-0.467 0.333,-1.338c0.275,-0.867 0.434,-2.175 1.075,-3.766c1.042,-3.296 3.158,-7.846 7.238,-12.542c4.129,-4.534 10.45,-8.979 18.133,-11.263c7.642,-2.479 16.342,-3.062 24.842,-2.221c17.133,1.601 33.254,9.346 43.966,17.396c5.396,4.005 9.463,8.059 12.259,10.963c1.333,1.533 2.383,2.737 3.095,3.554c0.726,0.812 1.059,1.3 1.059,1.3Z" style="fill:#261a15;fill-rule:nonzero;"/><path d="M1730.34,758.737c-39.275,-8.82 -55.746,-7.92 -58.971,-6.22c-1.55,0.821 -5.034,5.183 -8.279,16.325c-7.209,24.741 -7.442,59.687 -0.479,71.912c4.966,8.729 31.633,20.033 64.845,27.492l0.013,0.004c13.8,3.096 27.417,5.238 38.342,6.025c13.325,0.963 34.416,-16.8 49.062,-41.312c11.758,-19.671 13.517,-34.296 10.179,-39.555c-4.683,-7.375 -46.179,-23.77 -94.712,-34.671Zm-5.946,123.171l-0.004,-0.008c-18.775,-4.212 -63.567,-15.992 -73.946,-34.221c-9.704,-17.046 -8.204,-57.3 -0.792,-82.754c3.875,-13.325 8.846,-21.433 15.175,-24.775c11.475,-6.075 43.629,-0.667 68.579,4.929c31.284,7.025 93.163,24.6 103.467,40.834c10.425,16.42 -3.508,43.391 -9.983,54.229c-14.992,25.087 -40,49.687 -62.084,48.091c-11.596,-0.833 -25.95,-3.083 -40.412,-6.325Z" style="fill:#111612;fill-rule:nonzero;"/><path d="M1942.63,819.863c-32.704,-7.342 -45.179,-5.425 -47.229,-4.067c-9.521,6.317 -19.171,70.129 -10.833,88.796c3.625,8.104 24.783,17.958 51.458,23.945c11.192,2.513 22.25,4.092 31.137,4.45c8.313,0.334 22.534,-12.504 34.575,-31.212c15.105,-23.463 20.413,-44.85 16.821,-51.983c-3.058,-6.059 -33.42,-20.384 -75.929,-29.929Zm-9.666,122.329l-0.009,-0c-15.679,-3.521 -53.029,-13.671 -61.162,-31.892c-9.859,-22.054 -1.43,-94.696 15.875,-106.167c8.183,-5.433 27.708,-4.733 58.029,2.075c25.962,5.834 77.216,21.125 85.358,37.284c8.054,15.979 -4.421,45.462 -17.55,65.862c-7.45,11.575 -26.933,38.413 -46.9,37.617c-9.708,-0.392 -21.654,-2.088 -33.641,-4.779Z" style="fill:#111612;fill-rule:nonzero;"/><path d="M1831.9,824.408l-8.891,-10.804c10.65,-8.762 29.354,-11.316 44.454,-6.087c11.579,4.016 19.2,11.925 21.458,22.266l-13.675,2.984c-1.513,-6.921 -7.558,-10.363 -12.367,-12.025c-10.466,-3.621 -24.07,-2.017 -30.979,3.666Z" style="fill:#111612;fill-rule:nonzero;"/><path d="M1961.77,528.071c-58.371,9 -170.2,26.129 -188.829,92.575c-56.363,201.087 -67.925,167.758 -139.529,226.429c-91.588,75.021 -35.225,102.137 -3.15,190.75c13.779,38.129 5.512,75.358 -13.021,109.496c-96.734,178.229 -404.53,66.596 -455.279,25.287c79.737,-80.4 92.97,-123.154 85.729,-198.312c-8.179,-84.967 -2.921,-183.629 28.145,-257.413c33.167,-78.825 156.58,-243.641 247.317,-290.025c284.992,-145.7 421.188,6.709 430.65,79.875c1.821,14.075 7.967,21.338 7.967,21.338Z" style="fill:#3a2920;fill-rule:nonzero;"/><path d="M1961.77,528.071c-58.371,9 -170.2,26.129 -188.829,92.575c-56.363,201.087 -67.925,167.758 -139.529,226.429c-91.588,75.021 -35.225,102.137 -3.15,190.75c13.779,38.129 6.508,75.917 -13.021,109.496c-1.996,-21.3 -7.78,-43.034 -18.784,-65.688c-29.879,-61.483 -100.283,-136.508 -70.345,-208.246c20.358,-48.766 80.991,-74.291 111.108,-118.116c31.683,-46.134 26.883,-98.35 44.462,-150.008c42.396,-124.726 278.088,-77.192 278.088,-77.192Z" style="fill:#5b3f33;fill-rule:nonzero;"/><path d="M2233.3,2362.68c7.317,-5.033 -9.513,-38.333 -15.879,-52.275c-7.046,-15.421 -22.029,-30.591 -34.479,-41.037c-16.726,-14.029 -56.58,-33.808 -80.205,-30.546c-44.837,6.188 -124.191,13.513 -170.812,14.067l-18.379,45.779c17.954,13.812 65.375,49.908 128.254,31.008c23.696,-7.116 46.596,-12.421 70.958,-5.129c16.513,4.937 64.709,40.708 82.146,30.571c-2.658,-11.567 -29.121,-25.1 -36.371,-34.188c16.325,17.542 43.671,52.784 50.188,53.713c9.937,-5.488 0.079,-24.479 -10.884,-42.204c10.579,15.625 22.934,35.979 35.463,30.241Z" style="fill:#ffb278;fill-rule:nonzero;"/><path d="M2119.47,2342.2c-6.267,-15.963 -12.05,-36.692 -20.012,-51.3l-65.905,-14.196c17.625,7.675 19.425,32.1 28.371,48.825c9.513,17.775 25.242,20.288 41.742,32.021c6.842,4.863 9.887,14.429 17.867,7.863c6.67,-5.488 0.325,-17.138 -2.063,-23.213Z" style="fill:#ffb278;fill-rule:nonzero;"/><path d="M1260.61,1561.77c-6.72,131.712 4.226,506.446 68.913,658.733l32.846,-2.238c-82.525,-228.824 -67.858,-549.166 -101.759,-656.495Z" style="fill:#003c5d;fill-rule:nonzero;"/><path d="M1377.38,2304.54l-37.513,-116.287c3.246,-25.663 -113.32,-94.308 -150.05,-93.963c-68.225,0.646 -106.095,60.726 -112.541,123.971c-14.888,146.292 136.896,336.159 259.671,168.913c15.804,-21.525 42.279,-64.459 40.433,-82.634Z" style="fill:#002a5e;fill-rule:nonzero;"/><path d="M2051.82,2304.53c-5.304,-8.279 -12.584,-16.208 -20.634,-23.458c-10.329,-9.304 -21.933,-17.508 -32.212,-23.908c-24.533,-15.255 -80.479,-33.767 -110.842,-25.088c-57.621,16.483 -160.283,40.892 -221.283,50.296l-15.554,63.446c9.279,5.254 32.562,14.279 66.825,19.958c46.191,7.679 112.366,9.229 191.021,-12.854c3.45,-0.95 6.904,-1.971 10.404,-3.025c21.158,-6.429 75.179,48.771 97.562,37.138c0.7,-0.351 1.4,-0.801 2.05,-1.33c-5.625,-14.675 -31.362,-45.841 -42.566,-56.395c24.687,19.962 67.1,61.054 75.804,61.054c12.004,-9.054 -4.454,-32.117 -22.133,-53.3c16.783,18.508 36.762,42.891 52.116,33.037c8.658,-7.979 -19.604,-48.491 -30.558,-65.571Z" style="fill:#ffb278;fill-rule:nonzero;"/><path d="M1726.24,2274.53c-120.037,-11.254 -343.849,-86.771 -427.87,-105.021c-65.171,-14.166 -128.067,-32.854 -161.071,26.242c-34.238,61.308 -15.75,162.425 52.516,180.058c87.417,22.584 188.013,-3.741 281.526,-3.741c76.175,-0 150.641,-8.313 224.895,-10.65l30.004,-86.888Z" style="fill:#ffb278;fill-rule:nonzero;"/><path d="M1712.17,2363.05c0.45,-0.1 1.104,0.025 1.9,0.375c-0.625,-0.1 -1.275,-0.25 -1.9,-0.375Z" style="fill:#e5804e;fill-rule:nonzero;"/><path d="M2082.38,2370.1c-15.354,9.854 -35.333,-14.529 -52.116,-33.037c17.679,21.183 34.137,44.246 22.133,53.3c-8.704,-0 -51.117,-41.092 -75.804,-61.054c11.204,10.554 36.941,41.72 42.566,56.395c-0.65,0.529 -1.35,0.979 -2.05,1.33c-22.383,12.204 -75.704,-33.838 -97.562,-37.138c-3.825,-0.575 -7.25,0.546 -10.404,3.025c-78.655,22.083 -144.83,20.533 -191.021,12.854c-1.629,-1.125 -3,-1.929 -4.054,-2.35c69.7,13.804 156.162,-31.937 193.175,-37.887c-1.525,-17.734 41.466,-12.109 55.02,-7.504c-0.775,-16.534 29.534,-26.063 42.638,-18.434c-0.746,-16.054 12.108,-21.408 25.012,-12.579c0.325,-2.2 0.775,-4.175 1.275,-5.95c8.05,7.25 15.33,15.179 20.634,23.458c10.954,17.08 39.216,57.592 30.558,65.571Z" style="fill:#e5804e;fill-rule:nonzero;"/><path d="M2323.96,1598.74l-169.225,830.474l32.454,7.271l857.367,-62.812l177.7,-771.479l-898.296,-3.454Z" style="fill:#494949;fill-rule:nonzero;"/><path d="M3222.25,1602.19l-177.7,771.479l-854.821,62.758l170.621,-836.896l861.9,2.659Z" style="fill:#ccc;fill-rule:nonzero;"/><path d="M2837.29,1905.85c-2.559,21.071 -22.271,38.5 -44.017,38.921c-21.75,0.421 -37.379,-16.317 -34.912,-37.392c2.466,-21.066 22.17,-38.491 44.012,-38.916c21.846,-0.421 37.479,16.316 34.917,37.387Z" style="fill:#adadad;fill-rule:nonzero;"/><path d="M767.687,2250.85l26.559,180.588c-0,-0 24.754,0.275 64.537,0.487c162.275,0.9 574.942,0.971 583.492,-21.325c10.625,-27.783 10.625,-111.129 -47.804,-152.8c-28.846,-20.562 -181.925,-22.508 -329.542,-19.241c-151.487,3.4 -297.242,12.291 -297.242,12.291Z" style="fill:#293b49;fill-rule:nonzero;"/><path d="M767.687,2250.85l26.559,180.588c-0,-0 24.754,0.275 64.537,0.487c178.579,-0.975 386.271,-5.567 392.271,-21.325c10.625,-27.783 10.625,-111.129 -47.808,-152.8c-15.833,-11.329 -69.05,-16.954 -138.317,-19.241c-151.487,3.4 -297.242,12.291 -297.242,12.291Z" style="fill:#17232b;fill-rule:nonzero;"/></g></svg>