<svg id="visual" viewBox="0 0 900 600" width="900" height="600" xmlns="http://www.w3.org/2000/svg" xmlns:xlink="http://www.w3.org/1999/xlink" version="1.1"><rect x="0" y="0" width="900" height="600" fill="#f3f4f6"></rect><path d="M0 537L10.7 542C21.3 547 42.7 557 64.2 554.7C85.7 552.3 107.3 537.7 128.8 530.5C150.3 523.3 171.7 523.7 193 522C214.3 520.3 235.7 516.7 257 515.8C278.3 515 299.7 517 321.2 518.5C342.7 520 364.3 521 385.8 525.3C407.3 529.7 428.7 537.3 450 544.2C471.3 551 492.7 557 514.2 560.3C535.7 563.7 557.3 564.3 578.8 555.8C600.3 547.3 621.7 529.7 643 528.3C664.3 527 685.7 542 707 546.8C728.3 551.7 749.7 546.3 771.2 543.3C792.7 540.3 814.3 539.7 835.8 535.2C857.3 530.7 878.7 522.3 889.3 518.2L900 514L900 601L889.3 601C878.7 601 857.3 601 835.8 601C814.3 601 792.7 601 771.2 601C749.7 601 728.3 601 707 601C685.7 601 664.3 601 643 601C621.7 601 600.3 601 578.8 601C557.3 601 535.7 601 514.2 601C492.7 601 471.3 601 450 601C428.7 601 407.3 601 385.8 601C364.3 601 342.7 601 321.2 601C299.7 601 278.3 601 257 601C235.7 601 214.3 601 193 601C171.7 601 150.3 601 128.8 601C107.3 601 85.7 601 64.2 601C42.7 601 21.3 601 10.7 601L0 601Z" fill="#e5e7eb" stroke-linecap="round" stroke-linejoin="miter"></path></svg>