<?xml version="1.0" encoding="utf-8"?>
<!-- Generator: Adobe Illustrator 26.3.1, SVG Export Plug-In . SVG Version: 6.00 Build 0)  -->
<svg version="1.1" id="_x2018_ÎÓÈ_x5F_1" xmlns="http://www.w3.org/2000/svg" xmlns:xlink="http://www.w3.org/1999/xlink"
	 x="0px" y="0px" viewBox="0 0 1797.03 1356.59" style="enable-background:new 0 0 1797.03 1356.59;" xml:space="preserve">
<style type="text/css">
	.st0{fill:#E9E9E9;}
	.st1{opacity:0.5;fill:#E9E9E9;}
	.st2{fill:#B8C0C7;}
	.st3{fill:#43A1F6;}
	.st4{fill:#151F2C;}
	.st5{fill:#EE805F;}
	.st6{fill:#384152;}
	.st7{fill:#2B6EB2;}
	.st8{fill:#DE6B4D;}
	.st9{fill:#FFFFFF;}
	.st10{fill:#944B34;}
	.st11{fill:#AEC3FF;}
	.st12{fill:#2A4A7C;}
	.st13{fill:#EBF3FA;}
</style>
<g>
	<path class="st0" d="M797.83,408.81l24.96-2.81c2.08-0.21,4.1,0.76,5.24,2.51c1.44,2.24,2.99,4.44,4.64,6.59
		c3.07,4,6.35,7.7,9.88,11.03c1.65,1.57,2.2,3.94,1.35,6.04l-9.57,24.44c-1.05,2.6,0.1,5.58,2.66,6.84l21.5,10.65
		c2.44,1.2,5.36,0.37,6.84-1.89l13-20.37c1.22-2.01,3.65-2.94,5.99-2.32c9.88,2.61,20.16,3.63,30.44,3.03
		c2.48-0.14,4.79,1.47,5.53,3.84l4.41,14.03c0.86,2.65,3.58,4.3,6.34,3.77l23.35-4.72c0.48-0.09,0.93-0.23,1.35-0.45
		c2.02-0.97,3.27-3.17,2.99-5.47l-2.08-18.65l-0.52-4.54c3.88-2.19,7.69-4.69,11.32-7.48c4.89-3.75,9.35-7.9,13.29-12.3
		c1.51-1.68,3.88-2.28,5.98-1.44l19.68,7.73c2.7,1.04,5.74-0.12,7-2.71l8.15-16.44l2.32-4.72c1.28-2.57,0.42-5.71-2-7.24
		l-17.02-10.88c-1.99-1.24-2.97-3.6-2.4-5.83c1.59-6.71,2.47-13.57,2.59-20.43c0.06-0.6,0.05-1.15,0.05-1.73
		c-0.01-0.2,0.01-0.39,0.04-0.58c0.21-2.2,1.74-4.03,3.86-4.69l22.76-7.2c0.26-0.06,0.51-0.19,0.74-0.29c2.21-1.08,3.48-3.57,3-6.03
		l-4.67-23.29c-0.57-2.81-3.17-4.72-6.04-4.41l-26.03,2.94c-2.21,0.28-4.32-0.86-5.37-2.82c-2.35-4.28-5.06-8.45-8.15-12.47
		c-1.64-2.13-3.34-4.17-5.12-6.13c-1.43-1.6-1.86-3.86-1.07-5.85l9.19-23.49c1.02-2.58-0.11-5.55-2.62-6.79l-21.29-10.5
		c-2.57-1.28-5.69-0.44-7.26,2.01l-10.29,16.12c-1.38,2.16-4.02,3.09-6.44,2.28c-9.46-3.28-19.37-5.03-29.36-5.27
		c-2.36-0.02-4.46-1.58-5.18-3.87l-6.48-20.51c-0.87-2.75-3.68-4.39-6.51-3.85l-23.2,4.64c-2.79,0.55-4.68,3.18-4.34,5.96l0.11,1.09
		l2.42,21.66c0.26,2.32-0.93,4.51-3,5.59l-0.02,0.02c-4.97,2.57-9.79,5.61-14.4,9.15c-2.46,1.88-4.77,3.87-7.02,5.94
		c-1.54,1.46-3.77,1.89-5.74,1.12l-19.98-7.85c-2.73-1.08-5.84,0.13-7.12,2.74l-10.47,21.19c-0.29,0.61-0.46,1.25-0.54,1.86
		c-0.21,2.02,0.73,4.1,2.51,5.26l13.62,8.65c1.66,1.08,2.62,2.96,2.54,4.89c-0.03,0.5-0.11,1.02-0.28,1.53
		c-4.14,12.16-5.79,25-4.9,37.82c0.18,2.17-1.02,4.2-2.91,5.21c-0.27,0.14-0.56,0.26-0.87,0.35l-18.43,5.82
		c-2.67,0.84-4.28,3.56-3.75,6.33l0.1,0.54l4.53,22.7C792.29,407.22,794.93,409.13,797.83,408.81z M957.49,337.94
		c1.43,3.57,2.58,7.41,3.39,11.53c1.53,7.84-0.06,20.22-3.61,27.39c-0.38,0.77-0.77,1.52-1.16,2.27
		c-24.42,45.33-88.43,36.32-98.97-14.83c-1.37-6.69-0.51-16.43,1.88-23.89c0.58-1.72,1.2-3.34,1.91-4.71
		c3.26-6.51,7.3-11.96,11.91-16.39C899.13,294.06,943.05,302.33,957.49,337.94z"/>
	<path class="st0" d="M1590.25,321.4c-23.96-48.29-106.91-15.23-106.91-15.23s-40.73,100.93-57.32,106.43
		c-16.59,5.51,17.98-93.09,17.98-93.09c-33.59,3.36-109.56,60.45-109.56,60.45s26.01,103.14,8.58,104.39
		c-17.43,1.25-18.38-92.5-18.38-92.5c-30,15.91-52.37,59.03-52.37,59.03c-25.17,68,63.44,96.81,63.44,96.81s8.24,35.94-5.85,81.84
		l0,0c0,0-3.52,8.66-6.05,22.69l8.7-1.73c0.25-2.47,0.58-4.88,1.02-7.22c0-0.02,0-0.03,0.01-0.04c0.01-0.03,0.01-0.07,0.02-0.1
		c0.33-1.46,0.81-3.54,1.41-6.09c0,0,0-0.01,0-0.01c0-0.01,0-0.01,0-0.01c1.62-5.73,2.66-9.93,3.24-12.93c0-0.01,0-0.02,0-0.03
		c4.72-17.91,11.96-41.46,18.72-47.44c0,0-1.23-1.16-2.65-3.62c0.85,1.15,1.73,2.36,2.65,3.62c21.22,28.94,96.7,19.47,136.48,2.73
		s19.38-24.85-6.72-39.39c-26.1-14.55-71.88-0.25-87.19-4.95c-15.3-4.7,3.42-16.15,31.49-19.52c28.07-3.37,47.38,21.53,92.88,16.91
		c45.5-4.62,62.84-95.37,62.84-95.37c-28.93,15.69-87.6,9.67-91.84-0.54c-4.24-10.21,77.84-25.41,89.96-31.13
		C1596.96,399.64,1614.21,369.69,1590.25,321.4z"/>
	<path class="st0" d="M221.59,692.54c-9.75-53.02,76.47-76.26,76.47-76.26s93.09,56.39,109.67,50.86
		c16.58-5.53-70.17-63.75-70.17-63.75c28.91-17.44,123.93-17.26,123.93-17.26s40.97,98.16,55.68,88.72
		c14.71-9.44-40.71-85.06-40.71-85.06c33.54-5.24,77.3,15.88,77.3,15.88c60.9,39.35,7.22,115.52,7.22,115.52
		s14.93,33.71,53.72,62.02l0,0c0,0,8,4.82,18.44,14.54l-8,3.83c-1.68-1.83-3.39-3.56-5.14-5.17c-0.01-0.01-0.02-0.02-0.03-0.03
		c-0.03-0.02-0.05-0.05-0.08-0.07c-1.14-0.97-2.77-2.36-4.77-4.03c0,0-0.01,0-0.01-0.01c0-0.01-0.01,0-0.01-0.01
		c-4.73-3.61-8.07-6.36-10.34-8.41c-0.01-0.01-0.01-0.01-0.02-0.02c-14.51-11.51-34.41-26.02-43.41-26.76c0,0,0.29-1.67-0.04-4.49
		c0.01,1.43,0.03,2.92,0.04,4.49c0.35,35.88-65.75,73.53-107.63,83.96c-41.88,10.43-30.4-8.28-18.22-35.56
		c12.18-27.28,57.4-43.27,66.84-56.2c9.43-12.93-12.42-10.88-36.9,3.24c-24.49,14.12-25.03,45.63-64.22,69.19
		C361.99,845.26,293.73,783,293.73,783c32.57-4.77,75.92-44.75,73.2-55.46c-2.72-10.71-77.54,26.3-90.68,28.98
		C263.11,759.2,231.35,745.56,221.59,692.54z"/>
	<path class="st0" d="M1641.4,1032.82c42.43-33.25-6.77-107.78-6.77-107.78s-107.09-19.42-115.84-34.55
		c-8.76-15.13,94.8-1.27,94.8-1.27c-10.1-32.21-81.41-95.02-81.41-95.02s-95.72,46.39-100.48,29.57
		c-4.76-16.82,86.85-36.75,86.85-36.75c-21.66-26.15-68.43-39.31-68.43-39.31c-71.69-10.86-81.93,81.75-81.93,81.75
		s-33.52,15.36-81.32,10.87l0,0c0,0-9.19-1.69-23.44-1.33l3.46,8.16c2.47-0.26,4.9-0.42,7.28-0.47c0.02-0.01,0.03-0.01,0.04,0
		c0.03,0,0.07,0,0.1,0c1.5,0.03,3.63,0.07,6.24,0.15c0,0,0.01,0,0.01,0c0.01,0,0.01,0,0.01,0c5.94,0.43,10.26,0.59,13.31,0.55
		c0.01,0,0.02,0,0.03,0c18.49,0.99,43.02,3.3,50.25,8.71c0,0,0.89-1.44,3.01-3.33c-0.96,1.06-1.96,2.17-3.01,3.33
		c-24.03,26.65,0.55,98.64,25.01,134.19c24.46,35.55,28.26,13.94,37.21-14.57c8.95-28.51-14.33-70.44-12.84-86.38
		c1.5-15.93,16.51,0.08,25.5,26.88c8.99,26.8-11.48,50.76,2.27,94.38c13.75,43.62,106.13,42.19,106.13,42.19
		c-21.24-25.15-27.23-83.82-18.09-90.04c9.14-6.22,40.67,71.07,48.73,81.78C1566.15,1055.25,1598.98,1066.08,1641.4,1032.82z"/>
	<g>
		<path class="st1" d="M1256.24,408.71c0,0,4.98-99.33,51.41-161.6c6.17-8.28,19.35-4.19,19.85,6.12c0.01,0.17,0.02,0.35,0.02,0.52
			C1328.07,271.38,1276.66,349.4,1256.24,408.71z"/>
		<path class="st1" d="M1252.05,437.34c0,0,41.82-126.6,123.99-186.98c5.01-3.68,12.19-2.97,16.05,1.9c2.52,3.17,3.9,8.3,1.9,16.6
			C1388.64,290.99,1297.83,370.5,1252.05,437.34z"/>
	</g>
	<g>
		<path class="st1" d="M540.71,570.05c0,0-41.68-72.7-100.34-101.73c-7.8-3.86-16.13,4.25-12.57,12.18c0.06,0.13,0.12,0.27,0.18,0.4
			C434.3,494.35,502.72,533.31,540.71,570.05z"/>
		<path class="st1" d="M554.79,589.95c0,0-79.77-79.11-164.55-93.07c-5.17-0.85-10.29,2.43-11.33,7.56
			c-0.68,3.34,0.24,7.73,4.92,13.19C396.31,532.22,494.87,557.24,554.79,589.95z"/>
	</g>
	<path class="st2" d="M1461.04,412.9v630.63c0,11.03-7.96,19.98-17.78,19.98H533.39c-9.82,0-17.78-8.95-17.78-19.98V412.9
		c0-11.04,7.97-19.98,17.78-19.98h909.87C1453.07,392.92,1461.04,401.86,1461.04,412.9z"/>
	<g>
		<path class="st3" d="M1416.06,376.9v51.14H400.65V376.9c0-10.55,8.55-19.1,19.1-19.1h977.21
			C1407.51,357.8,1416.06,366.34,1416.06,376.9z"/>
		<g>
			<path class="st0" d="M431.71,392.92c0-4.91,3.98-8.89,8.89-8.89s8.89,3.98,8.89,8.89c0,4.91-3.98,8.89-8.89,8.89
				S431.71,397.83,431.71,392.92z"/>
			<path class="st0" d="M466.75,392.92c0-4.91,3.98-8.89,8.89-8.89c4.91,0,8.89,3.98,8.89,8.89c0,4.91-3.98,8.89-8.89,8.89
				C470.73,401.81,466.75,397.83,466.75,392.92z"/>
			<path class="st0" d="M502.68,392.92c0-4.91,3.98-8.89,8.89-8.89s8.89,3.98,8.89,8.89c0,4.91-3.98,8.89-8.89,8.89
				S502.68,397.83,502.68,392.92z"/>
		</g>
	</g>
	<path class="st0" d="M1058.48,302.71l12.15-1.37c1.01-0.1,2,0.37,2.55,1.22c0.7,1.09,1.46,2.16,2.26,3.21
		c1.49,1.95,3.09,3.75,4.81,5.37c0.8,0.76,1.07,1.92,0.66,2.94l-4.66,11.9c-0.51,1.27,0.05,2.72,1.29,3.33l10.47,5.19
		c1.19,0.58,2.61,0.18,3.33-0.92l6.33-9.92c0.6-0.98,1.78-1.43,2.92-1.13c4.81,1.27,9.82,1.77,14.83,1.48
		c1.21-0.07,2.33,0.72,2.7,1.87l2.15,6.83c0.42,1.29,1.74,2.09,3.09,1.83l11.37-2.3c0.23-0.05,0.45-0.11,0.66-0.22
		c0.99-0.47,1.59-1.54,1.46-2.66l-1.01-9.08l-0.25-2.21c1.89-1.06,3.75-2.29,5.51-3.64c2.38-1.83,4.55-3.85,6.47-5.99
		c0.74-0.82,1.89-1.11,2.91-0.7l9.58,3.77c1.31,0.51,2.8-0.06,3.41-1.32l3.97-8.01l1.13-2.3c0.62-1.25,0.2-2.78-0.97-3.53l-8.29-5.3
		c-0.97-0.6-1.44-1.75-1.17-2.84c0.77-3.27,1.2-6.61,1.26-9.95c0.03-0.29,0.03-0.56,0.02-0.84c-0.01-0.1,0.01-0.19,0.02-0.28
		c0.1-1.07,0.85-1.96,1.88-2.28l11.08-3.51c0.13-0.03,0.25-0.09,0.36-0.14c1.08-0.52,1.69-1.74,1.46-2.94l-2.28-11.34
		c-0.28-1.37-1.54-2.3-2.94-2.15l-12.68,1.43c-1.07,0.13-2.1-0.42-2.62-1.37c-1.14-2.08-2.47-4.11-3.97-6.07
		c-0.8-1.04-1.63-2.03-2.49-2.98c-0.7-0.78-0.9-1.88-0.52-2.85l4.48-11.44c0.5-1.26-0.05-2.7-1.28-3.31l-10.37-5.12
		c-1.25-0.62-2.77-0.21-3.54,0.98l-5.01,7.85c-0.67,1.05-1.96,1.5-3.13,1.11c-4.61-1.6-9.43-2.45-14.3-2.57
		c-1.15-0.01-2.17-0.77-2.52-1.88l-3.16-9.99c-0.42-1.34-1.79-2.14-3.17-1.87l-11.3,2.26c-1.36,0.27-2.28,1.55-2.11,2.9l0.05,0.53
		l1.18,10.55c0.13,1.13-0.45,2.2-1.46,2.72l-0.01,0.01c-2.42,1.25-4.77,2.73-7.01,4.45c-1.2,0.92-2.32,1.88-3.42,2.89
		c-0.75,0.71-1.83,0.92-2.79,0.55l-9.73-3.82c-1.33-0.53-2.84,0.06-3.47,1.33l-5.1,10.32c-0.14,0.29-0.22,0.61-0.26,0.91
		c-0.1,0.99,0.36,2,1.22,2.56l6.63,4.21c0.81,0.53,1.28,1.44,1.24,2.38c-0.01,0.25-0.06,0.5-0.14,0.74
		c-2.02,5.92-2.82,12.17-2.39,18.42c0.09,1.06-0.5,2.05-1.42,2.54c-0.13,0.07-0.27,0.13-0.42,0.17l-8.98,2.83
		c-1.3,0.41-2.08,1.73-1.82,3.08l0.05,0.26l2.21,11.06C1055.78,301.94,1057.07,302.87,1058.48,302.71z M1136.24,268.2
		c0.69,1.74,1.26,3.61,1.65,5.61c0.74,3.82-0.03,9.85-1.76,13.34c-0.18,0.38-0.37,0.74-0.56,1.11
		c-11.89,22.08-43.07,17.69-48.2-7.22c-0.67-3.26-0.25-8,0.91-11.63c0.28-0.84,0.59-1.63,0.93-2.29c1.59-3.17,3.56-5.82,5.8-7.98
		C1107.81,246.83,1129.2,250.85,1136.24,268.2z"/>
	<g>
		<path class="st4" d="M351.12,873.29c0,0,1.35-14.76-15.14-14.76c0,0,5,1.36,7.58,4.07c0,0-10.52-6.17-21.96,3.31
			c-11.45,9.49-4.33,33.28-7.81,37.8c-3.48,4.52-17.03,5.42-15.38,20.03c1.66,14.61,43.02,32.9,40.36,44.99
			c0,0,16.21-23.83,4.62-34.7c0,0,5.65,5.32,6.22,11.65c0,0,1.53-12.35-6.33-16.3c-6.95-3.5-12.65-16.28-12.05-18.56
			C331.85,908.53,351.12,873.29,351.12,873.29z"/>
		<path class="st5" d="M334.89,944.15c0,0,12.32,50.96,24.41,61.15c7.27,6.12,28.88,20.18,28.88,20.18l-8.99,3.26
			c0,0-29.98-10.12-36.69-18.01c-6.71-7.89-25.09-47.43-25.09-47.43L334.89,944.15z"/>
		<path class="st6" d="M219.11,1033.69c0.11,0.2,0.22,0.4,0.34,0.6c2.7,4.68,8.88,16.17,15.69,28.73c3.22,5.96,6.6,12.17,9.8,18
			c5.51,10.08,10.53,19.05,13.46,23.79c2.98,4.82,5.17,8.21,6.05,9.56c0.01,0.01,0.01,0.01,0.01,0.01c0.27,0.42,0.32,0.91,0.29,1.4
			c-0.31,4.25-0.22,8.48,0.19,12.64c4.11,40.88,31.67,62.78,31.67,62.78l8.2,1.21c0,0-11.6-42.97-15.01-67.26
			c-0.58-4.12-0.83-7.45-0.63-9.63c0.61-6.33-0.52-15.62-2.65-26.29c-3.78-18.96-10.72-42.22-16.76-60.85
			c-0.38-1.19-11.91-42.88-11.91-42.88c-9.67,8.45-44.95,11.94-44.95,11.94S206.92,1012,219.11,1033.69z"/>
		<path class="st4" d="M322,1202.78h-34.2c0,0-0.82-5.21,0.97-9.17c1.71-3.79,4.15-3.91,0.31-9.86c2.17,2.24,9.16,3.16,14.1,2.5
			c0.61,0.98,3.91,7.57,5.93,9.03C311.35,1196.88,321.31,1196.3,322,1202.78z"/>
		<path class="st4" d="M219.11,1033.69c0.11,0.2,0.22,0.4,0.34,0.6c2.7,4.68,17.27,31.61,24.09,44.18
			c-7.89-32.47-2.4-64.94-2.4-64.94L219.11,1033.69z"/>
		<path class="st4" d="M346.46,871.22c0.22-0.9-19.54,8.93-20.54,10.04c-9.27,10.28-6.62,23.69-1.32,23.82
			c3.4,0.08,2.74,5.74,2.74,5.74l37.88-16.03C365.23,894.79,360.66,868.19,346.46,871.22z"/>
		<path class="st3" d="M333.73,936.5c0,0,5.77,11.52,5.05,20.86c0,0-6.95,10.97-24.98,13.75
			C313.79,971.11,329.29,936.49,333.73,936.5z"/>
		<path class="st6" d="M245.77,1000l0.12-6.4c-12.75,1.61-43.95-15.23-43.95-15.23s-13.33,8.87-15.16,34.2
			c-0.89,12.36-6.53,64.64-7.15,80.25c-0.23,5.66-0.3,9.7-0.33,11.31c0,0.01,0,0.01,0,0.02c-0.01,0.49-0.24,0.93-0.54,1.32
			c-2.64,3.35-4.93,6.9-6.91,10.59c-19.45,36.19-9.28,85.35-9.28,85.35l4.52-1.15c0,0,16.44-50.97,27.19-73.02
			c1.82-3.74,3.48-6.65,4.87-8.33c4.04-4.91,8.3-13.24,12.5-23.27C219.6,1076.66,245.77,1000,245.77,1000z"/>
		<path class="st4" d="M189.78,1202.78h-34.2c0,0-0.82-5.21,0.97-9.17c1.71-3.79,4.39-5.52,3.75-10.11
			c2.17,2.24,5.72,4.74,10.66,4.08c0.61,0.98,3.91,6.24,5.93,7.69C179.13,1196.88,189.09,1196.3,189.78,1202.78z"/>
		<path class="st3" d="M311.48,978.46c-4.59,0.78,0.75,4.44-5.57,5.12c-8.99,0.98-18.28,1.65-23.14,3.59
			c-1.77,0.71-2.96,1.58-3.33,2.7c-2.11,6.34-15.46,17.23-15.46,17.23c-59.56-2.71-63.39-29.26-63.39-29.26
			c38.65-37.54,71.54-58,98.72-60.54c6.61-0.62,15.53,0.21,19.71,2.07c9.51,4.23,14.71,17.11,14.71,17.11
			S328.94,975.48,311.48,978.46z"/>
		<path class="st7" d="M305.91,983.58c-8.99,0.98-18.28,1.65-23.14,3.59c-1.99-29.7,12.03-52.05,12.03-52.05
			S303.94,972.34,305.91,983.58z"/>
		<path class="st5" d="M318.5,921.84c1.7,5.33,7.37,20.5,15.22,14.66c-0.27-1.13,1.38-4.43,3.33-7.77c2.49-4.27,5.45-8.64,5.45-8.64
			l-12.8-11.22l-0.76-0.67c-3.35,5.85-6.64,8.66-9.52,10.81C318.54,919.67,318.17,920.8,318.5,921.84z"/>
		<path class="st8" d="M342.51,920.09c0,0-2.96,4.36-5.45,8.64c-7.96-4.91-7.96-14.75-7.35-19.86L342.51,920.09z"/>
		<path class="st5" d="M342.86,925.71c0,0-19.32-10.75-12.44-22.68c6.88-11.93,9.02-21.35,21.64-14.99
			c12.63,6.36,12.38,12.28,11.05,16.82C361.79,909.4,348.06,928.2,342.86,925.71z"/>
		<path class="st4" d="M366.38,897.91c-0.89-5.3-3.58-5.8-5.45-5.45c-7.13-11.8-18.79-7.19-18.79-7.19
			c-6.23,7.81-15.23,9.15-15.23,9.15s2.24,4.17,11.48,6.75c2.82,0.79,6.02,0.31,9.11-0.73c-6.41,3.57-13.11,4.94-13.11,4.94
			c12.17,1.11,23.75-10.01,24.95-11.21c0.56,1.72,1.55,5.34,0.96,7.98c-0.8,3.59-3.99,10.08-2.04,10.92
			C358.26,913.07,367.7,905.85,366.38,897.91z"/>
		<g>
			
				<rect x="397.38" y="1084.07" transform="matrix(0.8989 0.4382 -0.4382 0.8989 532.5678 -97.5188)" class="st3" width="160.37" height="42.06"/>
			<g>
				<path class="st3" d="M351.19,1096.77c-13.23-6.45-22.63-18.4-25.8-32.79c-1.28-5.84,2.41-11.62,8.25-12.9
					c5.84-1.28,11.62,2.41,12.9,8.25c1.73,7.89,6.88,14.44,14.13,17.97c13,6.34,28.74,0.92,35.07-12.08
					c6.34-13,0.92-28.74-12.08-35.07c-5.91-2.88-12.62-3.44-18.92-1.58c-5.74,1.69-11.76-1.58-13.45-7.32
					c-1.69-5.74,1.58-11.76,7.32-13.46c11.5-3.4,23.76-2.37,34.54,2.89c23.74,11.57,33.63,40.3,22.06,64.04
					C403.66,1098.44,374.93,1108.34,351.19,1096.77z"/>
			</g>
			<g>
				<path class="st3" d="M555.11,1196.18c-23.74-11.57-33.63-40.3-22.06-64.04c11.57-23.74,40.3-33.63,64.04-22.06
					c10.78,5.26,19.14,14.29,23.55,25.44c2.2,5.56-0.53,11.85-6.09,14.05c-5.56,2.2-11.85-0.53-14.05-6.09
					c-2.41-6.1-6.99-11.05-12.9-13.93c-13-6.34-28.74-0.92-35.07,12.08c-6.34,13-0.92,28.74,12.08,35.07
					c7.25,3.53,15.58,3.56,22.86,0.06c5.39-2.59,11.86-0.31,14.45,5.08c2.59,5.39,0.31,11.86-5.08,14.45
					C583.55,1202.68,568.35,1202.63,555.11,1196.18z"/>
			</g>
			<path class="st7" d="M506.98,1125.63l-75.94-37.02c-2.18-1.06-3.09-3.71-2.03-5.89l1.93-3.96c1.06-2.18,3.71-3.09,5.89-2.03
				l75.94,37.02c2.18,1.06,3.09,3.71,2.03,5.89l-1.93,3.96C511.81,1125.78,509.15,1126.69,506.98,1125.63z"/>
		</g>
		<path class="st5" d="M331.8,1058.36c0,0,0.42,3.6,1.94,5.46c1.52,1.86,5.95,6.36,6.03,8.99c0,0-0.22,1.17-1.17,0.96
			c-0.95-0.21-4.25-3.48-5.94-3.24c0,0,0.9,5.28,1.8,6.76c0.89,1.49,2.54,7.09,2,8.37c-0.54,1.28-9.49-6.18-12.21-9.83
			c-2.71-3.65-0.04-18.45-0.04-18.45L331.8,1058.36z"/>
		<path class="st5" d="M313.67,930.1c0,0-22.62-1.23-26.64,12.96c-4.02,14.2,7.54,70.88,10.03,76.73
			c4.53,10.65,26.61,41.05,26.61,41.05l8.12-2.47c0,0-14.72-46.44-18.01-51.03C308.63,1000.12,320.44,936.28,313.67,930.1z"/>
		<path class="st3" d="M282.58,962.05c0.06,0.33,21.4,3.93,34.75-2.85c0,0,11.15-34.94-4.79-33.27
			c-15.94,1.67-25.37,6.69-25.78,14.32C286.37,947.89,282.58,962.05,282.58,962.05z"/>
		<path class="st5" d="M377.07,1002.76c-1.07,0.05-3.04,0.4-3.75,0.95c-1.23,0.95-2.62,2.61,0.14,3.98
			c4.15,2.06,12.43,1.15,12.11-0.1C384.56,1003.67,383.06,1002.48,377.07,1002.76z"/>
	</g>
	<g>
		<path class="st5" d="M640.64,446.57c-1.09,1.25-1.23,2.65-0.69,4.14c0,0.01,0,0.01,0.01,0.02c1,2.76,4.3,5.84,8.13,8.91
			c0.49,0.4,0.92,0.75,1.3,1.09c0.1,0.09,0.2,0.17,0.29,0.26c0.08,0.07,0.15,0.14,0.23,0.2c3.57,3.29,2.23,4.05,8.64,10.73
			c7.32,7.61,12.35,7.75,13.79,7.06c1.21-0.59-1.25-4.63-3.98-9.17c-0.13-0.22-0.26-0.44-0.4-0.66c-0.36-0.6-0.72-1.22-1.09-1.82
			c-3.2-5.46-2.38-8.02-1.62-16.15c0.62-6.61,10.28-36.9,10.28-36.9l-14.02-2.42c0,0-4.22,24.12-8.88,27.84
			c-2.49,1.98-5.27,2.01-7.66,3.47c-0.17,0.1-0.33,0.21-0.5,0.31C643.12,444.39,641.73,445.32,640.64,446.57z"/>
		<path class="st4" d="M640.64,446.57c-1.09,1.25-1.23,2.65-0.69,4.14c0,0.01,0,0.01,0.01,0.02c1.22,2.76,4.44,5.82,8.14,8.89
			c0.48,0.4,0.91,0.77,1.29,1.12c0.1,0.09,0.2,0.17,0.29,0.26c0.08,0.07,0.15,0.14,0.23,0.2c3.57,3.29,2.23,4.05,8.64,10.73
			c7.32,7.61,12.35,7.75,13.79,7.06c1.21-0.59-1.25-4.63-3.98-9.17c-1.42-0.52-8.04-3.21-13.04-9.61
			c-4.41-5.62-7.34-12.85-10.34-17.03c-0.17,0.1-0.33,0.21-0.5,0.31C643.12,444.39,641.73,445.32,640.64,446.57z"/>
		<path class="st5" d="M753.7,437.82c0.87,4.33,7.04,3.61,13.93,1.92c6.89-1.68,5.25,0.32,15.06-0.77
			c9.81-1.09,12.78-4.74,13.08-6.2c0.27-1.29-4.58-1.75-9.78-2.35c-0.65-0.07-1.31-0.15-1.97-0.24c-5.87-0.74-10.17-4.52-15.5-7.64
			c-5.05-2.95-12.59-14.95-12.59-14.95l-13.45,1.07c0,0,7.06,10.72,9.79,15.38c1.61,2.74,1.52,6.37,1.32,9.17
			C753.5,434.74,753.4,436.29,753.7,437.82z"/>
		<path class="st4" d="M767.63,439.74c6.89-1.68,5.25,0.32,15.06-0.77c9.81-1.09,12.78-4.74,13.08-6.2
			c0.27-1.29-4.58-1.75-9.78-2.35l-0.05,0.1c0,0-5.88,4.17-14.05,4.37c-6.66,0.16-13.7-1.74-18.3-1.67c-0.1,1.52-0.2,3.08,0.1,4.6
			C754.57,442.15,760.74,441.42,767.63,439.74z"/>
		<path class="st4" d="M702.15,351.79l-12.58,33.84l-16.42,44.19c0,0-4.46,0.43-8.72-0.8c-3.93-1.14-8.44-4.11-8.44-4.11
			s4.56-47.45,13.06-74.68c2.18-6.99,4.62-12.65,7.32-15.83C689.56,318.83,702.15,351.79,702.15,351.79z"/>
		<path class="st6" d="M689.36,298.05c-8.24-2.66-31.74,0.75-55.35,5.38l-4.94-8.15l-50.99-3.98c0,0-16.83,37.31-7.61,61.09
			c1.35,3.49,4.04,5.74,8.63,5.81c0,0,0.74,0,0.74,0c0,0,30.35-0.02,40.2-0.02c25.36,0,53.66-17.43,57.33-18.16
			c5.99-1.2,8.39,10.79,14.39,23.38c5.99,12.59,56.34,55.74,56.34,55.74s7.74,0.08,10.93-1.12c3.44-1.29,4.7-2.96,4.7-2.96
			S707.94,304.04,689.36,298.05z"/>
		<path class="st4" d="M612.18,140.05c-7.15-1.84-16.92-0.01-18.55,0.15c-19.4,1.91-25.92,23.55-22.98,40.34
			c2.71,15.5-5.15,19.78-14.26,32.02c-18.26,24.54-6.33,45.23,8.08,50.57c8.65,3.2,20.65-4.87,20.65-4.87
			c0.22,0.09,37.72-24.57,53.1-38.47C663.83,209.77,630.39,144.73,612.18,140.05z"/>
		<path class="st5" d="M615.04,211.03c0.51,1.8-7.98,5.1-14.45,3.88c-6.09-1.14-12.93-8.27-11.52-8.94
			c2.33-1.11,3.9-3.86,2.63-18.77l1.16,0.13l19.5,2.23c0,0,0.06,6.07,0.51,11.76C613.25,206.1,614.21,208.1,615.04,211.03z"/>
		<path class="st8" d="M612.36,189.56c0,0,0.06,6.07,0.51,11.76c-10.76,0.58-17.24-8.75-20.01-13.99L612.36,189.56z"/>
		<path class="st5" d="M616.38,194.65c0,0-25.37,2.5-26.68-13.32c-1.32-15.82-5.47-26.16,10.67-28.42
			c16.14-2.27,19.79,3.51,21.52,8.68C623.61,166.77,622.95,193.59,616.38,194.65z"/>
		<path class="st4" d="M613.67,150.41c0,0-3.2,19.33-17.64,23.92c-10.54,3.35-15.31,1.14-15.31,1.14s5.07-6.73,6.88-16.08
			c0.53-2.76,2.49-5.03,5.16-5.9C600.24,151.02,609.31,144.28,613.67,150.41z"/>
		<path class="st4" d="M608.89,154.54c0,0,4.78,1.07,9.02,7.23c2.32,3.37,5,11.87,4.54,15.63c0,0,4.44-17.89-2.03-24.55
			C613.54,145.8,608.89,154.54,608.89,154.54z"/>
		<path class="st3" d="M569.36,263.01c0.45,1.92,0.84,3.69,1.15,5.32c0.52,2.63,0.87,4.9,1.12,6.9c0.77,6.24,0.54,9.94,1.07,13.98
			c0.29,2.26,0.82,4.63,1.9,7.61c1.05,2.9,28.62,5.48,44.3,4.44c4.98-0.32,8.78-1.03,10.12-2.19c5.59-4.86,5.04,5.83,5.8-45.31
			c0.37-24.94-21.17-47.16-21.17-47.16s-1.72,10.66-23.08-2.03c-0.76-0.44-9.17,12.01-17.27,27.35
			C564.4,248.87,566.84,252.45,569.36,263.01z"/>
		<path class="st6" d="M689.57,385.63l-16.42,44.19c0,0-4.46,0.43-8.72-0.8c-3.93-1.14-8.44-4.11-8.44-4.11s4.56-47.45,13.06-74.68
			L689.57,385.63z"/>
		<path class="st3" d="M613.67,206.6c0,0,21.98,3.73,24.56,13.19c2.58,9.46,20.41,62.38,20.41,62.38s-13.82,4.71-18.98-0.45
			c-5.16-5.16-17.96-47.89-17.96-47.89L613.67,206.6z"/>
		<path class="st9" d="M610.53,185.32c0,0,1.06,2.6,3.87,2.6c2.81,0,3.57-0.42,4.1-1.01c0.53-0.59,1.06-1.74,1.06-1.74
			S614.91,184.25,610.53,185.32z"/>
		<path class="st7" d="M571.64,275.23c0.77,6.24,0.54,9.94,1.07,13.98c19.96,0.06,46.64-15.41,46.64-15.41L571.64,275.23z"/>
		<path class="st7" d="M619.34,260.71c0,0-31.09-0.93-36.33-18.6c-5.76-19.41-12.2,7.98-12.2,7.98l3.43,17.48h34.11L619.34,260.71z"
			/>
		<g>
			<path class="st2" d="M673.53,212.76l-1.68-4.16c-1.8-4.46-6.13-7.38-10.94-7.38h-30.99v19.66v83.95h128.2v-83.95h-72.55
				C680.28,220.89,675.52,217.67,673.53,212.76z"/>
			<g>
				<path class="st9" d="M649.26,264.23v-7.47l26.2-11.48v7.63l-18.29,7.52l18.29,7.52v7.74L649.26,264.23z"/>
				<path class="st9" d="M702.68,236.36h6.98l-23.98,50.12h-6.98L702.68,236.36z"/>
				<path class="st9" d="M738.78,256.76v7.47l-26.2,11.47v-7.63l18.29-7.52l-18.29-7.52v-7.74L738.78,256.76z"/>
			</g>
		</g>
		<path class="st5" d="M619.34,264.81l2.25-3.53c0,0,1.78-0.58,4.28-2.33c2.97-2.09,2.58-5.21,4.06-4.88l0.02,6.86l-0.16,0.02
			c6.37,1.7,13.82-0.15,13.97,1.44c0.41,4.36-2.96,6.33-5.79,7.69c-2.16,1.05-4.62,2.62-8.53,1.4c-2.86-0.89-7.36-1.79-7.36-1.79
			L619.34,264.81z"/>
		<path class="st3" d="M590.58,204.58c0,0-20.18,1.32-25.22,9.19c-5.05,7.87-11.3,47.83-8.68,61.55
			c2.62,13.72,67.25-2.62,67.25-2.62l-2.06-11.91c0,0-37.3,0.22-39.42-4.64C579.62,249.69,590.58,204.58,590.58,204.58z"/>
		<path class="st5" d="M688,220.84c-0.17,0.52,3.03,5.81,7.62,4.89c2.86-0.57,6.57-6.72,3.31-8.08
			C693.47,215.39,688.46,219.44,688,220.84z"/>
	</g>
	<g>
		<g>
			
				<rect x="842.85" y="427.63" transform="matrix(0.4709 -0.8822 0.8822 0.4709 110.4768 1040.2191)" class="st4" width="159.16" height="0.77"/>
		</g>
		<g>
			
				<rect x="1191.8" y="341.28" transform="matrix(0.7334 -0.6798 0.6798 0.7334 43.6998 917.9256)" class="st4" width="0.77" height="123.94"/>
		</g>
		<g>
			<path class="st0" d="M1286.67,475.23c1.25,9.1-1.25,17.88-6.29,24.69c-5.03,6.81-12.6,11.64-21.5,12.86l-376.68,51.76
				c-19.23,2.64-37-10.1-39.5-28.3c-1.25-9.1,1.54-17.92,7.06-24.79c5.51-6.87,13.74-11.79,23.35-13.11l376.68-51.76
				C1267.57,444.12,1284.17,457.02,1286.67,475.23z"/>
			<path class="st3" d="M1286.67,475.23c1.25,9.1-1.25,17.88-6.29,24.69c-5.03,6.81-12.6,11.64-21.5,12.86l-68.16,9.37l-9.1-66.21
				l68.16-9.37C1267.57,444.12,1284.17,457.02,1286.67,475.23z"/>
			<g>
				<g>
					<path class="st9" d="M1245.18,493.19c-0.84,0.11-1.69,0.17-2.55,0.16c-4.55-0.05-8.8-1.87-11.98-5.13
						c-6.56-6.72-6.44-17.52,0.28-24.08l0,0c6.72-6.56,17.52-6.44,24.08,0.28c6.56,6.72,6.44,17.52-0.28,24.08
						C1252.09,491.08,1248.77,492.7,1245.18,493.19z M1232.89,466.14c-5.61,5.48-5.72,14.51-0.23,20.12
						c2.66,2.72,6.21,4.24,10.01,4.28c3.8,0.04,7.39-1.39,10.11-4.05c5.61-5.48,5.72-14.51,0.23-20.12
						C1247.52,460.77,1238.5,460.66,1232.89,466.14L1232.89,466.14z"/>
				</g>
				
					<rect x="1221.94" y="483.74" transform="matrix(0.6989 0.7152 -0.7152 0.6989 722.6473 -725.8064)" class="st9" width="2.8" height="23.24"/>
				<path class="st9" d="M1209.25,509.13L1209.25,509.13c-0.97-0.99-0.95-2.58,0.04-3.54l9.79-9.57c0.99-0.97,2.57-0.95,3.54,0.04
					l0,0c0.97,0.99,0.95,2.57-0.04,3.54l-9.79,9.57C1211.8,510.13,1210.22,510.12,1209.25,509.13z"/>
			</g>
		</g>
	</g>
	<g>
		<path class="st3" d="M654.12,834.97h-78.7c-1.64,0-2.97-1.33-2.97-2.97v-1.25c0-1.64,1.33-2.97,2.97-2.97h78.7
			c1.64,0,2.97,1.33,2.97,2.97v1.25C657.08,833.64,655.76,834.97,654.12,834.97z"/>
		<g>
			<path class="st4" d="M613.73,859.66H574.9c-1.35,0-2.45-1.1-2.45-2.45l0,0c0-1.35,1.1-2.45,2.45-2.45h38.83
				c1.35,0,2.45,1.1,2.45,2.45l0,0C616.18,858.56,615.09,859.66,613.73,859.66z"/>
			<g>
				<path class="st4" d="M643.47,849.38h-68.73c-1.26,0-2.28-1.02-2.28-2.28v-0.34c0-1.26,1.02-2.28,2.28-2.28h68.73
					c1.26,0,2.28,1.02,2.28,2.28v0.34C645.75,848.36,644.73,849.38,643.47,849.38z"/>
				<path class="st4" d="M718.66,849.38h-64.03c-1.22,0-2.2-0.99-2.2-2.2v-0.49c0-1.22,0.99-2.2,2.2-2.2h64.03
					c1.22,0,2.2,0.99,2.2,2.2v0.49C720.87,848.4,719.88,849.38,718.66,849.38z"/>
				<path class="st4" d="M662.17,859.66h-38.83c-1.35,0-2.45-1.1-2.45-2.45l0,0c0-1.35,1.1-2.45,2.45-2.45h38.83
					c1.35,0,2.45,1.1,2.45,2.45l0,0C664.62,858.56,663.52,859.66,662.17,859.66z"/>
			</g>
		</g>
		<path class="st3" d="M749.95,834.97h-78.7c-1.64,0-2.97-1.33-2.97-2.97v-1.25c0-1.64,1.33-2.97,2.97-2.97h78.7
			c1.64,0,2.97,1.33,2.97,2.97v1.25C752.91,833.64,751.58,834.97,749.95,834.97z"/>
	</g>
	<g>
		<path class="st3" d="M654.12,889.03h-78.7c-1.64,0-2.97-1.33-2.97-2.97v-1.25c0-1.64,1.33-2.97,2.97-2.97h78.7
			c1.64,0,2.97,1.33,2.97,2.97v1.25C657.08,887.7,655.76,889.03,654.12,889.03z"/>
		<g>
			<path class="st4" d="M613.73,913.72H574.9c-1.35,0-2.45-1.1-2.45-2.45l0,0c0-1.35,1.1-2.45,2.45-2.45h38.83
				c1.35,0,2.45,1.1,2.45,2.45l0,0C616.18,912.62,615.09,913.72,613.73,913.72z"/>
			<g>
				<path class="st4" d="M643.47,903.44h-68.73c-1.26,0-2.28-1.02-2.28-2.28v-0.34c0-1.26,1.02-2.28,2.28-2.28h68.73
					c1.26,0,2.28,1.02,2.28,2.28v0.34C645.75,902.42,644.73,903.44,643.47,903.44z"/>
				<path class="st4" d="M718.66,903.44h-64.03c-1.22,0-2.2-0.99-2.2-2.2v-0.49c0-1.22,0.99-2.2,2.2-2.2h64.03
					c1.22,0,2.2,0.99,2.2,2.2v0.49C720.87,902.46,719.88,903.44,718.66,903.44z"/>
				<path class="st4" d="M662.17,913.72h-38.83c-1.35,0-2.45-1.1-2.45-2.45l0,0c0-1.35,1.1-2.45,2.45-2.45h38.83
					c1.35,0,2.45,1.1,2.45,2.45l0,0C664.62,912.62,663.52,913.72,662.17,913.72z"/>
			</g>
		</g>
		<path class="st3" d="M749.95,889.03h-78.7c-1.64,0-2.97-1.33-2.97-2.97v-1.25c0-1.64,1.33-2.97,2.97-2.97h78.7
			c1.64,0,2.97,1.33,2.97,2.97v1.25C752.91,887.7,751.58,889.03,749.95,889.03z"/>
	</g>
	<g>
		<polygon class="st6" points="1063.17,560.45 1018.22,570.91 996,611.36 979.03,519.19 		"/>
		
			<rect x="1022.74" y="559.69" transform="matrix(0.797 -0.604 0.604 0.797 -143.9505 738.6091)" class="st6" width="8.22" height="47.53"/>
	</g>
	<g>
		<path class="st0" d="M1033.75,750.96H923.23c-4.47,0-8.1-3.63-8.1-8.1V632.35c0-4.47,3.63-8.1,8.1-8.1h110.52
			c4.47,0,8.1,3.63,8.1,8.1v110.52C1041.84,747.34,1038.22,750.96,1033.75,750.96z"/>
		<g>
			<path class="st7" d="M931.32,724.46l24.62-44.39c2.87-5.17,10.12-5.63,13.61-0.86l14.2,19.37c3.02,4.12,9.06,4.45,12.51,0.68l0,0
				c3.58-3.91,9.89-3.39,12.77,1.06l15.33,23.66c3.49,5.39-0.38,12.5-6.8,12.5H938.4C932.23,736.49,928.32,729.86,931.32,724.46z"/>
			<path class="st7" d="M979.91,659.32c0-5.35,4.34-9.69,9.69-9.69c5.35,0,9.69,4.34,9.69,9.69c0,5.35-4.34,9.69-9.69,9.69
				C984.25,669.01,979.91,664.67,979.91,659.32z"/>
		</g>
	</g>
	<g>
		<path class="st0" d="M1195.85,754.38l-109.5,14.94c-4.43,0.6-8.51-2.5-9.12-6.93l-14.94-109.5c-0.6-4.43,2.5-8.52,6.93-9.12
			l109.5-14.94c4.43-0.6,8.51,2.5,9.12,6.93l14.94,109.5C1203.39,749.69,1200.29,753.77,1195.85,754.38z"/>
		<g>
			<path class="st7" d="M1090.78,741.96l18.4-47.31c2.14-5.51,9.27-6.94,13.37-2.69l16.69,17.27c3.55,3.67,9.58,3.18,12.48-1.02l0,0
				c3.02-4.36,9.34-4.69,12.8-0.67l18.38,21.37c4.19,4.87,1.32,12.44-5.05,13.31l-78.44,10.7
				C1093.31,753.75,1088.55,747.71,1090.78,741.96z"/>
			<path class="st7" d="M1130.13,670.85c-0.72-5.3,2.99-10.18,8.29-10.91c5.3-0.72,10.18,2.99,10.91,8.29
				c0.72,5.3-2.99,10.18-8.29,10.91C1135.73,679.86,1130.85,676.15,1130.13,670.85z"/>
		</g>
	</g>
	<g>
		<rect x="810.01" y="1145.84" class="st3" width="63.86" height="54.75"/>
		<rect x="807.43" y="1143.5" class="st6" width="68.6" height="4.23"/>
		<rect x="810.01" y="1160.66" class="st6" width="63.86" height="17.39"/>
	</g>
	<path class="st3" d="M951.57,1200.64h-60.3c-2.21,0-4-1.79-4-4v-6.69c0-2.38,2.07-4.24,4.44-3.97l60.3,6.69
		c2.02,0.22,3.56,1.94,3.56,3.97l0,0C955.57,1198.85,953.78,1200.64,951.57,1200.64z"/>
	<path class="st10" d="M1794.98,1206.05l-1678.83-0.58c-1.13,0-2.05-0.92-2.05-2.05l0-1.05c0-1.12,0.92-2.05,2.05-2.05l1678.83,0.58
		c1.13,0,2.05,0.92,2.05,2.05v1.05C1797.03,1205.13,1796.1,1206.05,1794.98,1206.05z"/>
	<g>
		<path class="st4" d="M846.24,755.94h-6.95c-0.63,0-1.14-0.51-1.14-1.14c0-0.63,0.51-1.14,1.14-1.14h6.9
			c0.63,0,1.17,0.51,1.17,1.14C847.35,755.43,846.87,755.94,846.24,755.94z M832.38,755.94h-6.9c-0.63,0-1.14-0.51-1.14-1.14
			c0-0.63,0.51-1.14,1.14-1.14h6.9c0.63,0,1.14,0.51,1.14,1.14C833.53,755.43,833.02,755.94,832.38,755.94z M818.58,755.94h-6.9
			c-0.63,0-1.14-0.51-1.14-1.14c0-0.63,0.51-1.14,1.14-1.14h6.9c0.63,0,1.14,0.51,1.14,1.14
			C819.72,755.43,819.21,755.94,818.58,755.94z M804.78,755.94h-6.9c-0.63,0-1.14-0.51-1.14-1.14c0-0.63,0.51-1.14,1.14-1.14h6.9
			c0.63,0,1.14,0.51,1.14,1.14C805.92,755.43,805.41,755.94,804.78,755.94z M790.97,755.94h-6.9c-0.63,0-1.14-0.51-1.14-1.14
			c0-0.63,0.51-1.14,1.14-1.14h6.9c0.63,0,1.14,0.51,1.14,1.14C792.11,755.43,791.6,755.94,790.97,755.94z M777.17,755.94h-6.9
			c-0.63,0-1.14-0.51-1.14-1.14c0-0.63,0.51-1.14,1.14-1.14h6.9c0.63,0,1.14,0.51,1.14,1.14
			C778.31,755.43,777.8,755.94,777.17,755.94z M763.36,755.94h-6.9c-0.63,0-1.14-0.51-1.14-1.14c0-0.63,0.51-1.14,1.14-1.14h6.9
			c0.63,0,1.14,0.51,1.14,1.14C764.51,755.43,764,755.94,763.36,755.94z M749.56,755.94h-6.9c-0.63,0-1.14-0.51-1.14-1.14
			c0-0.63,0.51-1.14,1.14-1.14h6.9c0.63,0,1.14,0.51,1.14,1.14C750.7,755.43,750.19,755.94,749.56,755.94z M735.76,755.94h-6.9
			c-0.63,0-1.14-0.51-1.14-1.14c0-0.63,0.51-1.14,1.14-1.14h6.9c0.63,0,1.14,0.51,1.14,1.14
			C736.9,755.43,736.39,755.94,735.76,755.94z M721.95,755.94h-6.9c-0.63,0-1.14-0.51-1.14-1.14c0-0.63,0.51-1.14,1.14-1.14h6.9
			c0.63,0,1.14,0.51,1.14,1.14C723.1,755.43,722.58,755.94,721.95,755.94z M708.15,755.94h-6.9c-0.63,0-1.14-0.51-1.14-1.14
			c0-0.63,0.51-1.14,1.14-1.14h6.9c0.63,0,1.14,0.51,1.14,1.14C709.29,755.43,708.78,755.94,708.15,755.94z M694.34,755.94h-6.9
			c-0.63,0-1.14-0.51-1.14-1.14c0-0.63,0.51-1.14,1.14-1.14h6.9c0.63,0,1.14,0.51,1.14,1.14
			C695.49,755.43,694.98,755.94,694.34,755.94z M680.54,755.94h-6.9c-0.63,0-1.14-0.51-1.14-1.14c0-0.63,0.51-1.14,1.14-1.14h6.9
			c0.63,0,1.14,0.51,1.14,1.14C681.68,755.43,681.17,755.94,680.54,755.94z M666.74,755.94h-6.9c-0.63,0-1.14-0.51-1.14-1.14
			c0-0.63,0.51-1.14,1.14-1.14h6.9c0.63,0,1.14,0.51,1.14,1.14C667.88,755.43,667.37,755.94,666.74,755.94z M652.93,755.94h-6.9
			c-0.63,0-1.14-0.51-1.14-1.14c0-0.63,0.51-1.14,1.14-1.14h6.9c0.63,0,1.14,0.51,1.14,1.14
			C654.08,755.43,653.56,755.94,652.93,755.94z M639.13,755.94h-6.9c-0.63,0-1.14-0.51-1.14-1.14c0-0.63,0.51-1.14,1.14-1.14h6.9
			c0.63,0,1.14,0.51,1.14,1.14C640.27,755.43,639.76,755.94,639.13,755.94z M625.33,755.94h-6.9c-0.63,0-1.14-0.51-1.14-1.14
			c0-0.63,0.51-1.14,1.14-1.14h6.9c0.63,0,1.14,0.51,1.14,1.14C626.47,755.43,625.96,755.94,625.33,755.94z M611.52,755.94h-6.15
			c-0.28,0-0.55-0.01-0.82-0.03c-0.63-0.04-1.11-0.58-1.07-1.21c0.04-0.63,0.58-1.12,1.21-1.07c0.22,0.01,0.45,0.02,0.68,0.02h6.15
			c0.63,0,1.14,0.51,1.14,1.14C612.66,755.43,612.15,755.94,611.52,755.94z M852.73,753.94c-0.37,0-0.72-0.18-0.95-0.5
			c-0.35-0.52-0.22-1.23,0.3-1.59c1.74-1.18,3.07-2.83,3.85-4.77c0.24-0.59,0.9-0.87,1.49-0.63c0.59,0.24,0.87,0.9,0.63,1.49
			c-0.95,2.36-2.57,4.37-4.69,5.81C853.18,753.87,852.95,753.94,852.73,753.94z M598.26,753.52c-0.24,0-0.49-0.08-0.7-0.24
			c-2.03-1.56-3.53-3.67-4.33-6.08c-0.2-0.6,0.12-1.25,0.72-1.45c0.6-0.2,1.25,0.12,1.45,0.72c0.66,1.98,1.89,3.71,3.56,5
			c0.5,0.39,0.59,1.1,0.21,1.6C598.94,753.37,598.6,753.52,598.26,753.52z M857.84,741.85c-0.63,0-1.14-0.51-1.14-1.14v-6.9
			c0-0.63,0.51-1.14,1.14-1.14c0.63,0,1.14,0.51,1.14,1.14v6.9C858.99,741.34,858.47,741.85,857.84,741.85z M593.71,741.15
			c-0.63,0-1.14-0.51-1.14-1.14v-6.9c0-0.63,0.51-1.14,1.14-1.14c0.63,0,1.14,0.51,1.14,1.14v6.9
			C594.86,740.64,594.34,741.15,593.71,741.15z M857.84,728.05c-0.63,0-1.14-0.51-1.14-1.14V720c0-0.63,0.51-1.14,1.14-1.14
			c0.63,0,1.14,0.51,1.14,1.14v6.9C858.99,727.53,858.47,728.05,857.84,728.05z M593.71,727.34c-0.63,0-1.14-0.51-1.14-1.14v-6.9
			c0-0.63,0.51-1.14,1.14-1.14c0.63,0,1.14,0.51,1.14,1.14v6.9C594.86,726.83,594.34,727.34,593.71,727.34z M857.84,714.24
			c-0.63,0-1.14-0.51-1.14-1.14v-6.9c0-0.63,0.51-1.14,1.14-1.14c0.63,0,1.14,0.51,1.14,1.14v6.9
			C858.99,713.73,858.47,714.24,857.84,714.24z M593.71,713.54c-0.63,0-1.14-0.51-1.14-1.14v-6.9c0-0.63,0.51-1.14,1.14-1.14
			c0.63,0,1.14,0.51,1.14,1.14v6.9C594.86,713.03,594.34,713.54,593.71,713.54z M857.84,700.44c-0.63,0-1.14-0.51-1.14-1.14v-6.9
			c0-0.63,0.51-1.14,1.14-1.14c0.63,0,1.14,0.51,1.14,1.14v6.9C858.99,699.93,858.47,700.44,857.84,700.44z M593.71,699.74
			c-0.63,0-1.14-0.51-1.14-1.14v-6.9c0-0.63,0.51-1.14,1.14-1.14c0.63,0,1.14,0.51,1.14,1.14v6.9
			C594.86,699.22,594.34,699.74,593.71,699.74z M857.84,686.63c-0.63,0-1.14-0.51-1.14-1.14v-6.9c0-0.63,0.51-1.14,1.14-1.14
			c0.63,0,1.14,0.51,1.14,1.14v6.9C858.99,686.12,858.47,686.63,857.84,686.63z M593.71,685.93c-0.63,0-1.14-0.51-1.14-1.14v-6.9
			c0-0.63,0.51-1.14,1.14-1.14c0.63,0,1.14,0.51,1.14,1.14v6.9C594.86,685.42,594.34,685.93,593.71,685.93z M857.84,672.83
			c-0.63,0-1.14-0.51-1.14-1.14v-6.9c0-0.63,0.51-1.14,1.14-1.14c0.63,0,1.14,0.51,1.14,1.14v6.9
			C858.99,672.32,858.47,672.83,857.84,672.83z M593.71,672.13c-0.63,0-1.14-0.51-1.14-1.14v-6.9c0-0.63,0.51-1.14,1.14-1.14
			c0.63,0,1.14,0.51,1.14,1.14v6.9C594.86,671.62,594.34,672.13,593.71,672.13z M857.84,659.03c-0.63,0-1.14-0.51-1.14-1.14v-6.9
			c0-0.63,0.51-1.14,1.14-1.14c0.63,0,1.14,0.51,1.14,1.14v6.9C858.99,658.52,858.47,659.03,857.84,659.03z M593.71,658.33
			c-0.63,0-1.14-0.51-1.14-1.14v-6.9c0-0.63,0.51-1.14,1.14-1.14c0.63,0,1.14,0.51,1.14,1.14v6.9
			C594.86,657.81,594.34,658.33,593.71,658.33z M857.84,645.22c-0.63,0-1.14-0.51-1.14-1.14v-6.9c0-0.63,0.51-1.14,1.14-1.14
			c0.63,0,1.14,0.51,1.14,1.14v6.9C858.99,644.71,858.47,645.22,857.84,645.22z M593.71,644.52c-0.63,0-1.14-0.51-1.14-1.14v-6.9
			c0-0.63,0.51-1.14,1.14-1.14c0.63,0,1.14,0.51,1.14,1.14v6.9C594.86,644.01,594.34,644.52,593.71,644.52z M857.84,631.42
			c-0.63,0-1.14-0.51-1.14-1.14v-6.9c0-0.63,0.51-1.14,1.14-1.14c0.63,0,1.14,0.51,1.14,1.14v6.9
			C858.99,630.91,858.47,631.42,857.84,631.42z M593.71,630.72c-0.63,0-1.14-0.51-1.14-1.14v-6.9c0-0.63,0.51-1.14,1.14-1.14
			c0.63,0,1.14,0.51,1.14,1.14v6.9C594.86,630.21,594.34,630.72,593.71,630.72z M857.84,617.62c-0.63,0-1.14-0.51-1.14-1.14v-3.12
			c0-1.15-0.18-2.28-0.55-3.36c-0.2-0.6,0.12-1.25,0.72-1.45c0.6-0.2,1.25,0.12,1.45,0.72c0.44,1.31,0.67,2.69,0.67,4.08v3.12
			C858.99,617.1,858.47,617.62,857.84,617.62z M593.71,616.91c-0.63,0-1.14-0.51-1.14-1.14v-2.41c0-1.66,0.31-3.28,0.93-4.81
			c0.24-0.58,0.9-0.87,1.49-0.63c0.58,0.24,0.87,0.9,0.63,1.49c-0.51,1.25-0.77,2.58-0.77,3.95v2.41
			C594.86,616.4,594.34,616.91,593.71,616.91z M853.28,605.25c-0.24,0-0.49-0.08-0.7-0.24c-1.66-1.28-3.65-2.02-5.74-2.15
			c-0.63-0.04-1.11-0.58-1.07-1.21c0.04-0.63,0.59-1.12,1.21-1.07c2.55,0.16,4.97,1.06,6.99,2.62c0.5,0.38,0.59,1.1,0.21,1.6
			C853.96,605.1,853.62,605.25,853.28,605.25z M598.85,604.84c-0.37,0-0.73-0.18-0.95-0.5c-0.35-0.52-0.22-1.23,0.31-1.59
			c2.11-1.43,4.58-2.19,7.14-2.19c0,0,0,0,0,0c0.63,0,1.14,0.51,1.14,1.14c0,0.63-0.51,1.14-1.14,1.15c-2.1,0-4.13,0.63-5.86,1.8
			C599.29,604.78,599.07,604.84,598.85,604.84z M840.01,602.84h-6.9c-0.63,0-1.14-0.51-1.14-1.14s0.51-1.14,1.14-1.14h6.9
			c0.63,0,1.14,0.51,1.14,1.14S840.64,602.84,840.01,602.84z M826.21,602.84h-6.9c-0.63,0-1.14-0.51-1.14-1.14s0.51-1.14,1.14-1.14
			h6.9c0.63,0,1.14,0.51,1.14,1.14S826.84,602.84,826.21,602.84z M812.4,602.84h-6.9c-0.63,0-1.14-0.51-1.14-1.14
			s0.51-1.14,1.14-1.14h6.9c0.63,0,1.14,0.51,1.14,1.14S813.03,602.84,812.4,602.84z M798.6,602.84h-6.9
			c-0.63,0-1.14-0.51-1.14-1.14s0.51-1.14,1.14-1.14h6.9c0.63,0,1.14,0.51,1.14,1.14S799.23,602.84,798.6,602.84z M784.8,602.84
			h-6.9c-0.63,0-1.14-0.51-1.14-1.14s0.51-1.14,1.14-1.14h6.9c0.63,0,1.14,0.51,1.14,1.14S785.43,602.84,784.8,602.84z
			 M770.99,602.84h-6.9c-0.63,0-1.14-0.51-1.14-1.14s0.51-1.14,1.14-1.14h6.9c0.63,0,1.14,0.51,1.14,1.14
			S771.62,602.84,770.99,602.84z M757.19,602.84h-6.9c-0.63,0-1.14-0.51-1.14-1.14s0.51-1.14,1.14-1.14h6.9
			c0.63,0,1.14,0.51,1.14,1.14S757.82,602.84,757.19,602.84z M743.38,602.84h-6.9c-0.63,0-1.14-0.51-1.14-1.14s0.51-1.14,1.14-1.14
			h6.9c0.63,0,1.14,0.51,1.14,1.14S744.02,602.84,743.38,602.84z M729.58,602.84h-6.9c-0.63,0-1.14-0.51-1.14-1.14
			s0.51-1.14,1.14-1.14h6.9c0.63,0,1.14,0.51,1.14,1.14S730.21,602.84,729.58,602.84z M715.78,602.84h-6.9
			c-0.63,0-1.14-0.51-1.14-1.14s0.51-1.14,1.14-1.14h6.9c0.63,0,1.14,0.51,1.14,1.14S716.41,602.84,715.78,602.84z M701.97,602.84
			h-6.9c-0.63,0-1.14-0.51-1.14-1.14s0.51-1.14,1.14-1.14h6.9c0.63,0,1.14,0.51,1.14,1.14S702.6,602.84,701.97,602.84z
			 M688.17,602.84h-6.9c-0.63,0-1.14-0.51-1.14-1.14s0.51-1.14,1.14-1.14h6.9c0.63,0,1.14,0.51,1.14,1.14
			S688.8,602.84,688.17,602.84z M674.37,602.84h-6.9c-0.63,0-1.14-0.51-1.14-1.14s0.51-1.14,1.14-1.14h6.9
			c0.63,0,1.14,0.51,1.14,1.14S675,602.84,674.37,602.84z M660.56,602.84h-6.9c-0.63,0-1.14-0.51-1.14-1.14s0.51-1.14,1.14-1.14h6.9
			c0.63,0,1.14,0.51,1.14,1.14S661.19,602.84,660.56,602.84z M646.76,602.84h-6.9c-0.63,0-1.14-0.51-1.14-1.14s0.51-1.14,1.14-1.14
			h6.9c0.63,0,1.14,0.51,1.14,1.14S647.39,602.84,646.76,602.84z M632.95,602.84h-6.9c-0.63,0-1.14-0.51-1.14-1.14
			s0.51-1.14,1.14-1.14h6.9c0.63,0,1.14,0.51,1.14,1.14S633.58,602.84,632.95,602.84z M619.15,602.84h-6.9
			c-0.63,0-1.14-0.51-1.14-1.14s0.51-1.14,1.14-1.14h6.9c0.63,0,1.14,0.51,1.14,1.14S619.78,602.84,619.15,602.84z"/>
	</g>
	<g>
		<path class="st4" d="M1238.58,947.49h-6.16c-0.56,0-1.01-0.45-1.01-1.01s0.45-1.01,1.01-1.01h6.11c0.56,0,1.04,0.45,1.04,1.01
			S1239.14,947.49,1238.58,947.49z M1226.31,947.49h-6.11c-0.56,0-1.01-0.45-1.01-1.01s0.45-1.01,1.01-1.01h6.11
			c0.56,0,1.01,0.45,1.01,1.01S1226.86,947.49,1226.31,947.49z M1214.08,947.49h-6.11c-0.56,0-1.01-0.45-1.01-1.01
			s0.45-1.01,1.01-1.01h6.11c0.56,0,1.01,0.45,1.01,1.01S1214.64,947.49,1214.08,947.49z M1201.85,947.49h-6.11
			c-0.56,0-1.01-0.45-1.01-1.01s0.45-1.01,1.01-1.01h6.11c0.56,0,1.01,0.45,1.01,1.01S1202.41,947.49,1201.85,947.49z
			 M1189.62,947.49h-6.11c-0.56,0-1.01-0.45-1.01-1.01s0.45-1.01,1.01-1.01h6.11c0.56,0,1.01,0.45,1.01,1.01
			S1190.18,947.49,1189.62,947.49z M1177.39,947.49h-6.11c-0.56,0-1.01-0.45-1.01-1.01s0.45-1.01,1.01-1.01h6.11
			c0.56,0,1.01,0.45,1.01,1.01S1177.95,947.49,1177.39,947.49z M1165.16,947.49h-6.11c-0.56,0-1.01-0.45-1.01-1.01
			s0.45-1.01,1.01-1.01h6.11c0.56,0,1.01,0.45,1.01,1.01S1165.72,947.49,1165.16,947.49z M1152.93,947.49h-6.11
			c-0.56,0-1.01-0.45-1.01-1.01s0.45-1.01,1.01-1.01h6.11c0.56,0,1.01,0.45,1.01,1.01S1153.49,947.49,1152.93,947.49z
			 M1140.71,947.49h-6.11c-0.56,0-1.01-0.45-1.01-1.01s0.45-1.01,1.01-1.01h6.11c0.56,0,1.01,0.45,1.01,1.01
			S1141.27,947.49,1140.71,947.49z M1128.48,947.49h-5.9c-0.09,0-0.17,0-0.26-0.01c-0.56-0.03-0.99-0.5-0.96-1.06
			c0.03-0.56,0.48-0.98,1.06-0.96c0.05,0,0.11,0,0.16,0h5.9c0.56,0,1.01,0.45,1.01,1.01S1129.04,947.49,1128.48,947.49z
			 M1242.53,943.62c-0.01,0-0.02,0-0.03,0c-0.56-0.02-1-0.49-0.98-1.04l0-0.1v-5.99c0-0.56,0.45-1.01,1.01-1.01
			c0.56,0,1.01,0.45,1.01,1.01l0,6.15C1243.53,943.19,1243.08,943.62,1242.53,943.62z M1118.57,943.46c-0.56,0-1.01-0.45-1.01-1.01
			v-6.11c0-0.56,0.45-1.01,1.01-1.01c0.56,0,1.01,0.45,1.01,1.01v6.11C1119.58,943,1119.13,943.46,1118.57,943.46z M1242.54,931.39
			c-0.56,0-1.01-0.45-1.01-1.01v-6.11c0-0.56,0.45-1.01,1.01-1.01c0.56,0,1.01,0.45,1.01,1.01v6.11
			C1243.55,930.94,1243.09,931.39,1242.54,931.39z M1118.57,931.23c-0.56,0-1.01-0.45-1.01-1.01v-6.11c0-0.56,0.45-1.01,1.01-1.01
			c0.56,0,1.01,0.45,1.01,1.01v6.11C1119.58,930.77,1119.13,931.23,1118.57,931.23z M1242.54,919.16c-0.56,0-1.01-0.45-1.01-1.01
			v-6.11c0-0.56,0.45-1.01,1.01-1.01c0.56,0,1.01,0.45,1.01,1.01v6.11C1243.55,918.71,1243.09,919.16,1242.54,919.16z M1118.57,919
			c-0.56,0-1.01-0.45-1.01-1.01v-5.96c0-0.06,0-0.13,0-0.19c0.02-0.56,0.47-1,1.05-0.97c0.56,0.02,0.99,0.49,0.97,1.05l0,0.11v5.96
			C1119.58,918.55,1119.13,919,1118.57,919z M1238.72,909.04c-0.02,0-0.03,0-0.05,0l-0.14,0h-5.93c-0.56,0-1.01-0.45-1.01-1.01
			s0.45-1.01,1.01-1.01h5.93c0.08,0,0.15,0,0.23,0c0.56,0.02,0.99,0.5,0.97,1.06C1239.71,908.61,1239.26,909.04,1238.72,909.04z
			 M1226.49,909.03h-6.11c-0.56,0-1.01-0.45-1.01-1.01s0.45-1.01,1.01-1.01h6.11c0.56,0,1.01,0.45,1.01,1.01
			S1227.05,909.03,1226.49,909.03z M1214.26,909.03h-6.11c-0.56,0-1.01-0.45-1.01-1.01s0.45-1.01,1.01-1.01h6.11
			c0.56,0,1.01,0.45,1.01,1.01S1214.82,909.03,1214.26,909.03z M1202.04,909.03h-6.11c-0.56,0-1.01-0.45-1.01-1.01
			s0.45-1.01,1.01-1.01h6.11c0.56,0,1.01,0.45,1.01,1.01S1202.59,909.03,1202.04,909.03z M1189.81,909.03h-6.11
			c-0.56,0-1.01-0.45-1.01-1.01s0.45-1.01,1.01-1.01h6.11c0.56,0,1.01,0.45,1.01,1.01S1190.37,909.03,1189.81,909.03z
			 M1177.58,909.03h-6.11c-0.56,0-1.01-0.45-1.01-1.01s0.45-1.01,1.01-1.01h6.11c0.56,0,1.01,0.45,1.01,1.01
			S1178.14,909.03,1177.58,909.03z M1165.35,909.03h-6.11c-0.56,0-1.01-0.45-1.01-1.01s0.45-1.01,1.01-1.01h6.11
			c0.56,0,1.01,0.45,1.01,1.01S1165.91,909.03,1165.35,909.03z M1153.12,909.03h-6.11c-0.56,0-1.01-0.45-1.01-1.01
			s0.45-1.01,1.01-1.01h6.11c0.56,0,1.01,0.45,1.01,1.01S1153.68,909.03,1153.12,909.03z M1140.89,909.03h-6.11
			c-0.56,0-1.01-0.45-1.01-1.01s0.45-1.01,1.01-1.01h6.11c0.56,0,1.01,0.45,1.01,1.01S1141.45,909.03,1140.89,909.03z
			 M1128.66,909.03h-6.09c-0.56,0-1.02-0.45-1.02-1.01s0.44-1.01,1-1.01h6.11c0.56,0,1.01,0.45,1.01,1.01
			S1129.22,909.03,1128.66,909.03z"/>
	</g>
	<g>
		<path class="st4" d="M801.86,582.61h-6.81c-0.63,0-1.14-0.51-1.14-1.14c0-0.63,0.51-1.14,1.14-1.14h6.77
			c0.63,0,1.16,0.51,1.16,1.14C802.98,582.1,802.49,582.61,801.86,582.61z M788.28,582.61h-6.77c-0.63,0-1.14-0.51-1.14-1.14
			c0-0.63,0.51-1.14,1.14-1.14h6.77c0.63,0,1.14,0.51,1.14,1.14C789.43,582.1,788.91,582.61,788.28,582.61z M774.75,582.61h-6.77
			c-0.63,0-1.14-0.51-1.14-1.14c0-0.63,0.51-1.14,1.14-1.14h6.77c0.63,0,1.14,0.51,1.14,1.14
			C775.89,582.1,775.38,582.61,774.75,582.61z M761.22,582.61h-6.77c-0.63,0-1.14-0.51-1.14-1.14c0-0.63,0.51-1.14,1.14-1.14h6.77
			c0.63,0,1.14,0.51,1.14,1.14C762.36,582.1,761.85,582.61,761.22,582.61z M747.69,582.61h-6.77c-0.63,0-1.14-0.51-1.14-1.14
			c0-0.63,0.51-1.14,1.14-1.14h6.77c0.63,0,1.14,0.51,1.14,1.14C748.83,582.1,748.32,582.61,747.69,582.61z M734.16,582.61h-6.77
			c-0.63,0-1.14-0.51-1.14-1.14c0-0.63,0.51-1.14,1.14-1.14h6.77c0.63,0,1.14,0.51,1.14,1.14
			C735.3,582.1,734.79,582.61,734.16,582.61z M720.63,582.61h-6.77c-0.63,0-1.14-0.51-1.14-1.14c0-0.63,0.51-1.14,1.14-1.14h6.77
			c0.63,0,1.14,0.51,1.14,1.14C721.77,582.1,721.26,582.61,720.63,582.61z M707.22,581.88c-0.19,0-0.38-0.05-0.56-0.15
			c-2.12-1.2-3.43-3.46-3.43-5.89v-0.83c0-0.63,0.51-1.14,1.14-1.14c0.63,0,1.14,0.51,1.14,1.14v0.83c0,1.61,0.87,3.1,2.27,3.9
			c0.55,0.31,0.74,1.01,0.43,1.56C708,581.67,707.62,581.88,707.22,581.88z M807.08,578.97c-0.13,0-0.27-0.02-0.4-0.07
			c-0.59-0.22-0.89-0.88-0.67-1.47c0.19-0.5,0.29-1.03,0.29-1.58v-4.74c0-0.63,0.51-1.14,1.14-1.14c0.63,0,1.14,0.51,1.14,1.14v4.74
			c0,0.82-0.15,1.62-0.43,2.38C807.97,578.69,807.54,578.97,807.08,578.97z M704.37,569.4c-0.63,0-1.14-0.51-1.14-1.14v-6.77
			c0-0.63,0.51-1.14,1.14-1.14c0.63,0,1.14,0.51,1.14,1.14v6.77C705.51,568.88,705,569.4,704.37,569.4z M807.43,565.48
			c-0.63,0-1.14-0.51-1.14-1.14v-6.77c0-0.63,0.51-1.14,1.14-1.14c0.63,0,1.14,0.51,1.14,1.14v6.77
			C808.58,564.97,808.07,565.48,807.43,565.48z M704.37,555.86c-0.63,0-1.14-0.51-1.14-1.14v-6.77c0-0.63,0.51-1.14,1.14-1.14
			c0.63,0,1.14,0.51,1.14,1.14v6.77C705.51,555.35,705,555.86,704.37,555.86z M807.43,551.95c-0.63,0-1.14-0.51-1.14-1.14v-6.77
			c0-0.63,0.51-1.14,1.14-1.14c0.63,0,1.14,0.51,1.14,1.14v6.77C808.58,551.44,808.07,551.95,807.43,551.95z M704.37,542.33
			c-0.63,0-1.14-0.51-1.14-1.14v-6.77c0-0.63,0.51-1.14,1.14-1.14c0.63,0,1.14,0.51,1.14,1.14v6.77
			C705.51,541.82,705,542.33,704.37,542.33z M807.43,538.42c-0.63,0-1.14-0.51-1.14-1.14v-6.77c0-0.63,0.51-1.14,1.14-1.14
			c0.63,0,1.14,0.51,1.14,1.14v6.77C808.58,537.91,808.07,538.42,807.43,538.42z M704.37,528.8c-0.63,0-1.14-0.51-1.14-1.14v-6.77
			c0-0.63,0.51-1.14,1.14-1.14c0.63,0,1.14,0.51,1.14,1.14v6.77C705.51,528.29,705,528.8,704.37,528.8z M807.43,524.89
			c-0.63,0-1.14-0.51-1.14-1.14v-6.77c0-0.63,0.51-1.14,1.14-1.14c0.63,0,1.14,0.51,1.14,1.14v6.77
			C808.58,524.38,808.07,524.89,807.43,524.89z M704.37,515.27c-0.63,0-1.14-0.51-1.14-1.14v-6.77c0-0.63,0.51-1.14,1.14-1.14
			c0.63,0,1.14,0.51,1.14,1.14v6.77C705.51,514.76,705,515.27,704.37,515.27z M807.43,511.36c-0.63,0-1.14-0.51-1.14-1.14v-6.77
			c0-0.63,0.51-1.14,1.14-1.14c0.63,0,1.14,0.51,1.14,1.14v6.77C808.58,510.84,808.07,511.36,807.43,511.36z M704.37,501.74
			c-0.63,0-1.14-0.51-1.14-1.14v-4.72c0-0.83,0.15-1.64,0.44-2.41c0.22-0.59,0.88-0.89,1.47-0.66c0.59,0.22,0.89,0.88,0.66,1.47
			c-0.19,0.51-0.29,1.04-0.29,1.59v4.72C705.51,501.23,705,501.74,704.37,501.74z M807.43,497.82c-0.63,0-1.14-0.51-1.14-1.14v-0.81
			c0-1.62-0.88-3.11-2.29-3.91c-0.55-0.31-0.75-1.01-0.44-1.56c0.31-0.55,1.01-0.75,1.56-0.44c2.13,1.2,3.45,3.46,3.45,5.9v0.81
			C808.58,497.31,808.07,497.82,807.43,497.82z M797.92,491.4h-6.77c-0.63,0-1.14-0.51-1.14-1.14s0.51-1.14,1.14-1.14h6.77
			c0.63,0,1.14,0.51,1.14,1.14S798.55,491.4,797.92,491.4z M784.39,491.4h-6.77c-0.63,0-1.14-0.51-1.14-1.14s0.51-1.14,1.14-1.14
			h6.77c0.63,0,1.14,0.51,1.14,1.14S785.02,491.4,784.39,491.4z M770.86,491.4h-6.77c-0.63,0-1.14-0.51-1.14-1.14
			s0.51-1.14,1.14-1.14h6.77c0.63,0,1.14,0.51,1.14,1.14S771.49,491.4,770.86,491.4z M757.33,491.4h-6.77
			c-0.63,0-1.14-0.51-1.14-1.14s0.51-1.14,1.14-1.14h6.77c0.63,0,1.14,0.51,1.14,1.14S757.96,491.4,757.33,491.4z M743.8,491.4
			h-6.77c-0.63,0-1.14-0.51-1.14-1.14s0.51-1.14,1.14-1.14h6.77c0.63,0,1.14,0.51,1.14,1.14S744.43,491.4,743.8,491.4z
			 M730.27,491.4h-6.77c-0.63,0-1.14-0.51-1.14-1.14s0.51-1.14,1.14-1.14h6.77c0.63,0,1.14,0.51,1.14,1.14S730.9,491.4,730.27,491.4
			z M716.73,491.4h-6.74c-0.63,0-1.15-0.51-1.15-1.14s0.5-1.14,1.13-1.14h6.77c0.63,0,1.14,0.51,1.14,1.14
			S717.36,491.4,716.73,491.4z"/>
	</g>
	<g>
		<path class="st4" d="M1238.58,1003.92h-6.16c-0.56,0-1.01-0.45-1.01-1.01c0-0.56,0.45-1.01,1.01-1.01h6.11
			c0.56,0,1.04,0.45,1.04,1.01C1239.57,1003.47,1239.14,1003.92,1238.58,1003.92z M1226.31,1003.92h-6.11
			c-0.56,0-1.01-0.45-1.01-1.01c0-0.56,0.45-1.01,1.01-1.01h6.11c0.56,0,1.01,0.45,1.01,1.01
			C1227.32,1003.47,1226.86,1003.92,1226.31,1003.92z M1214.08,1003.92h-6.11c-0.56,0-1.01-0.45-1.01-1.01
			c0-0.56,0.45-1.01,1.01-1.01h6.11c0.56,0,1.01,0.45,1.01,1.01C1215.09,1003.47,1214.64,1003.92,1214.08,1003.92z M1201.85,1003.92
			h-6.11c-0.56,0-1.01-0.45-1.01-1.01c0-0.56,0.45-1.01,1.01-1.01h6.11c0.56,0,1.01,0.45,1.01,1.01
			C1202.86,1003.47,1202.41,1003.92,1201.85,1003.92z M1189.62,1003.92h-6.11c-0.56,0-1.01-0.45-1.01-1.01
			c0-0.56,0.45-1.01,1.01-1.01h6.11c0.56,0,1.01,0.45,1.01,1.01C1190.63,1003.47,1190.18,1003.92,1189.62,1003.92z M1177.39,1003.92
			h-6.11c-0.56,0-1.01-0.45-1.01-1.01c0-0.56,0.45-1.01,1.01-1.01h6.11c0.56,0,1.01,0.45,1.01,1.01
			C1178.4,1003.47,1177.95,1003.92,1177.39,1003.92z M1165.16,1003.92h-6.11c-0.56,0-1.01-0.45-1.01-1.01
			c0-0.56,0.45-1.01,1.01-1.01h6.11c0.56,0,1.01,0.45,1.01,1.01C1166.18,1003.47,1165.72,1003.92,1165.16,1003.92z M1152.93,1003.92
			h-6.11c-0.56,0-1.01-0.45-1.01-1.01c0-0.56,0.45-1.01,1.01-1.01h6.11c0.56,0,1.01,0.45,1.01,1.01
			C1153.95,1003.47,1153.49,1003.92,1152.93,1003.92z M1140.71,1003.92h-6.11c-0.56,0-1.01-0.45-1.01-1.01
			c0-0.56,0.45-1.01,1.01-1.01h6.11c0.56,0,1.01,0.45,1.01,1.01C1141.72,1003.47,1141.27,1003.92,1140.71,1003.92z M1128.48,1003.92
			h-5.9c-0.09,0-0.17,0-0.26-0.01c-0.56-0.03-0.99-0.5-0.96-1.06c0.03-0.56,0.48-0.99,1.06-0.96c0.05,0,0.11,0,0.16,0h5.9
			c0.56,0,1.01,0.45,1.01,1.01C1129.49,1003.47,1129.04,1003.92,1128.48,1003.92z M1242.53,1000.05c-0.01,0-0.02,0-0.03,0
			c-0.56-0.02-1-0.49-0.98-1.04l0-0.1v-5.99c0-0.56,0.45-1.01,1.01-1.01c0.56,0,1.01,0.45,1.01,1.01l0,6.15
			C1243.53,999.62,1243.08,1000.05,1242.53,1000.05z M1118.57,999.88c-0.56,0-1.01-0.45-1.01-1.01v-6.11c0-0.56,0.45-1.01,1.01-1.01
			c0.56,0,1.01,0.45,1.01,1.01v6.11C1119.58,999.43,1119.13,999.88,1118.57,999.88z M1242.54,987.82c-0.56,0-1.01-0.45-1.01-1.01
			v-6.11c0-0.56,0.45-1.01,1.01-1.01c0.56,0,1.01,0.45,1.01,1.01v6.11C1243.55,987.37,1243.09,987.82,1242.54,987.82z
			 M1118.57,987.66c-0.56,0-1.01-0.45-1.01-1.01v-6.11c0-0.56,0.45-1.01,1.01-1.01c0.56,0,1.01,0.45,1.01,1.01v6.11
			C1119.58,987.2,1119.13,987.66,1118.57,987.66z M1242.54,975.59c-0.56,0-1.01-0.45-1.01-1.01v-6.11c0-0.56,0.45-1.01,1.01-1.01
			c0.56,0,1.01,0.45,1.01,1.01v6.11C1243.55,975.14,1243.09,975.59,1242.54,975.59z M1118.57,975.43c-0.56,0-1.01-0.45-1.01-1.01
			v-5.96c0-0.06,0-0.13,0-0.19c0.02-0.56,0.47-1,1.05-0.97c0.56,0.02,0.99,0.49,0.97,1.05l0,0.11v5.96
			C1119.58,974.97,1119.13,975.43,1118.57,975.43z M1238.72,965.47c-0.02,0-0.03,0-0.05,0l-0.14,0h-5.93
			c-0.56,0-1.01-0.45-1.01-1.01c0-0.56,0.45-1.01,1.01-1.01h5.93c0.08,0,0.15,0,0.23,0c0.56,0.02,0.99,0.5,0.97,1.06
			C1239.71,965.04,1239.26,965.47,1238.72,965.47z M1226.49,965.46h-6.11c-0.56,0-1.01-0.45-1.01-1.01c0-0.56,0.45-1.01,1.01-1.01
			h6.11c0.56,0,1.01,0.45,1.01,1.01C1227.5,965.01,1227.05,965.46,1226.49,965.46z M1214.26,965.46h-6.11
			c-0.56,0-1.01-0.45-1.01-1.01c0-0.56,0.45-1.01,1.01-1.01h6.11c0.56,0,1.01,0.45,1.01,1.01
			C1215.28,965.01,1214.82,965.46,1214.26,965.46z M1202.04,965.46h-6.11c-0.56,0-1.01-0.45-1.01-1.01c0-0.56,0.45-1.01,1.01-1.01
			h6.11c0.56,0,1.01,0.45,1.01,1.01C1203.05,965.01,1202.59,965.46,1202.04,965.46z M1189.81,965.46h-6.11
			c-0.56,0-1.01-0.45-1.01-1.01c0-0.56,0.45-1.01,1.01-1.01h6.11c0.56,0,1.01,0.45,1.01,1.01
			C1190.82,965.01,1190.37,965.46,1189.81,965.46z M1177.58,965.46h-6.11c-0.56,0-1.01-0.45-1.01-1.01c0-0.56,0.45-1.01,1.01-1.01
			h6.11c0.56,0,1.01,0.45,1.01,1.01C1178.59,965.01,1178.14,965.46,1177.58,965.46z M1165.35,965.46h-6.11
			c-0.56,0-1.01-0.45-1.01-1.01c0-0.56,0.45-1.01,1.01-1.01h6.11c0.56,0,1.01,0.45,1.01,1.01
			C1166.36,965.01,1165.91,965.46,1165.35,965.46z M1153.12,965.46h-6.11c-0.56,0-1.01-0.45-1.01-1.01c0-0.56,0.45-1.01,1.01-1.01
			h6.11c0.56,0,1.01,0.45,1.01,1.01C1154.13,965.01,1153.68,965.46,1153.12,965.46z M1140.89,965.46h-6.11
			c-0.56,0-1.01-0.45-1.01-1.01c0-0.56,0.45-1.01,1.01-1.01h6.11c0.56,0,1.01,0.45,1.01,1.01
			C1141.91,965.01,1141.45,965.46,1140.89,965.46z M1128.66,965.46h-6.09c-0.56,0-1.02-0.45-1.02-1.01c0-0.56,0.44-1.01,1-1.01h6.11
			c0.56,0,1.01,0.45,1.01,1.01C1129.68,965.01,1129.22,965.46,1128.66,965.46z"/>
	</g>
	<g>
		<path class="st4" d="M756.07,961.41h-6.1c-0.56,0-1.01-0.45-1.01-1.01c0-0.56,0.45-1.01,1.01-1.01h6.06
			c0.56,0,1.03,0.45,1.03,1.01C757.06,960.96,756.62,961.41,756.07,961.41z M743.9,961.41h-6.06c-0.56,0-1.01-0.45-1.01-1.01
			c0-0.56,0.45-1.01,1.01-1.01h6.06c0.56,0,1.01,0.45,1.01,1.01C744.91,960.96,744.46,961.41,743.9,961.41z M731.78,961.41h-6.06
			c-0.56,0-1.01-0.45-1.01-1.01c0-0.56,0.45-1.01,1.01-1.01h6.06c0.56,0,1.01,0.45,1.01,1.01
			C732.79,960.96,732.34,961.41,731.78,961.41z M719.65,961.41h-6.06c-0.56,0-1.01-0.45-1.01-1.01c0-0.56,0.45-1.01,1.01-1.01h6.06
			c0.56,0,1.01,0.45,1.01,1.01C720.67,960.96,720.21,961.41,719.65,961.41z M707.53,961.41h-6.06c-0.56,0-1.01-0.45-1.01-1.01
			c0-0.56,0.45-1.01,1.01-1.01h6.06c0.56,0,1.01,0.45,1.01,1.01C708.54,960.96,708.09,961.41,707.53,961.41z M695.41,961.41h-6.06
			c-0.56,0-1.01-0.45-1.01-1.01c0-0.56,0.45-1.01,1.01-1.01h6.06c0.56,0,1.01,0.45,1.01,1.01
			C696.42,960.96,695.97,961.41,695.41,961.41z M683.29,961.41h-6.06c-0.56,0-1.01-0.45-1.01-1.01c0-0.56,0.45-1.01,1.01-1.01h6.06
			c0.56,0,1.01,0.45,1.01,1.01C684.3,960.96,683.85,961.41,683.29,961.41z M671.16,961.41h-6.06c-0.56,0-1.01-0.45-1.01-1.01
			c0-0.56,0.45-1.01,1.01-1.01h6.06c0.56,0,1.01,0.45,1.01,1.01C672.18,960.96,671.72,961.41,671.16,961.41z M659.04,961.41h-6.06
			c-0.56,0-1.01-0.45-1.01-1.01c0-0.56,0.45-1.01,1.01-1.01h6.06c0.56,0,1.01,0.45,1.01,1.01
			C660.05,960.96,659.6,961.41,659.04,961.41z M646.92,961.41h-6.06c-0.56,0-1.01-0.45-1.01-1.01c0-0.56,0.45-1.01,1.01-1.01h6.06
			c0.56,0,1.01,0.45,1.01,1.01C647.93,960.96,647.48,961.41,646.92,961.41z M634.8,961.41h-6.06c-0.56,0-1.01-0.45-1.01-1.01
			c0-0.56,0.45-1.01,1.01-1.01h6.06c0.56,0,1.01,0.45,1.01,1.01C635.81,960.96,635.35,961.41,634.8,961.41z M622.67,961.41h-6.06
			c-0.56,0-1.01-0.45-1.01-1.01c0-0.56,0.45-1.01,1.01-1.01h6.06c0.56,0,1.01,0.45,1.01,1.01
			C623.69,960.96,623.23,961.41,622.67,961.41z M610.55,961.41h-6.06c-0.56,0-1.01-0.45-1.01-1.01c0-0.56,0.45-1.01,1.01-1.01h6.06
			c0.56,0,1.01,0.45,1.01,1.01C611.56,960.96,611.11,961.41,610.55,961.41z M598.43,961.41h-6.06c-0.56,0-1.01-0.45-1.01-1.01
			c0-0.56,0.45-1.01,1.01-1.01h6.06c0.56,0,1.01,0.45,1.01,1.01C599.44,960.96,598.99,961.41,598.43,961.41z M586.3,961.41h-6.06
			c-0.56,0-1.01-0.45-1.01-1.01c0-0.56,0.45-1.01,1.01-1.01h6.06c0.56,0,1.01,0.45,1.01,1.01
			C587.32,960.96,586.86,961.41,586.3,961.41z M574.18,961.41h-4.84c-0.45,0-0.9-0.03-1.34-0.08c-0.56-0.07-0.95-0.57-0.89-1.12
			c0.07-0.56,0.57-0.95,1.12-0.89c0.36,0.04,0.73,0.06,1.1,0.06h4.84c0.56,0,1.01,0.45,1.01,1.01
			C575.19,960.96,574.74,961.41,574.18,961.41z M761.78,959.66c-0.33,0-0.65-0.16-0.84-0.45c-0.31-0.46-0.19-1.09,0.28-1.4
			c1.53-1.03,2.71-2.47,3.42-4.17c0.21-0.52,0.81-0.76,1.32-0.55c0.52,0.21,0.76,0.81,0.55,1.32c-0.86,2.07-2.3,3.82-4.16,5.07
			C762.17,959.61,761.97,959.66,761.78,959.66z M562.65,958.95c-0.23,0-0.47-0.08-0.66-0.24c-1.71-1.46-2.94-3.36-3.55-5.51
			c-0.15-0.54,0.16-1.1,0.69-1.25c0.54-0.16,1.1,0.16,1.25,0.69c0.5,1.76,1.51,3.33,2.92,4.53c0.43,0.36,0.48,1,0.11,1.43
			C563.22,958.83,562.94,958.95,562.65,958.95z M766.35,949.08c-0.56,0-1.01-0.45-1.01-1.01v-6.06c0-0.56,0.45-1.01,1.01-1.01
			c0.56,0,1.01,0.45,1.01,1.01v6.06C767.36,948.63,766.91,949.08,766.35,949.08z M559.02,947.9c-0.56,0-1.01-0.45-1.01-1.01v-6.06
			c0-0.56,0.45-1.01,1.01-1.01c0.56,0,1.01,0.45,1.01,1.01v6.06C560.03,947.45,559.57,947.9,559.02,947.9z M766.35,936.96
			c-0.56,0-1.01-0.45-1.01-1.01v-6.06c0-0.56,0.45-1.01,1.01-1.01c0.56,0,1.01,0.45,1.01,1.01v6.06
			C767.36,936.51,766.91,936.96,766.35,936.96z M559.02,935.78c-0.56,0-1.01-0.45-1.01-1.01v-6.06c0-0.56,0.45-1.01,1.01-1.01
			c0.56,0,1.01,0.45,1.01,1.01v6.06C560.03,935.33,559.57,935.78,559.02,935.78z M766.35,924.84c-0.56,0-1.01-0.45-1.01-1.01v-6.06
			c0-0.56,0.45-1.01,1.01-1.01c0.56,0,1.01,0.45,1.01,1.01v6.06C767.36,924.39,766.91,924.84,766.35,924.84z M559.02,923.66
			c-0.56,0-1.01-0.45-1.01-1.01v-6.06c0-0.56,0.45-1.01,1.01-1.01c0.56,0,1.01,0.45,1.01,1.01v6.06
			C560.03,923.2,559.57,923.66,559.02,923.66z M766.35,912.72c-0.56,0-1.01-0.45-1.01-1.01v-6.06c0-0.56,0.45-1.01,1.01-1.01
			c0.56,0,1.01,0.45,1.01,1.01v6.06C767.36,912.26,766.91,912.72,766.35,912.72z M559.02,911.53c-0.56,0-1.01-0.45-1.01-1.01v-6.06
			c0-0.56,0.45-1.01,1.01-1.01c0.56,0,1.01,0.45,1.01,1.01v6.06C560.03,911.08,559.57,911.53,559.02,911.53z M766.35,900.59
			c-0.56,0-1.01-0.45-1.01-1.01v-6.06c0-0.56,0.45-1.01,1.01-1.01c0.56,0,1.01,0.45,1.01,1.01v6.06
			C767.36,900.14,766.91,900.59,766.35,900.59z M559.02,899.41c-0.56,0-1.01-0.45-1.01-1.01v-6.06c0-0.56,0.45-1.01,1.01-1.01
			c0.56,0,1.01,0.45,1.01,1.01v6.06C560.03,898.96,559.57,899.41,559.02,899.41z M766.35,888.47c-0.56,0-1.01-0.45-1.01-1.01v-6.06
			c0-0.56,0.45-1.01,1.01-1.01c0.56,0,1.01,0.45,1.01,1.01v6.06C767.36,888.02,766.91,888.47,766.35,888.47z M559.02,887.29
			c-0.56,0-1.01-0.45-1.01-1.01v-6.06c0-0.56,0.45-1.01,1.01-1.01c0.56,0,1.01,0.45,1.01,1.01v6.06
			C560.03,886.84,559.57,887.29,559.02,887.29z M766.35,876.35c-0.56,0-1.01-0.45-1.01-1.01v-6.06c0-0.56,0.45-1.01,1.01-1.01
			c0.56,0,1.01,0.45,1.01,1.01v6.06C767.36,875.89,766.91,876.35,766.35,876.35z M559.02,875.17c-0.56,0-1.01-0.45-1.01-1.01v-6.06
			c0-0.56,0.45-1.01,1.01-1.01c0.56,0,1.01,0.45,1.01,1.01v6.06C560.03,874.71,559.57,875.17,559.02,875.17z M766.35,864.22
			c-0.56,0-1.01-0.45-1.01-1.01v-6.06c0-0.56,0.45-1.01,1.01-1.01c0.56,0,1.01,0.45,1.01,1.01v6.06
			C767.36,863.77,766.91,864.22,766.35,864.22z M559.02,863.04c-0.56,0-1.01-0.45-1.01-1.01v-6.06c0-0.56,0.45-1.01,1.01-1.01
			c0.56,0,1.01,0.45,1.01,1.01v6.06C560.03,862.59,559.57,863.04,559.02,863.04z M766.35,852.1c-0.56,0-1.01-0.45-1.01-1.01v-6.06
			c0-0.56,0.45-1.01,1.01-1.01c0.56,0,1.01,0.45,1.01,1.01v6.06C767.36,851.65,766.91,852.1,766.35,852.1z M559.02,850.92
			c-0.56,0-1.01-0.45-1.01-1.01v-6.06c0-0.56,0.45-1.01,1.01-1.01c0.56,0,1.01,0.45,1.01,1.01v6.06
			C560.03,850.47,559.57,850.92,559.02,850.92z M766.35,839.98c-0.56,0-1.01-0.45-1.01-1.01v-6.06c0-0.56,0.45-1.01,1.01-1.01
			c0.56,0,1.01,0.45,1.01,1.01v6.06C767.36,839.53,766.91,839.98,766.35,839.98z M559.02,838.8c-0.56,0-1.01-0.45-1.01-1.01v-6.06
			c0-0.56,0.45-1.01,1.01-1.01c0.56,0,1.01,0.45,1.01,1.01v6.06C560.03,838.34,559.57,838.8,559.02,838.8z M766.35,827.86
			c-0.56,0-1.01-0.45-1.01-1.01v-6.06c0-0.56,0.45-1.01,1.01-1.01c0.56,0,1.01,0.45,1.01,1.01v6.06
			C767.36,827.4,766.91,827.86,766.35,827.86z M559.02,826.68c-0.56,0-1.01-0.45-1.01-1.01v-6.06c0-0.56,0.45-1.01,1.01-1.01
			c0.56,0,1.01,0.45,1.01,1.01v6.06C560.03,826.22,559.57,826.68,559.02,826.68z M765.95,815.77c-0.44,0-0.84-0.29-0.97-0.73
			c-0.51-1.76-1.52-3.33-2.93-4.52c-0.43-0.36-0.48-1-0.12-1.43c0.36-0.43,1-0.48,1.43-0.12c1.71,1.45,2.95,3.36,3.57,5.5
			c0.16,0.54-0.15,1.1-0.69,1.25C766.14,815.76,766.04,815.77,765.95,815.77z M559.81,814.66c-0.13,0-0.26-0.03-0.39-0.08
			c-0.52-0.22-0.76-0.81-0.54-1.32c0.86-2.06,2.3-3.82,4.17-5.06c0.46-0.31,1.09-0.19,1.4,0.28c0.31,0.46,0.19,1.09-0.28,1.4
			c-1.53,1.02-2.72,2.46-3.43,4.16C560.58,814.43,560.21,814.66,559.81,814.66z M757.22,808.38c-0.04,0-0.08,0-0.12-0.01
			c-0.36-0.04-0.72-0.06-1.08-0.06h-4.86c-0.56,0-1.01-0.45-1.01-1.01s0.45-1.01,1.01-1.01h4.86c0.44,0,0.88,0.03,1.31,0.07
			c0.56,0.06,0.95,0.57,0.89,1.12C758.17,808,757.73,808.38,757.22,808.38z M745.1,808.31h-6.06c-0.56,0-1.01-0.45-1.01-1.01
			s0.45-1.01,1.01-1.01h6.06c0.56,0,1.01,0.45,1.01,1.01S745.66,808.31,745.1,808.31z M732.98,808.31h-6.06
			c-0.56,0-1.01-0.45-1.01-1.01s0.45-1.01,1.01-1.01h6.06c0.56,0,1.01,0.45,1.01,1.01S733.54,808.31,732.98,808.31z M720.86,808.31
			h-6.06c-0.56,0-1.01-0.45-1.01-1.01s0.45-1.01,1.01-1.01h6.06c0.56,0,1.01,0.45,1.01,1.01S721.42,808.31,720.86,808.31z
			 M708.73,808.31h-6.06c-0.56,0-1.01-0.45-1.01-1.01s0.45-1.01,1.01-1.01h6.06c0.56,0,1.01,0.45,1.01,1.01
			S709.29,808.31,708.73,808.31z M696.61,808.31h-6.06c-0.56,0-1.01-0.45-1.01-1.01s0.45-1.01,1.01-1.01h6.06
			c0.56,0,1.01,0.45,1.01,1.01S697.17,808.31,696.61,808.31z M684.49,808.31h-6.06c-0.56,0-1.01-0.45-1.01-1.01s0.45-1.01,1.01-1.01
			h6.06c0.56,0,1.01,0.45,1.01,1.01S685.05,808.31,684.49,808.31z M672.37,808.31h-6.06c-0.56,0-1.01-0.45-1.01-1.01
			s0.45-1.01,1.01-1.01h6.06c0.56,0,1.01,0.45,1.01,1.01S672.92,808.31,672.37,808.31z M660.24,808.31h-6.06
			c-0.56,0-1.01-0.45-1.01-1.01s0.45-1.01,1.01-1.01h6.06c0.56,0,1.01,0.45,1.01,1.01S660.8,808.31,660.24,808.31z M648.12,808.31
			h-6.06c-0.56,0-1.01-0.45-1.01-1.01s0.45-1.01,1.01-1.01h6.06c0.56,0,1.01,0.45,1.01,1.01S648.68,808.31,648.12,808.31z
			 M636,808.31h-6.06c-0.56,0-1.01-0.45-1.01-1.01s0.45-1.01,1.01-1.01H636c0.56,0,1.01,0.45,1.01,1.01S636.56,808.31,636,808.31z
			 M623.88,808.31h-6.06c-0.56,0-1.01-0.45-1.01-1.01s0.45-1.01,1.01-1.01h6.06c0.56,0,1.01,0.45,1.01,1.01
			S624.43,808.31,623.88,808.31z M611.75,808.31h-6.06c-0.56,0-1.01-0.45-1.01-1.01s0.45-1.01,1.01-1.01h6.06
			c0.56,0,1.01,0.45,1.01,1.01S612.31,808.31,611.75,808.31z M599.63,808.31h-6.06c-0.56,0-1.01-0.45-1.01-1.01s0.45-1.01,1.01-1.01
			h6.06c0.56,0,1.01,0.45,1.01,1.01S600.19,808.31,599.63,808.31z M587.51,808.31h-6.06c-0.56,0-1.01-0.45-1.01-1.01
			s0.45-1.01,1.01-1.01h6.06c0.56,0,1.01,0.45,1.01,1.01S588.07,808.31,587.51,808.31z M575.38,808.31h-6.04
			c-0.56,0-1.02-0.45-1.02-1.01s0.44-1.01,1-1.01h6.06c0.56,0,1.01,0.45,1.01,1.01S575.94,808.31,575.38,808.31z"/>
	</g>
	<g>
		<path class="st0" d="M814.98,775.62H570c-5.29,0-9.57-4.29-9.57-9.57V632.09c0-5.29,4.29-9.57,9.57-9.57h244.99
			c5.29,0,9.57,4.29,9.57,9.57v133.95C824.56,771.33,820.27,775.62,814.98,775.62z"/>
		<path class="st3" d="M662.68,668.7v60.74c0,3.8,4.22,6.07,7.39,3.99l46.16-30.37c2.87-1.88,2.87-6.09,0-7.97l-46.16-30.37
			C666.9,662.63,662.68,664.9,662.68,668.7z"/>
		<g>
			<path class="st11" d="M574.15,761.81c0-2.62,2.12-4.74,4.74-4.74c2.62,0,4.74,2.12,4.74,4.74c0,2.62-2.12,4.74-4.74,4.74
				C576.28,766.55,574.15,764.43,574.15,761.81z"/>
			<path class="st11" d="M794.58,763.08H580.17c-0.7,0-1.28-0.57-1.28-1.28l0,0c0-0.71,0.57-1.28,1.28-1.28h214.41
				c0.7,0,1.28,0.57,1.28,1.28l0,0C795.85,762.51,795.28,763.08,794.58,763.08z"/>
		</g>
	</g>
	<rect x="807.43" y="807.3" class="st0" width="136.65" height="203.98"/>
	<g>
		<g>
			<g>
				<path class="st6" d="M888.88,872.83h-1.87v-8.41c0-3.01,2.45-5.47,5.47-5.47h23.12c1.63,0,3.06-1.1,3.48-2.68l3.66-13.9
					c0.29-1.09,0.06-2.22-0.63-3.11c-0.69-0.89-1.72-1.4-2.85-1.4h-30.17V836h30.17c1.71,0,3.29,0.78,4.33,2.13
					c1.04,1.35,1.39,3.08,0.96,4.73l-3.66,13.9c-0.63,2.4-2.81,4.08-5.29,4.08h-23.12c-1.98,0-3.6,1.61-3.6,3.6V872.83z"/>
			</g>
			<path class="st3" d="M910.61,844.82h-39.73c-3.35,0-6.07-2.72-6.07-6.07v-3.63c0-3.35,2.72-6.07,6.07-6.07h39.73
				c3.35,0,6.07,2.72,6.07,6.07v3.63C916.68,842.1,913.96,844.82,910.61,844.82z"/>
			<path class="st6" d="M887.94,907.73L887.94,907.73c-2.84,0-5.14-2.3-5.14-5.14v-31.15c0-2.84,2.3-5.14,5.14-5.14l0,0
				c2.84,0,5.14,2.3,5.14,5.14v31.15C893.08,905.43,890.78,907.73,887.94,907.73z"/>
		</g>
		<g>
			<path class="st5" d="M1084.66,975.28c0,0,3.54,10.89,3.23,13.38c-0.3,2.49-2.52,11-4.11,13.18c-1.59,2.18-2.37-8.87-3.62-10.54
				c-1.25-1.66-0.26,4.16-1.14,4.7c-0.89,0.54-2.73-4.28-3.52-5.99c-0.79-1.7,1.94-7.98,1.95-12.35
				C1077.45,973.3,1084.66,975.28,1084.66,975.28z"/>
			<path class="st4" d="M1001.48,888.76c-0.98-12.49,12.59-21.05,23.3-14.56c0.22,0.13,0.44,0.27,0.65,0.41
				c16.04,10.32,50.64,58.49,53.02,63.32c2.38,4.83,9.41,43.21,9.41,43.21s-8.69,3.18-12.75-0.12c0,0-14.09-36.41-16.17-38.23
				c-2.08-1.82-56.35-32.27-56.81-43.68C1002.02,896.1,1001.78,892.47,1001.48,888.76z"/>
		</g>
		<g>
			<path class="st12" d="M1098.32,1170.71c0,0,6.47,5.9,5.2,10.09c-1.26,4.19-7.1,6.99-7.89,12.11c-0.79,5.12-3.94,7.92-6.78,7.92
				c-2.84,0-13.53,0-13.53,0s-2.09-3.61,2.96-4.69c5.05-1.09,6.95-7.11,6.63-12.7s0.47-13.04,0.47-13.04l10.72-2.49L1098.32,1170.71
				z"/>
			<path class="st12" d="M1018.99,1185.97c0,0,1.16,13.43-1.68,14.83l-36.33-0.07c0,0,0-4.19,5.84-5.12
				c5.84-0.93,16.09-4.35,17.82-11.96C1006.38,1176.03,1018.99,1185.97,1018.99,1185.97z"/>
			<path class="st3" d="M988.32,996.26c0,0,1.92,23.54,4.17,51.84c3.06,38.44,6.74,85.66,7.11,94.6
				c0.63,15.53,3.16,40.38,3.16,40.38s5.99,5.9,17.98,3.41c0,0,10.68-35.47,13.74-72.99c0.05-0.62,0.1-1.23,0.14-1.85
				c2.84-38.2,7.25-118.65,7.25-118.65L988.32,996.26z"/>
			<path class="st7" d="M988.32,996.26c0,0,1.92,23.54,4.17,51.84l41.98,65.4c0.05-0.62,0.1-1.23,0.14-1.85
				c2.84-38.2,7.25-118.65,7.25-118.65L988.32,996.26z"/>
			<path class="st3" d="M997.07,999.05c0,0,34.54,85.26,57.25,125.32c22.71,40.07,29.81,51.25,29.81,51.25s13.01-5.12,14.19-8.62
				c0,0-8.69-77.35-23.89-96.21c-8.59-10.65-18.69-42.63-19.16-53.81c-0.47-11.18-3.08-33.31-3.08-33.31L997.07,999.05z"/>
		</g>
		<path class="st5" d="M1026.85,871.16c0,0-23.14,11.74-36.7,7.82c0,0,3.23-4.25,8.97-7.48c-0.52-2.7-0.93-5.03-1.18-7.02
			c-0.66-4.58-0.71-7.18-0.71-7.18l8.87-7.27l8.41-6.96C1014.24,862.18,1026.85,871.16,1026.85,871.16z"/>
		<path class="st6" d="M1049.84,990.43c-9.34,5.66-18.19,9.91-28.54,12.3c-12.21,2.9-27.22,2.04-32.24,2.81
			c-0.52,0.07-1-0.07-1.46-0.37c-0.39-0.2-2.61-15.1-4.83-33.9c-0.1-0.76-0.2-1.52-0.24-2.29l-0.03-0.25
			c-0.86-7.35-1.62-15.07-2.28-22.81c-0.54-6.02-0.98-11.98-1.28-17.57c-0.39-7-0.54-13.43-0.39-18.71
			c0.07-2.42,0.21-4.59,0.43-6.48c1.32-10.98,6.56-18.83,11.49-24.67l4.09-4.66c4.74,0.3,9.59-0.6,14.16-3.61
			c5-3.29,10.39-6.83,11.41-6.24c7.66,4.19,13.89,15.05,18.35,29.39c2.55,8.25,4.51,17.62,5.77,27.54c0.4,3.08,0.75,6.24,1.01,9.38
			c0.05,0.58,0.09,1.16,0.14,1.74c0.6,8.6,1.58,16.65,2.67,23.85c1.46,9.7,3.13,17.83,4.31,23.56c0.59,2.91,1.04,5.17,1.31,6.78
			C1053.92,987.63,1051.1,989.64,1049.84,990.43z"/>
		<path class="st8" d="M1014.83,850.38c0,0-5.69,10.88-16.88,14.11c-0.66-4.58-0.71-7.18-0.71-7.18l8.87-7.27L1014.83,850.38z"/>
		<path class="st5" d="M993.13,857.08c0,0,22.36,3.2,24.18-10.54c1.82-13.74,5.93-22.59-8.27-25.21s-17.67,2.26-19.42,6.71
			C987.88,832.47,987.36,855.89,993.13,857.08z"/>
		<path class="st4" d="M1024.87,819.37c0.2-0.24,0.66-0.43,1.7-0.51c0,0-0.84-0.5-1.95-0.51c-0.25-1.44-1.07-3.98-3.56-4.55
			c0,0,1.35,0.69,1.56,2.22c-2.94-2.9-9.15-4.93-26.2-3.24c-22.48,2.22-14.77,16.49-11.82,18.15c2.95,1.66,10.19-3.2,15.63-2.87
			c5.44,0.32,6.63,8.15,8.49,9.19c1.86,1.04,1.1-0.85,3.57-2.03c2.47-1.18,2.79,2.95,2.12,5.65c-0.67,2.7,2.83,6.17,2.83,6.17
			s0,0,3.39-3.8c3.39-3.8,6.34-19.65,4.7-22.98C1025.17,819.97,1025.02,819.67,1024.87,819.37z"/>
		<path class="st4" d="M1017.77,910.86c0,0-18.86,14.35-38.84,17.49c-0.39-7-0.54-13.43-0.39-18.71L1017.77,910.86z"/>
		<g>
			<path class="st5" d="M901.98,892.35c-0.3-0.32-4.14-13.17-10.79-12.23c-4.34,0.61-11.43,3.12-9.55,8.84
				c0.74,2.25,13.96,9.99,13.96,9.99L901.98,892.35z"/>
			<path class="st6" d="M1020.1,883.14c10.75,6.43,9.88,22.45-1.62,27.42c-0.24,0.1-0.47,0.2-0.71,0.3
				c-17.7,7.1-77.01,7.43-82.32,6.58c-5.31-0.85-40.68-17.34-40.68-17.34s2.44-8.92,7.48-10.33c0,0,37.84,9.59,40.53,8.94
				c2.69-0.64,58.93-27.26,68.51-21.03C1013.82,879.33,1016.92,881.23,1020.1,883.14z"/>
		</g>
	</g>
	<g>
		<path class="st13" d="M1419.1,461.18h-47.21c-1.98,0-3.61-1.62-3.61-3.61l0,0c0-1.98,1.62-3.61,3.61-3.61h47.21
			c1.98,0,3.61,1.62,3.61,3.61l0,0C1422.71,459.56,1421.08,461.18,1419.1,461.18z"/>
		<path class="st13" d="M1419.1,475.28h-47.21c-1.98,0-3.61-1.62-3.61-3.61l0,0c0-1.98,1.62-3.61,3.61-3.61h47.21
			c1.98,0,3.61,1.62,3.61,3.61l0,0C1422.71,473.65,1421.08,475.28,1419.1,475.28z"/>
		<path class="st13" d="M1419.1,489.74h-47.21c-1.98,0-3.61-1.62-3.61-3.61l0,0c0-1.98,1.62-3.61,3.61-3.61h47.21
			c1.98,0,3.61,1.62,3.61,3.61l0,0C1422.71,488.11,1421.08,489.74,1419.1,489.74z"/>
	</g>
	<path class="st13" d="M1234.21,830.15h-112.4c-2.63,0-4.78-2.15-4.78-4.78l0,0c0-2.63,2.15-4.78,4.78-4.78h112.4
		c2.63,0,4.78,2.15,4.78,4.78l0,0C1239,828,1236.85,830.15,1234.21,830.15z"/>
	<path class="st13" d="M684.79,501.77h-112.4c-2.63,0-4.78-2.15-4.78-4.78l0,0c0-2.63,2.15-4.78,4.78-4.78h112.4
		c2.63,0,4.78,2.15,4.78,4.78l0,0C689.57,499.61,687.42,501.77,684.79,501.77z"/>
	<path class="st13" d="M1234.21,877.62h-112.4c-2.63,0-4.78-2.15-4.78-4.78l0,0c0-2.63,2.15-4.78,4.78-4.78h112.4
		c2.63,0,4.78,2.15,4.78,4.78l0,0C1239,875.47,1236.85,877.62,1234.21,877.62z"/>
	<path class="st13" d="M1234.21,853.89h-134.43c-2.63,0-4.78-2.15-4.78-4.78l0,0c0-2.63,2.15-4.78,4.78-4.78h134.43
		c2.63,0,4.78,2.15,4.78,4.78l0,0C1239,851.73,1236.85,853.89,1234.21,853.89z"/>
	<g>
		<path class="st13" d="M651.43,531.85h-63.42c-2,0-3.64-1.64-3.64-3.64v-2.28c0-2,1.64-3.64,3.64-3.64h63.42
			c2,0,3.64,1.64,3.64,3.64v2.28C655.07,530.21,653.43,531.85,651.43,531.85z"/>
		<path class="st13" d="M563.36,527.07c0-2.64,2.14-4.78,4.78-4.78c2.64,0,4.78,2.14,4.78,4.78c0,2.64-2.14,4.78-4.78,4.78
			C565.5,531.85,563.36,529.71,563.36,527.07z"/>
	</g>
	<g>
		<path class="st13" d="M663.47,550.89h-75.15c-2.17,0-3.95-1.78-3.95-3.95v-1.67c0-2.17,1.78-3.95,3.95-3.95h75.15
			c2.17,0,3.95,1.78,3.95,3.95v1.67C667.41,549.12,665.64,550.89,663.47,550.89z"/>
		<path class="st13" d="M563.36,546.11c0-2.64,2.14-4.78,4.78-4.78c2.64,0,4.78,2.14,4.78,4.78s-2.14,4.78-4.78,4.78
			C565.5,550.89,563.36,548.75,563.36,546.11z"/>
	</g>
	<g>
		<path class="st13" d="M651.43,571.56h-63.42c-2,0-3.64-1.64-3.64-3.64v-2.28c0-2,1.64-3.64,3.64-3.64h63.42
			c2,0,3.64,1.64,3.64,3.64v2.28C655.07,569.92,653.43,571.56,651.43,571.56z"/>
		<path class="st13" d="M563.36,566.78c0-2.64,2.14-4.78,4.78-4.78c2.64,0,4.78,2.14,4.78,4.78c0,2.64-2.14,4.78-4.78,4.78
			C565.5,571.56,563.36,569.42,563.36,566.78z"/>
	</g>
	<g>
		<g>
			<path class="st4" d="M766.79,542.57c-0.83,0.11-1.67,0.17-2.53,0.16c-4.51-0.05-8.73-1.86-11.88-5.08
				c-6.5-6.66-6.38-17.36,0.28-23.87v0c6.66-6.5,17.36-6.38,23.87,0.28c6.5,6.66,6.38,17.37-0.28,23.87
				C773.64,540.47,770.35,542.08,766.79,542.57z M754.61,515.76c-5.56,5.43-5.66,14.38-0.23,19.94c2.63,2.69,6.16,4.2,9.92,4.25
				c3.76,0.04,7.32-1.38,10.02-4.01c5.56-5.43,5.66-14.38,0.23-19.94C769.11,510.43,760.17,510.33,754.61,515.76L754.61,515.76z"/>
		</g>
		
			<rect x="743.75" y="533.2" transform="matrix(0.6989 0.7152 -0.7152 0.6989 613.9628 -368.9267)" class="st4" width="2.78" height="23.04"/>
		<path class="st4" d="M731.18,558.36L731.18,558.36c-0.96-0.98-0.94-2.55,0.04-3.51l9.7-9.48c0.98-0.96,2.55-0.94,3.51,0.04l0,0
			c0.96,0.98,0.94,2.55-0.04,3.51l-9.7,9.48C733.71,559.36,732.14,559.34,731.18,558.36z"/>
	</g>
	<g>
		<path class="st4" d="M1553.72,1201.15L1553.72,1201.15c-2.15,0.01-4.41-1.54-5.05-3.48l-129.69-394.88
			c-0.63-1.93,0.6-3.51,2.75-3.52l0,0c2.15-0.01,4.41,1.54,5.05,3.48l129.69,394.88C1557.1,1199.56,1555.87,1201.14,1553.72,1201.15
			z"/>
		<path class="st4" d="M1658.24,1200.54L1658.24,1200.54c-2.15,0.01-4.41-1.54-5.05-3.48l-129.69-394.88
			c-0.63-1.93,0.6-3.51,2.75-3.52l0,0c2.15-0.01,4.41,1.54,5.05,3.48l129.69,394.88C1661.63,1198.96,1660.4,1200.53,1658.24,1200.54
			z"/>
		<path class="st4" d="M1545.7,857.21l-104.96,0.61c-2.02,0.01-4.17-1.46-4.76-3.28l0,0c-0.6-1.82,0.57-3.31,2.59-3.32l104.96-0.61
			c2.02-0.01,4.17,1.46,4.76,3.28l0,0C1548.89,855.7,1547.72,857.2,1545.7,857.21z"/>
		<path class="st4" d="M1568.34,926.16l-104.96,0.61c-2.02,0.01-4.17-1.46-4.76-3.28l0,0c-0.6-1.82,0.57-3.31,2.59-3.32l104.96-0.61
			c2.02-0.01,4.17,1.47,4.76,3.28l0,0C1571.54,924.65,1570.37,926.15,1568.34,926.16z"/>
		<path class="st4" d="M1590.15,992.56l-104.96,0.61c-2.02,0.01-4.17-1.46-4.76-3.28l0,0c-0.6-1.82,0.57-3.31,2.59-3.32l104.96-0.61
			c2.02-0.01,4.17,1.46,4.76,3.28l0,0C1593.34,991.05,1592.18,992.55,1590.15,992.56z"/>
		<path class="st4" d="M1614.7,1067.31l-104.96,0.61c-2.02,0.01-4.17-1.46-4.76-3.28l0,0c-0.6-1.82,0.57-3.31,2.59-3.32l104.96-0.61
			c2.02-0.01,4.17,1.46,4.76,3.28l0,0C1617.9,1065.81,1616.73,1067.3,1614.7,1067.31z"/>
		<path class="st4" d="M1640.4,1145.55l-104.96,0.61c-2.02,0.01-4.17-1.46-4.76-3.28l0,0c-0.6-1.82,0.57-3.31,2.6-3.32l104.96-0.61
			c2.02-0.01,4.17,1.46,4.76,3.28l0,0C1643.59,1144.05,1642.43,1145.54,1640.4,1145.55z"/>
	</g>
	<g>
		<path class="st4" d="M1414.45,621.94L1414.45,621.94c-0.82,0.16-1.63-0.38-1.79-1.21l-1.68-8.68c-0.16-0.82,0.38-1.63,1.21-1.79
			l0,0c0.82-0.16,1.63,0.38,1.79,1.21l1.68,8.68C1415.82,620.98,1415.28,621.78,1414.45,621.94z"/>
		
			<rect x="1410.05" y="595.52" transform="matrix(0.9818 -0.19 0.19 0.9818 -88.6666 278.9711)" class="st4" width="1.05" height="12.77"/>
		<path class="st5" d="M1409.88,524.95c0,0-0.99-8.64-3.09-11.94c-2.09-3.3-10.01-5.42-10.51-4.94c-1.55,1.5,4.58,6.81,4.82,8.76
			c0.24,1.96-3.11,0.6-1.5,4.41c1.36,3.22,5.84,7.39,5.84,7.39L1409.88,524.95z"/>
		<path class="st7" d="M1406.07,523.99c2.89-2.26,3.5-2.22,3.5-2.22s26.69,23.12,29.29,25.18c2.6,2.06,42.68,13.68,42.68,13.68
			l6.37,32.59c0,0-54.24-26.2-60.72-31.54c-10.71-8.83-24.22-33.56-24.22-33.56S1403.8,525.77,1406.07,523.99z"/>
		<path class="st4" d="M1482.4,837.16c0,0-0.46,11.14-2.6,13.84l-29.75,0.17c0.21-1.15,0.33-3.8,4.45-4.52
			c5.2-0.9,11.3-4.53,14.45-11.4C1472.26,828.02,1482.4,837.16,1482.4,837.16z"/>
		<path class="st4" d="M1540.78,835.55c0,0,2.07,14.8-0.74,15.05c-0.37,0.03-11.99,0.22-17.02,0.31c-5.92,0.1-15.63-0.11-15.63-0.11
			c-1.22,0.05-2.02-1.27-1.4-2.33c0.68-1.16,1.99-2.39,4.47-2.87c5.18-1,13.81-4.8,16.84-11.73
			C1530.48,826.6,1540.78,835.55,1540.78,835.55z"/>
		<path class="st4" d="M1466.93,683.94c0,0,8.27,28.95,31.98,79.21c23.71,50.27,24.73,74.49,24.73,74.49s3.59,1.27,8.35,0.76
			c5.15-0.55,8.79-2.85,8.79-2.85s-1.54-59.83-12.73-85.2c-11.2-25.37-13.48-94.78-13.48-94.78L1466.93,683.94z"/>
		<path class="st6" d="M1453.65,659.03c0,0-0.66,44.82,7.1,99.85c7.76,55.03,4.13,80.63,4.13,80.63s2.06,1.5,8.38,1.47
			c7.4-0.03,11.19-3.09,11.19-3.09s11.1-55.05,7.92-82.6s15.2-94.52,15.2-94.52L1453.65,659.03z"/>
		<path class="st5" d="M1490.3,554.14l-8.76,6.49l-12.66-2.67c0.18-1.15,1.01-5.94,1.77-10.27c0.05-0.26,0.09-0.51,0.14-0.76
			c0.65-3.69,1.21-6.86,1.21-6.86l11.82-5.89l4.41-2.2c-0.01,0.08-0.34,4.09-0.39,4.68C1487.02,547.07,1490.3,554.14,1490.3,554.14z
			"/>
		<path class="st3" d="M1515.39,664.57c-2.86,13.1-64.17,7.35-63.37-0.65c0.03-0.27,0.19-3.97,0.41-8.96
			c0.47-10.79,1.17-27.65,1.26-28.97c0-0.02,0.01-0.05,0.01-0.07c1.1-11.14,2.16-22.03,2.23-29.14c0.06-6.17,0.91-12.48,2.04-18.2
			c1.04-5.29,2.32-10.08,3.44-13.82c0.78-2.64,2.25-4.95,4.18-6.77c1.38-1.29,2.99-2.34,4.78-3.05c0.49-0.21,0.98-0.37,1.48-0.52
			c7.21-2.09,17.2-4.68,19.9-3.89c7.33,2.16,12.77,15.06,16.63,31.5C1515.59,612.81,1517.26,656.03,1515.39,664.57z"/>
		<path class="st8" d="M1486.96,536.85c-2.6,4.97-12.27,9.27-16.31,10.85c0.05-0.26,0.09-0.51,0.14-0.76
			c0.65-3.69,1.21-6.86,1.21-6.86l11.82-5.89C1486.44,534.14,1488.03,534.8,1486.96,536.85z"/>
		<path class="st5" d="M1466.25,539.38c0,0,21.33,6.65,25.27-6.69c3.94-13.35,9.35-21.48-4.11-26.29
			c-13.45-4.81-17.62-0.5-20.02,3.63C1465,514.16,1460.8,537.31,1466.25,539.38z"/>
		<path class="st4" d="M1468.24,508.74c0,0,1.36,15.53,4.57,14.86c3.21-0.67,6.13-1.17,5.66,3.51c-0.47,4.68-4.92,10.09,4.98,10.92
			c9.9,0.83,24.13-24.7,21.41-29.54C1497.01,494.54,1456.9,491.72,1468.24,508.74z"/>
		<path class="st7" d="M1452.43,654.96c0.47-10.79,1.17-27.65,1.26-28.97c0-0.02,0.01-0.05,0.01-0.07l36.22-21.65
			C1489.92,604.27,1491.32,654.82,1452.43,654.96z"/>
		<path class="st5" d="M1423.64,609.65c0,0-7.36-4.98-8.76-5.41c-1.4-0.43-5.97-0.9-6.19-0.54c-0.21,0.36-0.84,1.46-0.04,1.84
			c0.8,0.37,1.8,0.24,1.5,0.5c-0.3,0.26-3.31-1.17-4,0.36c-0.69,1.53-1.3,6.79,2.23,8.38c3.53,1.59,12.24,0.15,12.87,0.34
			C1426.58,616.67,1423.64,609.65,1423.64,609.65z"/>
		<path class="st3" d="M1423.57,608.3c0,0,35.92,6.11,39.11,4.56c5.08-2.47-1.97-38.92-1.97-38.92s-0.3-8.26,9.35-10.21
			c8.39-1.69,16.47,4.59,16.47,4.59s7.36,6.58,6.42,13.88c-2.08,16.19-5.33,49.1-16.15,54.15c-13.96,6.51-54.37-18.05-54.37-18.05
			s-1.35-1.65-1.15-4.71C1421.44,610.9,1423.57,608.3,1423.57,608.3z"/>
		<path class="st5" d="M1399.44,520.82c0,0-2.3-4.57-2.67-5.43c-0.37-0.86,0.53-0.67,1.41-0.19c0.89,0.48,2.09,3.13,3.46,2.81
			C1402.72,517.75,1399.44,520.82,1399.44,520.82z"/>
	</g>
</g>
</svg>
