<svg fill="none" height="60" viewBox="0 0 180 60" width="180" xmlns="http://www.w3.org/2000/svg" xmlns:xlink="http://www.w3.org/1999/xlink"><clipPath id="a"><path d="m0 4.03857h109v41.9231h-109z"/></clipPath><g clip-path="url(#a)" clip-rule="evenodd" fill-rule="evenodd"><path d="m5.44986 27.6876c-3.00517 0-5.44986 2.4109-5.44986 5.3747 0 2.9637 2.44469 5.3748 5.44986 5.3748 3.00519 0 5.45014-2.4111 5.45014-5.3748 0-2.9638-2.44495-5.3747-5.45014-5.3747z" fill="#fd5a1f"/><g fill="#262c48"><path d="m25.2154 23.6822c-.8076-.1628-1.6012-.2345-2.3693-.2947-2.4149-.1904-2.9812-.503-3.2266-1.1918-.0525-.1477-.1037-.5229.1497-.9111.4241-.6505 1.4825-1.0175 2.9033-1.0067 1.3175.0102 2.5218.5268 3.6987 1.0566 1.5966.8052 3.4841.2121 4.2608-1.4192.6033-1.2665.4292-3.1439-1.5026-4.3259-1.9981-1.2225-4.1123-1.8587-6.4097-1.876-4.93-.0376-7.2826 2.4349-8.2458 3.9119-1.377 2.1112-1.6604 4.832-.7397 7.1011 1.882 4.6369 6.0808 4.9916 8.5898 5.204.621.0523 1.2075.1019 1.6657.1941 1.2854.2591 1.2555 1.2427 1.2365 1.4371-.0847.8662-1.0981 1.397-2.6445 1.3852-1.6757-.0127-3.2496-.72-4.3992-1.959-.2244-.2417-.5902-.2678-.8447-.0598l-4.0184 3.2874c-.28.229-.3213.6545-.0847.9307 2.3612 2.7556 5.7145 4.3379 9.2997 4.3654 2.4836.0186 4.656-.692 6.2825-2.0552 1.5756-1.3204 2.5539-3.1803 2.7553-5.2369.1866-1.9076-.3138-3.8128-1.4094-5.3641-1.1556-1.6361-2.9127-2.763-4.9474-3.1731z"/><path d="m51.1266 15.5376c-2.7726-1.604-6.0368-2.0524-9.0851-1.3475v-6.54103c0-1.99385-1.4987-3.61037-3.461-3.61037s-3.461 1.61652-3.461 3.61037v10.90853c-1.0714 1.337-1.8346 2.8433-2.2848 4.4232-.5301 1.8586.5683 3.7039 2.2848 4.25v10.5716c0 .3506.2814.6347.6291.6347h5.6638c.3476 0 .6291-.2841.6291-.6347v-16.1965c1.3673-.8192 3.0189-1.0441 4.4783-.5216 2.1485.7695 2.1485 3.2101 2.1485 6.3128v10.4053c0 .3506.2816.6347.6293.6347h5.6638c.3475 0 .6291-.2841.6291-.6347v-12.1559c0-7.8976-4.4639-10.1089-4.4639-10.1089z"/><path d="m70.8498 32.3907c-3.2308 0-5.8591-2.5922-5.8591-5.7784 0-3.1863 2.6283-5.7782 5.8591-5.7782s5.8594 2.5919 5.8594 5.7782c0 3.1862-2.6286 5.7784-5.8594 5.7784zm-.0002-18.6777c-7.2123 0-13.0798 5.7864-13.0798 12.8993 0 7.1126 5.8675 12.8995 13.0798 12.8995 7.2122 0 13.0802-5.7869 13.0802-12.8995 0-7.1129-5.868-12.8993-13.0802-12.8993z"/><path d="m101.961 27.5447c-.182 2.7823-2.506 5.0263-5.3642 5.1827-1.082.0591-2.1028-.1788-2.987-.6353v-7.2892c0-2.1544 1.1838-3.1646 2.6322-3.1716h.0288c3.2669 0 5.9012 2.6887 5.6902 5.9134zm7.029-.8494c-.251-6.3354-5.489-11.5311-11.9892-11.887-1.9178-.105-3.7506.2068-5.4123.85-3.0548 1.1826-5.0053 3.8335-5.0053 7.944v3.019c-.7933.1467-1.5004.574-1.9964 1.2211-.6283.8191-.8173 1.853-.519 2.8369.502 1.653 1.3695 3.2131 2.5154 4.5263v.0043 10.1303c0 .3434.2858.6217.6384.6217h5.7496c.3525 0 .6386-.2783.6386-.6217v-6.0375c.8589.179 1.748.2764 2.661.2764 7.1852 0 12.9982-5.8277 12.7192-12.8838z"/></g></g></svg>