<svg fill="none" height="60" viewBox="0 0 180 60" width="180" xmlns="http://www.w3.org/2000/svg" xmlns:xlink="http://www.w3.org/1999/xlink"><clipPath id="a"><path d="m0 16h104v28.458h-104z"/></clipPath><g clip-path="url(#a)"><g fill="#3d3d3d"><path d="m63.3816 29.8857c-1.273-5.226-6.1305-8.8105-11.9929-8.8105-.9213-.0167-1.8258.067-2.7303.2345-8.4084 1.5243-12.5121 11.0717-7.7049 17.9894 2.7972 4.02 8.0399 5.9127 13.3162 4.7905 6.6329-1.407 10.6864-7.7217 9.1119-14.2039zm-12.0097 7.8724c-2.6297.0168-4.7402-2.2445-4.7234-5.092 0-2.8474 1.9597-4.9412 4.6229-4.9412 2.6633 0 4.7737 2.2445 4.757 5.0752 0 2.7973-2.0267 4.9413-4.6565 4.958z"/><path d="m103.665 40.3877c-2.462 2.814-5.6113 4.087-9.313 4.0703-4.288 0-7.9394-1.3903-10.3849-5.092-3.7855-5.7452-1.9597-15.6109 6.2142-17.9391 3.3165-.938 6.6329-.67 9.7987.7035 2.295.9882 3.551 2.8475 3.886 5.3264.05.2178.017.5695.017.5695s-.486-.1507-1.692-.3015c-1.022-.1172-1.709-.0837-1.709-.0837s-.1-.134-.284-.4858c-.486-.9715-1.3235-1.5075-2.4123-1.5242-2.4789-.0335-4.9579-.0335-7.4369-.0168-.9213 0-1.4237.5528-1.4237 1.474-.0168.9715-.0168 1.943 0 2.9145.0167.8543.5359 1.407 1.4069 1.4238 2.479.0167 4.958.0335 7.437 0 1.4237-.0168 2.596-1.139 2.697-2.5795.05-.6198 0-.737 0-.737s.77 0 1.758.1172c.905.1005 1.742.3015 1.742.3015s.034.2848-.05.8375c-.502 3.6347-2.613 5.494-6.2978 5.494-2.3449 0-4.6732 0-7.0182 0-.8877 0-.8877 0-.5192.8542 1.0385 2.4288 3.8525 3.4673 6.6329 2.4623.9548-.3518 1.7923-.9045 2.5125-1.5913"/><path d="m36.9502 27.5406c-1.139-.0335-2.8475-.0168-3.9865-.0503-.5192-.0167-.67.1508-.6532.6533.0335 2.3617 0 4.7067.0167 7.0684.0168 1.7755.6533 2.3953 2.4288 2.412.7872 0 2.3114.0503 2.3114.0503s.7203 1.273 1.1055 1.9262c1.0553 1.7922 2.412 3.3165 4.1038 4.5392-.1508.2848-.402.1508-.5863.1508-3.3332.0167-6.6832 0-10.0164 0-.7873 0-1.5578-.067-2.3115-.2513-3.0485-.7035-4.6732-2.747-4.891-6.1974-.0335-.67-.0335-1.3233-.0335-1.9933 0-6.6162.0168-13.2491.0168-19.8653 2.613 0 5.2259 0 7.8389-.0168.0168 1.4908.0503 2.9983.0168 4.489-.0168.5695.1842.7035.7035.67 1.139-.0335 2.8475.0335 3.9864 0"/><path d="m19.0447 28.4953c-1.6918-.9045-4.0703-1.7587-6.03-1.8592-.3852-.0168-.7705 0-1.1557.1005-.4523.134-.8208.3685-.871.8877-.0335.4858.2345.7873.6197.9883.8878.4857 1.8593.737 2.814 1.0217 1.5242.4523 3.0317.8878 4.4555 1.608 2.4789 1.2395 3.8189 3.149 3.6849 5.963-.134 2.7804-1.34 4.8742-3.9027 6.0969-2.479 1.1893-5.1087 1.1893-7.7719.8878-.603-.067-1.18927-.201-1.94301-.335 1.35671-1.7588 1.59121-3.5678.85424-5.6113 1.33997.3685 2.57947.6198 3.86927.5528.3014-.0168.6029-.0503.9044-.134.469-.134.7705-.4355.8208-.938.0502-.4857-.2345-.7872-.6198-.9882-.8542-.4858-1.8089-.7035-2.7469-.9548-1.4908-.4187-2.99827-.8207-4.40526-1.5075-2.26123-1.0887-3.66822-2.7805-3.75197-5.3934-.08375-2.9145 1.03849-5.159 3.65148-6.5827 2.22773-1.206 4.62295-1.3233 7.06845-1.1055 2.4287.2177 5.293 1.1725 7.4369 2.345"/><path d="m73.4483 21.159c-.0335 1.1223 0 3.2328 0 4.5895.3852-.6532.6365-1.0887.9044-1.5242 1.3065-2.0435 3.1658-3.1155 5.6448-3.0988 1.8592.0168 3.7184 0 5.8289 0-1.0385.67-1.8425 1.2228-2.5125 1.943-1.5577 1.6248-2.5627 3.5343-3.0149 5.7285-.0503.2345-.1005.5527-.1005.5527s-.3853.0335-.5863.0503c-3.7855.268-5.6782 2.1272-6.0299 5.8792-.2513 2.7637-.0838 5.5275-.1005 8.3079v.737h-7.906s0-.1005 0-.6365c.0168-7.2024.0168-15.3931 0-22.5956"/></g><path d="m0 40.3878c0-2.278 1.70849-3.9697 4.01997-3.953 2.21098.0168 3.98647 1.7588 4.00322 3.953s-1.82574 4.0367-4.03672 4.0367c-2.24448 0-3.98647-1.7587-3.98647-4.0367z" fill="#00acb3"/><path d="m99.2932 27.926c-.1842.2345-.4187.201-.6867.1843-.1842-.0168-.3182.0837-.3852.2512-.067.1508 0 .268.1005.3685.1675.1508.3517.1508.5192.0168.201-.1508.4355-.5025.6197-.1173.134.268-.1675.5695-.469.6868-.4689.1842-.8877.1172-1.1724-.3183-.3015-.4522-.2345-.9045.201-1.2562.402-.3518.7369-.2848 1.2729.1842z" fill="#0db1b7"/></g></svg>